<svg width="19" height="20" viewBox="0 0 19 20" fill="none" xmlns="http://www.w3.org/2000/svg">
<path d="M5.91667 2.875H4.375C3.27043 2.875 2.375 3.77043 2.375 4.875V6.41667C2.375 7.52124 3.27043 8.41667 4.375 8.41667H5.91667C7.02124 8.41667 7.91667 7.52124 7.91667 6.41667V4.875C7.91667 3.77043 7.02124 2.875 5.91667 2.875Z" fill="#282828"/>
<path d="M14.6257 2.875H13.084C11.9794 2.875 11.084 3.77043 11.084 4.875V6.41667C11.084 7.52124 11.9794 8.41667 13.084 8.41667H14.6257C15.7302 8.41667 16.6257 7.52124 16.6257 6.41667V4.875C16.6257 3.77043 15.7302 2.875 14.6257 2.875Z" fill="#282828"/>
<path d="M14.6257 11.5833H13.084C11.9794 11.5833 11.084 12.4787 11.084 13.5833V15.125C11.084 16.2295 11.9794 17.125 13.084 17.125H14.6257C15.7302 17.125 16.6257 16.2296 16.6257 15.125V13.5833C16.6257 12.4787 15.7302 11.5833 14.6257 11.5833Z" fill="#282828"/>
<path d="M5.91667 11.5833H4.375C3.27043 11.5833 2.375 12.4787 2.375 13.5833V15.125C2.375 16.2295 3.27043 17.125 4.375 17.125H5.91667C7.02124 17.125 7.91667 16.2296 7.91667 15.125V13.5833C7.91667 12.4787 7.02124 11.5833 5.91667 11.5833Z" fill="#282828"/>
</svg>
