<svg width="19" height="20" viewBox="0 0 19 20" fill="none" xmlns="http://www.w3.org/2000/svg">
<path d="M14.25 17.125C15.5617 17.125 16.625 16.0617 16.625 14.75C16.625 13.4383 15.5617 12.375 14.25 12.375C12.9383 12.375 11.875 13.4383 11.875 14.75C11.875 16.0617 12.9383 17.125 14.25 17.125Z" fill="#282828"/>
<path d="M4.75 7.625C6.06168 7.625 7.125 6.56168 7.125 5.25C7.125 3.93832 6.06168 2.875 4.75 2.875C3.43832 2.875 2.375 3.93832 2.375 5.25C2.375 6.56168 3.43832 7.625 4.75 7.625Z" fill="#282828"/>
<path d="M10.291 5.25H12.666C13.0859 5.25 13.4887 5.41681 13.7856 5.71375C14.0825 6.01068 14.2493 6.41341 14.2493 6.83333V12.375" stroke="#282828" stroke-width="1.25" stroke-linecap="round" stroke-linejoin="round"/>
<path d="M4.75 7.625V17.125" stroke="#282828" stroke-width="1.25" stroke-linecap="round" stroke-linejoin="round"/>
</svg>
