<svg width="19" height="20" viewBox="0 0 19 20" fill="none" xmlns="http://www.w3.org/2000/svg">
<path d="M11.4785 8.41665C10.8214 8.41665 10.291 7.88623 10.291 7.22915V3.27081C10.291 2.61373 10.8214 2.08331 11.4785 2.08331C12.1356 2.08331 12.666 2.61373 12.666 3.27081V7.22915C12.666 7.88623 12.1356 8.41665 11.4785 8.41665Z" fill="#282828"/>
<path d="M16.2285 8.41669H15.041V7.22919C15.041 6.5721 15.5714 6.04169 16.2285 6.04169C16.8856 6.04169 17.416 6.5721 17.416 7.22919C17.416 7.88627 16.8856 8.41669 16.2285 8.41669Z" fill="#282828"/>
<path d="M7.52148 11.5833C8.17857 11.5833 8.70898 12.1137 8.70898 12.7708V16.7291C8.70898 17.3862 8.17857 17.9166 7.52148 17.9166C6.8644 17.9166 6.33398 17.3862 6.33398 16.7291V12.7708C6.33398 12.1137 6.8644 11.5833 7.52148 11.5833Z" fill="#282828"/>
<path d="M2.77148 11.5833H3.95898V12.7708C3.95898 13.4279 3.42857 13.9583 2.77148 13.9583C2.1144 13.9583 1.58398 13.4279 1.58398 12.7708C1.58398 12.1137 2.1144 11.5833 2.77148 11.5833Z" fill="#282828"/>
<path d="M11.084 11.9792C11.084 11.3221 11.6144 10.7917 12.2715 10.7917H16.2298C16.8869 10.7917 17.4173 11.3221 17.4173 11.9792C17.4173 12.6363 16.8869 13.1667 16.2298 13.1667H12.2715C11.6144 13.1667 11.084 12.6363 11.084 11.9792Z" fill="#282828"/>
<path d="M12.2715 15.5417H11.084V16.7292C11.084 17.3863 11.6144 17.9167 12.2715 17.9167C12.9286 17.9167 13.459 17.3863 13.459 16.7292C13.459 16.0721 12.9286 15.5417 12.2715 15.5417Z" fill="#282828"/>
<path d="M7.91732 8.02081C7.91732 7.36373 7.3869 6.83331 6.72982 6.83331H2.77148C2.1144 6.83331 1.58398 7.36373 1.58398 8.02081C1.58398 8.6779 2.1144 9.20831 2.77148 9.20831H6.72982C7.3869 9.20831 7.91732 8.6779 7.91732 8.02081Z" fill="#282828"/>
<path d="M6.72852 4.45831H7.91602V3.27081C7.91602 2.61373 7.3856 2.08331 6.72852 2.08331C6.07143 2.08331 5.54102 2.61373 5.54102 3.27081C5.54102 3.9279 6.07143 4.45831 6.72852 4.45831Z" fill="#282828"/>
</svg>
