<svg width="19" height="20" viewBox="0 0 19 20" fill="none" xmlns="http://www.w3.org/2000/svg">
<path d="M13.4577 17.125V15.5417C13.4577 14.7018 13.1241 13.8964 12.5302 13.3025C11.9363 12.7086 11.1309 12.375 10.291 12.375H3.95768C3.11783 12.375 2.31238 12.7086 1.71851 13.3025C1.12465 13.8964 0.791016 14.7018 0.791016 15.5417V17.125" fill="#282828"/>
<path d="M7.12565 9.20833C8.87455 9.20833 10.2923 7.79057 10.2923 6.04167C10.2923 4.29276 8.87455 2.875 7.12565 2.875C5.37675 2.875 3.95898 4.29276 3.95898 6.04167C3.95898 7.79057 5.37675 9.20833 7.12565 9.20833Z" fill="#282828"/>
<path d="M18.209 17.125V15.5417C18.2085 14.84 17.9749 14.1584 17.5451 13.6039C17.1152 13.0494 16.5133 12.6533 15.834 12.4779" stroke="#282828" stroke-width="1.25" stroke-linecap="round" stroke-linejoin="round"/>
<path d="M12.666 2.97791C13.3472 3.15231 13.9509 3.54846 14.3821 4.1039C14.8132 4.65934 15.0472 5.34248 15.0472 6.04561C15.0472 6.74875 14.8132 7.43188 14.3821 7.98733C13.9509 8.54277 13.3472 8.93892 12.666 9.11332" stroke="#282828" stroke-width="1.25" stroke-linecap="round" stroke-linejoin="round"/>
</svg>
