<svg width="55" height="56" viewBox="0 0 55 56" fill="none" xmlns="http://www.w3.org/2000/svg">
<g clip-path="url(#clip0_140_4323)">
<path d="M47.1706 32.2962L48.6265 37.7295C48.7636 38.2334 48.7964 38.7597 48.7226 39.2748C48.6489 39.7899 48.4703 40.2824 48.1982 40.7208C47.9261 41.1592 47.5667 41.5337 47.1428 41.8205C46.7189 42.1073 46.2399 42.2999 45.7365 42.3862C40.125 43.2407 34.3804 42.7389 28.9642 40.921C23.9404 39.2868 19.3187 36.5488 15.4273 32.9013C11.1685 28.9784 7.86457 24.0981 5.78328 18.6557C5.60483 18.1668 5.52778 17.6464 5.55702 17.1278C5.58627 16.6091 5.72118 16.1036 5.95316 15.6434C6.18514 15.1832 6.50911 14.7783 6.90444 14.4546C7.29977 14.1309 7.75781 13.8955 8.24938 13.7632L13.562 12.3397C14.4191 12.1008 15.3356 12.1888 16.1408 12.5873C16.946 12.9859 17.5849 13.6677 17.9384 14.5059C18.6285 16.1846 19.5018 17.7804 20.5416 19.2629C20.9536 19.8473 21.1939 20.538 21.2342 21.2531C21.2744 21.9683 21.1129 22.6779 20.7687 23.2979L19.136 26.2006C22.8719 30.0593 27.5487 32.83 32.6729 34.2203L34.3056 31.3175C34.6566 30.7016 35.1746 30.2031 35.7981 29.8812C36.4216 29.5594 37.1246 29.4275 37.8238 29.5013C39.5947 29.684 41.378 29.662 43.1396 29.4358C44.0331 29.3294 44.9374 29.562 45.6807 30.0894C46.4239 30.6168 46.9541 31.4022 47.1706 32.2962Z" fill="#282828"/>
</g>
<defs>
<clipPath id="clip0_140_4323">
<rect width="44" height="45" fill="white" transform="translate(0 12.0911) rotate(-15)"/>
</clipPath>
</defs>
</svg>
