<svg width="21" height="21" viewBox="0 0 21 21" fill="none" xmlns="http://www.w3.org/2000/svg">
<g clip-path="url(#clip0_140_4352)">
<path d="M17.8016 8.46704C17.8016 14.3004 10.3016 19.3004 10.3016 19.3004C10.3016 19.3004 2.80164 14.3004 2.80164 8.46704C2.80164 6.47792 3.59181 4.57026 4.99833 3.16374C6.40486 1.75722 8.31251 0.967041 10.3016 0.967041C12.2908 0.967041 14.1984 1.75722 15.6049 3.16374C17.0115 4.57026 17.8016 6.47792 17.8016 8.46704Z" stroke="#C8FF26" stroke-width="1.25" stroke-linecap="round" stroke-linejoin="round"/>
<path d="M10.3016 10.967C11.6823 10.967 12.8016 9.84775 12.8016 8.46704C12.8016 7.08633 11.6823 5.96704 10.3016 5.96704C8.92092 5.96704 7.80164 7.08633 7.80164 8.46704C7.80164 9.84775 8.92092 10.967 10.3016 10.967Z" stroke="#C8FF26" stroke-width="1.25" stroke-linecap="round" stroke-linejoin="round"/>
</g>
<defs>
<clipPath id="clip0_140_4352">
<rect width="20" height="20" fill="white" transform="translate(0.301636 0.133789)"/>
</clipPath>
</defs>
</svg>
