<svg width="28" height="28" viewBox="0 0 28 28" fill="none" xmlns="http://www.w3.org/2000/svg">
<path d="M10.7666 1.09332C10.77 0.844293 10.9349 0.626392 11.1737 0.555592C11.4124 0.484801 11.6694 0.577531 11.808 0.784439L12.359 1.6073L13.9269 3.94874L15.4948 6.29019L15.6745 6.55852C16.0675 7.14542 16.6341 7.59488 17.295 7.8441C17.9871 8.10509 18.7456 8.13251 19.4548 7.92217L19.6607 7.86108L22.2587 7.09052L25.9991 5.9811C26.803 5.74268 27.6479 6.20104 27.8863 7.00488C28.0528 7.56632 27.8816 8.17347 27.4462 8.56516L24.5489 11.172L22.7439 12.796L22.6521 12.8786C22.1326 13.346 21.818 13.9991 21.7763 14.6967C21.7416 15.2767 21.8979 15.8521 22.2212 16.335L22.5068 16.7615L24.0747 19.1029L25.6426 21.4444L26.1992 22.2755C26.3357 22.4793 26.3299 22.7467 26.1847 22.9443C26.0301 23.1548 25.7542 23.2367 25.5098 23.1445L24.6359 22.8149L22.0612 21.8441L19.4866 20.8732L18.1992 20.3878L18.0684 20.3384C17.7357 20.213 17.371 20.1998 17.0301 20.3009C16.6892 20.402 16.3907 20.6119 16.1802 20.8985L16.0974 21.0112L15.283 22.12L13.654 24.3377L12.0251 26.5553L11.4721 27.3081C11.3175 27.5186 11.0417 27.6004 10.7973 27.5083C10.5679 27.4218 10.4172 27.2008 10.4205 26.9556L10.4339 25.9553L10.4716 23.1376L10.5093 20.3199L10.5162 19.8067C10.5239 19.2257 10.3412 18.6581 9.99585 18.1907C9.58053 17.6287 8.96068 17.2528 8.27034 17.1442L8.14838 17.125L5.74975 16.7478L1.89961 16.1424C1.32105 16.0514 0.846419 15.6357 0.679929 15.0742C0.441594 14.2704 0.899964 13.4255 1.70376 13.1871L5.44432 12.0777L8.04228 11.3071L8.24825 11.246C8.95741 11.0357 9.57829 10.5992 10.0162 10.003C10.4343 9.43374 10.6642 8.74806 10.6736 8.04179L10.678 7.71889L10.7157 4.90121L10.7534 2.08353L10.7666 1.09332Z" fill="#282828"/>
</svg>
