<svg width="56" height="56" viewBox="0 0 56 56" fill="none" xmlns="http://www.w3.org/2000/svg">
<g clip-path="url(#clip0_31_3460)">
<path d="M18.857 24.6213L33.3459 20.739M20.7981 31.8658L31.6648 28.954M34.5417 10.7129C35.9827 10.3268 37.518 10.5289 38.81 11.2748C40.102 12.0208 41.0447 13.2494 41.4309 14.6904L45.3131 29.1793C45.6993 30.6203 45.4971 32.1556 44.7512 33.4476C44.0053 34.7396 42.7767 35.6823 41.3357 36.0685L32.2801 38.4949L24.6804 46.3546L23.2246 40.9213L19.6023 41.8919C18.1613 42.278 16.6259 42.0759 15.334 41.3299C14.042 40.584 13.0993 39.3554 12.7131 37.9144L8.83086 23.4255C8.44474 21.9845 8.64688 20.4491 9.3928 19.1572C10.1387 17.8652 11.3673 16.9224 12.8083 16.5363L34.5417 10.7129Z" stroke="#282828" stroke-width="2" stroke-linecap="round" stroke-linejoin="round"/>
</g>
<defs>
<clipPath id="clip0_31_3460">
<rect width="45" height="45" fill="white" transform="translate(0 12.2036) rotate(-15)"/>
</clipPath>
</defs>
</svg>
