<svg width="288" height="167" viewBox="0 0 288 167" fill="none" xmlns="http://www.w3.org/2000/svg">
<g clip-path="url(#clip0_140_4043)">
<mask id="mask0_140_4043" style="mask-type:luminance" maskUnits="userSpaceOnUse" x="-1" y="0" width="289" height="167">
<path d="M287.432 0.680908H-0.353516V166.489H287.432V0.680908Z" fill="white"/>
</mask>
<g mask="url(#mask0_140_4043)">
<path d="M272.246 100.963C262.076 127.22 242.954 150.223 216.394 160.333C212.939 161.646 209.412 162.759 205.829 163.668C186.88 168.486 166.149 166.81 148.681 158.032C141.268 154.304 134.507 149.378 127.067 145.703C119.626 142.028 111.13 139.623 103.031 141.437C96.0583 142.999 90.1752 147.474 84.2518 151.462C70.2882 160.862 53.4982 168.3 36.9634 165.072C29.355 163.588 21.863 159.478 18.3296 152.608C10.5198 137.421 25.2487 119.364 22.2658 102.567C20.357 91.8176 11.6387 83.7675 6.21881 74.2805C-3.05672 58.0531 -1.96022 36.4977 8.91531 21.2922C19.7908 6.0867 39.868 -1.97902 58.2759 1.47038C80.7229 5.6784 97.6941 24.6188 119.521 31.3213C133.172 35.5092 147.992 34.2598 161.029 28.7443C182.094 19.8308 211.032 6.16033 234.737 8.38705C247.342 9.57181 259.706 15.1498 268.026 24.6746C278.543 36.6985 281.696 53.7692 279.942 69.624C278.738 80.3567 276.151 90.8899 272.246 100.963Z" fill="#EBF3FA"/>
<path d="M279.013 121.732C278.545 121.731 278.079 121.675 277.625 121.565C276.188 121.212 274.942 120.327 274.139 119.089C273.335 117.852 273.035 116.354 273.302 114.904C273.566 113.453 274.378 112.159 275.569 111.284C276.759 110.41 278.24 110.021 279.708 110.198C281.176 110.376 282.521 111.105 283.468 112.237C284.417 113.369 284.893 114.82 284.806 116.292C284.717 117.763 284.068 119.146 282.991 120.157C281.915 121.168 280.492 121.731 279.013 121.732ZM279.013 112.767C278.243 112.77 277.502 113.053 276.927 113.563C276.352 114.074 275.985 114.776 275.893 115.538C275.804 116.299 275.994 117.068 276.432 117.699C276.869 118.33 277.522 118.779 278.27 118.963C278.701 119.067 279.151 119.078 279.59 118.996C280.026 118.914 280.44 118.741 280.805 118.487C281.17 118.234 281.479 117.906 281.707 117.526C281.935 117.146 282.083 116.722 282.134 116.282C282.188 115.841 282.145 115.395 282.013 114.971C281.881 114.548 281.66 114.158 281.364 113.826C281.069 113.494 280.709 113.228 280.301 113.045C279.896 112.863 279.458 112.768 279.013 112.767Z" fill="#E7F6FF"/>
<path d="M273.716 127.869C274.045 126.512 273.211 125.145 271.848 124.817C270.487 124.487 269.118 125.321 268.787 126.678C268.458 128.034 269.292 129.401 270.653 129.73C272.016 130.059 273.385 129.226 273.716 127.869Z" fill="#E7F6FF"/>
<path d="M11.9959 121.18C10.4588 121.147 8.99712 120.51 7.92801 119.408C6.85887 118.307 6.26864 116.829 6.28544 115.297C6.30223 113.764 6.92471 112.3 8.01772 111.222C9.11071 110.144 10.586 109.539 12.1234 109.539C13.6608 109.539 15.1361 110.144 16.2291 111.222C17.3221 112.3 17.9446 113.764 17.9614 115.297C17.9782 116.829 17.3879 118.307 16.3188 119.408C15.2497 120.51 13.788 121.147 12.251 121.18H11.9959ZM11.9959 112.217H11.8638C11.0337 112.235 10.2442 112.579 9.66666 113.174C9.08916 113.769 8.77028 114.567 8.77927 115.395C8.78825 116.222 9.12438 117.013 9.71468 117.595C10.305 118.178 11.1018 118.504 11.9321 118.504C12.7624 118.504 13.5592 118.178 14.1495 117.595C14.7398 117.013 15.0759 116.222 15.0849 115.395C15.0939 114.567 14.775 113.769 14.1975 113.174C13.62 112.579 12.8305 112.235 12.0003 112.217H11.9959Z" fill="#E7F6FF"/>
<path d="M7.83425 130.949C9.23321 130.888 10.3184 129.709 10.258 128.314C10.1977 126.919 9.01467 125.837 7.61571 125.897C6.21677 125.958 5.13161 127.137 5.19194 128.532C5.2523 129.927 6.43529 131.009 7.83425 130.949Z" fill="#E7F6FF"/>
<path d="M158.321 27.0662C156.928 27.0674 155.58 26.5714 154.522 25.6677C153.464 24.7641 152.765 23.5126 152.553 22.1398C152.34 20.767 152.627 19.3636 153.362 18.1837C154.097 17.0037 155.232 16.1251 156.56 15.707C157.889 15.2888 159.324 15.3587 160.605 15.904C161.886 16.4492 162.93 17.4339 163.546 18.6796C164.162 19.9254 164.311 21.35 163.965 22.6956C163.619 24.0412 162.801 25.2188 161.66 26.0154C160.681 26.6981 159.516 27.0649 158.321 27.0662ZM158.303 18.1057C157.488 18.1049 156.704 18.4178 156.114 18.9791C155.525 19.5405 155.176 20.307 155.139 21.1189C155.102 21.9309 155.381 22.7256 155.918 23.3375C156.455 23.9493 157.207 24.331 158.019 24.4031C158.831 24.4752 159.64 24.2322 160.276 23.7244C160.913 23.2168 161.328 22.4838 161.436 21.6782C161.544 20.8726 161.336 20.0565 160.855 19.4001C160.375 18.7438 159.658 18.2977 158.856 18.1548C158.674 18.1224 158.489 18.106 158.303 18.1057Z" fill="#E7F6FF"/>
<path d="M146.417 26.7485C147.563 25.9469 147.841 24.3705 147.037 23.2273C146.233 22.0843 144.652 21.8075 143.506 22.609C142.359 23.4107 142.082 24.987 142.885 26.1303C143.689 27.2733 145.271 27.5502 146.417 26.7485Z" fill="#E7F6FF"/>
<path d="M287.423 57.0534C287.423 54.6002 286.445 52.2472 284.706 50.5124C282.965 48.7775 280.606 47.8029 278.145 47.8029C277.939 47.8029 277.735 47.8029 277.534 47.823C277.547 47.6222 277.554 47.4191 277.554 47.2139C277.554 45.8993 277.272 44.5996 276.728 43.4019C276.185 42.204 275.393 41.1355 274.401 40.2675C273.41 39.3996 272.246 38.7521 270.984 38.3683C269.724 37.9844 268.395 37.873 267.088 38.0415C265.779 38.2101 264.524 38.6546 263.4 39.3454C262.279 40.0364 261.317 40.9578 260.581 42.0482C259.845 43.1388 259.35 44.3733 259.128 45.6694C258.909 46.9658 258.967 48.294 259.303 49.5655C258.182 48.7549 256.893 48.2047 255.53 47.9555C254.167 47.7063 252.766 47.7645 251.431 48.1257C250.092 48.4868 248.855 49.1418 247.803 50.0428C246.754 50.9437 245.921 52.0676 245.362 53.3318C244.805 54.5962 244.538 55.9688 244.583 57.3492C244.628 58.7297 244.981 60.0824 245.619 61.3089C246.255 62.5352 247.159 63.6037 248.264 64.4359C249.37 65.2684 250.647 65.8433 252.006 66.1187C252.561 67.5841 253.478 68.8853 254.675 69.9003C255.87 70.915 257.307 71.6105 258.844 71.9213C260.384 72.2321 261.979 72.1482 263.476 71.6774C264.973 71.2064 266.327 70.3639 267.41 69.2289C268.518 70.0625 269.798 70.6377 271.159 70.9121C272.519 71.1868 273.922 71.1538 275.267 70.8155C276.614 70.4773 277.865 69.8423 278.933 68.9578C280 68.0732 280.853 66.9612 281.432 65.7037C283.193 65.0381 284.708 63.8542 285.78 62.3092C286.85 60.7641 287.423 58.9311 287.423 57.0534Z" fill="white"/>
<path d="M42.4884 34.8175C42.4896 33.6022 42.2506 32.3985 41.7851 31.2753C41.3194 30.1521 40.6365 29.1314 39.7749 28.2715C38.9136 27.4116 37.8907 26.7293 36.7647 26.2639C35.6389 25.7982 34.4318 25.5584 33.2129 25.5581C33.007 25.5581 32.8034 25.5581 32.602 25.5782C32.6154 25.3774 32.6221 25.1744 32.6221 24.9691C32.6219 23.6545 32.3406 22.3548 31.7969 21.157C31.2533 19.9592 30.4598 18.8907 29.4694 18.0227C28.4789 17.1548 27.3142 16.5073 26.053 16.1235C24.7918 15.7396 23.463 15.6283 22.1552 15.7967C20.8476 15.9652 19.5908 16.4098 18.469 17.1007C17.3471 17.7916 16.3858 18.713 15.6492 19.8034C14.9126 20.8939 14.4176 22.1285 14.1971 23.4247C13.9767 24.721 14.036 26.0492 14.371 27.3208C13.2497 26.51 11.9605 25.9597 10.5981 25.7107C9.23571 25.4615 7.83465 25.5198 6.49772 25.8808C5.16082 26.242 3.92197 26.8971 2.87212 27.798C1.82227 28.699 0.988057 29.8228 0.430693 31.087C-0.126669 32.3514 -0.393035 33.724 -0.348856 35.1045C-0.304676 36.4847 0.0489283 37.8377 0.686006 39.0639C1.32308 40.2904 2.22747 41.3589 3.33279 42.1912C4.43811 43.0234 5.71632 43.5986 7.07361 43.8739C7.62831 45.338 8.54651 46.6379 9.74225 47.6518C10.938 48.6658 12.3722 49.3606 13.9107 49.6714C15.4491 49.9822 17.0415 49.8985 18.5387 49.4287C20.036 48.9588 21.3892 48.1176 22.4717 46.9842C23.5791 47.8177 24.86 48.3929 26.2199 48.6674C27.5798 48.942 28.9842 48.909 30.3296 48.5705C31.6749 48.2323 32.9272 47.5975 33.9939 46.7129C35.0606 45.8282 35.9148 44.7164 36.4935 43.4589C38.2537 42.7947 39.7698 41.6124 40.8405 40.0691C41.9113 38.5258 42.486 36.6942 42.4884 34.8175Z" fill="white"/>
<path d="M213.17 166.442H79.6874V163.542H213.17C213.556 163.542 213.926 163.695 214.198 163.966C214.471 164.238 214.624 164.607 214.624 164.992C214.624 165.377 214.471 165.745 214.198 166.017C213.926 166.289 213.556 166.442 213.17 166.442Z" fill="#426572"/>
<path d="M73.7172 166.442H65.556C65.1703 166.442 64.8004 166.289 64.5276 166.017C64.2548 165.745 64.1015 165.377 64.1015 164.992C64.1015 164.607 64.2548 164.238 64.5276 163.966C64.8004 163.695 65.1703 163.542 65.556 163.542H73.7172C74.103 163.542 74.4729 163.695 74.7456 163.966C75.0184 164.238 75.1717 164.607 75.1717 164.992C75.1717 165.377 75.0184 165.745 74.7456 166.017C74.4729 166.289 74.103 166.442 73.7172 166.442Z" fill="#426572"/>
<path d="M60.2579 166.442H57.6576C57.2718 166.442 56.9019 166.289 56.6291 166.017C56.3563 165.745 56.2031 165.377 56.2031 164.992C56.2031 164.607 56.3563 164.238 56.6291 163.966C56.9019 163.695 57.2718 163.542 57.6576 163.542H60.2579C60.6437 163.542 61.0136 163.695 61.2864 163.966C61.5591 164.238 61.7124 164.607 61.7124 164.992C61.7124 165.377 61.5591 165.745 61.2864 166.017C61.0136 166.289 60.6437 166.442 60.2579 166.442Z" fill="#426572"/>
<path d="M259.974 166.442H218.947V163.542H259.974C260.359 163.542 260.731 163.695 261.004 163.966C261.277 164.238 261.429 164.607 261.429 164.992C261.429 165.377 261.277 165.745 261.004 166.017C260.731 166.289 260.359 166.442 259.974 166.442Z" fill="#426572"/>
<path d="M50.2207 166.442H9.19135V163.542H50.2207C50.6065 163.542 50.9764 163.695 51.2492 163.966C51.522 164.238 51.6753 164.607 51.6753 164.992C51.6753 165.377 51.522 165.745 51.2492 166.017C50.9764 166.289 50.6065 166.442 50.2207 166.442Z" fill="#426572"/>
<path d="M158.976 39.6859V165.15H22.6601V39.6859C22.6626 39.0068 22.9342 38.3562 23.4158 37.8758C23.8976 37.3956 24.5501 37.1248 25.2313 37.1223H156.402C156.557 37.1223 156.711 37.1366 156.863 37.1647C157.455 37.2734 157.99 37.5851 158.376 38.0454C158.761 38.5056 158.974 39.086 158.976 39.6859Z" fill="white"/>
<path d="M24.8039 49.5165H159.403V40.5026L156.83 37.1223H38.951H25.2336L23.0898 40.5026V49.5165H24.8039Z" fill="#E2F2FF"/>
<path d="M160.745 166.488H21.746V39.6858C21.7472 38.6512 22.16 37.6594 22.8938 36.9278C23.6273 36.1962 24.6222 35.7846 25.6599 35.7834H156.829C157.866 35.7846 158.861 36.1962 159.595 36.9278C160.328 37.6594 160.741 38.6512 160.742 39.6858L160.745 166.488ZM24.4313 163.811H158.059V39.6858C158.059 39.3611 157.929 39.0499 157.699 38.8203C157.469 38.5907 157.156 38.4615 156.831 38.4609H25.6599C25.3343 38.4615 25.0221 38.5907 24.7919 38.8203C24.5616 39.0499 24.432 39.3611 24.4313 39.6858V163.811Z" fill="#426572"/>
<path d="M30.917 45.5095C31.8638 45.5095 32.6311 44.7442 32.6311 43.8004C32.6311 42.8564 31.8638 42.0913 30.917 42.0913C29.9704 42.0913 29.2029 42.8564 29.2029 43.8004C29.2029 44.7442 29.9704 45.5095 30.917 45.5095Z" fill="#CADCE8"/>
<path d="M36.0598 45.5092C37.0066 45.5092 37.7739 44.7439 37.7739 43.8001C37.7739 42.8561 37.0066 42.0911 36.0598 42.0911C35.1132 42.0911 34.3456 42.8561 34.3456 43.8001C34.3456 44.7439 35.1132 45.5092 36.0598 45.5092Z" fill="#CADCE8"/>
<path d="M41.2043 45.5092C42.1511 45.5092 42.9184 44.7439 42.9184 43.8001C42.9184 42.8561 42.1511 42.0911 41.2043 42.0911C40.2577 42.0911 39.4902 42.8561 39.4902 43.8001C39.4902 44.7439 40.2577 45.5092 41.2043 45.5092Z" fill="#CADCE8"/>
<path d="M152.7 42.0891H48.4447C47.6414 42.0891 46.9902 42.7384 46.9902 43.5394V44.057C46.9902 44.858 47.6414 45.5073 48.4447 45.5073H152.7C153.503 45.5073 154.154 44.858 154.154 44.057V43.5394C154.154 42.7384 153.503 42.0891 152.7 42.0891Z" fill="#CADCE8"/>
<path d="M249.633 15.3236V165.15H113.324V15.3236C113.327 14.6444 113.598 13.9937 114.08 13.5135C114.561 13.0332 115.214 12.7624 115.895 12.76H247.064C247.218 12.7601 247.373 12.7742 247.525 12.8024C248.116 12.9121 248.651 13.224 249.035 13.6843C249.42 14.1446 249.631 14.7244 249.633 15.3236Z" fill="white"/>
<path d="M115.464 25.1541H250.063V16.14L247.49 12.7598H129.611H118.038L113.75 16.14V25.1541H115.464Z" fill="#E2F2FF"/>
<path d="M251.396 166.488H112.408V15.3235C112.409 14.2889 112.822 13.297 113.556 12.5654C114.289 11.8338 115.284 11.4223 116.322 11.4211H247.491C248.527 11.4247 249.52 11.8372 250.252 12.5686C250.984 13.2999 251.393 14.2904 251.396 15.3235V166.488ZM115.082 163.811H248.71V15.3235C248.71 14.9988 248.58 14.6876 248.35 14.458C248.119 14.2284 247.808 14.0992 247.482 14.0986H116.322C115.996 14.0992 115.684 14.2284 115.454 14.458C115.224 14.6876 115.094 14.9988 115.093 15.3235L115.082 163.811Z" fill="#426572"/>
<path d="M121.577 21.1479C122.524 21.1479 123.291 20.3827 123.291 19.4388C123.291 18.4949 122.524 17.7297 121.577 17.7297C120.631 17.7297 119.863 18.4949 119.863 19.4388C119.863 20.3827 120.631 21.1479 121.577 21.1479Z" fill="#CADCE8"/>
<path d="M126.72 21.1477C127.667 21.1477 128.434 20.3825 128.434 19.4386C128.434 18.4947 127.667 17.7295 126.72 17.7295C125.773 17.7295 125.006 18.4947 125.006 19.4386C125.006 20.3825 125.773 21.1477 126.72 21.1477Z" fill="#CADCE8"/>
<path d="M131.865 21.1477C132.811 21.1477 133.579 20.3825 133.579 19.4386C133.579 18.4947 132.811 17.7295 131.865 17.7295C130.918 17.7295 130.151 18.4947 130.151 19.4386C130.151 20.3825 130.918 21.1477 131.865 21.1477Z" fill="#CADCE8"/>
<path d="M243.362 17.7297H139.107C138.303 17.7297 137.652 18.379 137.652 19.18V19.6976C137.652 20.4986 138.303 21.1479 139.107 21.1479H243.362C244.165 21.1479 244.816 20.4986 244.816 19.6976V19.18C244.816 18.379 244.165 17.7297 243.362 17.7297Z" fill="#CADCE8"/>
<path d="M158.198 41.2058H130.17V73.047H158.198V41.2058Z" fill="#9DD005"/>
<path d="M227.301 41.2057H160.844V73.0469H227.301V41.2057Z" fill="#9DD005"/>
<path d="M227.302 76.5715H195.924V108.413H227.302V76.5715Z" fill="#DDE4ED"/>
<path d="M193.277 76.5715H130.523V108.413H193.277V76.5715Z" fill="#DDE4ED"/>
<path d="M227.477 111.939H130.523V143.78H227.477V111.939Z" fill="#DDE4ED"/>
<path d="M58.1172 118.944H36.2968V121.175H58.1172V118.944Z" fill="#DDE4ED"/>
<path d="M58.1172 124.928H36.2968V127.159H58.1172V124.928Z" fill="#DDE4ED"/>
<path d="M58.1172 130.91H36.2968V133.142H58.1172V130.91Z" fill="#DDE4ED"/>
<path d="M58.1172 136.895H36.2968V139.126H58.1172V136.895Z" fill="#DDE4ED"/>
<path d="M58.1172 142.878H36.2968V145.109H58.1172V142.878Z" fill="#DDE4ED"/>
<path d="M58.1172 148.862H36.2968V151.093H58.1172V148.862Z" fill="#DDE4ED"/>
<path d="M47.6046 102.924L51.919 95.5481L58.6032 101.139V106.247H40.0566L44.5858 100.01L47.6046 102.924Z" fill="#DDE4ED"/>
<path d="M67.1392 99.4416H60.6699V91.5923L61.9633 90.3562L67.1392 95.624V99.4416Z" fill="#DDE4ED"/>
<path d="M43.1176 98.7993C43.8167 98.7988 44.4999 98.5916 45.0808 98.204C45.6618 97.8162 46.1142 97.2656 46.3812 96.6212C46.6479 95.9771 46.7173 95.2684 46.5801 94.585C46.443 93.9016 46.1057 93.274 45.6107 92.7818C45.1157 92.2896 44.4856 91.9549 43.7997 91.8199C43.1141 91.6849 42.4033 91.7557 41.758 92.0234C41.1126 92.2911 40.5614 92.7438 40.1741 93.324C39.7867 93.9041 39.5806 94.5859 39.582 95.2829C39.5867 96.2156 39.9611 97.1085 40.6232 97.7671C41.2856 98.426 42.1823 98.7968 43.1176 98.7993Z" fill="#DDE4ED"/>
<path opacity="0.2" d="M199.911 71.1996V163.441H63.5978V71.1996C63.5895 70.5099 63.8551 69.8448 64.3369 69.3499C64.8187 68.8548 65.4773 68.5701 66.169 68.5579H197.338C198.03 68.5695 198.689 68.8542 199.171 69.349C199.654 69.8441 199.92 70.5095 199.911 71.1996Z" fill="#606060"/>
<path d="M194.981 75.5883V165.15H58.6679V75.5883C58.6704 74.9091 58.9418 74.2585 59.4236 73.7781C59.9052 73.298 60.5579 73.0271 61.2391 73.0247H192.408C192.562 73.0247 192.717 73.0389 192.869 73.0671C193.46 73.1759 193.995 73.4874 194.381 73.9477C194.767 74.4082 194.979 74.9885 194.981 75.5883Z" fill="white"/>
<path d="M60.8117 85.416H195.409V76.402L192.837 73.0217H74.9566H60.1695L59.0976 76.402V85.416H60.8117Z" fill="#E2F2FF"/>
<path d="M66.9231 80.9834C67.8696 80.9834 68.6372 80.2181 68.6372 79.2743C68.6372 78.3303 67.8696 77.5652 66.9231 77.5652C65.9763 77.5652 65.2089 78.3303 65.2089 79.2743C65.2089 80.2181 65.9763 80.9834 66.9231 80.9834Z" fill="#CADCE8"/>
<path d="M72.0676 80.9834C73.0142 80.9834 73.7817 80.2181 73.7817 79.2743C73.7817 78.3303 73.0142 77.5652 72.0676 77.5652C71.1208 77.5652 70.3535 78.3303 70.3535 79.2743C70.3535 80.2181 71.1208 80.9834 72.0676 80.9834Z" fill="#CADCE8"/>
<path d="M77.2121 80.9834C78.1587 80.9834 78.9262 80.2181 78.9262 79.2743C78.9262 78.3303 78.1587 77.5652 77.2121 77.5652C76.2653 77.5652 75.498 78.3303 75.498 79.2743C75.498 80.2181 76.2653 80.9834 77.2121 80.9834Z" fill="#CADCE8"/>
<path d="M188.708 77.5652H84.4525C83.6492 77.5652 82.998 78.2145 82.998 79.0155V79.5331C82.998 80.3341 83.6492 80.9834 84.4525 80.9834H188.708C189.511 80.9834 190.162 80.3341 190.162 79.5331V79.0155C190.162 78.2145 189.511 77.5652 188.708 77.5652Z" fill="#CADCE8"/>
<path d="M97.7008 142.499C101.005 142.499 103.685 139.828 103.685 136.533C103.685 133.238 101.005 130.566 97.7008 130.566C94.396 130.566 91.717 133.238 91.717 136.533C91.717 139.828 94.396 142.499 97.7008 142.499Z" fill="#DDE4ED"/>
<path d="M127.093 142.499C130.398 142.499 133.077 139.828 133.077 136.533C133.077 133.238 130.398 130.567 127.093 130.567C123.788 130.567 121.109 133.238 121.109 136.533C121.109 139.828 123.788 142.499 127.093 142.499Z" fill="#DDE4ED"/>
<path d="M156.488 142.499C159.792 142.499 162.471 139.828 162.471 136.533C162.471 133.238 159.792 130.567 156.488 130.567C153.183 130.567 150.504 133.238 150.504 136.533C150.504 139.828 153.183 142.499 156.488 142.499Z" fill="#DDE4ED"/>
<path d="M175.098 96.7664H79.0915C77.6085 96.7664 76.4062 97.9652 76.4062 99.4438V121.443C76.4062 122.922 77.6085 124.121 79.0915 124.121H175.098C176.581 124.121 177.784 122.922 177.784 121.443V99.4438C177.784 97.9652 176.581 96.7664 175.098 96.7664Z" fill="#C8FF26"/>
<path d="M125.671 149.708H77.2324V152.386H125.671V149.708Z" fill="#E8EDF7"/>
<path d="M155.034 155.049H77.0193V157.726H155.034V155.049Z" fill="#E8EDF7"/>
<path d="M178.824 149.708H132.529V152.386H178.824V149.708Z" fill="#E8EDF7"/>
<path opacity="0.3" d="M62.1643 164.936H60.1503V86.3601H194.897V88.3682H62.1643V164.936Z" fill="#C1CEDE"/>
<path d="M195.004 84.0774H59.2499V86.7548H195.004V84.0774Z" fill="#426572"/>
<path d="M196.75 166.489H57.7538V75.5881C57.755 74.5535 58.1678 73.5618 58.9014 72.8302C59.6351 72.0986 60.63 71.6871 61.6677 71.6858H192.836C193.874 71.6871 194.869 72.0986 195.602 72.8302C196.336 73.5618 196.749 74.5535 196.75 75.5881V166.489ZM60.4369 163.811H194.065V75.5881C194.064 75.2635 193.935 74.9522 193.704 74.7227C193.474 74.4931 193.162 74.3639 192.836 74.3632H61.6677C61.3421 74.3639 61.0299 74.4931 60.7997 74.7227C60.5694 74.9522 60.4398 75.2635 60.4392 75.5881L60.4369 163.811Z" fill="#426572"/>
<path d="M231.119 148.871H206.258V150.656H231.119V148.871Z" fill="#DDE4ED"/>
</g>
</g>
<defs>
<clipPath id="clip0_140_4043">
<rect width="288" height="166" fill="white" transform="translate(0 0.567627)"/>
</clipPath>
</defs>
</svg>
