<svg width="347" height="187" viewBox="0 0 347 187" fill="none" xmlns="http://www.w3.org/2000/svg">
<path d="M335.994 185.872L27.1306 185.779C27.1306 185.779 26.83 185.444 26.2919 184.801C26.2611 184.765 26.2304 184.728 26.1985 184.689C24.819 183.033 22.0423 179.547 18.7917 174.633L18.7891 174.628C10.1644 161.582 -1.7871 138.48 0.224235 112.841C0.791726 105.603 2.47045 98.1631 5.65162 90.6896C15.2995 68.0232 44.0836 52.7438 70.0137 52.4365C70.2813 52.4333 70.5492 52.4318 70.8163 52.4318C80.5619 52.4318 89.8711 54.5695 97.5665 59.2491C98.9687 60.1011 100.732 60.7596 102.783 61.2068C104.511 61.5862 106.444 61.8159 108.542 61.8893C109.032 61.9068 109.535 61.9154 110.045 61.9154C126.974 61.9154 153.244 52.2958 169.016 29.1161C177.642 16.4369 190.885 8.13651 206.105 3.81366C206.816 3.61328 207.528 3.4196 208.247 3.23651C211.708 2.34845 215.262 1.65945 218.883 1.16652C219.533 1.07843 220.189 0.995728 220.846 0.920807C224.842 0.455948 228.915 0.227081 233.015 0.227081C245.385 0.227081 258.037 2.31152 269.889 6.31351C271.966 7.0148 274.019 7.77612 276.045 8.59595C305.737 20.6209 328.838 45.1755 326.809 79.4605C326.726 80.816 326.608 82.1877 326.446 83.5739L323.637 83.5739L323.637 74.9373L323.075 74.9373L323.075 83.5739L317.356 83.5739L317.356 78.9665L316.997 78.9665L316.997 83.5739L314.611 83.5739L314.611 93.4542L309.829 93.4542L309.829 95.9422L304.669 95.9422L304.669 91.6578L295.391 91.6578L295.391 80.0135L293.94 80.0135L293.94 78.8531L293.732 78.8531L293.732 80.0135L292.528 80.0135L292.528 80.0122L286.512 80.0122L286.512 78.8531L286.303 78.8531L286.303 80.0122L284.733 80.0122L284.733 85.8669L276.941 85.835L276.941 89.4488L270.334 89.4488L270.334 67.1073L268.604 67.1073L268.604 65.4338L268.371 65.4338L268.371 67.1073L264.163 67.1073L264.163 65.4338L263.93 65.4338L263.93 67.1073L257.243 67.1073L257.243 65.4338L257.007 65.4338L257.007 67.1073L252.287 67.1073L252.287 65.4338L252.052 65.4338L252.052 67.1073L250.752 67.1073L250.752 91.0407L244.774 91.0407L244.774 78.0998L225.194 78.0998L225.194 79.7598L223.489 79.7598L223.489 68.2437C223.404 68.1983 223.32 68.1515 223.238 68.1061L221.645 68.1061L221.645 68.1008L212.367 68.1008L212.367 68.1061L212.36 68.1061L212.36 69.833L212.367 69.833L212.367 71.0204L212.36 71.0204L212.36 72.7458L212.367 72.7458L212.367 73.937L212.36 73.937L212.36 75.6636L212.367 75.6636L212.367 75.669L211.387 75.6636L211.387 66.633L209.99 66.633L209.99 65.3418L209.826 65.3418L209.826 66.633L202.176 66.633L202.176 65.3418L202.009 65.3418L202.009 66.633L200.977 66.633L200.977 67.7777L200.973 67.7777L200.973 69.5031L200.977 69.5031L200.977 71.0204L200.973 71.0204L200.973 72.7458L200.977 72.7458L200.977 73.937L200.973 73.937L200.973 75.6636L200.977 75.6636L200.977 76.7657L200.973 76.7657L200.973 78.4925L200.977 78.4925L200.977 79.5941L200.973 79.5941L200.973 81.321L200.977 81.321L200.977 82.3587L200.973 82.3587L200.973 83.4552L200.977 83.4552L200.977 83.5754L197.512 83.5754L197.512 74.9373L196.998 74.9373L196.998 83.5754L191.76 83.5754L191.76 78.9665L191.43 78.9665L191.43 83.5754L189.243 83.5754L189.243 93.4542L184.86 93.4542L184.86 95.9422L180.134 95.9422L180.134 91.6565L171.634 91.6565L171.634 80.0135L170.303 80.0135L170.303 78.8531L170.114 78.8531L170.114 80.0135L169.011 80.0135L169.011 80.0109L163.496 80.0109L163.496 78.8531L163.305 78.8531L163.305 80.0109L161.869 80.0109L161.869 85.8669L154.729 85.835L154.729 89.4488L148.674 89.4488L148.674 67.1073L147.09 67.1073L147.09 65.4338L146.877 65.4338L146.877 67.1073L143.022 67.1073L143.022 65.4338L142.806 65.4338L142.806 67.1073L136.682 67.1073L136.682 65.4338L136.467 65.4338L136.467 67.1073L132.14 67.1073L132.14 65.4338L131.927 65.4338L131.927 67.1073L130.735 67.1073L130.735 91.0407L125.257 91.0407L125.257 78.0998L107.318 78.0998L107.318 93.3458L98.3263 93.3458L98.3263 112.868L96.2535 184.717L112.518 184.716C112.596 184.796 112.705 184.846 112.827 184.846L112.868 184.846C112.993 184.846 113.108 184.796 113.192 184.716L123.76 184.715C123.837 184.795 123.948 184.846 124.07 184.846L124.111 184.846C124.236 184.846 124.352 184.796 124.436 184.715L143.565 184.712C143.65 184.795 143.766 184.846 143.892 184.846L143.933 184.846C144.056 184.846 144.167 184.795 144.246 184.712L336.663 184.692C336.637 184.739 336.609 184.787 336.583 184.835C336.393 185.176 336.194 185.524 335.994 185.872Z" fill="#EBF3FA"/>
<path d="M336.665 184.689L336.665 184.692L96.2542 184.717L98.327 112.867L98.327 93.3453L107.319 93.3453L107.319 78.0991L125.258 78.0991L125.258 91.0401L130.736 91.0401L130.736 67.1066L131.928 67.1066L131.928 65.4332L132.141 65.4332L132.141 67.1066L136.468 67.1066L136.468 65.4332L136.682 65.4332L136.682 67.1066L142.807 67.1066L142.807 65.4332L143.023 65.4332L143.023 67.1066L146.878 67.1066L146.878 65.4332L147.091 65.4332L147.091 67.1066L148.674 67.1066L148.674 89.4483L154.73 89.4483L154.73 85.8345L161.87 85.8663L161.87 80.0102L163.306 80.0102L163.306 78.8524L163.497 78.8524L163.497 80.0102L169.012 80.0102L169.012 80.0128L170.115 80.0128L170.115 78.8524L170.304 78.8524L170.304 80.0128L171.635 80.0128L171.635 91.6559L180.134 91.6559L180.134 95.9414L184.861 95.9414L184.861 93.4534L189.244 93.4534L189.244 83.5747L191.431 83.5747L191.431 78.9658L191.761 78.9658L191.761 83.5747L196.998 83.5747L196.998 74.9367L197.513 74.9367L197.513 83.5747L200.978 83.5747L200.978 83.4544L200.973 83.4544L200.973 82.3581L200.978 82.3581L200.978 81.3203L200.973 81.3203L200.973 79.5934L200.978 79.5934L200.978 78.4918L200.973 78.4918L200.973 76.7651L200.978 76.7651L200.978 75.663L200.973 75.663L200.973 73.9363L200.978 73.9363L200.978 72.745L200.973 72.745L200.973 71.0197L200.978 71.0197L200.978 69.5024L200.973 69.5024L200.973 67.7771L200.978 67.7771L200.978 66.6323L202.01 66.6323L202.01 65.3409L202.176 65.3409L202.176 66.6323L209.826 66.6323L209.826 65.3409L209.99 65.3409L209.99 66.6323L211.387 66.6323L211.387 75.663L212.369 75.6685L212.369 75.663L212.36 75.663L212.36 73.9363L212.369 73.9363L212.369 72.745L212.36 72.745L212.36 71.0197L212.369 71.0197L212.369 69.8323L212.36 69.8323L212.36 68.1054L212.369 68.1054L212.369 68.1001L221.647 68.1001L221.647 68.1054L223.24 68.1054C223.321 68.1508 223.406 68.1976 223.489 68.243L223.489 79.7592L225.195 79.7592L225.195 78.0991L244.775 78.0991L244.775 91.0401L250.755 91.0401L250.755 67.1066L252.054 67.1066L252.054 65.4332L252.289 65.4332L252.289 67.1066L257.008 67.1066L257.008 65.4332L257.243 65.4332L257.243 67.1066L263.93 67.1066L263.93 65.4332L264.163 65.4332L264.163 67.1066L268.373 67.1066L268.373 65.4332L268.606 65.4332L268.606 67.1066L270.335 67.1066L270.335 89.4483L276.943 89.4483L276.943 85.8345L284.736 85.8663L284.736 80.0114L286.304 80.0114L286.304 78.8524L286.513 78.8524L286.513 80.0114L292.529 80.0114L292.529 80.0128L293.735 80.0128L293.735 78.8524L293.94 78.8524L293.94 80.0128L295.392 80.0128L295.392 91.6571L304.67 91.6571L304.67 95.9414L309.83 95.9414L309.83 93.4534L314.612 93.4534L314.612 83.5733L316.998 83.5733L316.998 78.9658L317.358 78.9658L317.358 83.5733L323.076 83.5733L323.076 74.9367L323.636 74.9367L323.636 83.5733L326.447 83.5733C326.145 86.2135 325.693 88.9086 325.086 91.6571C324.727 93.2773 324.319 94.9159 323.851 96.572C311.612 140.035 360.538 141.997 336.665 184.689Z" fill="#DFEBFA"/>
<path d="M276.043 8.597L276.043 184.688L269.888 184.688L269.888 6.3147C271.967 7.0153 274.02 7.77666 276.043 8.597Z" fill="#AFCDFB"/>
<path d="M102.783 61.2073L102.783 184.801L26.2919 184.801C26.2613 184.765 26.2306 184.728 26.1985 184.689C24.819 183.033 22.0424 179.547 18.7919 174.633L18.7892 174.628C10.1643 161.582 -1.78699 138.48 0.224208 112.841C0.791841 105.603 2.47056 98.1631 5.65171 90.6898C15.2995 68.0234 44.0836 52.7442 70.0138 52.4362C79.9566 52.5459 89.4334 54.6921 97.3035 59.2488C98.7765 60.1006 100.629 60.759 102.783 61.2073Z" fill="#CEE1FD"/>
<path d="M220.844 0.920498L220.844 22.6063C220.844 24.2968 220.432 25.6759 219.927 25.6759L219.797 25.6759C219.293 25.6759 218.883 24.2968 218.883 22.6063L218.883 1.16532C219.533 1.07695 220.188 0.994377 220.844 0.920498Z" fill="#9FC1F4"/>
<path d="M219.353 20.4584C212.205 20.4584 206.412 26.5855 206.412 34.1418L232.293 34.1418C232.293 26.5855 226.499 20.4584 219.353 20.4584Z" fill="#9DD005"/>
<path d="M220.385 20.627C220.012 20.5461 219.633 20.5027 219.247 20.5027C214.592 20.5027 210.817 26.6097 210.817 34.1437L213.089 34.1437C213.089 27.2343 216.266 21.5249 220.385 20.627Z" fill="#B4EC10"/>
<path d="M304.577 164.507C304.577 164.507 301.134 160.488 304.365 157.936C304.365 157.936 306.724 156.508 308.651 156.624C308.651 156.624 305.923 161.198 306.806 161.652C307.688 162.107 309.477 156.336 309.477 156.336C309.477 156.336 314.848 155.816 316.577 156.647C316.577 156.647 311.984 160.405 312.952 160.629C313.92 160.852 318.878 157.163 318.878 157.163C318.878 157.163 323.878 158.014 323.612 161.064C323.345 164.114 321.622 165.056 320.865 164.974C320.108 164.894 315.68 163.203 315.582 163.824C315.486 164.443 318.152 166.472 320.018 166.566C320.018 166.566 316.493 170.454 314.15 169.332C311.81 168.209 311.61 166.431 310.149 165.763C308.689 165.097 307.442 165.099 308.046 165.779C308.649 166.46 311.292 167.12 312.126 168.598C312.96 170.075 313.709 171.071 311.285 170.706C308.863 170.341 304.923 168.568 304.75 166.538C304.577 164.507 304.577 164.507 304.577 164.507Z" fill="#77A4E5"/>
<path d="M321.158 161.146C321.158 161.146 307.578 160.623 304.579 164.507C304.579 164.507 303.917 166.492 301.876 168.301L301.558 169.168C301.558 169.168 303.911 166.687 304.753 166.537C304.753 166.537 303.436 161.726 321.158 161.146Z" fill="#77A4E5"/>
<path d="M301.877 168.301C301.877 168.301 298.962 170.457 298.759 174.308L299.289 174.355C299.289 174.355 300.22 170.373 301.9 168.816C303.585 167.258 301.877 168.301 301.877 168.301Z" fill="#77A4E5"/>
<path d="M292.533 159.454C292.533 159.454 298.013 156.386 295.457 152.222C295.457 152.222 293.41 149.666 291.219 149.008C291.219 149.008 292.389 155.217 291.219 155.363C290.05 155.509 290.415 148.351 290.415 148.351C290.415 148.351 284.645 145.575 282.381 145.794C282.381 145.794 285.96 151.858 284.791 151.711C283.623 151.565 279.605 145.43 279.605 145.43C279.605 145.43 273.689 144.334 272.74 147.84C271.789 151.346 273.322 153.099 274.201 153.318C275.077 153.538 280.701 153.465 280.555 154.195C280.409 154.925 276.611 156.094 274.493 155.436C274.493 155.436 276.83 161.207 279.898 160.914C282.965 160.623 283.915 158.723 285.814 158.577C287.713 158.431 289.102 158.943 288.151 159.454C287.201 159.966 283.988 159.621 282.454 160.925C280.92 162.23 279.679 163.033 282.527 163.618C285.375 164.201 290.488 163.837 291.513 161.645C292.533 159.454 292.533 159.454 292.533 159.454Z" fill="#77A4E5"/>
<path d="M275.445 148.935C275.445 148.935 290.785 153.902 292.536 159.453C292.536 159.453 292.466 161.937 294 164.786L294 165.881C294 165.881 292.392 162.156 291.516 161.644C291.516 161.644 294.948 156.823 275.445 148.935Z" fill="#77A4E5"/>
<path d="M293.997 164.786C293.997 164.786 296.362 168.378 295.014 172.75L294.406 172.588C294.406 172.588 294.995 167.771 293.758 165.349C292.521 162.926 293.997 164.786 293.997 164.786Z" fill="#77A4E5"/>
<path d="M301.251 155.222C301.251 155.222 294.03 151.179 297.399 145.69C297.399 145.69 300.095 142.32 302.983 141.453C302.983 141.453 301.445 149.638 302.983 149.83C304.526 150.023 304.045 140.587 304.045 140.587C304.045 140.587 311.65 136.928 314.635 137.217C314.635 137.217 309.918 145.209 311.458 145.016C312.998 144.824 318.293 136.736 318.293 136.736C318.293 136.736 326.093 135.291 327.346 139.913C328.597 144.535 326.574 146.845 325.42 147.134C324.264 147.423 316.85 147.327 317.042 148.289C317.234 149.253 322.243 150.793 325.034 149.927C325.034 149.927 321.954 157.534 317.909 157.148C313.865 156.763 312.614 154.26 310.11 154.067C307.606 153.875 305.777 154.549 307.03 155.222C308.281 155.896 312.517 155.443 314.538 157.162C316.561 158.881 318.198 159.94 314.443 160.711C310.688 161.481 303.948 161 302.599 158.111C301.251 155.222 301.251 155.222 301.251 155.222Z" fill="#9FC1F4"/>
<path d="M323.786 141.358C323.786 141.358 303.565 147.905 301.254 155.223C301.254 155.223 301.352 158.497 299.328 162.252L299.328 163.696C299.328 163.696 301.448 158.786 302.602 158.111C302.602 158.111 298.078 151.756 323.786 141.358Z" fill="#9FC1F4"/>
<path d="M299.329 162.252C299.329 162.252 296.21 166.987 297.988 172.751L298.791 172.536C298.791 172.536 298.012 166.187 299.643 162.993C301.274 159.8 299.329 162.252 299.329 162.252Z" fill="#9FC1F4"/>
<path d="M301.008 185.251C308.821 185.251 315.154 178.918 315.154 171.105L286.862 171.105C286.862 178.918 293.197 185.251 301.008 185.251Z" fill="#9FC1F4"/>
<path d="M304.494 185.142C303.919 185.214 303.332 185.251 302.736 185.251C294.924 185.251 288.592 178.917 288.592 171.104L292.107 171.104C292.107 178.322 297.512 184.276 304.494 185.142Z" fill="#AFCDFB"/>
<path d="M315.474 171.539L286.396 171.539L286.396 171.104L315.474 171.104L315.474 171.539Z" fill="#9FC1F4"/>
<path d="M235.153 184.555L221.254 126.862L222.225 124.591L235.995 184.55C236.03 184.703 235.913 184.849 235.756 184.849L235.526 184.849C235.349 184.849 235.194 184.728 235.153 184.555Z" fill="#77A4E5"/>
<path d="M172.421 184.849C172.136 184.849 171.919 184.593 171.965 184.311L176.059 159.496L177.814 159.496L172.932 184.43C172.883 184.673 172.671 184.849 172.421 184.849Z" fill="#77A4E5"/>
<path d="M211.696 184.849C211.41 184.849 211.193 184.593 211.239 184.311L215.333 159.496L217.088 159.496L212.205 184.43C212.158 184.673 211.944 184.849 211.696 184.849Z" fill="#77A4E5"/>
<path d="M221.218 159.548L172.324 159.548L182.454 96.0419L231.348 96.0419L221.218 159.548Z" fill="#F5FBFF"/>
<path d="M224.874 160.932L168.719 160.932L168.719 159.064L224.874 159.064L224.874 160.932Z" fill="#77A4E5"/>
<path d="M201.82 109.329C201.783 109.832 201.708 110.325 201.6 110.807C200.581 115.346 196.54 118.823 191.973 118.831C186.921 118.839 183.136 114.599 183.523 109.36C183.909 104.121 188.318 99.8672 193.369 99.8577C194.43 99.8565 195.434 100.042 196.353 100.384C196.767 100.537 197.167 100.723 197.545 100.937C198.363 101.401 199.091 101.999 199.705 102.706C200.047 103.1 200.353 103.527 200.621 103.984C200.777 104.247 200.918 104.521 201.046 104.804C201.402 105.59 201.647 106.443 201.764 107.343C201.825 107.795 201.852 108.258 201.847 108.732C201.843 108.929 201.835 109.128 201.82 109.329Z" fill="#BDD1F9"/>
<path d="M201.043 104.804L192.668 109.344C192.668 109.344 196.124 103.26 197.542 100.938C198.359 101.401 199.088 102 199.701 102.706C200.043 103.1 200.35 103.528 200.618 103.984C200.773 104.247 200.915 104.521 201.043 104.804Z" fill="white"/>
<path d="M201.916 103.656L194.266 107.803C194.266 107.803 197.423 102.245 198.718 100.123C199.466 100.547 200.131 101.093 200.691 101.74C201.005 102.099 201.283 102.49 201.528 102.906C201.671 103.148 201.799 103.398 201.916 103.656Z" fill="#B4EC10"/>
<path d="M177.406 154.484L217.081 154.486L221.074 131.734L181.398 131.731L177.406 154.484ZM217.323 154.721L177.079 154.718L181.154 131.498L221.399 131.5L217.323 154.721Z" fill="#BDD1F9"/>
<path d="M214.922 151.537L179.231 151.534C179.231 151.534 185.562 148.139 187.3 148.317C189.037 148.495 191.532 149.869 193.138 149.923C194.742 149.977 196.479 145.157 198.267 145.385C200.054 145.611 200.726 149.874 201.651 149.458C202.576 149.041 205.356 148.861 206.954 149.458C208.554 150.055 210.886 147.561 212.293 147.64C213.699 147.717 214.922 151.537 214.922 151.537Z" fill="#B4EC10"/>
<path d="M187.816 144.712L180.998 144.711L181.061 144.35L187.878 144.35L187.816 144.712Z" fill="#B4EC10"/>
<path d="M187.682 145.484L180.865 145.484L180.929 145.122L187.745 145.123L187.682 145.484Z" fill="#B4EC10"/>
<path d="M181.275 139.895L216.965 139.897C216.965 139.897 211.826 136.502 210.026 136.679C208.227 136.857 205.249 138.231 203.626 138.285C202 138.338 201.955 133.518 200.088 133.746C198.222 133.972 196.053 138.235 195.275 137.819C194.495 137.402 191.782 137.22 189.971 137.817C188.163 138.414 186.706 135.92 185.272 135.998C183.838 136.076 181.275 139.895 181.275 139.895Z" fill="#BDD1F9"/>
<path d="M189.742 133.736L182.925 133.736L182.989 133.375L189.806 133.375L189.742 133.736Z" fill="#BDD1F9"/>
<path d="M189.606 134.509L182.788 134.509L182.853 134.147L189.67 134.147L189.606 134.509Z" fill="#BDD1F9"/>
<path d="M183.589 128.26L182.023 128.26L183.382 120.924L184.949 120.924L183.589 128.26Z" fill="#BDD1F9"/>
<path d="M185.722 128.259L184.157 128.259L185.21 122.576L186.776 122.576L185.722 128.259Z" fill="#BDD1F9"/>
<path d="M187.857 128.259L186.292 128.259L187.39 122.332L188.956 122.332L187.857 128.259Z" fill="#BDD1F9"/>
<path d="M189.987 128.259L188.421 128.259L189.258 123.752L190.824 123.752L189.987 128.259Z" fill="#BDD1F9"/>
<path d="M192.122 128.259L190.557 128.259L191.454 123.424L193.019 123.424L192.122 128.259Z" fill="#BDD1F9"/>
<path d="M194.253 128.259L192.688 128.259L193.384 124.509L194.949 124.509L194.253 128.259Z" fill="#BDD1F9"/>
<path d="M204.528 128.26L202.964 128.26L204.323 120.924L205.889 120.924L204.528 128.26Z" fill="#B4EC10"/>
<path d="M206.668 128.259L205.102 128.259L206.156 122.576L207.721 122.576L206.668 128.259Z" fill="#B4EC10"/>
<path d="M208.798 128.259L207.231 128.259L208.331 122.332L209.896 122.332L208.798 128.259Z" fill="#B4EC10"/>
<path d="M210.926 128.26L209.36 128.26L210.197 123.753L211.763 123.753L210.926 128.26Z" fill="#B4EC10"/>
<path d="M213.061 128.259L211.496 128.259L212.393 123.424L213.958 123.424L213.061 128.259Z" fill="#B4EC10"/>
<path d="M215.191 128.259L213.626 128.259L214.322 124.509L215.888 124.509L215.191 128.259Z" fill="#B4EC10"/>
<path d="M212.068 104.313L206.973 104.313L207.104 103.615L212.199 103.615L212.068 104.313Z" fill="#BDD1F9"/>
<path d="M218.323 104.313L212.694 104.313L212.826 103.616L218.453 103.616L218.323 104.313Z" fill="#BDD1F9"/>
<path d="M222.332 104.313L218.744 104.313L218.875 103.616L222.463 103.616L222.332 104.313Z" fill="#BDD1F9"/>
<path d="M225.68 104.313L222.913 104.313L223.044 103.616L225.812 103.616L225.68 104.313Z" fill="#BDD1F9"/>
<path d="M211.508 107.292L206.411 107.292L206.543 106.593L211.638 106.593L211.508 107.292Z" fill="#BDD1F9"/>
<path d="M217.762 107.292L212.134 107.292L212.266 106.593L217.893 106.593L217.762 107.292Z" fill="#BDD1F9"/>
<path d="M221.772 107.291L218.184 107.291L218.315 106.593L221.903 106.593L221.772 107.291Z" fill="#BDD1F9"/>
<path d="M225.121 107.291L222.352 107.291L222.484 106.593L225.252 106.593L225.121 107.291Z" fill="#BDD1F9"/>
<path d="M215.098 102.684L207.279 102.684L207.411 101.986L215.229 101.986L215.098 102.684Z" fill="#BDD1F9"/>
<path d="M220.347 102.684L215.84 102.684L215.972 101.986L220.479 101.986L220.347 102.684Z" fill="#BDD1F9"/>
<path d="M225.991 102.684L220.985 102.684L221.115 101.985L226.121 101.985L225.991 102.684Z" fill="#BDD1F9"/>
<path d="M214.502 105.85L206.684 105.85L206.815 105.152L214.633 105.152L214.502 105.85Z" fill="#BDD1F9"/>
<path d="M219.754 105.85L215.247 105.85L215.378 105.152L219.885 105.152L219.754 105.85Z" fill="#BDD1F9"/>
<path d="M225.393 105.851L220.389 105.851L220.519 105.152L225.524 105.152L225.393 105.851Z" fill="#BDD1F9"/>
<path d="M210.95 110.27L205.853 110.27L205.985 109.571L211.08 109.571L210.95 110.27Z" fill="#BDD1F9"/>
<path d="M217.201 110.269L211.574 110.269L211.705 109.571L217.332 109.571L217.201 110.269Z" fill="#BDD1F9"/>
<path d="M221.213 110.269L217.625 110.269L217.755 109.571L221.344 109.571L221.213 110.269Z" fill="#BDD1F9"/>
<path d="M224.561 110.269L221.793 110.269L221.924 109.571L224.692 109.571L224.561 110.269Z" fill="#BDD1F9"/>
<path d="M213.945 108.83L206.126 108.83L206.257 108.132L214.076 108.132L213.945 108.83Z" fill="#BDD1F9"/>
<path d="M219.197 108.828L214.691 108.828L214.822 108.13L219.328 108.13L219.197 108.828Z" fill="#BDD1F9"/>
<path d="M224.833 108.829L219.829 108.829L219.96 108.132L224.965 108.132L224.833 108.829Z" fill="#BDD1F9"/>
<path d="M210.423 113.063L205.327 113.063L205.458 112.364L210.555 112.364L210.423 113.063Z" fill="#BDD1F9"/>
<path d="M216.679 113.062L211.052 113.062L211.183 112.363L216.81 112.363L216.679 113.062Z" fill="#BDD1F9"/>
<path d="M220.689 113.062L217.101 113.062L217.233 112.363L220.82 112.363L220.689 113.062Z" fill="#BDD1F9"/>
<path d="M224.036 113.061L221.269 113.061L221.4 112.363L224.167 112.363L224.036 113.061Z" fill="#BDD1F9"/>
<path d="M213.419 111.622L205.601 111.622L205.731 110.923L213.549 110.923L213.419 111.622Z" fill="#BDD1F9"/>
<path d="M218.67 111.622L214.162 111.622L214.294 110.923L218.801 110.923L218.67 111.622Z" fill="#BDD1F9"/>
<path d="M224.309 111.621L219.304 111.621L219.435 110.923L224.44 110.923L224.309 111.621Z" fill="#BDD1F9"/>
<path d="M198.828 122.014L196.333 122.014L196.399 121.673L198.893 121.673L198.828 122.014Z" fill="#BDD1F9"/>
<path d="M201.889 122.014L199.136 122.014L199.2 121.673L201.953 121.673L201.889 122.014Z" fill="#BDD1F9"/>
<path d="M198.557 123.472L196.062 123.472L196.127 123.13L198.621 123.13L198.557 123.472Z" fill="#BDD1F9"/>
<path d="M201.615 123.472L198.861 123.472L198.925 123.13L201.679 123.13L201.615 123.472Z" fill="#BDD1F9"/>
<path d="M200.311 121.218L196.483 121.218L196.548 120.876L200.374 120.876L200.311 121.218Z" fill="#BDD1F9"/>
<path d="M202.881 121.217L200.675 121.217L200.739 120.875L202.945 120.875L202.881 121.217Z" fill="#BDD1F9"/>
<path d="M200.019 122.768L196.193 122.768L196.256 122.426L200.083 122.426L200.019 122.768Z" fill="#BDD1F9"/>
<path d="M202.591 122.768L200.385 122.768L200.45 122.426L202.656 122.426L202.591 122.768Z" fill="#BDD1F9"/>
<path d="M218.812 122.014L216.318 122.014L216.383 121.673L218.876 121.673L218.812 122.014Z" fill="#BDD1F9"/>
<path d="M221.872 122.014L219.117 122.014L219.183 121.673L221.936 121.673L221.872 122.014Z" fill="#BDD1F9"/>
<path d="M218.537 123.472L216.042 123.472L216.108 123.13L218.602 123.13L218.537 123.472Z" fill="#BDD1F9"/>
<path d="M221.594 123.472L218.84 123.472L218.905 123.13L221.658 123.13L221.594 123.472Z" fill="#BDD1F9"/>
<path d="M220.291 121.218L216.463 121.218L216.528 120.876L220.354 120.876L220.291 121.218Z" fill="#BDD1F9"/>
<path d="M222.86 121.218L220.654 121.218L220.717 120.875L222.924 120.875L222.86 121.218Z" fill="#BDD1F9"/>
<path d="M220.001 122.768L216.174 122.768L216.239 122.426L220.065 122.426L220.001 122.768Z" fill="#BDD1F9"/>
<path d="M222.573 122.768L220.367 122.768L220.43 122.426L222.637 122.426L222.573 122.768Z" fill="#BDD1F9"/>
<path d="M232.077 183.908C231.988 185.102 230.305 185.115 228.394 184.893C226.483 184.671 226.991 185.155 224.315 185.191C221.639 185.229 220.716 184.344 220.586 183.962C220.472 183.623 221.76 183.338 223.138 183.002C223.313 182.96 223.487 182.917 223.66 182.872C225.215 182.476 226.246 181.313 227.576 180.297C228.835 179.335 230.46 175.852 230.46 175.852L234.115 175.686C234.115 175.686 232.576 178.81 231.999 180.155C231.658 180.948 231.803 181.92 231.95 182.667C232.03 183.072 232.108 183.488 232.077 183.908Z" fill="#FFB27D"/>
<path d="M228.394 184.893C226.481 184.671 226.99 185.155 224.314 185.191C221.638 185.229 220.715 184.344 220.586 183.962C220.471 183.623 221.76 183.338 223.138 183.002L223.154 183.028C223.154 183.028 224.879 183.951 227.081 183.731C228.878 183.55 230.711 182.801 231.95 182.666C232.029 183.072 232.108 183.488 232.077 183.908C231.988 185.102 230.304 185.115 228.394 184.893Z" fill="#233862"/>
<path d="M257.327 184.155C257.24 185.349 255.556 185.364 253.644 185.144C251.732 184.924 252.241 185.407 249.566 185.447C246.89 185.487 245.967 184.604 245.836 184.221C245.721 183.882 247.011 183.595 248.389 183.259C248.561 183.216 248.735 183.172 248.909 183.129C250.463 182.731 251.492 181.567 252.821 180.55C254.079 179.586 252.821 173.88 252.821 173.88L256.842 173.489C256.842 173.489 256.65 178.293 256.653 180.476C256.655 181.339 257.051 182.167 257.199 182.914C257.279 183.32 257.357 183.735 257.327 184.155Z" fill="#FFB27D"/>
<path d="M253.644 185.144C251.732 184.924 252.241 185.407 249.566 185.447C246.89 185.487 245.967 184.604 245.836 184.221C245.721 183.882 247.011 183.595 248.389 183.259L248.404 183.283C248.404 183.283 250.128 184.206 252.333 183.983C254.128 183.801 255.959 183.05 257.199 182.914C257.279 183.32 257.357 183.735 257.327 184.155C257.24 185.349 255.556 185.364 253.644 185.144Z" fill="#233862"/>
<path d="M245.592 85.5474C244.899 82.7004 245.903 81.3746 246.809 80.6688C247.239 79.621 247.728 78.8656 248.229 78.5808C249.142 78.0615 250.237 78.0048 251.004 78.05C250.806 77.8466 250.419 77.7724 250.419 77.7724C250.894 77.7018 251.953 78.1729 251.953 78.1729C258.561 75.6271 259.598 85.355 259.46 87.6152C259.322 89.875 259.34 92.5369 262.778 94.3174C269.336 97.715 260.598 110.519 260.598 110.519C260.766 108.693 252.338 99.0545 247.941 96.1678C246.871 94.5923 246.492 91.8088 246.464 91.5897C246.647 93.7966 247.024 95.0346 247.363 95.7316C245.358 93.8874 245.062 89.4589 245.592 85.5474Z" fill="#A9453D"/>
<path d="M248.202 96.3115C248.179 96.3215 250.325 97.4353 251.937 96.994C253.454 96.5801 254.447 94.6126 254.426 94.6081C253.784 94.4806 253.598 93.5974 253.611 89.8025L253.322 89.8598L248.435 90.827C248.435 90.827 248.548 92.3644 248.55 93.8125C248.555 95.0284 248.48 96.1818 248.202 96.3115Z" fill="#FFB27D"/>
<path d="M248.437 90.8263C248.437 90.8263 248.549 92.3636 248.551 93.8118C251.284 93.7348 252.731 91.2411 253.323 89.859L248.437 90.8263Z" fill="#ED975D"/>
<path d="M228.562 177.788C228.321 178.538 228.86 179.312 229.648 179.349L231.555 179.438L233.576 179.5C234.081 179.515 234.564 179.294 234.882 178.903C236.494 176.926 241.455 170.336 244.465 160.761C244.55 160.492 244.638 160.221 244.733 159.946C246.721 154.15 250.84 146.876 253.011 140.293C253.358 139.244 253.668 138.256 253.945 137.323C254.034 137.023 254.122 136.73 254.204 136.441C255.804 130.881 256.268 127.23 256.695 123.33L241.017 123.456C241.017 123.456 237.715 149.11 228.562 177.788Z" fill="#2A4E96"/>
<path d="M243.21 114.446C243.249 121.908 242.116 125.108 242.116 125.108C242.116 125.108 248.829 128.519 256.806 126.008C256.9 125.978 262.514 124.389 262.514 124.389C262.381 124.087 261.272 119.095 261.142 118.818C259.457 115.2 258.998 113.682 258.799 112.57C258.429 110.494 258.42 108.345 258.604 106.32C259.092 100.956 260.539 96.5039 260.539 96.5039C258.366 96.0093 256.329 95.1403 254.068 94.2918C253.546 94.9399 251.956 95.6178 250.576 95.5868C248.986 95.5519 248.471 94.8715 248.553 94.1288C246.86 95.0709 245.509 95.9612 245.509 95.9612C244.069 98.4614 241.149 100.89 240.938 104.724C240.885 105.667 243.21 114.238 243.21 114.446Z" fill="white"/>
<path d="M256.696 115.278C257.382 116.248 258.695 122.144 261.964 122.885C260.278 118.683 258.999 116.841 258.8 115.549C258.43 113.138 258.423 110.643 258.607 108.289C257.513 106.37 256.696 105.056 256.696 105.056C256.61 104.746 254.956 99.6345 254.428 104.203C253.899 108.773 255.929 114.194 256.696 115.278Z" fill="#5F9AA8"/>
<path d="M247.522 92.1982C247.522 92.1982 253.99 92.3049 253.995 88.2762C254 84.2477 254.836 81.5482 250.707 81.3097C246.579 81.0712 245.773 82.6078 245.445 83.952C245.117 85.2963 245.84 92.0666 247.522 92.1982Z" fill="#FFB27D"/>
<path d="M247.762 81.211C247.762 81.211 249.533 85.9373 252.25 86.6361C254.968 87.3349 256.147 86.6068 256.147 86.6068C256.147 86.6068 254.062 84.951 253.631 82.0604C253.631 82.0604 249.098 78.9614 247.762 81.211Z" fill="#A9453D"/>
<path d="M248.204 81.5939C248.204 81.5939 246.882 82.649 246.56 83.675C246.237 84.7008 246.092 86.8127 245.476 86.7409C245.476 86.7409 244.142 83.5285 245.642 81.7111C247.231 79.7842 248.204 81.5939 248.204 81.5939Z" fill="#A9453D"/>
<path d="M237.348 119.625L234.294 128.939L236.035 129.637L241.087 121.409L237.348 119.625Z" fill="#FFB27D"/>
<path d="M245.583 95.4123C245.583 95.4123 241.98 96.8417 240.938 99.0701C239.895 101.299 238.317 116.245 237.69 117.78C237.061 119.315 236.587 120.531 236.587 120.531C236.587 120.531 238.403 122.061 240.229 122.173C242.055 122.286 245.583 95.4123 245.583 95.4123Z" fill="#B4EC10"/>
<path d="M248.555 94.1281C248.555 94.1281 244.814 103.372 244.704 105.243C244.594 107.113 244.264 135.836 244.264 135.836C244.264 135.836 244.482 137.156 241.952 136.605C239.421 136.055 238.761 135.505 238.761 135.505C238.761 135.505 241.182 117.788 240.522 111.625C239.861 105.462 245.585 95.412 245.585 95.412L248.555 94.1281Z" fill="#B4EC10"/>
<path d="M231.56 179.438L233.752 179.504C234.144 179.517 234.519 179.348 234.769 179.045C236.242 177.261 241.382 170.58 244.469 160.76C244.553 160.491 244.642 160.22 244.737 159.945C246.724 154.15 250.844 146.876 253.016 140.292C253.362 139.243 253.671 138.256 253.95 137.322C254.038 137.023 254.125 136.729 254.208 136.44L251.899 134.688C251.899 134.688 244.968 145.912 242.822 156.475C240.957 165.651 233.493 176.691 231.56 179.438Z" fill="#1E3D70"/>
<path d="M251.654 157.46C251.616 162.32 251.846 173.151 252.438 178.446C252.493 178.93 252.902 179.296 253.389 179.296L255.025 179.296C255.715 179.296 256.23 179.291 256.574 179.286C256.87 179.282 257.123 179.069 257.18 178.778C258.807 170.5 259.971 163.622 260.823 157.679C261.537 152.706 262.172 148.441 262.658 144.77C263.149 141.076 263.489 137.983 263.611 135.369C263.63 134.958 263.645 134.558 263.654 134.168C263.661 133.778 263.662 133.399 263.661 133.03L250.112 131.709C250.283 140.709 251.676 154.474 251.654 157.46Z" fill="#2A4E96"/>
<path d="M255.029 179.296C255.649 179.296 256.128 179.292 256.466 179.287C256.827 179.283 257.135 179.024 257.206 178.671C258.821 170.441 259.979 163.596 260.828 157.679C261.539 152.706 262.174 148.441 262.662 144.77C263.153 141.076 263.493 137.983 263.615 135.369L258.645 138.293C258.645 138.293 261.817 139.413 260.607 147.885C259.396 156.359 256.715 178.097 255.029 179.296Z" fill="#1E3D70"/>
<path d="M254.385 135.285C254.385 135.285 255.34 138.733 258.641 138.293C261.943 137.853 266.637 135.872 266.637 135.872C266.637 135.872 265.226 131.414 263.472 125.557C261.348 118.468 258.719 109.327 257.481 103.562C257.132 101.946 256.895 100.597 256.806 99.6311L254.069 94.3172C254.069 94.3172 249.985 103.483 249.764 105.793C249.544 108.105 254.385 135.285 254.385 135.285Z" fill="#B4EC10"/>
<path d="M257.683 105.448L254.069 94.3162C254.079 94.3208 258.635 95.6718 260.927 96.8296C260.927 96.8296 262.359 98.6762 263.245 102.937C263.245 102.937 264.181 113.165 262.091 116.907C262.091 116.907 255.487 118.228 244.924 114.597L244.924 112.175C244.924 112.175 256.48 112.781 258.844 113.056L257.683 105.448Z" fill="#FFB27D"/>
<path d="M254.534 110.635C254.681 114.376 255.562 121.639 263.411 125.527C263.432 125.538 263.454 125.548 263.475 125.557C261.351 118.467 258.72 109.326 257.482 103.562C256.041 105.716 254.454 108.575 254.534 110.635Z" fill="#9DD005"/>
<path d="M254.07 94.317C254.07 94.317 260.77 94.789 262.385 98.3837C263.998 101.979 264.512 113.937 262.457 117.459C262.457 117.459 259.63 118.263 254.628 117.329C254.566 117.317 254.504 117.305 254.443 117.293C254.443 117.293 252.848 113.387 254.278 112.616C254.278 112.616 258.495 112.836 258.056 111.443C257.615 110.049 254.07 94.317 254.07 94.317Z" fill="#B4EC10"/>
<path d="M237.269 113.672L237.465 114.305L248.461 110.885C248.461 110.885 248.608 110.719 248.535 110.497C248.456 110.251 248.263 110.251 248.263 110.251L237.269 113.672Z" fill="#A9453D"/>
<path d="M236.475 114.271L237.27 113.672L237.467 114.306L236.475 114.271Z" fill="#A9453D"/>
<path d="M234.726 128.684C234.726 128.684 231.935 130.224 231.569 131.4C231.201 132.573 231.455 135.032 231.897 134.996C232.34 134.959 233.002 132.353 233.368 132.17C233.736 131.986 234.249 131.436 234.249 131.84C234.249 132.243 233.881 132.977 234.065 133.088C234.249 133.198 234.836 132.06 235.239 131.84C235.643 131.619 235.813 129.804 236.205 129.317C236.598 128.83 234.726 128.684 234.726 128.684Z" fill="#FFB27D"/>
<path d="M244.923 112.176C244.923 112.176 242.429 110.64 241.382 110.876C240.337 111.112 237.67 113.044 238.952 113.463C240.235 113.88 241.274 113.442 241.767 113.746C242.261 114.05 242.625 114.605 244.923 114.598C247.223 114.589 244.923 112.176 244.923 112.176Z" fill="#FFB27D"/>
<path d="M124.11 184.845L124.068 184.845C123.947 184.845 123.836 184.795 123.758 184.714L124.434 184.714C124.35 184.796 124.235 184.845 124.11 184.845Z" fill="#A6C4EF"/>
<path d="M123.761 184.715C123.683 184.634 123.636 184.525 123.639 184.403L124.263 157.326L126.135 157.326L124.579 184.405C124.571 184.527 124.518 184.636 124.437 184.715L123.761 184.715Z" fill="#A1C0ED"/>
<path d="M112.87 184.845L112.828 184.845C112.707 184.845 112.597 184.796 112.519 184.716L113.193 184.716C113.109 184.796 112.995 184.845 112.87 184.845Z" fill="#A6C4EF"/>
<path d="M112.517 184.716C112.439 184.636 112.391 184.525 112.394 184.403L113.02 157.277C113.158 157.309 113.302 157.326 113.45 157.326L114.89 157.326L113.333 184.405C113.326 184.528 113.273 184.637 113.191 184.716L112.517 184.716Z" fill="#A1C0ED"/>
<path d="M143.933 184.845L143.892 184.845C143.766 184.845 143.65 184.795 143.565 184.712L144.246 184.712C144.167 184.795 144.056 184.845 143.933 184.845Z" fill="#A6C4EF"/>
<path d="M143.567 184.712C143.487 184.633 143.435 184.526 143.428 184.406L141.872 157.326L143.743 157.326L144.367 184.403C144.371 184.524 144.325 184.632 144.248 184.712L143.567 184.712Z" fill="#A1C0ED"/>
<path d="M137.999 154.256L111.588 154.256L111.588 134.803C111.588 131.38 114.363 128.605 117.786 128.605L131.802 128.605C135.224 128.605 137.999 131.38 137.999 134.803L137.999 154.256Z" fill="#A1C0ED"/>
<path d="M123.281 157.326L113.45 157.326C113.301 157.326 113.157 157.309 113.019 157.277C112.199 157.082 111.588 156.345 111.588 155.466L111.588 154.255L137.999 154.255L140.51 154.255L123.281 154.255C122.521 154.255 121.905 154.871 121.905 155.631L121.905 155.951C121.905 156.71 122.521 157.326 123.281 157.326Z" fill="#A1C0ED"/>
<path d="M143.753 157.326L123.281 157.326C122.521 157.326 121.905 156.71 121.905 155.951L121.905 155.631C121.905 154.871 122.521 154.255 123.281 154.255L140.511 154.255L143.753 154.255C144.514 154.255 145.13 154.871 145.13 155.631L145.13 155.951C145.13 156.71 144.514 157.326 143.753 157.326Z" fill="#A1C0ED"/>
<path d="M159.071 173.526C159.267 174.504 160.66 174.341 162.218 173.96C163.775 173.58 163.405 174.032 165.62 173.786C167.837 173.541 168.509 172.715 168.576 172.386C168.636 172.093 167.541 171.991 166.367 171.855C166.219 171.838 166.071 171.82 165.922 171.802C164.596 171.635 163.625 170.78 162.421 170.077C161.28 169.411 159.577 166.699 159.577 166.699L156.538 166.94C156.538 166.94 158.133 169.362 158.75 170.416C159.112 171.035 159.093 171.854 159.049 172.486C159.025 172.831 159.002 173.181 159.071 173.526Z" fill="#FFB27D"/>
<path d="M162.216 173.96C163.773 173.58 163.403 174.032 165.618 173.786C167.835 173.541 168.507 172.715 168.574 172.386C168.634 172.093 167.539 171.991 166.365 171.855L166.354 171.877C166.354 171.877 165.025 172.82 163.181 172.864C161.677 172.9 160.085 172.47 159.047 172.486C159.023 172.831 159.001 173.181 159.069 173.526C159.265 174.504 160.658 174.341 162.216 173.96Z" fill="#233862"/>
<path d="M132.953 177.9C132.349 178.694 133.393 179.631 134.708 180.546C136.024 181.463 135.44 181.484 137.089 182.984C138.74 184.483 139.803 184.441 140.096 184.273C140.355 184.125 139.707 183.236 139.033 182.265C138.946 182.144 138.863 182.02 138.778 181.897C138.025 180.793 138.025 179.498 137.755 178.13C137.5 176.834 139.615 172.071 139.615 172.071L136.216 171.643C136.216 171.643 135.771 174.519 135.39 175.679C135.165 176.361 134.221 176.811 133.717 177.194C133.443 177.404 133.165 177.62 132.953 177.9Z" fill="#FFB27D"/>
<path d="M134.708 180.546C136.024 181.463 135.44 181.484 137.089 182.984C138.74 184.483 139.803 184.441 140.096 184.273C140.355 184.125 139.707 183.236 139.033 182.265L139.008 182.272C139.008 182.272 137.422 181.898 136.169 180.545C135.147 179.442 134.416 177.962 133.717 177.194C133.443 177.404 133.165 177.62 132.953 177.9C132.349 178.694 133.393 179.631 134.708 180.546Z" fill="#233862"/>
<path d="M146.838 153.551L143.733 161.906L139.679 172.817C139.679 172.817 138.579 172.923 137.526 172.62C136.556 172.339 135.443 171.606 135.443 171.606C135.443 171.606 136.569 159.891 138.669 153.167C139.207 151.441 139.81 150.045 140.475 149.258C143.731 145.412 146.838 153.551 146.838 153.551Z" fill="#163560"/>
<path d="M143.681 140.28C141.647 139.624 135.516 140.016 129.689 141.157L128.796 139.595L116.206 138.612C116.206 138.612 112.052 147.825 114.327 153.694C114.661 154.557 115.325 155.11 116.458 155.129L116.642 155.129C116.642 155.129 124.134 155.124 126.567 155.124C132.828 155.124 139.817 150.82 140.722 150.64C142.201 150.344 142.794 153.304 144.273 156.412C145.753 159.519 158.184 170.175 158.184 170.175C158.184 170.175 160.095 170.194 160.884 169.897C161.733 169.579 162.043 169.166 162.043 169.166C162.043 169.166 148.269 141.76 143.681 140.28Z" fill="#2A4E96"/>
<path d="M124.387 101.489C122.616 101.066 120.209 101.562 119.811 101.608C115.03 102.166 113.961 109.593 114.316 111.67C114.972 115.499 113.133 116.577 110.938 119.639C106.54 125.778 109.578 130.833 113.16 132.086C115.308 132.838 118.236 130.791 118.236 130.791C118.29 130.811 125.837 123.605 129.572 120.105C135.847 117.518 128.904 102.564 124.387 101.489Z" fill="#233862"/>
<path d="M125.411 118.998C125.434 119.005 123.464 120.291 121.86 120.021C120.351 119.767 118.753 117.798 118.773 117.791C119.383 117.606 119.922 116.893 119.541 113.22L119.828 113.247L124.653 113.71C124.653 113.71 124.694 115.209 124.831 116.612C124.945 117.79 125.129 118.899 125.411 118.998Z" fill="#FFB27D"/>
<path d="M124.652 113.71C124.652 113.71 124.693 115.21 124.83 116.613C122.177 116.802 120.535 114.529 119.827 113.248L124.652 113.71Z" fill="#ED975D"/>
<path d="M125.669 114.95C125.669 114.95 119.418 115.68 119.023 111.78C118.627 107.88 117.555 105.347 121.53 104.716C125.505 104.085 126.432 105.495 126.88 106.764C127.329 108.034 127.285 114.659 125.669 114.95Z" fill="#FFB27D"/>
<path d="M126.133 104.761C126.133 104.761 123.114 109.083 120.551 110.023C117.987 110.963 116.775 110.372 116.775 110.372C116.775 110.372 117.998 108.689 118.401 106.373C118.52 105.689 118.995 105.121 119.648 104.892C121.487 104.25 125.031 103.267 126.133 104.761Z" fill="#233862"/>
<path d="M123.639 105.079C123.639 105.079 125.253 106.001 125.897 106.826C126.519 107.621 127.185 109.734 127.088 110.665C127.088 110.665 128.105 106.229 126.477 104.615C124.751 102.903 123.639 105.079 123.639 105.079Z" fill="#233862"/>
<path d="M130.22 129.346C130.031 141.974 130.168 139.336 128.786 140.533C128.453 140.822 127.518 140.993 126.286 141.075C122.415 141.332 115.608 140.694 115.349 139.979C114.455 137.502 115.087 136.733 114.341 132.943C114.263 132.54 114.167 132.103 114.054 131.628C113.434 129.025 112.828 128.139 115.032 123.956C117.032 120.168 119.19 117.141 119.377 117.252C124.651 120.382 124.994 117.703 124.994 117.703C124.994 117.703 130.312 123.187 130.22 129.346Z" fill="white"/>
<path d="M143.731 161.906L139.585 173.271C139.585 173.271 138.096 173.756 137.01 173.599C135.906 173.437 135.3 172.834 135.3 172.834C135.3 172.834 136.567 159.891 138.667 153.167L143.731 161.906Z" fill="#2A4E96"/>
<path d="M124.993 117.702C124.993 117.702 130.419 118.622 131.056 120.958C131.695 123.294 136.354 136.169 136.354 136.169C136.354 136.169 132.686 137.525 131.41 136.25C130.136 134.976 126.976 124.427 126.976 124.427L124.993 117.702Z" fill="white"/>
<path d="M126.283 141.075C122.412 141.332 115.605 140.694 115.345 139.979C114.452 137.502 115.083 136.733 114.338 132.943L116.155 128.808C116.155 128.808 115.896 133.54 117.624 135.08C119.349 136.621 124.695 138.053 125.535 139.34C125.939 139.959 126.206 140.578 126.283 141.075Z" fill="#DFEBFD"/>
<path d="M126.599 138.38C126.599 138.38 127.751 139.375 128.079 139.456C128.407 139.535 128.595 139.461 128.595 139.461L127.754 138.477L126.599 138.38Z" fill="#FFB27D"/>
<path d="M126.142 137.208L129.062 137.962C129.062 137.962 128.986 138.17 128.656 138.221C128.326 138.273 127.438 138.137 127.438 138.137L126.142 137.208Z" fill="#FFB27D"/>
<path d="M121.191 138.818C121.191 138.818 125.359 136.963 126.141 137.208C126.925 137.454 128.931 138.516 129.246 138.963C129.561 139.41 127.602 138.907 126.991 138.87C126.594 138.845 125.675 139.388 125.219 139.651C123.298 140.754 121.965 140.656 121.965 140.656L121.191 138.818Z" fill="#FFB27D"/>
<path d="M119.375 117.252C119.375 117.252 113.478 118.359 112.385 119.993C110.002 123.559 104.927 138.336 107.768 140.317C110.969 142.549 122.334 140.901 122.334 140.901C122.334 140.901 122.711 139.134 122.185 138.278C121.66 137.423 113.108 136.042 112.714 135.647C112.319 135.253 116.613 129.546 116.156 128.454C114.691 124.955 119.375 117.252 119.375 117.252Z" fill="white"/>
<path d="M142.687 138.188C142.687 138.188 146.814 139.303 147.238 139.943C147.663 140.584 148.493 142.543 148.458 143.053C148.423 143.564 147.296 142.042 146.875 141.653C146.601 141.4 145.611 141.253 145.124 141.174C143.898 140.975 143.305 140.413 142.846 140.133C142.537 139.946 142.163 139.981 142.163 139.981L142.687 138.188Z" fill="#FFB27D"/>
<path d="M146.878 141.066C146.878 141.066 147.128 142.471 147.319 142.722C147.512 142.975 147.691 143.031 147.691 143.031L147.662 141.818L146.878 141.066Z" fill="#FFB27D"/>
<path d="M147.239 139.943L148.918 142.217C148.918 142.217 148.74 142.323 148.469 142.165C148.199 142.007 147.633 141.385 147.633 141.385L147.239 139.943Z" fill="#FFB27D"/>
<path d="M142.847 140.133C142.847 140.133 143.23 141.062 143.993 141.394C144.757 141.728 145.318 142.228 145.441 142.048C145.563 141.869 144.862 140.921 144.862 140.921L142.847 140.133Z" fill="#FFB27D"/>
<path d="M135.257 133.125L143.937 138.612C143.937 138.612 143.025 139.831 142.721 139.943C141.114 140.532 133.886 139.968 131.409 136.25L135.257 133.125Z" fill="white"/>
<path d="M131.818 139.087C132.33 139.087 137.425 138.735 137.425 138.735C137.425 138.735 137.278 139.637 137.593 140.121L132.628 141.071L131.608 140.771L131.818 139.087Z" fill="#F9DDBF"/>
<path d="M123.32 139.906L131.817 139.088C131.817 139.088 131.519 140.66 132.627 141.071L123.26 141.757C123.26 141.757 122.505 140.693 123.32 139.906Z" fill="#B4EC10"/>
<path d="M137.411 138.847L131.669 139.29C131.669 139.29 131.711 139.091 131.818 139.088C131.926 139.085 137.523 138.68 137.523 138.68L137.503 138.836L137.411 138.847Z" fill="#B4EC10"/>
<path d="M132.626 141.071L137.684 140.109L137.637 139.978L132.247 141.011L132.626 141.071Z" fill="#B4EC10"/>
<path d="M73.7745 184.801L73.7288 184.801C73.4596 184.801 73.2432 184.578 73.2493 184.307L73.9763 152.609L76.1181 152.358L74.2917 184.31C74.276 184.585 74.0491 184.801 73.7745 184.801Z" fill="#77A4E5"/>
<path d="M61.2928 184.801L61.2471 184.801C60.9779 184.801 60.7614 184.578 60.7676 184.307L61.4948 152.609L63.6365 152.358L61.8102 184.31C61.7943 184.585 61.5673 184.801 61.2928 184.801Z" fill="#77A4E5"/>
<path d="M95.7334 184.801L95.7791 184.801C96.0483 184.801 96.2647 184.578 96.2586 184.307L95.5314 152.609L93.3897 152.358L95.2161 184.31C95.2319 184.585 95.4587 184.801 95.7334 184.801Z" fill="#77A4E5"/>
<path d="M59.8736 150.643L59.8736 128.922C59.8736 125.101 62.9539 122.002 66.7536 122.002L82.312 122.002C86.1118 122.002 89.1921 125.101 89.1921 128.922L89.1921 151.473L59.8736 150.643Z" fill="#77A4E5"/>
<path d="M91.9796 154.072L61.9454 154.072C60.8012 154.072 59.8736 153.145 59.8736 152L59.8736 150.644L91.9796 150.644L91.9796 154.072Z" fill="#77A4E5"/>
<path d="M95.5753 154.072L72.8575 154.072C72.0114 154.072 71.3256 153.387 71.3256 152.541L71.3256 152.175C71.3256 151.329 72.0114 150.644 72.8575 150.644L95.5753 150.644C96.4213 150.644 97.1073 151.329 97.1073 152.175L97.1073 152.541C97.1073 153.387 96.4213 154.072 95.5753 154.072Z" fill="#77A4E5"/>
<path d="M83.3567 113.979C83.3567 113.979 82.0545 115.087 81.7715 117.96C81.5566 120.142 83.0701 137.077 84.2087 138.424C87.4126 142.21 91.4283 140.61 93.0013 141.185L94.4851 139.851C94.4851 139.851 89.2678 136.001 88.8709 134.745C87.3424 129.909 88.2899 115.806 83.3567 113.979Z" fill="#F9DDBF"/>
<path d="M82.4232 100.165C82.4232 100.165 82.5113 97.0597 78.415 96.4497C74.3186 95.8409 73.1867 96.7978 72.4903 97.8432C71.7938 98.8873 70.4878 103.154 70.6184 104.852C70.749 106.549 75.4213 108.648 75.3451 109.639C75.269 110.629 82.4232 100.165 82.4232 100.165Z" fill="#163560"/>
<path d="M101.423 182.121C101.29 183.17 102.722 183.479 104.387 183.625C106.053 183.772 105.536 184.101 107.807 184.606C110.078 185.112 111.018 184.508 111.193 184.2C111.352 183.926 110.304 183.451 109.189 182.916C109.048 182.85 108.907 182.78 108.766 182.712C107.512 182.095 106.839 180.904 105.883 179.789C104.977 178.732 104.199 175.428 104.199 175.428L101.117 174.638C101.117 174.638 101.884 177.615 102.143 178.883C102.294 179.629 102.002 180.447 101.747 181.067C101.609 181.405 101.469 181.75 101.423 182.121Z" fill="#FFB27D"/>
<path d="M104.385 183.625C106.051 183.772 105.534 184.101 107.806 184.606C110.077 185.112 111.016 184.508 111.192 184.2C111.35 183.926 110.302 183.451 109.187 182.916L109.168 182.935C109.168 182.935 107.541 183.432 105.704 182.85C104.206 182.377 102.777 181.402 101.745 181.067C101.607 181.405 101.468 181.75 101.421 182.121C101.289 183.17 102.72 183.479 104.385 183.625Z" fill="#233862"/>
<path d="M78.3424 139.327C78.3424 139.327 98.9527 141.465 102.35 144.621C105.747 147.776 105.142 177.169 105.142 177.169C104.613 177.718 104.223 177.705 103.388 177.64C102.585 177.576 100.95 176.887 100.95 176.887C100.95 176.887 96.5364 162.454 96.4813 159.112C96.4262 155.77 95.7282 150.099 94.3262 149.764C92.9243 149.43 76.2388 151.302 74.4095 146.031C72.5803 140.761 75.6177 136.425 75.6177 136.425L78.3424 139.327Z" fill="#9DD005"/>
<path d="M68.7145 144.63C69.6039 145.225 71.194 146.142 73.862 146.238C78.6364 146.411 84.5939 145.843 85.7666 144.735C86.0709 144.449 86.2198 143.975 86.2616 143.374C86.3909 141.542 85.5159 138.528 84.9283 136.033C84.5469 134.413 84.2871 133.013 84.4999 132.298C85.1476 130.119 87.16 125.68 87.3337 124.222C87.5075 122.763 85.7666 114.947 83.3599 113.979C80.9518 113.011 71.6628 113.979 71.6628 113.979C68.0337 114.716 67.8809 122.453 69.0862 129.039C69.1175 129.209 69.1489 129.378 69.1816 129.544C70.4875 136.232 66.2332 142.967 68.7145 144.63Z" fill="#F9DDBF"/>
<path d="M80.7151 115.402C80.6499 115.827 79.4882 116.515 77.0052 115.861C74.6258 115.233 74.3402 114.458 74.3407 113.947C74.3413 113.341 75.3748 112.526 75.3615 108.798L75.6468 108.855L80.4438 109.805C80.4438 109.805 80.3346 111.314 80.3314 112.737C80.3281 113.931 80.8239 114.696 80.7151 115.402Z" fill="#FFB27D"/>
<path d="M80.4422 109.805C80.4422 109.805 80.333 111.314 80.3298 112.737C77.6454 112.661 76.2265 110.212 75.6452 108.855L80.4422 109.805Z" fill="#ED975D"/>
<path d="M81.3402 111.151C81.3402 111.151 74.9891 111.256 74.9848 107.3C74.9804 103.343 74.1577 100.692 78.2125 100.459C82.2674 100.224 83.0569 101.733 83.3796 103.053C83.7022 104.373 82.9922 111.022 81.3402 111.151Z" fill="#FFB27D"/>
<path d="M81.1049 100.362C81.1049 100.362 79.366 105.003 76.6973 105.689C74.0285 106.376 72.8709 105.661 72.8709 105.661C72.8709 105.661 74.918 104.034 75.3428 101.195C75.3428 101.195 79.7931 98.1522 81.1049 100.362Z" fill="#163560"/>
<path d="M80.6734 100.739C80.6734 100.739 81.9721 101.775 82.2886 102.782C82.6053 103.79 82.7477 105.864 83.3521 105.793C83.3521 105.793 84.6623 102.638 83.1899 100.854C81.6287 98.9619 80.6734 100.739 80.6734 100.739Z" fill="#163560"/>
<path d="M85.9425 182.983C85.9273 184.042 87.3838 184.183 89.0546 184.136C90.7254 184.09 90.2489 184.476 92.5618 184.717C94.8747 184.957 95.7405 184.249 95.8817 183.923C96.0076 183.633 94.914 183.282 93.7464 182.88C93.5994 182.829 93.4521 182.777 93.3049 182.725C91.9897 182.255 91.1876 181.151 90.1139 180.153C89.0969 179.208 91.3417 174.633 91.3417 174.633L88.3991 173.178C88.3991 173.178 87.841 176.442 87.1225 179.3C86.9369 180.037 86.3317 181.254 86.1469 181.899C86.0474 182.251 85.9473 182.611 85.9425 182.983Z" fill="#FFB27D"/>
<path d="M68.8389 143.843C69.7283 144.439 71.1917 146.142 73.8597 146.238C78.2632 145.236 83.2766 144.07 86.2593 143.374C86.3886 141.542 85.5136 138.527 84.9261 136.033C81.4484 137.095 76.273 133.478 74.5336 132.048C72.7052 130.546 72.7627 125.542 72.7627 125.542L69.084 129.039C69.1153 129.209 69.1467 129.378 69.1793 129.544C70.4852 136.231 66.3578 142.18 68.8389 143.843Z" fill="#F2CCAA"/>
<path d="M89.0546 184.136C90.7254 184.09 90.2489 184.476 92.5618 184.717C94.8747 184.957 95.7405 184.249 95.8817 183.923C96.0076 183.633 94.914 183.282 93.7464 182.88L93.7302 182.9C93.7302 182.9 92.1685 183.58 90.2784 183.215C88.7377 182.916 87.209 182.114 86.1469 181.899C86.0474 182.251 85.9473 182.611 85.9425 182.983C85.9273 184.042 87.3838 184.183 89.0546 184.136Z" fill="#233862"/>
<path d="M73.8933 140.585C79.1261 140.435 94.755 141.684 97.7575 143.947C101.453 146.733 90.8955 176.866 90.8955 176.866C90.8955 176.866 89.6696 176.984 89.2813 176.94C87.6046 176.75 86.9217 176.239 86.9217 176.239C86.9217 176.239 86.9626 158.505 88.1961 155.112C89.336 151.978 90.0345 150.869 88.6065 150.681C87.1784 150.494 69.3557 152.767 67.8681 147.387C66.7062 143.184 68.4229 139.294 68.4229 139.294C68.4229 139.294 69.0659 140.722 73.8933 140.585Z" fill="#B4EC10"/>
<path d="M71.6623 113.979C71.6623 113.979 68.0273 114.287 67.7444 117.16C67.5297 119.342 65.9485 134.816 67.0871 136.162C70.291 139.948 80.9745 140.752 82.5475 141.326L82.9801 139.535C82.9801 139.535 71.5752 133.789 71.7492 132.483C71.9234 131.177 75.1484 113.463 71.6623 113.979Z" fill="#F9DDBF"/>
<path d="M74.4697 98.012C74.4697 98.012 74.7305 96.3543 72.432 95.9272C70.1336 95.4989 70.0905 100.381 69.8443 101.559C69.5981 102.735 70.2119 103.441 71.0885 103.511C71.9651 103.583 74.4697 98.012 74.4697 98.012Z" fill="#163560"/>
<path d="M83.1046 139.456C83.1046 139.456 86.3527 138.537 87.1264 138.751C87.9002 138.966 90.5509 140.722 90.1781 141.199C89.8055 141.675 87.4704 140.913 86.3957 141.058C85.3211 141.202 84.4901 141.732 83.7165 141.617C82.9428 141.503 82.1338 141.199 82.1338 141.199L83.1046 139.456Z" fill="#FFB27D"/>
<path d="M83.1033 139.456C83.1033 139.456 84.6925 138.64 85.1445 138.175C85.2016 138.117 85.2981 138.129 85.3419 138.199C85.4631 138.39 85.5764 138.758 85.019 139.125C84.2166 139.653 83.1033 139.456 83.1033 139.456Z" fill="#FFB27D"/>
<path d="M94.4891 139.851C94.4891 139.851 97.8597 140.036 98.5218 140.491C99.1838 140.945 101.122 143.465 100.614 143.795C100.107 144.126 98.1457 142.646 97.0825 142.434C96.0192 142.223 95.0611 142.454 94.3666 142.094C93.6718 141.735 93.0053 141.184 93.0053 141.184L94.4891 139.851Z" fill="#FFB27D"/>
<path d="M71.3331 185.078L57.6189 185.078C56.9593 184.272 57.2022 181.303 57.3022 180.333C57.3227 180.137 57.3369 180.024 57.3369 180.024C57.3369 180.024 62.02 176.278 62.6632 179.146C62.6828 179.237 62.7067 179.324 62.7327 179.41C63.5431 182.093 67.1782 183.313 69.2775 183.652C70.6421 183.874 71.1466 184.583 71.3331 185.078Z" fill="#1B3051"/>
<path d="M33.9112 140.515C34.4062 140.515 57.4029 144.832 61.2068 149.541C63.107 151.894 63.3895 179.059 63.3895 179.059C63.3895 179.059 61.0384 181.974 55.9611 180.281C55.9611 180.281 52.2384 161.695 52.5134 156.057C52.5894 154.499 36.8009 155.832 33.9112 155.084C31.0213 154.336 23.9608 148.05 25.5165 144.988C27.0723 141.925 33.9112 140.515 33.9112 140.515Z" fill="#233862"/>
<path d="M50.5623 139.239C50.5623 139.239 52.0341 140.508 53.5434 140.867C54.4041 141.072 55.238 141.306 55.7339 141.534C57.0996 142.16 59.69 144.957 59.4489 145.236C58.6766 146.128 55.5655 143.805 54.9703 143.969C54.375 144.133 55.9466 145.483 55.3232 145.849C54.9975 146.042 54.3841 144.875 53.8102 144.711C53.0338 144.489 52.5184 143.316 52.2861 143.236C51.8334 143.08 49.9438 141.386 49.9438 141.386L50.5623 139.239Z" fill="#FFB27D"/>
<path d="M77.3941 185.078L63.6798 185.078C63.0203 184.272 63.2633 181.303 63.3631 180.333C63.3837 180.137 63.3978 180.024 63.3978 180.024C63.3978 180.024 68.0809 176.278 68.7242 179.146C68.7438 179.237 68.7676 179.324 68.7937 179.41C69.604 182.093 73.2392 183.313 75.3383 183.652C76.703 183.874 77.2076 184.583 77.3941 185.078Z" fill="#1E3C68"/>
<path d="M40.6885 140.515C41.1835 140.515 64.1802 144.832 67.9841 149.541C69.8844 151.894 70.1668 179.059 70.1668 179.059C70.1668 179.059 67.8158 181.974 62.7385 180.281C62.7385 180.281 59.0158 161.695 59.2907 156.057C59.3667 154.499 43.5782 155.832 40.6885 155.084C37.7986 154.336 30.7381 148.05 32.2939 144.988C33.8496 141.925 40.6885 140.515 40.6885 140.515Z" fill="#2B478B"/>
<path d="M39.2486 112.569C37.5942 112.432 35.8597 111.991 34.3605 111.505C32.4866 110.897 30.9761 110.008 31.9495 108.296C32.8465 106.717 34.2985 103.19 34.2003 100.269L37.6874 103.079L40.0561 104.987C40.0561 104.987 40.0464 106.113 39.7876 108.086C39.7401 108.444 39.6848 108.832 39.6194 109.248C39.5668 109.583 39.7208 109.917 40.0089 110.096C40.0269 110.107 40.0447 110.117 40.0625 110.129C41.2396 110.869 40.6341 112.684 39.2486 112.569Z" fill="#FFB27D"/>
<path d="M40.0572 104.524C40.0572 104.524 40.1783 104.932 39.9702 106.441C37.8585 106.097 35.8843 104.412 35.8843 104.412C36.9594 104.117 37.3507 102.955 38.1515 103.063L40.0572 104.524Z" fill="#ED975D"/>
<path d="M42.0097 104.867C42.0097 104.867 33.8867 106.217 33.1242 101.146C32.3616 96.0736 30.7996 92.8326 35.9537 91.7565C41.1078 90.6805 42.4089 92.4633 43.075 94.095C43.7413 95.7256 44.103 104.386 42.0097 104.867Z" fill="#FFB27D"/>
<path d="M44.2707 91.8507C44.6197 93.0718 43.6861 94.5585 42.119 95.0481C39.7929 95.7761 40.3068 98.629 39.2601 98.5901C38.2133 98.5511 37.791 96.9501 36.8561 98.229C36.0585 99.3204 37.5199 100.615 37.4193 101.213C37.2467 102.241 35.6373 104.343 34.187 104.237C32.7367 104.132 30.0229 97.2391 30.5656 95.1071C31.1084 92.9751 33.2795 90.7263 35.3343 90.416C37.3891 90.1057 40.2426 90.9929 40.9017 90.9929C41.5609 90.9929 44.0823 91.19 44.2707 91.8507Z" fill="#2B478B"/>
<path d="M46.2839 138.995C46.1481 140.165 45.9016 140.961 45.5144 141.22C44.3034 142.032 42.6976 143.039 40.9057 144.039C34.5517 147.582 25.8524 151.001 24.0832 145.013C22.0045 137.98 23.3702 124.774 25.4086 116.571C26.5818 111.846 29.8274 106.887 32.0216 106.892C35.7601 106.899 41.1346 107.885 43.305 113.238C44.1449 115.312 45.3798 122.499 46.0098 129.081C46.3857 133.003 46.5468 136.71 46.2839 138.995Z" fill="white"/>
<path d="M31.645 106.938L32.4916 105.03C32.4916 105.03 39.9968 105.794 41.2702 110.107C41.2702 110.107 35.4687 107.03 31.645 106.938Z" fill="#DFEBFD"/>
<path d="M46.285 138.995C46.1492 140.165 45.9027 140.962 45.5155 141.22C44.3044 142.032 42.6986 143.039 40.9068 144.039C39.0369 142.901 35.1978 140.189 34.3 136.993C33.1268 132.812 33.9491 127.669 33.9491 127.669L46.285 138.995Z" fill="#DFEBFD"/>
<path d="M33.1688 113.369C33.1688 113.369 33.8197 131.332 34.8412 134.883C36.5832 140.941 52.4707 143.098 52.4707 143.098C52.4707 143.098 53.4079 142.036 52.9889 140.274C52.9889 140.274 43.4907 132.788 43.213 131.363C42.9351 129.937 45.2824 120.279 42.5998 116.768C39.9172 113.255 34.9711 110.212 33.1688 113.369Z" fill="white"/>
<path d="M13.2506 184.907L13.1984 184.906C12.7705 184.897 12.4402 184.548 12.4804 184.146L15.3345 155.641L17.8251 155.863L13.7268 184.521C13.6947 184.745 13.49 184.911 13.2506 184.907Z" fill="#77A4E5"/>
<path d="M27.9401 184.907L27.8877 184.906C27.4599 184.897 27.1294 184.548 27.1698 184.146L30.024 155.641L32.5145 155.863L28.4162 184.521C28.3841 184.745 28.1794 184.911 27.9401 184.907Z" fill="#77A4E5"/>
<path d="M55.5216 184.907L55.574 184.906C56.0018 184.897 56.3323 184.548 56.292 184.146L53.4379 155.641L50.9473 155.863L55.0457 184.521C55.0777 184.745 55.2825 184.911 55.5216 184.907Z" fill="#77A4E5"/>
<path d="M14.0569 151.604L11.3479 127.795C10.9928 124.365 12.1409 121.005 17.0917 120.746L25.8016 120.215C30.964 120.002 33.2947 124.298 33.9482 127.606L39.1189 153.776L14.0569 151.604Z" fill="#77A4E5"/>
<path d="M15.5117 156.058L54.1688 156.058C54.9455 156.058 55.581 155.423 55.581 154.645L55.581 152.907C55.581 152.13 54.9455 151.495 54.1688 151.495L14.0996 151.495L14.0996 154.645C14.0996 155.423 14.7351 156.058 15.5117 156.058Z" fill="#77A4E5"/>
<path d="M15.1963 156.058L38.0215 156.058C38.6248 156.058 39.1182 155.564 39.1182 154.962L39.1182 152.591C39.1182 151.988 38.6248 151.495 38.0215 151.495L14.0996 151.495L14.0996 154.962C14.0996 155.564 14.5931 156.058 15.1963 156.058Z" fill="#77A4E5"/>
<path d="M346.513 186.13L2.40693 186.13C2.13972 186.13 1.92108 185.912 1.92108 185.646L1.92108 185.203C1.92108 184.935 2.13972 184.717 2.40693 184.717L346.513 184.717C346.782 184.717 347 184.935 347 185.203L347 185.646C347 185.912 346.782 186.13 346.513 186.13Z" fill="#2E3552"/>
<path d="M75.3114 79.2851L61.9292 79.2851C61.3149 79.2851 60.8123 78.7825 60.8123 78.1678L60.8123 65.2518C60.8123 64.6371 61.3149 64.1344 61.9292 64.1344L75.3114 64.1344C75.9257 64.1344 76.4284 64.6371 76.4284 65.2518L76.4284 78.1678C76.4284 78.7825 75.9257 79.2851 75.3114 79.2851Z" fill="#77A4E5"/>
<path d="M74.7328 78.6293L62.5101 78.6293C61.949 78.6293 61.49 78.1692 61.49 77.6087L61.49 65.8113C61.49 65.2508 61.949 64.7907 62.5101 64.7907L74.7328 64.7907C75.294 64.7907 75.753 65.2508 75.753 65.8113L75.753 77.6087C75.753 78.1692 75.294 78.6293 74.7328 78.6293Z" fill="#DFEBFD"/>
<path d="M68.2982 66.1732C68.2982 65.9951 68.443 65.8499 68.6217 65.8499C68.8003 65.8499 68.9451 65.9951 68.9451 66.1732C68.9451 66.3526 68.8003 66.4977 68.6217 66.4977C68.443 66.4977 68.2982 66.3526 68.2982 66.1732Z" fill="#77A4E5"/>
<path d="M70.9078 66.6312C70.9947 66.4754 71.1916 66.4188 71.3478 66.5049C71.504 66.5922 71.5602 66.7893 71.4733 66.945C71.3866 67.1019 71.1897 67.1574 71.0335 67.0712C70.8774 66.9839 70.8211 66.7869 70.9078 66.6312Z" fill="#77A4E5"/>
<path d="M73.1458 68.4083C73.2958 68.3116 73.4961 68.354 73.5929 68.5051C73.6898 68.6549 73.6466 68.8543 73.4965 68.9522C73.3463 69.049 73.1461 69.0053 73.0492 68.8555C72.9524 68.7056 72.9957 68.5051 73.1458 68.4083Z" fill="#77A4E5"/>
<path d="M74.252 71.1572C74.4306 71.1572 74.5755 71.3023 74.5755 71.4805C74.5755 71.6598 74.4306 71.8049 74.252 71.8049C74.0734 71.8049 73.9285 71.6598 73.9285 71.4805C73.9285 71.3023 74.0734 71.1572 74.252 71.1572Z" fill="#77A4E5"/>
<path d="M73.6873 74.349C73.8136 74.4752 73.8136 74.6805 73.6873 74.8067C73.5609 74.933 73.3561 74.933 73.2297 74.8067C73.1034 74.6805 73.1034 74.4752 73.2297 74.349C73.3561 74.2227 73.5609 74.2227 73.6873 74.349Z" fill="#77A4E5"/>
<path d="M71.6555 76.3853C71.7819 76.5115 71.7819 76.7168 71.6555 76.8431C71.5291 76.9693 71.3243 76.9693 71.1981 76.8431C71.0717 76.7168 71.0717 76.5115 71.1981 76.3853C71.3243 76.259 71.5291 76.259 71.6555 76.3853Z" fill="#77A4E5"/>
<path d="M68.2982 77.435C68.2982 77.2568 68.443 77.1117 68.6217 77.1117C68.8003 77.1117 68.9451 77.2568 68.9451 77.435C68.9451 77.6131 68.8003 77.7582 68.6217 77.7582C68.443 77.7582 68.2982 77.6131 68.2982 77.435Z" fill="#77A4E5"/>
<path d="M66.3248 66.6312C66.238 66.4754 66.041 66.4188 65.8848 66.5049C65.7287 66.5922 65.6725 66.7893 65.7593 66.945C65.846 67.1019 66.043 67.1574 66.1991 67.0712C66.3554 66.9839 66.4115 66.7869 66.3248 66.6312Z" fill="#77A4E5"/>
<path d="M64.0885 68.4083C63.9383 68.3116 63.7381 68.354 63.6413 68.5051C63.5443 68.6549 63.5876 68.8543 63.7377 68.9522C63.8878 69.049 64.088 69.0053 64.1849 68.8555C64.2818 68.7056 64.2386 68.5051 64.0885 68.4083Z" fill="#77A4E5"/>
<path d="M62.982 71.1572C62.8034 71.1572 62.6586 71.3023 62.6586 71.4805C62.6586 71.6598 62.8034 71.8049 62.982 71.8049C63.1608 71.8049 63.3056 71.6598 63.3056 71.4805C63.3056 71.3023 63.1608 71.1572 62.982 71.1572Z" fill="#77A4E5"/>
<path d="M63.5454 74.349C63.419 74.4752 63.419 74.6805 63.5454 74.8067C63.6718 74.933 63.8766 74.933 64.0028 74.8067C64.1292 74.6805 64.1292 74.4752 64.0028 74.349C63.8766 74.2227 63.6718 74.2227 63.5454 74.349Z" fill="#77A4E5"/>
<path d="M65.5755 76.3853C65.4492 76.5115 65.4492 76.7168 65.5755 76.8431C65.7019 76.9693 65.9067 76.9693 66.0331 76.8431C66.1593 76.7168 66.1593 76.5115 66.0331 76.3853C65.9067 76.259 65.7019 76.259 65.5755 76.3853Z" fill="#77A4E5"/>
<path d="M68.5328 71.4805C68.5328 71.3023 68.6777 71.1572 68.8564 71.1572C69.035 71.1572 69.1799 71.3023 69.1799 71.4805C69.1799 71.6598 69.035 71.8049 68.8564 71.8049C68.6777 71.8049 68.5328 71.6598 68.5328 71.4805Z" fill="#77A4E5"/>
<path d="M68.9007 71.4803L68.8123 71.4803L68.8123 67.4393L68.9007 67.4393L68.9007 71.4803Z" fill="#77A4E5"/>
<path d="M68.8987 71.5795L68.7351 71.3707L70.8775 69.6894L71.0411 69.8982L68.8987 71.5795Z" fill="#77A4E5"/>
</svg>
