<svg width="243" height="169" viewBox="0 0 243 169" fill="none" xmlns="http://www.w3.org/2000/svg">
<path d="M12.8262 168.283C12.8262 168.283 -9.79931 135.273 5.05024 101.551C16.7548 74.9708 30.1333 76.4653 39.7556 77.9595C47.9337 79.2297 53.3984 80.4998 52.8156 64.533C51.5471 29.7798 100.256 33.6544 119.997 43.7395C139.739 53.8247 139.017 62.7283 179.781 58.7298C220.543 54.7314 229.09 79.8408 221.006 103.689C211.5 131.738 266.133 131.4 231.179 168.375L12.8262 168.283Z" fill="#EBF3FA"/>
<path d="M133.397 146.042H61.3175V118.656H133.638C139.482 118.656 144.222 123.395 144.222 129.24V135.217C144.222 141.197 139.376 146.042 133.397 146.042Z" fill="#FCECDB"/>
<path d="M206.055 129.923V134.041C206.055 136.245 205.504 138.305 204.534 140.078C202.595 143.644 198.979 146.042 194.843 146.042H59.095C58.1979 146.042 57.4697 145.261 57.4697 144.301V143.685C57.4697 142.725 58.1979 141.947 59.095 141.947H141.846C142.288 141.369 142.678 140.744 143.008 140.078C143.785 138.515 144.219 136.733 144.219 134.842V129.604C144.219 128.641 144.103 127.706 143.885 126.816C143.515 125.31 142.851 123.93 141.966 122.751H59.095C58.1979 122.751 57.4697 121.973 57.4697 121.009V120.394C57.4697 119.433 58.1979 118.653 59.095 118.653H195.527C200.334 118.653 204.394 122.105 205.649 126.816C205.914 127.804 206.055 128.846 206.055 129.923Z" fill="#C9D6E7"/>
<path d="M205.65 126.816H143.884C143.518 125.31 142.851 123.93 141.966 122.75H59.094C58.1974 122.75 57.4697 121.973 57.4697 121.01V120.394C57.4697 119.433 58.1974 118.653 59.094 118.653H195.53C200.335 118.653 204.391 122.105 205.65 126.816Z" fill="#97ACC8"/>
<path d="M61.3175 132.348L71.3675 132.807L61.3175 133.085V132.348Z" fill="#F4D2B8"/>
<path d="M61.3175 136.644L85.2306 137.105L61.3175 137.383V136.644Z" fill="#F4D2B8"/>
<path d="M58.3298 167.287H129.088V145.985H57.7048C52.4036 145.985 48.1073 150.281 48.1073 155.583V157.064C48.1073 162.711 52.6806 167.287 58.3298 167.287Z" fill="#C9D6E7"/>
<path d="M125.682 167.286H206.33V145.985H125.461C120.072 145.985 115.701 150.354 115.701 155.742V157.305C115.701 162.817 120.173 167.286 125.682 167.286Z" fill="#FCECDB"/>
<path d="M110.375 167.286H209.049C209.871 167.286 210.531 166.623 210.531 165.804V165.582C210.531 164.763 209.871 164.099 209.049 164.099H110.375C109.553 164.099 108.892 164.763 108.892 165.582V165.804C108.892 166.623 109.553 167.286 110.375 167.286Z" fill="#C9D6E7"/>
<path d="M110.375 149.17H209.049C209.871 149.17 210.531 148.506 210.531 147.687V147.466C210.531 146.646 209.871 145.985 209.049 145.985H110.375C109.553 145.985 108.892 146.646 108.892 147.466V147.687C108.892 148.506 109.553 149.17 110.375 149.17Z" fill="#C9D6E7"/>
<path d="M206.33 156.634L195.343 156.993L206.33 157.21V156.634Z" fill="#F4D2B8"/>
<path d="M206.328 151.732L180.189 152.09L206.328 152.306V151.732Z" fill="#F4D2B8"/>
<path d="M180.46 152.018C180.46 152.018 181.58 152.933 181.952 154.439C182.015 154.701 182.058 154.984 182.066 155.28C182.128 157.279 182.066 161.803 182.066 161.803L185.375 159.54L188.672 161.803V155.671C188.672 154.512 188.39 153.385 187.866 152.646C187.611 152.287 187.302 152.018 186.949 152.018H180.46Z" fill="#699DEE"/>
<path d="M180.453 152.02C180.453 152.02 181.573 152.935 181.945 154.44L188.574 154.529C188.574 154.529 188.316 152.376 186.945 152.02H180.453Z" fill="#568CDB"/>
<path d="M120.319 118.712H50.6747V87.4129H120.572C126.75 87.4129 131.762 92.4233 131.762 98.6036V107.268C131.762 113.588 126.636 118.712 120.319 118.712Z" fill="#FCECDB"/>
<path d="M131.803 99.5573V106.294C131.787 109.171 130.452 111.667 128.495 113.002C127.53 113.657 126.412 114.031 125.23 114.031H48.5393C47.6414 114.031 46.9128 114.9 46.9128 115.975V116.769C46.9128 117.841 47.6414 118.712 48.5393 118.712H181.022C184.822 118.712 188.181 116.456 190.21 113.002C191.489 110.825 192.242 108.174 192.242 105.311V99.9976C192.242 98.0356 191.864 96.1784 191.194 94.5244C189.489 90.3173 185.882 87.4153 181.707 87.4153H48.5393C47.6414 87.4153 46.9128 88.2844 46.9128 89.3568V90.1507C46.9128 91.2254 47.6414 92.0946 48.5393 92.0946H125.463C127.302 92.0946 128.964 93.0299 130.125 94.5244C131.157 95.85 131.791 97.6135 131.803 99.5573Z" fill="#C9D6E7"/>
<path d="M46.9128 115.975V116.768C46.9128 117.841 47.643 118.712 48.542 118.712H181.022C184.822 118.712 188.182 116.456 190.212 113.002H128.492C127.53 113.657 126.412 114.031 125.23 114.031H48.542C47.643 114.031 46.9128 114.9 46.9128 115.975Z" fill="#97ACC8"/>
<path d="M50.6747 103.064L60.5058 103.588L50.6747 103.905V103.064Z" fill="#F4D2B8"/>
<path d="M50.6729 95.8613L74.0611 96.386L50.6729 96.7031V95.8613Z" fill="#F4D2B8"/>
<path d="M119.577 96.2815C119.577 96.2815 118.033 97.274 117.52 98.9053C117.432 99.1902 117.373 99.4958 117.363 99.8178C117.275 101.985 117.363 106.89 117.363 106.89L112.805 104.437L108.258 106.89V100.242C108.258 98.9849 108.649 97.7622 109.376 96.9614C109.721 96.5734 110.151 96.2815 110.633 96.2815H119.577Z" fill="#2B478B"/>
<path d="M119.575 96.281C119.575 96.281 118.032 97.2735 117.518 98.9048L108.386 99.0029C108.386 99.0029 108.746 96.6666 110.632 96.281H119.575Z" fill="#233862"/>
<path d="M99.6948 123.32C100.13 123.831 100.184 124.397 99.9613 124.999L99.9546 125.008C99.543 126.124 98.197 127.365 96.6352 128.599C96.4361 128.759 96.2574 128.902 96.1056 129.037C96.0651 129.071 96.0212 129.108 95.9841 129.142C95.9504 129.17 95.9234 129.199 95.893 129.224C94.4357 130.55 94.9789 130.86 92.3578 133.55C89.369 136.616 87.3247 136.657 86.7445 136.372C86.252 136.13 87.264 134.499 88.384 132.667C88.4379 132.578 88.4919 132.489 88.5492 132.4C88.6977 132.156 88.8461 131.909 88.9945 131.663C90.3068 129.457 89.9795 128.417 89.6962 125.118C89.4668 122.437 85.6347 110.124 85.6347 110.124L91.3289 109.184C91.3289 109.184 92.9683 118.98 94.8473 120.5C95.8526 121.31 96.9793 121.328 97.9474 121.93C98.0149 121.972 98.079 122.015 98.1464 122.058C98.6929 122.428 99.2529 122.809 99.6948 123.32Z" fill="#FFB27D"/>
<path d="M99.6953 123.32C100.13 123.831 100.184 124.397 99.9618 124.999L99.9551 125.008C99.4558 126.121 98.1402 127.356 96.6289 128.588C96.4333 128.75 96.2612 128.898 96.1061 129.037C96.0656 129.071 96.0217 129.108 95.9846 129.142C95.9509 129.17 95.9239 129.199 95.8935 129.224C94.4363 130.55 94.9794 130.86 92.3583 133.55C89.3695 136.616 87.3252 136.657 86.745 136.372C86.2525 136.13 87.2645 134.499 88.3845 132.667C88.9647 132.459 91.6533 131.387 93.7043 128.807C95.5056 126.539 96.7167 123.619 97.9479 121.93C98.0154 121.972 98.0795 122.015 98.1469 122.058C98.6934 122.428 99.2534 122.809 99.6953 123.32Z" fill="#A1CC22"/>
<path d="M53.8621 119.447C53.5005 121.199 51.0001 120.889 48.2099 120.186C45.4196 119.483 46.0806 120.3 42.1025 119.83C38.1276 119.362 36.9335 117.87 36.815 117.277C36.7121 116.752 38.6794 116.581 40.79 116.353C41.0518 116.326 41.32 116.294 41.5881 116.264C43.9699 115.981 45.722 114.457 47.895 113.211C49.9495 112.032 53.0422 107.184 53.0422 107.184L58.4949 107.654C58.4949 107.654 55.6017 111.982 54.4825 113.866C53.8216 114.973 53.8465 116.444 53.9182 117.581C53.9556 118.197 53.993 118.828 53.8621 119.447Z" fill="#FFB27D"/>
<path d="M48.2079 120.186C45.4177 119.483 46.0789 120.3 42.1021 119.83C38.1284 119.362 36.9326 117.87 36.8152 117.277C36.7101 116.752 38.6784 116.581 40.7858 116.353L40.8074 116.394C40.8074 116.394 43.1806 118.103 46.4899 118.206C49.1906 118.29 52.0549 117.537 53.9182 117.581C53.9553 118.196 53.9924 118.828 53.8626 119.447C53.5011 121.199 50.9982 120.888 48.2079 120.186Z" fill="#A1CC22"/>
<path d="M75.0197 84.7064L80.0218 98.4661L86.5535 116.432C86.5535 116.432 88.3564 116.622 90.0926 116.136C91.6889 115.687 93.5251 114.493 93.5251 114.493C93.5251 114.493 91.8122 95.2398 88.4431 84.1702C87.5766 81.3299 86.6035 79.0301 85.5204 77.7321C80.2184 71.3737 75.0197 84.7064 75.0197 84.7064Z" fill="#A1CC22"/>
<path d="M80.3579 62.9487C83.71 61.8927 93.2274 63.3435 102.788 65.2873L104.815 61.9951L125.506 60.5261C125.506 60.5261 132.221 75.7047 128.42 85.3209C127.859 86.7332 126.499 87.3215 124.635 87.3375L124.632 87.3422C124.632 87.3422 112.294 87.5542 108.3 87.5271C98.0147 87.4539 86.5838 80.3038 85.0987 79.9982C82.6712 79.4941 81.668 84.3488 79.2012 89.4366C76.7344 94.5241 56.1932 111.881 56.1932 111.881C56.1932 111.881 53.0517 111.891 51.763 111.393C50.3707 110.862 49.8638 110.18 49.8638 110.18C49.8638 110.18 72.8076 65.3262 80.3579 62.9487Z" fill="#C8FF26"/>
<path d="M105.134 33.5185C112.471 37.6254 127.348 46.1353 127.428 46.0825C127.428 46.0825 132.903 48.1905 136.032 46.1418C141.248 42.7311 144.097 33.473 134.659 25.4196C129.952 21.4041 126.594 20.4111 126.127 14.0483C125.876 10.5964 121.239 -0.822601 113.399 0.175156C112.74 0.258575 112.081 0.316856 111.421 0.290627C110.507 0.254929 108.995 0.377686 107.44 1.28947C102.985 3.89843 94.1073 31.8717 105.134 33.5185Z" fill="#233862"/>
<path d="M111.332 30.112C111.301 30.1327 114.945 31.4057 117.397 30.3401C119.703 29.3408 121.473 25.5698 121.438 25.5673C120.393 25.5127 119.251 24.5887 118.41 18.5829L117.962 18.7395L110.456 21.3815C110.456 21.3815 110.982 23.788 111.315 26.0786C111.595 28.0019 111.742 29.8429 111.332 30.112Z" fill="#FFB27D"/>
<path d="M110.456 21.3809C110.456 21.3809 110.773 23.0664 111.219 25.478C115.523 24.7342 117.341 21.0606 117.961 18.7392L110.456 21.3809Z" fill="#ED975D"/>
<path d="M109.325 23.7577C109.325 23.7577 119.582 22.4551 118.67 16.0808C117.762 9.70658 118.475 5.24543 111.888 5.8077C105.302 6.36997 104.38 8.98366 104.163 11.1849C103.95 13.3865 106.636 23.9334 109.325 23.7577Z" fill="#FFB27D"/>
<path d="M104.558 7.6972C104.558 7.6972 111.081 13.3962 115.536 13.8831C119.995 14.3703 121.695 12.95 121.695 12.95C121.695 12.95 119.08 10.7483 117.524 7.21347C117.065 6.17134 116.083 5.4517 114.947 5.34584C111.765 5.04823 105.728 4.87996 104.558 7.6972Z" fill="#233862"/>
<path d="M108.668 7.21926C108.668 7.21926 106.459 9.32521 105.756 10.894C105.078 12.4081 104.852 16.0383 105.373 17.4845C105.373 17.4845 102.002 10.8128 103.962 7.59674C106.037 4.18642 108.668 7.21926 108.668 7.21926Z" fill="#233862"/>
<path d="M102.602 45.1451C102.763 65.8882 102.57 61.5511 104.826 63.5359C105.367 64.0127 106.903 64.3071 108.924 64.4553C115.281 64.9207 126.47 63.9532 126.902 62.7808C128.398 58.7242 127.368 57.4534 128.637 51.2366C128.772 50.5752 128.933 49.8586 129.125 49.0806C130.173 44.8098 131.178 43.3634 127.607 36.4666C124.368 30.2223 120.99 25.1461 120.683 25.326C111.985 30.4069 111.318 26.079 111.318 26.079C111.318 26.079 102.517 35.0269 102.602 45.1451Z" fill="#F9DDBF"/>
<path d="M80.0197 98.4659L86.5515 116.432C86.5515 116.432 88.3544 116.621 90.0906 116.136C91.6869 115.686 93.5231 114.493 93.5231 114.493C93.5231 114.493 91.8102 95.2397 88.441 84.1701L80.0197 98.4659Z" fill="#C8FF26"/>
<path d="M111.316 26.078C111.316 26.078 102.392 27.5266 101.318 31.3571C100.244 35.1853 93.9255 57.7034 93.9255 57.7034C93.9255 57.7034 98.4513 58.5477 100.558 56.4692C102.667 54.3908 107.981 37.102 107.981 37.102L111.316 26.078Z" fill="#F9DDBF"/>
<path d="M108.922 64.4544C115.28 64.9199 126.466 63.9527 126.899 62.7801C128.397 58.7234 127.368 57.4529 128.638 51.2359L125.629 42.5754C125.629 42.5754 126.069 52.1984 123.217 54.7082C120.364 57.2177 111.569 59.5107 110.174 61.6143C109.5 62.6226 109.057 63.6377 108.922 64.4544Z" fill="#F2CCAA"/>
<path d="M116.239 60.4602C116.239 60.4602 109.976 59.0184 108.959 59.568C107.941 60.1179 105.456 62.1278 105.14 62.8329C104.824 63.5356 107.396 62.3125 108.23 62.0937C108.775 61.9545 110.191 62.4586 110.893 62.6982C113.847 63.7043 115.666 63.2093 115.666 63.2093L116.239 60.4602Z" fill="#FFB27D"/>
<path d="M120.689 25.321C120.689 25.321 129.11 25.9006 131.998 29.9891C136.063 35.7426 144.036 60.2045 139.345 63.4259C134.063 67.0533 115.414 64.2152 115.414 64.2152C115.414 64.2152 114.817 61.3063 115.688 59.908C116.562 58.5115 130.625 56.3396 131.277 55.6963C131.929 55.0531 123.264 43.0001 123.278 41.054C123.289 39.1104 120.689 25.321 120.689 25.321Z" fill="#F9DDBF"/>
<path d="M108.639 61.3138C108.639 61.3138 107.313 62.9997 106.878 63.198C106.45 63.399 106.169 63.3463 106.169 63.3463L107.066 61.7587L108.639 61.3138Z" fill="#FFB27D"/>
<path d="M108.96 59.5674L105.125 61.3972C105.125 61.3972 105.286 61.6642 105.756 61.6457C106.229 61.6275 107.418 61.2032 107.418 61.2032L108.96 59.5674Z" fill="#FFB27D"/>
<path d="M107.703 65.9344L77.4681 65.7225L68.533 43.0403L98.7202 43.2523L107.703 65.9344Z" fill="#2B478B"/>
<path d="M77.1231 64.838L117.047 65.121L117.04 66.0017L77.4673 65.7232L77.1231 64.838Z" fill="#233862"/>
<path d="M85.1814 54.4659C84.957 53.6699 85.4224 53.0286 86.2144 53.0356C87.0131 53.0402 87.8349 53.6903 88.056 54.4867C88.2804 55.2851 87.8151 55.9263 87.0197 55.9194C86.2276 55.9148 85.4025 55.2646 85.1814 54.4659Z" fill="white"/>
<path d="M232.309 82.41L152.19 81.0814C152.19 81.0814 155.789 70.3487 164.311 70.3487C164.785 70.3487 165.274 70.3818 165.778 70.4517C165.778 70.4517 172.546 60.7502 181.674 60.7502C185.634 60.7502 190.031 62.5711 194.512 67.7944C194.512 67.7944 198.736 66.6489 204.424 66.6489C209.732 66.6489 216.32 67.6455 221.956 71.5002C229.739 76.8246 232.309 82.41 232.309 82.41Z" fill="#FDFEFF"/>
</svg>
