<svg width="251" height="146" viewBox="0 0 251 146" fill="none" xmlns="http://www.w3.org/2000/svg">
<mask id="mask0_140_3984" style="mask-type:luminance" maskUnits="userSpaceOnUse" x="0" y="0" width="251" height="146">
<path d="M250.092 0.532959L0 0.532959L0 145.533H250.092V0.532959Z" fill="white"/>
</mask>
<g mask="url(#mask0_140_3984)">
<path d="M236.891 87.9381C228.053 110.823 211.436 130.872 188.355 139.684C185.353 140.828 182.287 141.799 179.174 142.591C162.706 146.79 144.691 145.329 129.511 137.679C123.068 134.429 117.194 130.135 110.727 126.933C104.261 123.73 96.8776 121.633 89.8399 123.214C83.7803 124.576 78.6678 128.477 73.5202 131.952C61.3855 140.145 46.7947 146.628 32.4256 143.814C25.8137 142.521 19.3029 138.939 16.2323 132.951C9.44544 119.714 22.2453 103.976 19.653 89.3364C17.9942 79.967 10.4178 72.9506 5.70779 64.6819C-2.35284 50.5384 -1.39995 31.751 8.05111 18.4981C17.5022 5.24525 34.9498 -1.78471 50.9466 1.22174C70.4535 4.88937 85.2018 21.3976 104.17 27.2393C116.033 30.8895 128.912 29.8005 140.242 24.9933C158.547 17.2244 183.695 5.30942 204.295 7.2502C215.249 8.28281 225.994 13.1445 233.224 21.4462C242.364 31.926 245.104 46.8046 243.579 60.6234C242.533 69.9778 240.285 79.1584 236.891 87.9381Z" fill="#EBF3FA"/>
<path d="M242.771 106.04C242.364 106.039 241.96 105.99 241.565 105.894C240.317 105.587 239.234 104.816 238.535 103.737C237.837 102.658 237.577 101.353 237.806 100.089C238.038 98.8244 238.743 97.6959 239.778 96.9336C240.813 96.1715 242.1 95.8329 243.376 95.9873C244.651 96.1418 245.82 96.7773 246.643 97.7642C247.467 98.7511 247.881 100.015 247.806 101.298C247.728 102.581 247.164 103.786 246.228 104.667C245.293 105.548 244.056 106.039 242.771 106.04ZM242.757 98.226C242.088 98.2282 241.443 98.4752 240.943 98.9207C240.443 99.366 240.124 99.979 240.044 100.644C239.967 101.309 240.134 101.979 240.515 102.529C240.896 103.079 241.466 103.47 242.117 103.628C242.823 103.8 243.568 103.683 244.189 103.306C244.809 102.927 245.252 102.319 245.423 101.613C245.596 100.907 245.48 100.162 245.101 99.5418C244.723 98.9217 244.115 98.4771 243.409 98.3058C243.195 98.2527 242.977 98.2253 242.757 98.2241V98.226Z" fill="#E7F6FF"/>
<path d="M238.166 111.389C238.452 110.206 237.727 109.015 236.543 108.728C235.36 108.441 234.17 109.168 233.882 110.35C233.596 111.533 234.322 112.724 235.504 113.011C236.689 113.297 237.879 112.571 238.166 111.389Z" fill="#E7F6FF"/>
<path d="M10.7263 105.559C9.39006 105.529 8.1193 104.974 7.18984 104.014C6.26037 103.053 5.74725 101.765 5.76184 100.429C5.77644 99.0924 6.31758 97.8155 7.26779 96.8757C8.21801 95.9358 9.50059 95.4086 10.8371 95.4086C12.1736 95.4086 13.4562 95.9358 14.4064 96.8757C15.3567 97.8155 15.8978 99.0924 15.9124 100.429C15.927 101.765 15.4138 103.053 14.4844 104.014C13.5549 104.974 12.2842 105.529 10.948 105.559H10.7263ZM10.7263 97.7469H10.6115C9.88972 97.7626 9.20327 98.0627 8.70124 98.5815C8.1992 99.1004 7.92207 99.7964 7.93 100.518C7.93794 101.24 8.23032 101.93 8.74363 102.438C9.25696 102.945 9.94983 103.23 10.6718 103.23C11.3938 103.23 12.0867 102.945 12.6 102.438C13.1133 101.93 13.4057 101.24 13.4136 100.518C13.4216 99.7964 13.1444 99.1004 12.6424 98.5815C12.1404 98.0627 11.4539 97.7626 10.7321 97.7469H10.7263Z" fill="#E7F6FF"/>
<path d="M7.10861 114.073C8.32433 114.02 9.26736 112.992 9.21491 111.776C9.16246 110.561 8.13442 109.618 6.91869 109.67C5.70298 109.723 4.75996 110.751 4.81239 111.966C4.86483 113.182 5.89288 114.125 7.10861 114.073Z" fill="#E7F6FF"/>
<path d="M137.885 23.5307C136.674 23.5319 135.503 23.0996 134.582 22.3116C133.662 21.5239 133.055 20.4327 132.87 19.2357C132.685 18.0387 132.934 16.815 133.574 15.7861C134.213 14.7572 135.199 13.9911 136.354 13.6265C137.509 13.2619 138.756 13.3228 139.87 13.7983C140.984 14.2738 141.891 15.1324 142.427 16.2187C142.963 17.305 143.092 18.5472 142.791 19.7204C142.49 20.8936 141.779 21.9204 140.787 22.6148C139.936 23.2101 138.923 23.5298 137.885 23.5307ZM137.87 15.721C137.162 15.7203 136.481 15.9928 135.969 16.4818C135.457 16.9707 135.154 17.6383 135.122 18.3455C135.09 19.0526 135.333 19.7448 135.798 20.2777C136.265 20.8106 136.918 21.1431 137.623 21.2057C138.328 21.2685 139.031 21.0569 139.583 20.6147C140.136 20.1727 140.497 19.5342 140.591 18.8326C140.684 18.1309 140.504 17.4202 140.086 16.8485C139.669 16.2768 139.047 15.8882 138.35 15.7638C138.192 15.7355 138.031 15.7212 137.87 15.721Z" fill="#E7F6FF"/>
<path d="M127.543 23.2537C128.539 22.555 128.78 21.1811 128.082 20.1846C127.383 19.1884 126.009 18.9471 125.013 19.6457C124.016 20.3445 123.775 21.7184 124.474 22.7148C125.172 23.7111 126.547 23.9524 127.543 23.2537Z" fill="#E7F6FF"/>
<path d="M250.079 49.667C250.079 47.5289 249.229 45.478 247.718 43.9661C246.205 42.4539 244.155 41.6045 242.016 41.6045C241.837 41.6045 241.66 41.6045 241.485 41.622C241.497 41.4469 241.503 41.27 241.503 41.0911C241.503 39.9453 241.258 38.8125 240.785 37.7686C240.313 36.7245 239.624 35.7932 238.763 35.0367C237.901 34.2803 236.89 33.7159 235.793 33.3815C234.699 33.0468 233.543 32.9497 232.408 33.0966C231.27 33.2436 230.179 33.631 229.203 34.233C228.229 34.8353 227.392 35.6384 226.753 36.5888C226.113 37.5393 225.683 38.6153 225.491 39.745C225.3 40.8748 225.351 42.0325 225.642 43.1407C224.668 42.4343 223.548 41.9547 222.364 41.7375C221.179 41.5203 219.962 41.571 218.801 41.8859C217.638 42.2005 216.563 42.7715 215.649 43.5567C214.737 44.342 214.013 45.3215 213.527 46.4233C213.043 47.5254 212.811 48.7217 212.85 49.9249C212.889 51.1281 213.196 52.3071 213.751 53.3761C214.303 54.4449 215.089 55.3762 216.049 56.1015C217.01 56.8271 218.12 57.3282 219.301 57.5682C219.783 58.8455 220.58 59.9796 221.621 60.8642C222.659 61.7487 223.908 62.3548 225.244 62.6257C226.582 62.8966 227.968 62.8235 229.269 62.4131C230.57 62.0026 231.747 61.2683 232.688 60.2791C233.65 61.0056 234.763 61.5069 235.945 61.7461C237.127 61.9855 238.347 61.9567 239.516 61.6619C240.686 61.3671 241.773 60.8137 242.701 60.0428C243.628 59.2717 244.369 58.3025 244.873 57.2065C246.403 56.6264 247.72 55.5946 248.652 54.2479C249.581 52.9012 250.079 51.3037 250.079 49.667Z" fill="white"/>
<path d="M37.225 30.2866C37.226 29.2273 37.0183 28.1782 36.6136 27.1992C36.2091 26.2203 35.6154 25.3306 34.8669 24.5811C34.1184 23.8316 33.2295 23.237 32.2509 22.8313C31.2724 22.4255 30.2236 22.2164 29.1644 22.2162C28.9855 22.2162 28.8085 22.2162 28.6335 22.2337C28.6452 22.0587 28.651 21.8817 28.651 21.7028C28.6508 20.557 28.4062 19.4242 27.9338 18.3802C27.4612 17.3362 26.7717 16.405 25.911 15.6485C25.0502 14.892 24.0382 14.3276 22.9422 13.9931C21.8462 13.6585 20.6915 13.5615 19.555 13.7083C18.4186 13.8552 17.3265 14.2426 16.3515 14.8448C15.3766 15.447 14.5412 16.2501 13.9011 17.2005C13.2609 18.151 12.8308 19.227 12.6392 20.3567C12.4477 21.4866 12.4992 22.6442 12.7903 23.7525C11.8158 23.0458 10.6955 22.5662 9.51157 22.3492C8.32761 22.132 7.11006 22.1828 5.94826 22.4974C4.78644 22.8122 3.70987 23.3832 2.79754 24.1685C1.88518 24.9537 1.16023 25.9332 0.675872 27.0351C0.19151 28.1371 -0.0399667 29.3335 -0.00157366 30.5366C0.0368194 31.7396 0.344108 32.9189 0.897742 33.9876C1.45138 35.0566 2.23732 35.9879 3.19786 36.7133C4.15841 37.4386 5.2692 37.94 6.44872 38.18C6.93074 39.456 7.72868 40.589 8.76781 41.4727C9.80696 42.3565 11.0533 42.9621 12.3903 43.233C13.7272 43.5039 15.111 43.4309 16.4122 43.0214C17.7133 42.6118 18.8893 41.8787 19.83 40.8908C20.7924 41.6173 21.9053 42.1187 23.0873 42.3579C24.2691 42.5973 25.4894 42.5685 26.6587 42.2735C27.8278 41.9787 28.916 41.4254 29.8431 40.6543C30.7701 39.8833 31.5124 38.9143 32.0153 37.8182C33.5449 37.2393 34.8624 36.2088 35.793 34.8637C36.7233 33.5186 37.2229 31.9222 37.225 30.2866Z" fill="white"/>
<path d="M185.551 145.009H69.5515V142.481H185.551C185.886 142.481 186.207 142.614 186.444 142.851C186.682 143.088 186.815 143.41 186.815 143.745C186.815 144.08 186.682 144.402 186.444 144.639C186.207 144.876 185.886 145.009 185.551 145.009Z" fill="#426572"/>
<path d="M64.3632 145.009H57.271C56.9357 145.009 56.6143 144.876 56.3772 144.639C56.1402 144.402 56.007 144.08 56.007 143.745C56.007 143.41 56.1402 143.088 56.3772 142.851C56.6143 142.614 56.9357 142.481 57.271 142.481H64.3632C64.6984 142.481 65.0199 142.614 65.2569 142.851C65.494 143.088 65.6272 143.41 65.6272 143.745C65.6272 144.08 65.494 144.402 65.2569 144.639C65.0199 144.876 64.6984 145.009 64.3632 145.009Z" fill="#426572"/>
<path d="M52.6676 145.009H50.4079C50.0727 145.009 49.7512 144.876 49.5142 144.639C49.2771 144.402 49.1439 144.08 49.1439 143.745C49.1439 143.41 49.2771 143.088 49.5142 142.851C49.7512 142.614 50.0727 142.481 50.4079 142.481H52.6676C53.0029 142.481 53.3244 142.614 53.5614 142.851C53.7985 143.088 53.9317 143.41 53.9317 143.745C53.9317 144.08 53.7985 144.402 53.5614 144.639C53.3244 144.876 53.0029 145.009 52.6676 145.009Z" fill="#426572"/>
<path d="M226.225 145.009H190.572V142.481H226.225C226.559 142.481 226.882 142.614 227.12 142.851C227.357 143.088 227.489 143.41 227.489 143.745C227.489 144.08 227.357 144.402 227.12 144.639C226.882 144.876 226.559 145.009 226.225 145.009Z" fill="#426572"/>
<path d="M43.9427 145.008H8.28723V142.48H43.9427C44.2779 142.48 44.5994 142.614 44.8364 142.85C45.0735 143.087 45.2067 143.409 45.2067 143.744C45.2067 144.08 45.0735 144.401 44.8364 144.638C44.5994 144.875 44.2779 145.008 43.9427 145.008Z" fill="#426572"/>
<path d="M55.2432 46.3422H185.112C187.456 46.3422 189.704 47.2729 191.361 48.9299C193.019 50.5872 193.951 52.8346 193.952 55.1787V139.239H46.4027V55.1787C46.4037 52.8346 47.3356 50.5872 48.9934 48.9299C50.651 47.2729 52.8991 46.3422 55.2432 46.3422Z" fill="#EBF0F9"/>
<path d="M188.824 52.7881H52.116V130.886H188.824V52.7881Z" fill="#637F91"/>
<path d="M51.0898 130.74H189.404C189.404 131.36 189.158 131.955 188.721 132.394C188.284 132.834 187.69 133.082 187.07 133.085H53.4332C52.8111 133.085 52.2146 132.838 51.7747 132.398C51.3349 131.959 51.0879 131.362 51.0879 130.74H51.0898Z" fill="white"/>
<g opacity="0.5">
<path opacity="0.5" d="M92.9687 52.4962L72.5283 131.325H62.2352L82.6756 52.4962H92.9687Z" fill="#A7BCD5"/>
<path opacity="0.5" d="M119.205 52.4962L98.7661 131.325H77.1804L97.6207 52.4962H119.205Z" fill="#A7BCD5"/>
</g>
<path d="M195.119 140.406H45.236V51.4101C45.238 49.7571 45.8955 48.1726 47.0644 47.0037C48.2331 45.8349 49.8177 45.1774 51.4706 45.1755H188.884C190.537 45.1774 192.122 45.8349 193.291 47.0037C194.459 48.1726 195.117 49.7571 195.119 51.4101V140.406ZM47.5696 138.072H192.785V51.4101C192.784 50.3757 192.373 49.3841 191.642 48.6527C190.91 47.9213 189.919 47.51 188.884 47.5091H51.4706C50.4363 47.51 49.4447 47.9213 48.7133 48.6527C47.9819 49.3841 47.5706 50.3757 47.5696 51.4101V138.072Z" fill="#426572"/>
<path d="M27.7928 136.456H216.517V137.077C216.517 139.088 215.717 141.017 214.296 142.439C212.872 143.862 210.943 144.661 208.932 144.661H35.377C33.3655 144.661 31.4364 143.862 30.0142 142.439C28.5919 141.017 27.7928 139.088 27.7928 137.077V136.456Z" fill="#EBF0F9"/>
<path opacity="0.5" d="M215.55 140.411C215.136 141.49 214.403 142.418 213.45 143.072C212.497 143.726 211.367 144.076 210.212 144.075H32.9208C31.7655 144.075 30.6374 143.725 29.6851 143.071C28.733 142.417 28.0012 141.49 27.5866 140.411H215.55Z" fill="#A7BCD5"/>
<path d="M208.052 145.533H34.4968C32.1766 145.531 29.9523 144.608 28.3118 142.967C26.6711 141.327 25.7483 139.102 25.7458 136.782V134.995H216.803V136.782C216.801 139.102 215.878 141.327 214.238 142.967C212.597 144.608 210.372 145.531 208.052 145.533ZM28.1027 137.329C28.2396 138.93 28.9726 140.422 30.1565 141.509C31.3406 142.596 32.8893 143.199 34.4968 143.2H208.052C209.66 143.199 211.208 142.596 212.393 141.509C213.577 140.422 214.31 138.93 214.446 137.329H28.1027Z" fill="#426572"/>
<path d="M189.697 131.613H50.6538V51.6215H189.697V131.613ZM52.9874 129.28H187.364V53.9551H52.9874V129.28Z" fill="#426572"/>
<path d="M167.926 27.7179V130.447H74.7354V27.7179C74.7389 27.2549 74.9244 26.8117 75.2519 26.4842C75.5793 26.1567 76.0225 25.9712 76.4855 25.9677H166.168C166.273 25.9677 166.379 25.9776 166.483 25.9969C166.886 26.0714 167.25 26.2839 167.513 26.598C167.777 26.912 167.922 27.3082 167.926 27.7179Z" fill="white"/>
<path d="M76.2019 34.4586H168.22V28.2784L166.46 25.9604H85.8727H77.9599L75.0293 28.2784V34.4586H76.2019Z" fill="#E2F2FF"/>
<path d="M169.383 131.613H73.8611V27.7177C73.864 26.945 74.1724 26.2049 74.7187 25.6584C75.2651 25.112 76.0053 24.8038 76.7781 24.8007H166.456C167.229 24.8038 167.969 25.112 168.515 25.6584C169.062 26.2049 169.37 26.945 169.373 27.7177L169.383 131.613ZM76.1927 129.28H167.049V27.7177C167.045 27.5642 166.983 27.418 166.874 27.3095C166.765 27.201 166.619 27.1381 166.466 27.1343H76.7859C76.6322 27.1381 76.4862 27.201 76.3777 27.3095C76.269 27.418 76.2064 27.5642 76.2025 27.7177L76.1927 129.28Z" fill="#426572"/>
<path d="M162.485 29.5616H80.51C79.8623 29.5616 79.3374 30.0864 79.3374 30.7342C79.3374 31.3818 79.8623 31.9068 80.51 31.9068H162.485C163.133 31.9068 163.658 31.3818 163.658 30.7342C163.658 30.0864 163.133 29.5616 162.485 29.5616Z" fill="#CADCE8"/>
<path d="M60.5161 124.883H32.6958C32.2376 124.887 31.7862 124.774 31.3831 124.557C30.7997 124.238 30.4263 123.715 30.4263 123.125L30.4419 84.8815C30.4423 84.6312 30.5094 84.3856 30.6364 84.1698C30.9903 83.5553 31.7895 83.1235 32.7113 83.1235H60.5317C61.504 83.1235 62.3227 83.5941 62.6494 84.2514C62.7488 84.4459 62.8007 84.6612 62.8011 84.8796L62.7875 123.125C62.7875 124.008 61.9338 124.745 60.8312 124.866C60.7265 124.878 60.6213 124.883 60.5161 124.883Z" fill="white"/>
<path d="M61.2724 124.59L33.4423 124.584C32.9841 124.587 32.5326 124.475 32.1296 124.257C31.5462 123.938 31.1729 123.415 31.1729 122.826L31.1884 84.5821C31.1888 84.3319 31.2559 84.0862 31.3829 83.8704C31.7368 83.2559 32.5361 82.8242 33.4578 82.8242H33.837L33.8312 120.481C33.8312 121.064 34.2085 121.593 34.788 121.912C35.1909 122.13 35.6425 122.242 36.1006 122.239H63.5437V122.822C63.5437 123.705 62.69 124.442 61.5874 124.562C61.483 124.577 61.3778 124.587 61.2724 124.59Z" fill="#D6DEE9"/>
<path d="M60.8934 125.756H33.0711C32.4149 125.76 31.7687 125.597 31.1925 125.284C30.2202 124.745 29.6368 123.827 29.6368 122.831L29.6523 84.5876C29.6549 84.1316 29.7776 83.6841 30.0082 83.2905C30.5916 82.289 31.7584 81.6648 33.0905 81.6648H60.9128C62.2741 81.6648 63.4895 82.3357 64.0418 83.378L64.1974 83.6172V83.7261C64.2979 84.0036 64.3492 84.2965 64.349 84.5915L64.3335 122.833C64.3335 124.3 63.0442 125.556 61.3368 125.733C61.1895 125.749 61.0414 125.757 60.8934 125.756ZM33.0847 83.9887C32.5616 83.9887 32.1532 84.2201 32.0229 84.4496C31.9974 84.4884 31.9832 84.5336 31.982 84.5798L31.9665 122.822C31.9665 122.95 32.1084 123.113 32.3204 123.232C32.5514 123.354 32.8095 123.417 33.0711 123.415H60.8914C60.9525 123.415 61.0135 123.412 61.0742 123.405C61.6576 123.343 61.996 123.016 61.996 122.822L62.0116 84.5779C62.0117 84.5548 62.0077 84.5316 61.9999 84.5098L61.891 84.3426C61.622 84.0999 61.2689 83.9721 60.907 83.9867H33.0847V83.9887Z" fill="#426572"/>
<path d="M57.6834 99.6721H38.8162V102.006H57.6834V99.6721Z" fill="#426572"/>
<path d="M57.6849 94.803H38.8177V97.1366H57.6849V94.803Z" fill="#426572"/>
<path d="M57.6849 105.19H38.8177V107.523H57.6849V105.19Z" fill="#426572"/>
<path opacity="0.2" d="M208.462 55.7625C209.821 53.2113 210.655 50.4137 210.916 47.5348C211.176 44.6558 210.857 41.7539 209.979 39.0001C209.1 36.2464 207.676 33.6968 205.796 31.5015C203.915 29.3063 201.614 27.51 199.028 26.2186C196.442 24.9271 193.623 24.1668 190.738 23.9824C187.853 23.7981 184.961 24.1934 182.231 25.1449C179.502 26.0967 176.991 27.5855 174.846 29.5234C172.701 31.4614 170.966 33.8092 169.743 36.4287C168.055 39.5994 167.182 43.1405 167.203 46.7327C167.224 50.325 168.139 53.8556 169.865 57.0061C171.591 60.1567 174.074 62.8283 177.089 64.7801C180.105 66.732 183.559 67.9029 187.14 68.187C186.515 68.3348 185.881 68.4546 185.237 68.5467C188.626 69.0354 192.084 68.7128 195.325 67.6053C198.565 66.4978 201.498 64.6372 203.88 62.176C205.786 60.3358 207.34 58.162 208.462 55.7625Z" fill="#606060"/>
<path d="M186.441 63.1317C198.395 63.1317 208.085 53.4412 208.085 41.4876C208.085 29.5339 198.395 19.8434 186.441 19.8434C174.487 19.8434 164.797 29.5339 164.797 41.4876C164.797 53.4412 174.487 63.1317 186.441 63.1317Z" fill="#C8FF26"/>
<path d="M207.053 43.0343C207.053 46.1376 206.384 49.2044 205.095 52.0269C203.805 54.8493 201.923 57.3615 199.578 59.3931C197.232 61.4246 194.477 62.9281 191.499 63.8014C188.521 64.6748 185.39 64.8976 182.319 64.4548C187.469 63.7104 192.179 61.1351 195.585 57.201C198.99 53.267 200.867 48.2373 200.867 43.0334C200.867 37.8294 198.99 32.7998 195.585 28.8657C192.179 24.9317 187.469 22.3565 182.319 21.6119C185.39 21.1689 188.522 21.3916 191.5 22.2649C194.479 23.1383 197.234 24.6417 199.579 26.6735C201.925 28.7053 203.807 31.2178 205.097 34.0407C206.386 36.8635 207.055 39.9309 207.055 43.0343H207.053Z" fill="#B4EC10"/>
<path d="M185.926 65.3283C181.414 65.3283 177.004 63.9903 173.253 61.4838C169.501 58.9774 166.578 55.4147 164.851 51.2467C163.125 47.0786 162.673 42.4921 163.553 38.0672C164.433 33.6423 166.606 29.5777 169.796 26.3875C172.986 23.1975 177.051 21.0249 181.475 20.1448C185.9 19.2646 190.487 19.7163 194.655 21.4428C198.823 23.1693 202.385 26.0931 204.892 29.8444C207.399 33.5954 208.737 38.0057 208.737 42.5173C208.731 48.5651 206.325 54.3633 202.049 58.6398C197.771 62.9161 191.973 65.3214 185.926 65.3283ZM185.926 22.042C181.876 22.042 177.917 23.243 174.549 25.493C171.182 27.7431 168.557 30.9412 167.007 34.6829C165.457 38.4246 165.052 42.542 165.842 46.5142C166.632 50.4864 168.582 54.1352 171.446 56.9989C174.31 59.8628 177.958 61.8131 181.931 62.6032C185.903 63.3933 190.02 62.9877 193.762 61.4378C197.504 59.8879 200.701 57.2633 202.951 53.8958C205.201 50.5284 206.403 46.5692 206.403 42.5193C206.397 37.0902 204.239 31.8849 200.4 28.0459C196.559 24.2068 191.355 22.0476 185.926 22.042Z" fill="#426572"/>
<path d="M136.705 97.5891H106.841C104.921 97.587 103.08 96.8233 101.722 95.4657C100.364 94.108 99.6008 92.2671 99.5987 90.3472V49.6123C99.6008 47.6921 100.364 45.8513 101.722 44.4937C103.08 43.136 104.921 42.3723 106.841 42.3704H136.705C138.625 42.3723 140.466 43.136 141.823 44.4937C143.181 45.8513 143.945 47.6921 143.947 49.6123V90.3472C143.945 92.2671 143.181 94.108 141.823 95.4657C140.466 96.8233 138.625 97.587 136.705 97.5891ZM108.643 88.5367H134.896V51.4228H108.643V88.5367Z" fill="#FBC907"/>
<path opacity="0.6" d="M144.003 64.5495V92.1637C144.001 94.0837 143.237 95.9245 141.879 97.2821C140.522 98.6399 138.681 99.4035 136.761 99.4055H106.887C104.967 99.4035 103.126 98.6399 101.768 97.2821C100.411 95.9245 99.6468 94.0837 99.6449 92.1637V64.5495H108.701V90.3474H134.954V64.5495H144.003Z" fill="#F3A70F"/>
<path d="M136.705 99.8884H106.841C104.611 99.8858 102.474 98.9991 100.898 97.4227C99.3213 95.8462 98.4345 93.709 98.432 91.4796V50.7448C98.4367 48.5168 99.3242 46.3815 100.9 44.8067C102.477 43.2321 104.613 42.3463 106.841 42.3438H136.705C138.934 42.3463 141.071 43.2331 142.648 44.8095C144.224 46.386 145.111 48.5232 145.114 50.7525V91.4796C145.111 93.709 144.224 95.8462 142.648 97.4227C141.071 98.9991 138.934 99.8858 136.705 99.8884ZM106.841 44.6774C105.23 44.6795 103.686 45.3201 102.547 46.4591C101.408 47.5979 100.768 49.142 100.766 50.7525V91.4796C100.767 93.0904 101.408 94.6347 102.547 95.7737C103.686 96.9126 105.23 97.5532 106.841 97.5548H136.705C138.316 97.5532 139.86 96.9126 140.999 95.7737C142.138 94.6347 142.779 93.0904 142.78 91.4796V50.7448C142.776 49.1356 142.134 47.5934 140.996 46.4564C139.857 45.3191 138.314 44.6795 136.705 44.6774H106.841ZM136.069 90.8437H107.482V51.3884H136.069V90.8437ZM109.816 88.5101H133.735V53.722H109.816V88.5101Z" fill="#426572"/>
<path d="M147.184 69.5944H95.9127C94.6238 69.5944 93.5791 70.6391 93.5791 71.928V117.363C93.5791 118.652 94.6238 119.697 95.9127 119.697H147.184C148.473 119.697 149.517 118.652 149.517 117.363V71.928C149.517 70.6391 148.473 69.5944 147.184 69.5944Z" fill="#FBC907"/>
<path opacity="0.6" d="M149.972 72.2687V117.167C149.97 117.856 149.696 118.517 149.208 119.005C148.72 119.492 148.06 119.767 147.37 119.769H122.453V69.6667H147.37C148.06 69.6689 148.72 69.9437 149.208 70.4312C149.696 70.9187 149.97 71.5793 149.972 72.2687Z" fill="#F3A70F"/>
<path d="M147.185 120.377H95.9143C94.986 120.377 94.0955 120.008 93.4392 119.352C92.7826 118.696 92.4139 117.805 92.4139 116.877V71.4418C92.4139 70.5134 92.7826 69.6232 93.4392 68.9666C94.0955 68.3101 94.986 67.9414 95.9143 67.9414H147.185C148.114 67.9414 149.004 68.3101 149.661 68.9666C150.317 69.6232 150.686 70.5134 150.686 71.4418V116.877C150.686 117.805 150.317 118.696 149.661 119.352C149.004 120.008 148.114 120.377 147.185 120.377ZM95.9143 70.275C95.6047 70.275 95.308 70.3979 95.0892 70.6167C94.8704 70.8355 94.7475 71.1324 94.7475 71.4418V116.877C94.7475 117.186 94.8704 117.483 95.0892 117.702C95.308 117.921 95.6047 118.044 95.9143 118.044H147.185C147.495 118.044 147.792 117.921 148.01 117.702C148.229 117.483 148.352 117.186 148.352 116.877V71.4418C148.352 71.1324 148.229 70.8355 148.01 70.6167C147.792 70.3979 147.495 70.275 147.185 70.275H95.9143Z" fill="#426572"/>
<path d="M197.248 34.2504C196.781 33.9895 196.231 33.9194 195.714 34.055C195.196 34.1905 194.751 34.5213 194.473 34.9775L190.725 41.1032L184.738 50.881L184.571 51.1552L177.657 45.6246L176.397 44.6174C175.571 43.9563 174.324 43.7482 173.529 44.6174C172.852 45.3545 172.644 46.7778 173.529 47.4856L182.418 54.5953L183.678 55.6026C184.201 56.0227 184.699 56.2522 185.382 56.1608C185.687 56.1234 185.979 56.0161 186.236 55.8475C186.493 55.6789 186.708 55.4535 186.863 55.1884L190.611 49.0627L196.6 39.2869L197.983 37.0274C198.529 36.1212 198.203 34.7599 197.248 34.2504Z" fill="white"/>
</g>
</svg>
