<svg width="24" height="35" viewBox="0 0 24 35" fill="none" xmlns="http://www.w3.org/2000/svg">
<path d="M12.0007 21.3951C5.98469 21.3951 1.17188 17.9161 1.17188 11.3111C1.17188 10.1767 1.31626 6.14305 1.58096 3.47079C1.64639 2.85133 1.92853 2.27922 2.37293 1.86487C2.81733 1.45053 3.39248 1.22332 3.98737 1.2271H20.0141C20.609 1.22332 21.1841 1.45053 21.6285 1.86487C22.0729 2.27922 22.355 2.85133 22.4205 3.47079C22.6852 6.2691 22.8296 10.1767 22.8296 11.3111C22.8296 17.9161 18.0167 21.3951 12.0007 21.3951ZM12.0007 21.3951V34.0001M7.1879 34.0001H16.8135" stroke="#282828" stroke-width="2" stroke-linecap="round" stroke-linejoin="round"/>
<path d="M12.0002 1.22705L8.39062 6.26905L13.2034 10.0506L10.797 13.8321" stroke="#282828" stroke-width="2" stroke-linecap="round" stroke-linejoin="round"/>
</svg>
