<svg width="34" height="33" viewBox="0 0 34 33" fill="none" xmlns="http://www.w3.org/2000/svg">
<path d="M26.3857 7.09277H15.8269C14.531 7.09277 13.4805 8.14329 13.4805 9.43917V19.998C13.4805 21.2939 14.531 22.3444 15.8269 22.3444H26.3857C27.6815 22.3444 28.7321 21.2939 28.7321 19.998V9.43917C28.7321 8.14329 27.6815 7.09277 26.3857 7.09277Z" stroke="#282828" stroke-width="2" stroke-linecap="round" stroke-linejoin="round"/>
<path d="M9.96045 28.2107H27.8165C28.4321 28.2132 29.022 28.4576 29.459 28.8911L32.2512 31.7303M9.96045 28.2107C9.97204 28.0153 9.97204 27.8194 9.96045 27.6241C9.88448 26.5694 9.4023 25.5853 8.61539 24.879C7.82848 24.1727 6.79823 23.7992 5.74151 23.8373C4.6848 23.8753 3.68404 24.3218 2.94991 25.0828C2.21577 25.8438 1.80552 26.86 1.80552 27.9174C1.80552 28.9748 2.21577 29.9909 2.94991 30.7519C3.68404 31.5129 4.6848 31.9594 5.74151 31.9974C6.79823 32.0355 7.82848 31.662 8.61539 30.9557C9.4023 30.2494 9.88448 29.2653 9.96045 28.2107ZM1.74805 1.22705H4.09445C4.71675 1.22705 5.31357 1.47426 5.7536 1.9143C6.19364 2.35433 6.44085 2.95115 6.44085 3.57345V23.5179M20.5192 16.4787H22.8656" stroke="#282828" stroke-width="2" stroke-linecap="round" stroke-linejoin="round"/>
</svg>
