<svg width="32" height="38" viewBox="0 0 32 38" fill="none" xmlns="http://www.w3.org/2000/svg">
<path d="M31 19.1135V6.61353C31 5.28744 30.4732 4.01567 29.5355 3.07799C28.5979 2.14031 27.3261 1.61353 26 1.61353H6C4.67392 1.61353 3.40215 2.14031 2.46447 3.07799C1.52678 4.01567 1 5.28744 1 6.61353V19.1135M31 19.1135H1M31 19.1135V24.1135C31 25.4396 30.4732 26.7114 29.5355 27.6491C28.5979 28.5867 27.3261 29.1135 26 29.1135H18.5V34.1135C18.5 34.7766 18.2366 35.4125 17.7678 35.8813C17.2989 36.3501 16.663 36.6135 16 36.6135C15.337 36.6135 14.7011 36.3501 14.2322 35.8813C13.7634 35.4125 13.5 34.7766 13.5 34.1135V29.1135H6C4.67392 29.1135 3.40215 28.5867 2.46447 27.6491C1.52678 26.7114 1 25.4396 1 24.1135V19.1135M11 1.61353V12.8635M16 1.61353V7.86353" stroke="#282828" stroke-width="2"/>
</svg>
