<svg width="30" height="31" viewBox="0 0 30 31" fill="none" xmlns="http://www.w3.org/2000/svg">
<path fill-rule="evenodd" clip-rule="evenodd" d="M7.08 11.9144C9.75508 11.9144 11.9237 9.7458 11.9237 7.07072C11.9237 4.39564 9.75508 2.22705 7.08 2.22705C4.40491 2.22705 2.23633 4.39564 2.23633 7.07072C2.23633 9.7458 4.40491 11.9144 7.08 11.9144ZM13.9124 7.46712C13.848 8.59388 13.5111 9.64765 12.9665 10.5635L19.3569 16.9539C19.811 16.7591 20.3112 16.6512 20.8366 16.6512C22.9104 16.6512 24.5915 18.3323 24.5915 20.4061C24.5915 22.4799 22.9104 24.161 20.8366 24.161C18.7628 24.161 17.0817 22.4799 17.0817 20.4061C17.0817 19.5876 17.3435 18.8304 17.788 18.2135L11.697 12.1224C10.8664 12.882 9.84789 13.4394 8.7193 13.7168V23.8654C9.97227 24.4739 10.836 25.7586 10.836 27.2451C10.836 29.3188 9.15488 31 7.0811 31C5.00732 31 3.32619 29.3188 3.32619 27.2451C3.32619 25.2933 4.81527 23.6894 6.7193 23.5074L6.7193 13.905C3.10732 13.7175 0.236328 10.7294 0.236328 7.07072C0.236328 3.29107 3.30034 0.227051 7.08 0.227051C10.3074 0.227051 13.013 2.4611 13.7348 5.46712H22.6119C23.2134 4.19543 24.5081 3.31572 26.0082 3.31572C28.082 3.31572 29.7631 4.99685 29.7631 7.07063C29.7631 9.14441 28.082 10.8255 26.0082 10.8255C24.0684 10.8255 22.4721 9.35452 22.274 7.46712H13.9124ZM7.0811 29C8.05031 29 8.83601 28.2143 8.83601 27.2451C8.83601 26.2758 8.05031 25.4901 7.0811 25.4901C6.11189 25.4901 5.32619 26.2758 5.32619 27.2451C5.32619 28.2143 6.11189 29 7.0811 29ZM22.5915 20.4061C22.5915 21.3753 21.8058 22.161 20.8366 22.161C19.8674 22.161 19.0817 21.3753 19.0817 20.4061C19.0817 19.4369 19.8674 18.6512 20.8366 18.6512C21.8058 18.6512 22.5915 19.4369 22.5915 20.4061ZM26.0082 8.82554C26.9774 8.82554 27.7631 8.03984 27.7631 7.07063C27.7631 6.10142 26.9774 5.31572 26.0082 5.31572C25.039 5.31572 24.2533 6.10142 24.2533 7.07063C24.2533 8.03984 25.039 8.82554 26.0082 8.82554Z" fill="#282828"/>
</svg>
