<svg width="34" height="33" viewBox="0 0 34 33" fill="none" xmlns="http://www.w3.org/2000/svg">
<path d="M14.6339 32C15.9419 32 17.0022 30.9397 17.0022 29.6317C17.0022 28.3238 15.9419 27.2634 14.6339 27.2634C13.326 27.2634 12.2656 28.3238 12.2656 29.6317C12.2656 30.9397 13.326 32 14.6339 32Z" stroke="#282828" stroke-width="2" stroke-linecap="round" stroke-linejoin="round"/>
<path d="M25.2882 32C26.5962 32 27.6565 30.9397 27.6565 29.6317C27.6565 28.3238 26.5962 27.2634 25.2882 27.2634C23.9803 27.2634 22.9199 28.3238 22.9199 29.6317C22.9199 30.9397 23.9803 32 25.2882 32Z" stroke="#282828" stroke-width="2" stroke-linecap="round" stroke-linejoin="round"/>
<path d="M20.2694 8.41162C19.906 6.95165 19.2 5.59924 18.21 4.46635C17.22 3.33346 15.9744 2.45267 14.5763 1.89688C13.1782 1.3411 11.6678 1.1263 10.1702 1.27029C8.67254 1.41427 7.23075 1.91289 5.96414 2.72487C4.69754 3.53685 3.64255 4.63883 2.8865 5.93959C2.13045 7.24036 1.69509 8.70249 1.61646 10.205C1.53783 11.7074 1.8182 13.207 2.43434 14.5796C3.05048 15.9522 3.98469 17.1583 5.15962 18.098M11.0804 10.7326L14.6329 7.1801M15.817 22.5504V20.1821H12.2645C11.0083 20.1821 9.80354 20.6812 8.91525 21.5694C8.02696 22.4577 7.52793 23.6625 7.52793 24.9187V29.6554" stroke="#282828" stroke-width="2" stroke-linecap="round" stroke-linejoin="round"/>
<path d="M32.3965 29.6317V17.7902C32.3965 17.1621 32.147 16.5597 31.7029 16.1155C31.2587 15.6714 30.6563 15.4219 30.0282 15.4219H18.1867C17.5586 15.4219 16.9562 15.6714 16.512 16.1155C16.0679 16.5597 15.8184 17.1621 15.8184 17.7902V22.5268" stroke="#282828" stroke-width="2" stroke-linecap="round" stroke-linejoin="round"/>
</svg>
