<svg width="38" height="37" viewBox="0 0 38 37" fill="none" xmlns="http://www.w3.org/2000/svg">
<path d="M1.61328 34.2614C2.65648 35.1307 3.69967 36 5.95992 36C10.3066 36 10.3066 32.5227 14.6532 32.5227C16.9135 32.5227 17.9567 33.392 18.9999 34.2614C20.043 35.1307 21.0862 36 23.3465 36C27.6931 36 27.6931 32.5227 32.0398 32.5227C34.3 32.5227 35.3432 33.392 36.3864 34.2614" stroke="#282828" stroke-width="2" stroke-linecap="round" stroke-linejoin="round"/>
<path d="M31.8308 32.523C33.701 29.3667 34.6748 25.7599 34.6474 22.0911L18.9995 15.1365L3.35156 22.0911C3.35156 27.1332 4.9859 31.3755 8.23719 35.5831" stroke="#282828" stroke-width="2" stroke-linecap="round" stroke-linejoin="round"/>
<path d="M31.1713 20.3523V9.92034C31.1713 8.9981 30.8049 8.11363 30.1528 7.46151C29.5007 6.80938 28.6162 6.44302 27.694 6.44302H10.3074C9.38515 6.44302 8.50068 6.80938 7.84856 7.46151C7.19644 8.11363 6.83008 8.9981 6.83008 9.92034V20.3523M19.0007 15.1363V22.0909M19.0007 1.22705V6.44302" stroke="#282828" stroke-width="2" stroke-linecap="round" stroke-linejoin="round"/>
</svg>
