<svg xmlns="http://www.w3.org/2000/svg" width="104" height="119" viewBox="0 0 104 119" fill="none">
  <path d="M1.50787 109.208C1.81717 109.466 2.16521 109.646 2.55195 109.75C2.93822 109.852 3.31827 109.904 3.69211 109.904C4.13 109.904 4.5392 109.817 4.91973 109.643C5.29978 109.469 5.63203 109.234 5.91551 108.937C6.199 108.641 6.42082 108.303 6.5824 107.923C6.7435 107.542 6.82381 107.14 6.82381 106.715V105.864H4.85232V106.54C4.85232 106.811 4.81361 107.037 4.73616 107.217C4.65872 107.398 4.56214 107.54 4.44597 107.642C4.31738 107.746 4.17874 107.82 4.03055 107.865C3.88188 107.91 3.74373 107.932 3.61466 107.932C3.16386 107.932 2.8512 107.797 2.67718 107.526C2.50365 107.256 2.41666 106.921 2.41666 106.521V99.4845C2.41666 99.0208 2.49649 98.6374 2.65807 98.3343C2.81917 98.0317 3.14424 97.8801 3.63424 97.8801C4.00808 97.8801 4.304 98.0221 4.52342 98.3056C4.74237 98.5891 4.85232 98.9242 4.85232 99.3104V99.9678H6.82381V99.1948C6.82381 98.7177 6.7435 98.2764 6.5824 97.8701C6.42082 97.4642 6.199 97.1133 5.91551 96.8169C5.33516 96.2113 4.58128 95.9082 3.65338 95.9082C3.17677 95.9082 2.74174 95.989 2.34878 96.1496C1.95535 96.3112 1.61737 96.5335 1.33388 96.8169C1.0504 97.1004 0.83145 97.4355 0.676561 97.8218C0.522151 98.209 0.444702 98.6273 0.444702 99.0786V106.656C0.444702 107.288 0.544125 107.807 0.743951 108.213C0.943776 108.619 1.19858 108.95 1.50787 109.208Z" fill="#1F2732"/>
  <path d="M18.0177 99.2717C18.0177 98.7951 18.1497 98.4442 18.414 98.2186C18.6779 97.9929 18.9906 97.8801 19.3515 97.8801C19.7124 97.8801 20.0251 97.9929 20.2889 98.2186C20.5533 98.4442 20.6852 98.7951 20.6852 99.2717V106.54C20.6852 107.018 20.5533 107.369 20.2889 107.594C20.0251 107.82 19.7124 107.932 19.3515 107.932C18.9906 107.932 18.6779 107.82 18.414 107.594C18.1497 107.369 18.0177 107.018 18.0177 106.54V99.2717ZM17.1089 109.054C17.4182 109.337 17.7691 109.55 18.1626 109.692C18.5555 109.833 18.9518 109.904 19.3515 109.904C19.7507 109.904 20.147 109.833 20.5404 109.692C20.9334 109.55 21.2909 109.337 21.6132 109.054C21.9225 108.783 22.1739 108.442 22.367 108.029C22.5606 107.617 22.6572 107.12 22.6572 106.54V99.2717C22.6572 98.7177 22.5606 98.2281 22.367 97.8027C22.1739 97.3772 21.9225 97.023 21.6132 96.7395C21.2909 96.4689 20.9334 96.2629 20.5404 96.1209C20.147 95.9789 19.7507 95.9082 19.3515 95.9082C18.9518 95.9082 18.5555 95.9789 18.1626 96.1209C17.7691 96.2629 17.4182 96.4689 17.1089 96.7395C16.7867 97.023 16.5291 97.3772 16.3359 97.8027C16.1423 98.2281 16.0458 98.7177 16.0458 99.2717V106.54C16.0458 107.12 16.1423 107.617 16.3359 108.029C16.5291 108.442 16.7867 108.783 17.1089 109.054Z" fill="#1F2732"/>
  <path d="M36.5939 103.312H36.5556L34.0229 96.0245H32.1284V109.789H34.1004V101.418H34.1386L36.0718 107.333H37.0581L39.0104 101.418H39.0492V109.789H41.0211V96.0245H39.107L36.5939 103.312Z" fill="#1F2732"/>
  <path d="M55.1229 101.186C55.1038 101.47 55.0421 101.708 54.9393 101.901C54.8361 102.107 54.6749 102.268 54.456 102.385C54.2366 102.501 53.9273 102.559 53.5281 102.559H52.5811V97.8803H53.6055C53.9923 97.8803 54.2882 97.9382 54.4947 98.0543C54.7008 98.17 54.8552 98.3378 54.9585 98.5568C55.0617 98.7762 55.1195 99.0305 55.1325 99.3202C55.1454 99.6104 55.1521 99.9168 55.1521 100.239C55.1521 100.587 55.142 100.903 55.1229 101.186ZM56.1187 96.9911C55.7831 96.6302 55.4097 96.3788 54.9972 96.2373C54.5846 96.0953 54.108 96.0245 53.5668 96.0245H50.6091V109.789H52.5811V104.414H53.5864C54.3207 104.414 54.9135 104.289 55.3648 104.037C55.8156 103.786 56.1765 103.435 56.4471 102.984C56.6794 102.61 56.8305 102.211 56.9017 101.785C56.972 101.36 57.0078 100.838 57.0078 100.219C57.0078 99.3948 56.9433 98.7403 56.8147 98.257C56.6857 97.7737 56.4538 97.3521 56.1187 96.9911Z" fill="#1F2732"/>
  <path d="M67.5055 104.975L68.4722 99.9876H68.5109L69.477 104.975H67.5055ZM67.6796 96.0245L64.6057 109.789H66.5777L67.1575 106.831H69.8447L70.4245 109.789H72.3965L69.3226 96.0245H67.6796Z" fill="#1F2732"/>
  <path d="M81.0179 109.789H82.9894V101.514H83.0281L86.0442 109.789H87.9V96.0245H85.928V104.318H85.8893L82.9125 96.0245H81.0179V109.789Z" fill="#1F2732"/>
  <path d="M99.2471 109.789H101.219V103.97L103.925 96.0245H101.837L100.252 101.495H100.214L98.6286 96.0245H96.5404L99.2471 103.97V109.789Z" fill="#1F2732"/>
  <path d="M2.09835 118.967V115.511H3.19212V114.971H0.396484V115.511H1.49028V118.967H2.09835Z" fill="#1F2732"/>
  <path d="M7.85638 115.79H7.86738L8.44582 117.536H7.27843L7.85638 115.79ZM6.79608 118.967L7.10299 118.074H8.61839L8.92817 118.967H9.56686L8.11406 114.971H7.60685L6.15454 118.967H6.79608Z" fill="#1F2732"/>
  <path d="M13.219 118.109C13.2424 118.164 13.2692 118.222 13.2984 118.282C13.3949 118.466 13.5508 118.629 13.764 118.77C13.9743 118.916 14.2368 118.993 14.5509 119C14.9582 118.993 15.2961 118.855 15.5648 118.586C15.8316 118.316 15.9688 117.98 15.9759 117.58V116.766H14.5566V117.339H15.3702V117.547C15.3664 117.798 15.288 117.999 15.1346 118.153C14.9811 118.314 14.7865 118.394 14.5509 118.394C14.4079 118.394 14.286 118.364 14.1837 118.304C14.079 118.253 13.9954 118.186 13.9313 118.104C13.8529 118.018 13.8003 117.906 13.775 117.767C13.7458 117.628 13.731 117.362 13.731 116.969C13.731 116.576 13.7458 116.309 13.775 116.166C13.8003 116.031 13.8529 115.92 13.9313 115.834C13.9954 115.752 14.079 115.684 14.1837 115.629C14.286 115.576 14.4079 115.548 14.5509 115.544C14.7445 115.548 14.9089 115.603 15.0442 115.711C15.1738 115.824 15.2636 115.962 15.3129 116.122H15.954C15.8904 115.788 15.7364 115.507 15.4936 115.281C15.2507 115.056 14.9362 114.942 14.5509 114.938C14.2368 114.942 13.9743 115.017 13.764 115.163C13.5508 115.308 13.3949 115.472 13.2984 115.657C13.2381 115.753 13.1932 115.88 13.164 116.037C13.1368 116.194 13.1229 116.505 13.1229 116.969C13.1229 117.426 13.1368 117.735 13.164 117.896C13.1784 117.981 13.197 118.052 13.219 118.109Z" fill="#1F2732"/>
  <path d="M20.0509 114.971V118.967H22.6023V118.394H20.6561V114.971H20.0509Z" fill="#1F2732"/>
  <path d="M26.5403 114.971V118.967H27.146V114.971H26.5403Z" fill="#1F2732"/>
  <path d="M31.3553 114.971V118.967H31.961V116.128H31.972L33.7781 118.967H34.3508V114.971H33.7451V117.81H33.7341L31.9257 114.971H31.3553Z" fill="#1F2732"/>
  <path d="M41.1134 115.544V114.971H38.562V118.967H41.1134V118.394H39.1677V117.221H40.8284V116.684H39.1677V115.544H41.1134Z" fill="#1F2732"/>
  <path d="M49.8036 115.657C49.7434 115.753 49.6984 115.88 49.6693 116.037C49.642 116.194 49.6282 116.505 49.6282 116.969C49.6282 117.426 49.642 117.735 49.6693 117.896C49.6841 117.981 49.7023 118.052 49.7243 118.109C49.7477 118.164 49.774 118.222 49.8036 118.282C49.9007 118.466 50.0555 118.629 50.2697 118.77C50.4796 118.916 50.7415 118.993 51.0561 119C51.4634 118.993 51.8014 118.855 52.07 118.586C52.3368 118.316 52.474 117.98 52.4812 117.58V116.766H51.0618V117.339H51.8755V117.547C51.8717 117.798 51.7932 117.999 51.6398 118.153C51.4863 118.314 51.2918 118.394 51.0561 118.394C50.9136 118.394 50.7908 118.364 50.689 118.304C50.5848 118.253 50.5006 118.186 50.4365 118.104C50.3581 118.018 50.306 117.906 50.2807 117.767C50.2511 117.628 50.2367 117.362 50.2367 116.969C50.2367 116.576 50.2511 116.309 50.2807 116.166C50.306 116.031 50.3581 115.92 50.4365 115.834C50.5006 115.752 50.5848 115.684 50.689 115.629C50.7908 115.576 50.9136 115.548 51.0561 115.544C51.2497 115.548 51.4142 115.603 51.5495 115.711C51.679 115.824 51.7689 115.962 51.8181 116.122H52.4592C52.3951 115.788 52.2422 115.507 51.9988 115.281C51.756 115.056 51.4419 114.942 51.0561 114.938C50.7415 114.942 50.4796 115.017 50.2697 115.163C50.0555 115.308 49.9007 115.472 49.8036 115.657Z" fill="#1F2732"/>
  <path d="M57.0712 116.166C57.097 116.031 57.1491 115.92 57.2275 115.834C57.2916 115.752 57.3757 115.684 57.48 115.629C57.5823 115.576 57.7041 115.548 57.8471 115.544C57.9915 115.548 58.1167 115.576 58.2224 115.629C58.3228 115.684 58.4036 115.752 58.4638 115.834C58.5422 115.92 58.5962 116.031 58.6254 116.166C58.6531 116.309 58.6665 116.576 58.6665 116.969C58.6665 117.362 58.6531 117.628 58.6254 117.767C58.5962 117.906 58.5422 118.018 58.4638 118.104C58.4036 118.186 58.3228 118.253 58.2224 118.304C58.1167 118.364 57.9915 118.394 57.8471 118.394C57.7041 118.394 57.5823 118.364 57.48 118.304C57.3757 118.253 57.2916 118.186 57.2275 118.104C57.1491 118.018 57.097 117.906 57.0712 117.767C57.0421 117.628 57.0273 117.362 57.0273 116.969C57.0273 116.576 57.0421 116.309 57.0712 116.166ZM56.5946 115.657C56.5344 115.753 56.4894 115.88 56.4603 116.037C56.433 116.194 56.4192 116.505 56.4192 116.969C56.4192 117.426 56.433 117.735 56.4603 117.896C56.4746 117.981 56.4933 118.052 56.5153 118.109C56.5387 118.164 56.5655 118.222 56.5946 118.282C56.6912 118.466 56.8466 118.629 57.0607 118.77C57.2706 118.916 57.5325 118.993 57.8471 119C58.165 118.993 58.4299 118.916 58.6421 118.77C58.852 118.629 59.0035 118.466 59.0967 118.282C59.1646 118.185 59.211 118.056 59.2368 117.896C59.2602 117.735 59.2722 117.426 59.2722 116.969C59.2722 116.505 59.2602 116.194 59.2368 116.037C59.211 115.88 59.1646 115.753 59.0967 115.657C59.0035 115.472 58.852 115.308 58.6421 115.163C58.4299 115.017 58.165 114.942 57.8471 114.938C57.5325 114.942 57.2706 115.017 57.0607 115.163C56.8466 115.308 56.6912 115.472 56.5946 115.657Z" fill="#1F2732"/>
  <path d="M63.347 118.967H65.8984V118.394H63.9527V117.221H65.6134V116.684H63.9527V115.544H65.8984V114.971H63.347V118.967Z" fill="#1F2732"/>
  <path d="M71.0201 118.394C70.5812 118.39 70.2031 118.258 69.8852 117.997L69.4879 118.452C69.9139 118.817 70.4225 119 71.0148 119C71.9302 118.989 72.3978 118.602 72.4179 117.838C72.4179 117.555 72.3294 117.306 72.1521 117.092C71.9728 116.875 71.696 116.741 71.3217 116.69C71.1314 116.666 70.9818 116.645 70.8718 116.626C70.6749 116.59 70.531 116.524 70.4416 116.429C70.3522 116.336 70.3073 116.232 70.3073 116.116C70.3111 115.925 70.378 115.78 70.5076 115.684C70.6319 115.591 70.7873 115.544 70.9737 115.544C71.3337 115.551 71.6635 115.654 71.9628 115.851L72.3003 115.352C71.9327 115.087 71.5005 114.949 71.0038 114.938C70.5908 114.942 70.2719 115.05 70.0472 115.262C69.8149 115.475 69.6992 115.757 69.6992 116.106C69.6992 116.396 69.7915 116.643 69.976 116.846C70.1548 117.043 70.4163 117.17 70.7595 117.227C70.9517 117.254 71.1276 117.279 71.2887 117.301C71.6396 117.361 71.8131 117.54 71.8093 117.838C71.8021 118.202 71.5387 118.387 71.0201 118.394Z" fill="#1F2732"/>
  <path d="M81.1371 114.971V118.967H81.7428V117.221H83.3242V118.967H83.9299V114.971H83.3242V116.684H81.7428V114.971H81.1371Z" fill="#1F2732"/>
  <path d="M90.6942 118.394H88.748V117.221H90.4088V116.684H88.748V115.544H90.6942V114.971H88.1423V118.967H90.6942V118.394Z" fill="#1F2732"/>
  <path d="M95.2378 115.511H96.1858C96.3794 115.511 96.5276 115.552 96.6299 115.635C96.7594 115.728 96.8263 115.878 96.8302 116.086C96.8302 116.26 96.7742 116.406 96.6628 116.525C96.5495 116.653 96.3793 116.719 96.1532 116.723H95.2378V115.511ZM95.2378 117.26H96.0103L96.8354 118.967H97.5563L96.6299 117.194C97.138 116.998 97.3952 116.629 97.4024 116.086C97.3914 115.718 97.2595 115.433 97.0051 115.234C96.7953 115.059 96.5238 114.971 96.1915 114.971H94.6316V118.967H95.2378V117.26Z" fill="#1F2732"/>
  <path d="M103.974 115.544V114.971H101.423V118.967H103.974V118.394H102.028V117.221H103.689V116.684H102.028V115.544H103.974Z" fill="#1F2732"/>
  <path d="M69.1908 47.303V60.6836H35.407C34.5226 60.6836 33.6621 60.6023 32.8255 60.4398C32.706 60.4159 32.5865 60.3872 32.467 60.3633C30.5834 59.9522 28.8481 59.1538 27.3375 58.0543C23.9146 55.5541 21.6821 51.5194 21.6821 46.9683V0.654785C28.4704 4.51743 32.8255 11.8029 32.8255 19.7911V41.705C32.8255 46.0313 36.3387 49.545 40.6655 49.545H63.7071C65.8397 49.545 67.7758 48.6893 69.1908 47.303Z" fill="#1F2732"/>
  <path d="M82.6864 0.654842V26.5078C80.2866 22.9607 76.5339 20.3696 72.088 19.5235C71.9112 19.49 71.7343 19.4566 71.5526 19.4327C71.6769 11.5831 76.0033 4.46012 82.6864 0.654842Z" fill="#1F2732"/>
  <path d="M82.6857 35.8203V82.1243C75.9021 78.2616 71.5471 70.9761 71.5471 62.9879V41.0741C71.5471 36.7525 68.0286 33.234 63.7066 33.234H40.665C38.5329 33.234 36.5968 34.0897 35.1818 35.4761V22.0955H68.9651C69.85 22.0955 70.7105 22.1767 71.5471 22.3392C77.8813 23.5487 82.6857 29.1323 82.6857 35.8203Z" fill="#F25221"/>
  <path d="M32.8207 63.3464C32.6964 71.196 28.3701 78.319 21.6821 82.1243V56.2617C22.7434 57.8297 24.0819 59.2256 25.6499 60.3682C27.5143 61.7306 29.6034 62.6724 31.8503 63.1648L31.9263 63.1839C32.0458 63.2078 32.1653 63.2317 32.2805 63.2556C32.4574 63.2891 32.6391 63.3225 32.8207 63.3464Z" fill="#F25221"/>
</svg>