<svg width="104" height="115" viewBox="0 0 104 115" fill="none" xmlns="http://www.w3.org/2000/svg">
<path d="M30.7467 34.6124L47.0095 6.44376L61.9036 32.2442C60.9867 32.2284 60.0689 32.2226 59.1539 32.2226C58.682 32.2226 58.2064 32.225 57.725 32.2284L49.5111 17.9987L47.0095 13.6662L44.5064 17.9987L35.3407 33.8748C33.7909 34.0985 32.2559 34.3447 30.7467 34.6124ZM47.0095 19.4429L56.069 35.1378C57.0916 35.1187 58.1199 35.111 59.1539 35.111C61.8051 35.111 64.422 35.1708 66.9968 35.2865L47.0095 0.667007L25.0469 38.7079C28.8612 37.8378 32.907 37.1098 37.1372 36.5419L47.0095 19.4429Z" fill="#1F2732"/>
<path d="M59.984 41.918L65.6063 51.6568H28.4408C36.3119 47.2664 47.2549 43.846 59.984 41.918ZM33.5397 87.056C22.2118 82.0781 15.2891 75.416 15.2891 68.097C15.2891 65.6609 16.0554 63.2983 17.4968 61.0453H81.8682L70.1406 40.7334C74.6028 40.3629 79.2226 40.1679 83.9544 40.1679C90.3278 40.1679 96.4994 40.5211 102.354 41.1832C102.017 41.0738 101.669 40.9705 101.326 40.8639C101.669 40.9705 102.017 41.0738 102.355 41.1828C102.748 41.2272 103.138 41.2721 103.529 41.3195C102.497 41.058 101.447 40.8084 100.377 40.5699C100.377 40.5699 100.376 40.5694 100.375 40.5694C90.8135 38.4373 79.8121 37.2168 68.1027 37.2039C68.0334 37.2025 67.9631 37.2025 67.8938 37.2025C65.2282 37.2025 62.6004 37.2656 60.0174 37.387C59.156 37.4277 58.2998 37.475 57.4494 37.5285C49.2909 38.0405 41.6221 39.1434 34.7214 40.7253C34.1253 40.862 33.5349 41.002 32.9502 41.1459C28.8591 42.1518 25.059 43.3297 21.6123 44.6543C8.89342 49.5362 0.974609 56.413 0.974609 64.0307C0.974609 73.8107 14.0299 82.3692 33.5397 87.056Z" fill="#F25221"/>
<path d="M7.1829 106.278C7.53733 106.116 7.84658 105.897 8.11099 105.621C8.37507 105.345 8.5823 105.029 8.73265 104.675C8.88281 104.321 8.95786 103.945 8.95786 103.549V102.756H7.11999V103.387C7.11999 103.639 7.08395 103.849 7.01186 104.017C6.93977 104.185 6.84956 104.317 6.74147 104.414C6.62138 104.51 6.49198 104.579 6.35396 104.621C6.21581 104.663 6.08673 104.684 5.9665 104.684C5.54615 104.684 5.25502 104.558 5.09291 104.305C4.93066 104.053 4.84959 103.741 4.84959 103.369V96.8096C4.84959 96.377 4.9243 96.0199 5.07479 95.7374C5.22476 95.4553 5.52823 95.3138 5.98481 95.3138C6.33307 95.3138 6.60924 95.4462 6.8137 95.7106C7.01764 95.975 7.11999 96.2871 7.11999 96.6476V97.26H8.95786V96.5395C8.95786 96.095 8.88281 95.6833 8.73265 95.3052C8.5823 94.9266 8.37507 94.5996 8.11099 94.3233C7.57036 93.7582 6.86749 93.4762 6.00274 93.4762C5.5581 93.4762 5.15286 93.5512 4.78629 93.7014C4.41991 93.8519 4.10449 94.0589 3.84047 94.3233C3.57606 94.5872 3.37212 94.8998 3.2278 95.2603C3.08381 95.6202 3.01172 96.0108 3.01172 96.431V103.495C3.01172 104.083 3.10456 104.567 3.29109 104.945C3.47706 105.324 3.71441 105.633 4.00277 105.873C4.29108 106.113 4.61525 106.282 4.97565 106.377C5.33605 106.473 5.69009 106.522 6.03874 106.522C6.44694 106.522 6.82867 106.44 7.1829 106.278Z" fill="#1F2732"/>
<path d="M21.8772 103.387C21.8772 103.831 21.7538 104.158 21.5076 104.369C21.2615 104.579 20.9698 104.684 20.6338 104.684C20.2977 104.684 20.0061 104.579 19.7599 104.369C19.5137 104.158 19.3908 103.831 19.3908 103.387V96.6113C19.3908 96.1671 19.5137 95.8397 19.7599 95.6293C20.0061 95.4195 20.2977 95.3138 20.6338 95.3138C20.9698 95.3138 21.2615 95.4195 21.5076 95.6293C21.7538 95.8397 21.8772 96.1671 21.8772 96.6113V103.387ZM23.7153 96.6113C23.7153 96.095 23.6249 95.6384 23.4447 95.2421C23.2645 94.8453 23.0302 94.515 22.742 94.2511C22.4418 93.9987 22.1086 93.8065 21.7424 93.6746C21.3757 93.5422 21.0062 93.4762 20.6338 93.4762C20.2614 93.4762 19.8918 93.5422 19.5256 93.6746C19.159 93.8065 18.832 93.9987 18.5437 94.2511C18.2435 94.515 18.0031 94.8453 17.8228 95.2421C17.6426 95.6384 17.5527 96.095 17.5527 96.6113V103.387C17.5527 103.927 17.6426 104.39 17.8228 104.774C18.0031 105.159 18.2435 105.477 18.5437 105.729C18.832 105.993 19.159 106.191 19.5256 106.324C19.8918 106.455 20.2614 106.522 20.6338 106.522C21.0062 106.522 21.3757 106.455 21.7424 106.324C22.1086 106.191 22.4418 105.993 22.742 105.729C23.0302 105.477 23.2645 105.159 23.4447 104.774C23.6249 104.39 23.7153 103.927 23.7153 103.387V96.6113Z" fill="#1F2732"/>
<path d="M36.7068 100.377H36.671L34.3104 93.5842H32.5449V106.414H34.3825V98.6114H34.4189L36.2207 104.125H37.1395L38.9594 98.6114H38.9953V106.414H40.8334V93.5842H39.0498L36.7068 100.377Z" fill="#1F2732"/>
<path d="M53.9769 98.3954C53.9592 98.6597 53.9018 98.882 53.8057 99.0622C53.7096 99.2539 53.5595 99.404 53.3554 99.5126C53.1513 99.6206 52.863 99.6746 52.4906 99.6746H51.6076V95.3138H52.5623C52.9232 95.3138 53.1991 95.3683 53.3917 95.4764C53.5834 95.5844 53.7278 95.7408 53.8239 95.9449C53.92 96.149 53.974 96.3861 53.9859 96.6562C53.9979 96.9268 54.0041 97.2122 54.0041 97.5124C54.0041 97.837 53.995 98.131 53.9769 98.3954ZM54.9052 94.4854C54.5926 94.1488 54.2441 93.9151 53.8597 93.7827C53.4754 93.6502 53.0313 93.5842 52.5265 93.5842H49.7695V106.414H51.6076V101.405H52.5446C53.2292 101.405 53.7818 101.287 54.202 101.053C54.6227 100.819 54.9588 100.492 55.2112 100.071C55.4277 99.7229 55.5688 99.3505 55.6347 98.9542C55.7007 98.5574 55.7342 98.0708 55.7342 97.4942C55.7342 96.7255 55.6739 96.116 55.5539 95.6657C55.4335 95.2149 55.2174 94.8219 54.9052 94.4854Z" fill="#1F2732"/>
<path d="M65.5188 101.927L66.4199 97.2781H66.4558L67.3569 101.927H65.5188ZM65.6814 93.5842L62.8164 106.414H64.654L65.1947 103.657H67.6992L68.2399 106.414H70.078L67.213 93.5842H65.6814Z" fill="#1F2732"/>
<path d="M84.5282 106.414V93.5842H82.6901V101.314H82.6543L79.8792 93.5842H78.1133V106.414H79.9514V98.7018H79.9872L82.7982 106.414H84.5282Z" fill="#1F2732"/>
<path d="M96.9443 106.414V100.99L99.467 93.5842H97.5208L96.0432 98.6836H96.0073L94.5297 93.5842H92.584L95.1067 100.99V106.414H96.9443Z" fill="#1F2732"/>
<path d="M4.55292 114.969V111.748H5.57217V111.245H2.9668V111.748H3.98581V114.969H4.55292Z" fill="#1F2732"/>
<path d="M9.38106 113.636L9.91997 112.008H9.93048L10.4697 113.636H9.38106ZM9.68763 111.245L8.33398 114.969H8.93174L9.21766 114.136H10.6303L10.9191 114.969H11.5143L10.1604 111.245H9.68763Z" fill="#1F2732"/>
<path d="M15.5835 112.049C15.6432 111.973 15.7212 111.909 15.8187 111.858C15.9138 111.809 16.0281 111.782 16.161 111.778C16.3417 111.782 16.4947 111.834 16.6209 111.934C16.7418 112.04 16.8255 112.168 16.8709 112.318H17.4689C17.4092 112.006 17.2662 111.744 17.0396 111.534C16.8135 111.324 16.5205 111.217 16.161 111.214C15.8679 111.217 15.6236 111.287 15.4276 111.424C15.2288 111.558 15.0834 111.712 14.9931 111.883C14.9372 111.973 14.8956 112.092 14.8683 112.238C14.843 112.385 14.8301 112.674 14.8301 113.107C14.8301 113.533 14.843 113.821 14.8683 113.97C14.8817 114.051 14.8989 114.117 14.9195 114.17C14.9415 114.221 14.9663 114.274 14.9931 114.331C15.0834 114.502 15.2288 114.654 15.4276 114.785C15.6236 114.922 15.8679 114.993 16.161 115C16.5405 114.993 16.8556 114.864 17.1061 114.614C17.3547 114.362 17.4828 114.05 17.489 113.676V112.918H16.1662V113.452H16.9249V113.646C16.9211 113.879 16.8479 114.067 16.7055 114.211C16.5621 114.36 16.3809 114.435 16.161 114.435C16.0281 114.435 15.9138 114.407 15.8187 114.351C15.7212 114.303 15.6432 114.241 15.5835 114.164C15.5103 114.085 15.4616 113.98 15.4382 113.85C15.4109 113.721 15.3971 113.473 15.3971 113.107C15.3971 112.741 15.4109 112.491 15.4382 112.359C15.4616 112.233 15.5103 112.129 15.5835 112.049Z" fill="#1F2732"/>
<path d="M21.2871 111.245V114.969H23.6654V114.436H21.8517V111.245H21.2871Z" fill="#1F2732"/>
<path d="M27.3359 111.245V114.969H27.9005V111.245H27.3359Z" fill="#1F2732"/>
<path d="M31.8223 111.245V114.969H32.3864V112.323H32.3969L34.0801 114.969H34.6141V111.245H34.0495V113.891H34.0395L32.3534 111.245H31.8223Z" fill="#1F2732"/>
<path d="M40.9193 111.778V111.245H38.541V114.969H40.9193V114.436H39.1056V113.342H40.6535V112.841H39.1056V111.778H40.9193Z" fill="#1F2732"/>
<path d="M49.019 111.883C48.963 111.973 48.921 112.092 48.8937 112.238C48.8684 112.385 48.8555 112.674 48.8555 113.107C48.8555 113.533 48.8684 113.821 48.8937 113.97C48.9071 114.051 48.9243 114.117 48.9449 114.17C48.9669 114.221 48.9917 114.274 49.019 114.331C49.1093 114.502 49.2537 114.654 49.453 114.785C49.649 114.922 49.8933 114.993 50.1864 115C50.5664 114.993 50.881 114.864 51.1315 114.614C51.3801 114.362 51.5077 114.05 51.5144 113.676V112.918H50.1916V113.452H50.9503V113.646C50.9465 113.879 50.8733 114.067 50.7304 114.211C50.5874 114.36 50.4063 114.435 50.1864 114.435C50.0535 114.435 49.9392 114.407 49.8441 114.351C49.747 114.303 49.6686 114.241 49.6089 114.164C49.5357 114.085 49.487 113.98 49.4631 113.85C49.4358 113.721 49.4224 113.473 49.4224 113.107C49.4224 112.741 49.4358 112.491 49.4631 112.359C49.487 112.233 49.5357 112.129 49.6089 112.049C49.6686 111.973 49.747 111.909 49.8441 111.858C49.9392 111.809 50.0535 111.782 50.1864 111.778C50.3671 111.782 50.52 111.834 50.6463 111.934C50.7667 112.04 50.8504 112.168 50.8963 112.318H51.4943C51.4346 112.006 51.2916 111.744 51.065 111.534C50.8384 111.324 50.5459 111.217 50.1864 111.214C49.8933 111.217 49.649 111.287 49.453 111.424C49.2537 111.558 49.1093 111.712 49.019 111.883Z" fill="#1F2732"/>
<path d="M55.7936 112.359C55.8175 112.233 55.8658 112.129 55.9394 112.049C55.9992 111.973 56.0771 111.909 56.1746 111.858C56.2698 111.809 56.384 111.782 56.5164 111.778C56.6512 111.782 56.7679 111.809 56.8664 111.858C56.9601 111.909 57.0351 111.973 57.0911 112.049C57.1647 112.129 57.2149 112.233 57.2421 112.359C57.2679 112.491 57.2804 112.741 57.2804 113.107C57.2804 113.473 57.2679 113.721 57.2421 113.85C57.2149 113.98 57.1647 114.085 57.0911 114.164C57.0351 114.241 56.9601 114.303 56.8664 114.351C56.7679 114.407 56.6512 114.435 56.5164 114.435C56.384 114.435 56.2698 114.407 56.1746 114.351C56.0771 114.303 55.9992 114.241 55.9394 114.164C55.8658 114.085 55.8175 113.98 55.7936 113.85C55.7664 113.721 55.7525 113.473 55.7525 113.107C55.7525 112.741 55.7664 112.491 55.7936 112.359ZM55.349 111.883C55.2931 111.973 55.251 112.092 55.2243 112.238C55.1985 112.385 55.1855 112.674 55.1855 113.107C55.1855 113.533 55.1985 113.821 55.2243 113.97C55.2377 114.051 55.2549 114.117 55.2754 114.17C55.2974 114.221 55.3218 114.274 55.349 114.331C55.4394 114.502 55.5842 114.654 55.7836 114.785C55.9796 114.922 56.2239 114.993 56.5164 115C56.8128 114.993 57.06 114.922 57.2574 114.785C57.4534 114.654 57.5944 114.502 57.6814 114.331C57.7446 114.24 57.7881 114.12 57.812 113.97C57.834 113.821 57.8449 113.533 57.8449 113.107C57.8449 112.674 57.834 112.385 57.812 112.238C57.7881 112.092 57.7446 111.973 57.6814 111.883C57.5944 111.712 57.4534 111.558 57.2574 111.424C57.06 111.287 56.8128 111.217 56.5164 111.214C56.2239 111.217 55.9796 111.287 55.7836 111.424C55.5842 111.558 55.4394 111.712 55.349 111.883Z" fill="#1F2732"/>
<path d="M61.6426 114.969H64.0209V114.436H62.2072V113.342H63.7551V112.841H62.2072V111.778H64.0209V111.245H61.6426V114.969Z" fill="#1F2732"/>
<path d="M68.7951 114.435C68.3864 114.432 68.0341 114.308 67.7377 114.065L67.3672 114.489C67.764 114.83 68.2382 115 68.7903 115C69.6437 114.99 70.0792 114.629 70.0983 113.917C70.0983 113.653 70.0156 113.421 69.8502 113.222C69.6833 113.019 69.4257 112.894 69.0762 112.846C68.8993 112.824 68.7597 112.805 68.6574 112.788C68.4739 112.754 68.3395 112.692 68.2564 112.604C68.1732 112.517 68.1311 112.42 68.1311 112.312C68.1345 112.134 68.1966 111.999 68.3176 111.909C68.4337 111.822 68.5781 111.778 68.7521 111.778C69.0877 111.785 69.3946 111.881 69.6743 112.065L69.9883 111.6C69.6461 111.353 69.2431 111.224 68.7798 111.214C68.395 111.217 68.0981 111.318 67.8883 111.516C67.6722 111.715 67.5641 111.977 67.5641 112.302C67.5641 112.573 67.6502 112.803 67.8218 112.992C67.9887 113.176 68.2325 113.294 68.5528 113.347C68.7315 113.373 68.8955 113.396 69.0456 113.416C69.3726 113.472 69.5342 113.639 69.5308 113.917C69.5242 114.256 69.2789 114.429 68.7951 114.435Z" fill="#1F2732"/>
<path d="M80.8295 114.969V111.245H80.2654V112.841H78.7911V111.245H78.2266V114.969H78.7911V113.342H80.2654V114.969H80.8295Z" fill="#1F2732"/>
<path d="M87.1322 111.778V111.245H84.7539V114.969H87.1322V114.436H85.3185V113.342H86.8664V112.841H85.3185V111.778H87.1322Z" fill="#1F2732"/>
<path d="M91.3668 112.877V111.748H92.2508C92.4315 111.748 92.5691 111.786 92.6647 111.863C92.7852 111.95 92.8478 112.09 92.8512 112.284C92.8512 112.446 92.7991 112.583 92.6953 112.693C92.5897 112.813 92.4315 112.874 92.2202 112.877H91.3668ZM92.6647 113.316C93.138 113.134 93.3785 112.79 93.3852 112.284C93.3746 111.941 93.2513 111.676 93.0147 111.49C92.8187 111.326 92.5658 111.245 92.256 111.245H90.8027V114.969H91.3668V113.378H92.0873L92.856 114.969H93.5281L92.6647 113.316Z" fill="#1F2732"/>
<path d="M99.5106 111.778V111.245H97.1328V114.969H99.5106V114.436H97.6974V113.342H99.2453V112.841H97.6974V111.778H99.5106Z" fill="#1F2732"/>
</svg>
