<svg width="110" height="115" viewBox="0 0 110 115" fill="none" xmlns="http://www.w3.org/2000/svg">
<path d="M5.52105 106.482C6.84745 106.482 8.05602 105.957 8.94901 105.103L7.54359 103.697C7.01831 104.184 6.29564 104.486 5.52105 104.486C3.86599 104.486 2.52611 103.159 2.52611 101.504C2.52611 99.8625 3.86599 98.5225 5.52105 98.5225C6.29564 98.5225 7.01831 98.8247 7.54359 99.3237L8.94901 97.9054C8.05602 97.0516 6.84745 96.5262 5.52105 96.5262C2.77599 96.5262 0.542969 98.7587 0.542969 101.504C0.542969 104.249 2.77599 106.482 5.52105 106.482Z" fill="#F25221"/>
<path d="M22.0717 104.499C20.4167 104.499 19.0772 103.159 19.0772 101.504C19.0772 99.8625 20.4167 98.5225 22.0717 98.5225C23.7138 98.5225 25.0533 99.8625 25.0533 101.504C25.0533 103.159 23.7138 104.499 22.0717 104.499ZM27.0496 101.504C27.0496 98.7587 24.8167 96.5262 22.0717 96.5262C19.3267 96.5262 17.0938 98.7587 17.0938 101.504C17.0938 104.249 19.3267 106.482 22.0717 106.482C24.8167 106.482 27.0496 104.249 27.0496 101.504Z" fill="#F25221"/>
<path d="M45.9499 106.482V96.5262H43.8087L40.9064 103.803L37.9903 96.5262H35.8496V106.482H37.8326V101.504L39.8294 106.482H41.9701L43.9669 101.504V106.482H45.9499Z" fill="#F25221"/>
<path d="M56.731 98.5225H57.5327C58.0839 98.5225 58.5309 98.969 58.5309 99.5207C58.5309 100.059 58.0839 100.506 57.5327 100.506H56.731V98.5225ZM56.731 102.502H57.5456C59.1872 102.502 60.5138 101.162 60.5138 99.5207C60.5138 97.8657 59.1872 96.5262 57.5327 96.5262H54.748V106.482H56.731V102.502Z" fill="#F25221"/>
<path d="M71.8483 101.701L72.6495 99.4547L73.4641 101.701H71.8483ZM73.7137 96.5262H71.5988L68 106.482H70.1149L71.126 103.697H74.1864L75.198 106.482H77.3124L73.7137 96.5262Z" fill="#F25221"/>
<path d="M94.1356 106.482V96.5262H92.1527V103.172L88.1729 96.5262H85.8477V106.482H87.8311V99.8491L91.8242 106.482H94.1356Z" fill="#F25221"/>
<path d="M104.893 96.5262H102.674L105.274 101.74V106.482H107.258V101.74L109.858 96.5262H107.638L106.273 99.2845L104.893 96.5262Z" fill="#F25221"/>
<path d="M1.68193 114.966H2.32396V111.317H3.47854V110.747H0.527344V111.317H1.68193V114.966Z" fill="#F25221"/>
<path d="M7.79161 113.455L8.40227 111.612H8.41384L9.02431 113.455H7.79161ZM8.13896 110.747L6.60547 114.966H7.28239L7.60636 114.022H9.20635L9.53334 114.966H10.2076L8.67413 110.747H8.13896Z" fill="#F25221"/>
<path d="M14.8162 111.658C14.8841 111.571 14.973 111.499 15.083 111.441C15.191 111.385 15.3201 111.355 15.4707 111.352C15.6748 111.355 15.8488 111.414 15.9913 111.528C16.1285 111.647 16.2226 111.792 16.2747 111.962H16.9517C16.8847 111.609 16.7222 111.313 16.466 111.074C16.2092 110.837 15.8775 110.716 15.4707 110.712C15.1389 110.716 14.8621 110.795 14.6398 110.949C14.4147 111.102 14.2502 111.276 14.1479 111.47C14.0848 111.572 14.0375 111.706 14.0064 111.873C13.9777 112.038 13.9629 112.366 13.9629 112.856C13.9629 113.338 13.9777 113.664 14.0064 113.834C14.0217 113.925 14.0413 114 14.0642 114.06C14.0896 114.118 14.1173 114.178 14.1479 114.242C14.2502 114.437 14.4147 114.608 14.6398 114.757C14.8621 114.912 15.1389 114.992 15.4707 115C15.9009 114.992 16.2575 114.847 16.541 114.563C16.8226 114.278 16.9674 113.924 16.9751 113.501V112.642H15.4764V113.247H16.3355V113.467C16.3316 113.731 16.2489 113.944 16.0869 114.106C15.9248 114.276 15.7193 114.361 15.4707 114.361C15.3201 114.361 15.191 114.329 15.083 114.265C14.973 114.211 14.8841 114.141 14.8162 114.054C14.7335 113.964 14.6785 113.845 14.6518 113.698C14.6207 113.552 14.6054 113.271 14.6054 112.856C14.6054 112.441 14.6207 112.159 14.6518 112.008C14.6785 111.865 14.7335 111.749 14.8162 111.658Z" fill="#F25221"/>
<path d="M21.2773 110.747V114.966H23.9707V114.361H21.9165V110.747H21.2773Z" fill="#F25221"/>
<path d="M28.127 110.747V114.966H28.7661V110.747H28.127Z" fill="#F25221"/>
<path d="M35.7321 113.745H35.7207L33.8108 110.747H33.209V114.966H33.8486V111.968H33.8601L35.767 114.966H36.3718V110.747H35.7321V113.745Z" fill="#F25221"/>
<path d="M43.5141 111.352V110.747H40.8203V114.966H43.5141V114.361H41.4595V113.122H43.213V112.555H41.4595V111.352H43.5141Z" fill="#F25221"/>
<path d="M53.1789 110.949C52.9537 111.102 52.7897 111.276 52.6874 111.47C52.6239 111.572 52.5765 111.706 52.5455 111.873C52.5168 112.038 52.502 112.366 52.502 112.856C52.502 113.338 52.5168 113.664 52.5455 113.834C52.5612 113.925 52.5804 114 52.6033 114.06C52.6286 114.118 52.6564 114.178 52.6874 114.242C52.7897 114.437 52.9537 114.608 53.1789 114.757C53.4012 114.912 53.678 114.992 54.0097 115C54.44 114.992 54.7966 114.847 55.0806 114.563C55.3616 114.278 55.5065 113.924 55.5142 113.501V112.642H54.0155V113.247H54.8745V113.467C54.8707 113.731 54.788 113.944 54.6259 114.106C54.4639 114.276 54.2583 114.361 54.0097 114.361C53.8591 114.361 53.7301 114.329 53.622 114.265C53.5121 114.211 53.4232 114.141 53.3558 114.054C53.2726 113.964 53.2181 113.845 53.1908 113.698C53.1597 113.552 53.1445 113.271 53.1445 112.856C53.1445 112.441 53.1597 112.159 53.1908 112.008C53.2181 111.865 53.2726 111.749 53.3558 111.658C53.4232 111.571 53.5121 111.499 53.622 111.441C53.7301 111.385 53.8591 111.355 54.0097 111.352C54.2143 111.355 54.3879 111.414 54.5308 111.528C54.6675 111.647 54.7622 111.792 54.8138 111.962H55.4907C55.4238 111.609 55.2613 111.313 55.005 111.074C54.7483 110.837 54.4165 110.716 54.0097 110.712C53.678 110.716 53.4012 110.795 53.1789 110.949Z" fill="#F25221"/>
<path d="M61.8283 114.054C61.7647 114.141 61.6796 114.211 61.5735 114.265C61.4621 114.329 61.3297 114.361 61.1772 114.361C61.0266 114.361 60.8976 114.329 60.7895 114.265C60.6796 114.211 60.5911 114.141 60.5232 114.054C60.4405 113.964 60.3856 113.845 60.3583 113.698C60.3277 113.552 60.3119 113.271 60.3119 112.856C60.3119 112.441 60.3277 112.159 60.3583 112.008C60.3856 111.865 60.4405 111.749 60.5232 111.658C60.5911 111.571 60.6796 111.499 60.7895 111.441C60.8976 111.385 61.0266 111.355 61.1772 111.352C61.3297 111.355 61.4621 111.385 61.5735 111.441C61.6796 111.499 61.7647 111.571 61.8283 111.658C61.9115 111.749 61.9684 111.865 61.999 112.008C62.0281 112.159 62.0425 112.441 62.0425 112.856C62.0425 113.271 62.0281 113.552 61.999 113.698C61.9684 113.845 61.9115 113.964 61.8283 114.054ZM62.4966 114.242C62.5683 114.14 62.6171 114.004 62.6444 113.834C62.6692 113.664 62.6816 113.338 62.6816 112.856C62.6816 112.366 62.6692 112.038 62.6444 111.873C62.6171 111.706 62.5683 111.572 62.4966 111.47C62.3986 111.276 62.2385 111.102 62.0167 110.949C61.7925 110.795 61.5133 110.716 61.1772 110.712C60.8459 110.716 60.5687 110.795 60.3468 110.949C60.1212 111.102 59.9572 111.276 59.8549 111.47C59.7913 111.572 59.744 111.706 59.7134 111.873C59.6843 112.038 59.6699 112.366 59.6699 112.856C59.6699 113.338 59.6843 113.664 59.7134 113.834C59.7287 113.925 59.7478 114 59.7713 114.06C59.7961 114.118 59.8243 114.178 59.8549 114.242C59.9572 114.437 60.1212 114.608 60.3468 114.757C60.5687 114.912 60.8459 114.992 61.1772 115C61.5133 114.992 61.7925 114.912 62.0167 114.757C62.2385 114.608 62.3986 114.437 62.4966 114.242Z" fill="#F25221"/>
<path d="M69.6782 111.352V110.747H66.9844V114.966H69.6782V114.361H67.624V113.122H69.377V112.555H67.624V111.352H69.6782Z" fill="#F25221"/>
<path d="M75.086 114.361C74.6228 114.357 74.2236 114.217 73.888 113.941L73.4688 114.422C73.9181 114.807 74.455 115 75.0803 115C76.0464 114.989 76.5402 114.58 76.5617 113.773C76.5617 113.475 76.468 113.212 76.2811 112.986C76.0918 112.757 75.7997 112.615 75.4044 112.561C75.2036 112.536 75.0454 112.514 74.9297 112.495C74.7212 112.456 74.5702 112.386 74.4755 112.286C74.3809 112.188 74.3335 112.078 74.3335 111.956C74.3374 111.754 74.4081 111.602 74.5448 111.499C74.6758 111.401 74.8403 111.352 75.0367 111.352C75.4168 111.359 75.7648 111.467 76.0813 111.676L76.437 111.149C76.0493 110.869 75.5932 110.724 75.0688 110.712C74.6328 110.716 74.2962 110.829 74.0587 111.054C73.8139 111.279 73.6915 111.576 73.6915 111.945C73.6915 112.252 73.789 112.512 73.9836 112.726C74.1729 112.934 74.4483 113.068 74.8111 113.128C75.0138 113.157 75.1998 113.183 75.3695 113.206C75.74 113.27 75.9231 113.459 75.9192 113.773C75.9116 114.157 75.6338 114.353 75.086 114.361Z" fill="#F25221"/>
<path d="M88.7157 114.966V110.747H88.0766V112.555H86.4067V110.747H85.7676V114.966H86.4067V113.122H88.0766V114.966H88.7157Z" fill="#F25221"/>
<path d="M95.8554 111.352V110.747H93.1621V114.966H95.8554V114.361H93.8017V113.122H95.5548V112.555H93.8017V111.352H95.8554Z" fill="#F25221"/>
<path d="M100.651 111.317H101.652C101.857 111.317 102.013 111.36 102.121 111.447C102.258 111.546 102.328 111.705 102.332 111.924C102.332 112.108 102.273 112.262 102.156 112.387C102.036 112.522 101.857 112.592 101.617 112.596H100.651V111.317ZM100.651 113.163H101.467L102.337 114.966H103.099L102.121 113.094C102.657 112.887 102.929 112.497 102.936 111.924C102.925 111.535 102.785 111.235 102.517 111.025C102.295 110.84 102.009 110.747 101.658 110.747H100.012V114.966H100.651V113.163Z" fill="#F25221"/>
<path d="M109.875 111.352V110.747H107.182V114.966H109.875V114.361H107.821V113.122H109.574V112.555H107.821V111.352H109.875Z" fill="#F25221"/>
<path d="M81.1718 9.86907L81.1828 9.87769L81.1713 9.86812C81.1034 9.81075 81.0327 9.7553 80.9638 9.7008L80.9629 9.69984L80.9634 9.70033C81.0317 9.75578 81.103 9.81123 81.1718 9.86907Z" fill="#FFFCFA"/>
<path d="M80.2492 9.14091L80.2559 9.14521L80.2602 9.14999C80.4935 9.32735 80.7263 9.5095 80.9486 9.68925L80.9529 9.69116L80.9491 9.68876C80.7258 9.50901 80.4945 9.32783 80.2612 9.14904L80.2554 9.14425L80.2492 9.13996C80.188 9.09215 80.1244 9.04435 80.0613 8.99654L79.9844 8.9387L80.0604 8.99654C80.1249 9.0453 80.1871 9.09215 80.2492 9.14091Z" fill="#FFFCFA"/>
<path d="M79.9062 8.87988C79.9022 8.87686 79.8986 8.87384 79.8951 8.87131L79.9022 8.87636L79.8926 8.8693L79.8956 8.87181C79.8991 8.87433 79.9027 8.87686 79.9062 8.87988Z" fill="#FFFCFA"/>
<path d="M79.8783 8.85938L79.8673 8.85174L79.7363 8.75468L79.8668 8.85221L79.8783 8.85938Z" fill="#FFFCFA"/>
<path d="M79.3534 8.47494C79.3874 8.49885 79.4208 8.52323 79.4548 8.54761C79.4213 8.5237 79.3883 8.49932 79.3539 8.47494L79.2812 8.42284L79.2822 8.4238L79.3534 8.47494Z" fill="#FFFCFA"/>
<path d="M79.2752 8.41711L79.2709 8.41378C79.2011 8.36358 79.1313 8.31338 79.0605 8.26462C79.1308 8.31338 79.2006 8.36309 79.2704 8.4152L79.2752 8.41711Z" fill="#FFFCFA"/>
<path d="M78.4524 7.83875L78.4462 7.83443C78.3687 7.78136 78.2908 7.72877 78.2129 7.67619C78.2908 7.72877 78.3683 7.78184 78.4457 7.83538L78.4524 7.83875Z" fill="#FFFCFA"/>
<path d="M61.9878 1.22485H61.9921L61.9888 1.2239C61.8229 1.19569 61.657 1.16939 61.4911 1.14453C61.4137 1.13258 61.3372 1.1216 61.2598 1.11013C61.3372 1.1216 61.4137 1.13306 61.4907 1.14453C61.657 1.16891 61.8234 1.19569 61.9878 1.22485Z" fill="#FFFCFA"/>
<path d="M77.7995 7.40173C77.7931 7.39778 77.7867 7.39334 77.7803 7.38939L77.7793 7.3884V7.38888C77.7862 7.39333 77.7926 7.39778 77.7995 7.40173Z" fill="#FFFCFA"/>
<path d="M72.6739 4.54106L72.6797 4.54248L72.6749 4.54057C72.2561 4.34361 71.8722 4.172 71.5027 4.01424L71.4922 4.00993L71.5017 4.01471C71.8722 4.17247 72.2566 4.34362 72.6739 4.54106Z" fill="#FFFCFA"/>
<path d="M77.4318 7.1651C77.516 7.21817 77.5996 7.27314 77.6838 7.32764C77.6001 7.27266 77.5164 7.21817 77.4328 7.1651L77.4194 7.15651L77.418 7.15556L77.4189 7.15602L77.4318 7.1651Z" fill="#FFFCFA"/>
<path d="M67.7072 2.59741C67.6077 2.56538 67.5078 2.53286 67.4074 2.50227C67.3032 2.47072 67.2009 2.44014 67.0977 2.40906C67.2009 2.44014 67.3037 2.4712 67.4065 2.50323C67.5069 2.53382 67.6068 2.5649 67.7072 2.59741Z" fill="#FFFCFA"/>
<path d="M66.1464 2.13599C66.101 2.12356 66.0556 2.11065 66.0097 2.09822L65.9824 2.09105L66.0102 2.09918C66.0556 2.1116 66.101 2.12356 66.1464 2.13599Z" fill="#FFFCFA"/>
<path d="M66.2496 2.16431L66.2465 2.16326L66.2402 2.16118L66.2465 2.1638L66.2496 2.16431Z" fill="#FFFCFA"/>
<path d="M71.1605 3.86847L71.1982 3.88425C71.2891 3.92202 71.378 3.95931 71.4669 3.99947L71.476 4.0033L71.4674 3.99898C71.378 3.9593 71.2891 3.92107 71.1987 3.88378L71.16 3.868L71.1346 3.85652L71.1289 3.85414L71.1337 3.85748L71.1605 3.86847Z" fill="#FFFCFA"/>
<path d="M76.166 6.38403L76.1641 6.38277L76.1653 6.38339L76.166 6.38403Z" fill="#FFFCFA"/>
<path d="M76.389 6.51928L76.5979 6.64549C76.7308 6.72341 76.8618 6.80563 76.9909 6.88785L77.0086 6.89884L77.011 6.90027L77.0076 6.89789L76.9918 6.88785C76.8623 6.80515 76.7303 6.72436 76.5984 6.64453L76.389 6.51879L76.3866 6.51591C76.3546 6.49727 76.3226 6.47816 76.291 6.45952C76.323 6.47864 76.3541 6.49727 76.3871 6.51687L76.389 6.51928Z" fill="#FFFCFA"/>
<path d="M81.4927 10.1311L81.5257 10.1583L81.4923 10.1301C81.3976 10.0512 81.3053 9.9757 81.2136 9.90161L81.1992 9.89012L81.2131 9.90207C81.3058 9.97569 81.3971 10.0512 81.4927 10.1311Z" fill="#FFFCFA"/>
<path d="M75.7996 6.17271C75.8952 6.22769 75.9894 6.28169 76.0841 6.33667C75.9894 6.28169 75.8952 6.22672 75.8006 6.17222L75.7289 6.13065C75.6959 6.11153 75.6638 6.09382 75.6309 6.0747C75.6638 6.09382 75.6954 6.11153 75.7284 6.13065L75.7996 6.17271Z" fill="#FFFCFA"/>
<path d="M72.7459 4.5745L73.0991 4.74326C73.2344 4.80541 73.3673 4.86994 73.4983 4.93878L73.5122 4.94499L73.5165 4.9469L73.5108 4.94403L73.4978 4.93782C73.3664 4.87041 73.2335 4.80635 73.0991 4.74181L72.7459 4.57354L72.7449 4.57212C72.7344 4.56733 72.7234 4.56207 72.7129 4.55729C72.7234 4.56207 72.7344 4.56686 72.744 4.57212L72.7459 4.5745Z" fill="#FFFCFA"/>
<path d="M69.6944 3.28474C69.9941 3.39565 70.3206 3.52423 70.7179 3.68438C70.7446 3.6949 70.7705 3.70544 70.7977 3.71643C70.7705 3.70544 70.7446 3.69443 70.7174 3.68391C70.3197 3.52329 69.9946 3.39661 69.6944 3.28427L69.5151 3.21782L69.4902 3.20874L69.5146 3.21782L69.6944 3.28474Z" fill="#FFFCFA"/>
<path d="M14.329 36.2775L14.3261 36.2947L14.3242 36.3114L14.3271 36.2947L14.329 36.2775Z" fill="#FFFCFA"/>
<path d="M14.3198 36.353L14.3164 36.3793V36.384L14.3169 36.3793L14.3198 36.353Z" fill="#FFFCFA"/>
<path d="M14.3803 35.9285C14.3894 35.8577 14.4004 35.7865 14.4114 35.7153L14.4191 35.6651L14.4109 35.7153C14.4004 35.7855 14.3894 35.8573 14.3803 35.9285L14.3794 35.9352L14.3789 35.9399L14.3803 35.9352V35.9285Z" fill="#FFFCFA"/>
<path d="M14.3714 35.9835C14.3656 36.0251 14.3599 36.0676 14.3537 36.1097L14.3379 36.222L14.3546 36.1107C14.3599 36.0672 14.3661 36.0251 14.3714 35.9835Z" fill="#FFFCFA"/>
<path d="M14.2031 37.323C14.2083 37.2756 14.2136 37.2293 14.2189 37.1824C14.2136 37.2298 14.2079 37.2756 14.2026 37.323L14.2021 37.3268L14.2012 37.3335L14.2031 37.3273V37.323Z" fill="#FFFCFA"/>
<path d="M14.0095 39.6377C14.0052 39.719 14.0004 39.8007 13.9961 39.8825V39.8896L13.9971 39.8825C14.0004 39.8007 14.0052 39.719 14.0095 39.6377Z" fill="#FFFCFA"/>
<path d="M14.0978 38.3765C14.0939 38.4233 14.0896 38.4702 14.0858 38.5175C14.0839 38.5414 14.082 38.5653 14.0801 38.5892C14.0825 38.5653 14.0839 38.5409 14.0863 38.517C14.0896 38.4702 14.0939 38.4233 14.0978 38.3765Z" fill="#FFFCFA"/>
<path d="M14.0579 38.8944C14.0593 38.8738 14.0607 38.8523 14.0622 38.8317C14.0602 38.8528 14.0588 38.8738 14.0574 38.8953C14.0445 39.0473 14.034 39.207 14.0239 39.3911L14.0234 39.3939L14.0244 39.3915C14.0335 39.2075 14.0445 39.0478 14.0579 38.8944Z" fill="#FFFCFA"/>
<path d="M48.897 1.14645L48.8965 1.14697C48.8991 1.14595 48.9011 1.14542 48.9032 1.14542C48.9011 1.14542 48.8991 1.14593 48.897 1.14645Z" fill="#FFFCFA"/>
<path d="M73.5625 4.97044C74.162 5.26875 74.7591 5.5833 75.3437 5.91077C74.7591 5.58282 74.1615 5.26779 73.5625 4.97044Z" fill="#FFFCFA"/>
<path d="M82.0774 10.6257C81.9985 10.5574 81.9201 10.49 81.8384 10.4216L81.6777 10.2882L81.8374 10.4216C81.9201 10.4895 81.9985 10.5574 82.0774 10.6257Z" fill="#FFFCFA"/>
<path d="M41.7012 18.6652C45.2168 14.8752 49.535 11.9323 54.3982 10.0497C55.8715 9.47895 57.3755 9.01379 58.9043 8.65525C57.375 9.01379 55.8706 9.47847 54.3972 10.0488C49.5345 11.9318 45.2163 14.8747 41.7012 18.6652Z" fill="#FFFCFA"/>
<path d="M49.045 71.1647H49.0455C44.9773 68.7051 41.4574 65.4132 38.6923 61.4502C37.6899 60.0141 36.8055 58.515 36.043 56.9642C36.8055 58.515 37.6899 60.0146 38.6923 61.4512C41.4559 65.4132 44.9763 68.7051 49.045 71.1647Z" fill="#FFFCFA"/>
<path d="M22.8017 63.0871C17.2095 57.5733 14.0663 50.2142 13.9506 42.3684L13.9482 42.258V42.127C13.9473 42.0868 13.9473 42.0476 13.9473 42.008C13.9473 42.0472 13.9473 42.0863 13.9477 42.1255C13.9477 42.1695 13.9482 42.2135 13.9482 42.2575L13.9497 42.3689C14.0658 50.2151 17.209 57.5728 22.8008 63.0871C28.3978 68.6076 35.8095 71.6476 43.672 71.6476C44.923 71.6476 46.1621 71.5654 47.3874 71.4129C46.1617 71.5649 44.9226 71.6476 43.6734 71.6476C35.81 71.6476 28.3978 68.6081 22.8017 63.0871Z" fill="#FFFCFA"/>
<path d="M82.9979 11.4407L83.0118 11.4536C83.0849 11.5196 83.1566 11.5861 83.2298 11.6544C83.1566 11.5861 83.0849 11.5196 83.0118 11.4532L82.9979 11.4403L82.9018 11.3533C82.8865 11.3389 82.8708 11.325 82.8555 11.3112C82.8712 11.3255 82.8865 11.3394 82.9028 11.3537L82.9979 11.4407Z" fill="#FFFCFA"/>
<path d="M83.696 12.0916L83.6802 12.0767L83.6738 12.0703L83.6797 12.0777L83.696 12.0916Z" fill="#FFFCFA"/>
<path d="M84.101 12.484C84.1044 12.4859 84.1068 12.4892 84.1097 12.4926C84.1106 12.4931 84.112 12.494 84.113 12.4945C84.1097 12.4907 84.1058 12.4873 84.102 12.4835C84.0532 12.4367 84.004 12.3889 83.9552 12.3401C83.8907 12.2765 83.8243 12.2139 83.7578 12.1513C83.8238 12.2144 83.8902 12.277 83.9543 12.3401C84.003 12.3889 84.0542 12.4376 84.101 12.484Z" fill="#FFFCFA"/>
<path d="M83.4835 11.8926C83.42 11.8323 83.3602 11.7745 83.2933 11.7128L83.2852 11.7057L83.2923 11.7138C83.3597 11.7745 83.42 11.8323 83.4835 11.8926Z" fill="#FFFCFA"/>
<path d="M13.9956 39.9096L13.9951 39.9149C13.9946 39.9245 13.9946 39.9335 13.9941 39.9421C13.9946 39.9335 13.9951 39.9249 13.9956 39.9159V39.9096Z" fill="#FFFCFA"/>
<path d="M13.9573 41.0699V41.0145C13.9573 40.9877 13.9573 40.9614 13.9593 40.9365C13.9617 40.7745 13.9664 40.6172 13.9731 40.4484C13.9741 40.4083 13.976 40.3696 13.9774 40.3304C13.9765 40.3691 13.9741 40.4083 13.9726 40.447C13.9664 40.6167 13.9617 40.7754 13.9583 40.9361C13.9583 40.9624 13.9578 40.9882 13.9573 41.014L13.9569 41.0283V41.0551L13.9564 41.0709C13.953 41.2023 13.9516 41.3343 13.9502 41.4677L13.9492 41.5422L13.9507 41.4672C13.9507 41.3343 13.953 41.2033 13.9573 41.0699Z" fill="#FFFCFA"/>
<path d="M14.4244 35.6269L14.4186 35.6652L14.411 35.7154C14.4 35.7866 14.389 35.8578 14.3799 35.9286V35.9353L14.3785 35.94L14.3775 35.942C14.3761 35.9553 14.3742 35.9697 14.3723 35.9836C14.367 36.0251 14.3608 36.0672 14.3555 36.1107L14.3388 36.2221L14.3359 36.2417L14.3311 36.2752L14.3307 36.2775L14.3287 36.2948L14.3259 36.3115L14.3244 36.3196L14.3206 36.3531L14.3178 36.3794L14.3173 36.3842L14.3134 36.4018C14.2958 36.5371 14.2776 36.6743 14.2599 36.812C14.2456 36.933 14.2322 37.0582 14.2183 37.1825C14.2131 37.2294 14.2078 37.2757 14.2025 37.3231V37.3273L14.2006 37.3336L14.2002 37.3364C14.1825 37.4851 14.1672 37.6362 14.1514 37.7849C14.1404 37.8958 14.1313 38.0086 14.1203 38.1219V38.1334L14.1093 38.2443C14.105 38.2882 14.1017 38.3327 14.0983 38.3767C14.0945 38.4235 14.0902 38.4704 14.0869 38.5172C14.0845 38.5411 14.083 38.5655 14.0806 38.5894C14.0778 38.6253 14.0739 38.6611 14.0716 38.697C14.0682 38.7424 14.0653 38.7868 14.0625 38.8318C14.061 38.8523 14.0596 38.8739 14.0582 38.8944C14.0448 39.0479 14.0338 39.2075 14.0247 39.3916L14.0238 39.394L14.0228 39.3964V39.4031C14.0185 39.481 14.0147 39.5594 14.0108 39.6378C14.0065 39.719 14.0018 39.8008 13.9984 39.8825L13.9975 39.8897L13.996 39.8978V39.9098V39.916C13.9955 39.9251 13.9951 39.9337 13.9946 39.9423C13.9936 39.9605 13.9932 39.9782 13.9917 39.9978V40.0226V40.0245L13.9912 40.0269L13.9893 40.0532C13.9846 40.1455 13.9817 40.2377 13.9783 40.3305C13.9769 40.3697 13.975 40.4084 13.974 40.4485C13.9673 40.6173 13.9626 40.7746 13.9602 40.9366C13.9583 40.9615 13.9583 40.9878 13.9583 41.0146V41.07C13.954 41.2034 13.9516 41.3344 13.9516 41.4673L13.9501 41.5423L13.9492 41.5763V41.5787V41.7159C13.9482 41.756 13.9482 41.7962 13.9482 41.8368C13.9482 41.865 13.9473 41.8937 13.9473 41.9224C13.9473 41.9501 13.9482 41.9793 13.9482 42.0079C13.9482 42.0476 13.9482 42.0868 13.9492 42.127V42.258L13.9516 42.3684C14.0673 50.2142 17.2104 57.5733 22.8027 63.0871C28.3987 68.6081 35.8109 71.6476 43.6744 71.6476C44.9235 71.6476 46.1626 71.5649 47.3883 71.4129C47.9438 71.344 48.4974 71.2651 49.0462 71.1657C49.0457 71.1652 49.0457 71.1652 49.0453 71.1647C44.9766 68.7052 41.4562 65.4133 38.6926 61.4512C37.6901 60.0147 36.8057 58.515 36.0432 56.9642C35.8716 56.6148 35.7081 56.262 35.5485 55.9073C35.5308 55.8686 35.5117 55.8308 35.4944 55.7921C33.5655 51.4585 32.5635 46.7559 32.5635 41.9224C32.5635 34.8922 34.6837 28.1387 38.6926 22.394C39.6138 21.0736 40.6211 19.8307 41.7024 18.6652C45.2175 14.8747 49.5357 11.9319 54.3985 10.0488C55.8718 9.47852 57.3763 9.01384 58.9055 8.6553C61.454 8.05774 64.0714 7.75562 66.7279 7.75562C72.9373 7.75562 78.9019 9.4049 84.1122 12.495C84.1117 12.4941 84.1103 12.4936 84.1098 12.4926C84.1069 12.4893 84.1045 12.4859 84.1012 12.484C84.0544 12.4377 84.0032 12.3889 83.9544 12.3401C83.8904 12.277 83.8239 12.2144 83.758 12.1513C83.7374 12.1322 83.7173 12.1126 83.6973 12.0935L83.6953 12.0915L83.6796 12.0781L83.6738 12.071L83.6638 12.06C83.6078 12.0064 83.5443 11.9486 83.4845 11.8927C83.4209 11.8324 83.3607 11.7746 83.2933 11.7139L83.2861 11.7057L83.2799 11.6981L83.2641 11.6847C83.2531 11.6747 83.2426 11.6651 83.2316 11.6546C83.1585 11.5862 83.0868 11.5198 83.0136 11.4538L82.9998 11.4409L82.9046 11.3539C82.8884 11.3396 82.8731 11.3257 82.8573 11.3114C82.7517 11.2153 82.647 11.1206 82.5428 11.0279C82.4228 10.9213 82.3076 10.8214 82.1919 10.7214C82.156 10.6894 82.1163 10.6574 82.079 10.6258C82.0002 10.5575 81.9218 10.4896 81.8391 10.4217L81.6794 10.2883L81.5929 10.2152L81.5905 10.2109L81.5259 10.1583L81.493 10.131C81.3973 10.0512 81.306 9.97568 81.2133 9.90206L81.1994 9.89011L81.1932 9.88486L81.1841 9.87769L81.1731 9.86908C81.1043 9.81123 81.0331 9.75579 80.9647 9.70033L80.9642 9.69984L80.9575 9.69363L80.9532 9.69125L80.9489 9.68934C80.7266 9.50959 80.4938 9.32744 80.2605 9.15009L80.2562 9.1453L80.2495 9.14101C80.1874 9.09224 80.1253 9.04539 80.0607 8.99663L79.9847 8.93879L79.9388 8.90343C79.9288 8.89482 79.9178 8.88764 79.9068 8.87999C79.9034 8.87712 79.9001 8.87473 79.8968 8.87234L79.8939 8.86995L79.8858 8.86375L79.8795 8.85943L79.8681 8.85226L79.7376 8.75474L79.6902 8.71937L79.5124 8.58791C79.4942 8.575 79.4751 8.56112 79.4565 8.54774C79.4225 8.52336 79.3891 8.49897 79.3551 8.47507L79.2839 8.42393L79.2829 8.42297L79.2796 8.41964L79.2753 8.41723L79.2705 8.41532C79.2007 8.36321 79.1309 8.3135 79.0606 8.26474C79.0439 8.25278 79.0276 8.23989 79.0109 8.22841L78.9908 8.21502L78.9732 8.20211C78.802 8.08212 78.6313 7.96214 78.4578 7.84214L78.4535 7.84023L78.4516 7.83881L78.4449 7.83545C78.3675 7.78191 78.29 7.72884 78.2121 7.67625C78.1935 7.66382 78.1753 7.65045 78.1562 7.63802L78.1542 7.63564L78.1471 7.63132C78.0314 7.55579 77.9157 7.47787 77.7981 7.40186C77.7914 7.39804 77.7852 7.39372 77.7785 7.38942V7.38895L77.7699 7.38274L77.7589 7.37605C77.734 7.35979 77.7092 7.344 77.6843 7.32775C77.6002 7.27325 77.5165 7.21828 77.4324 7.16521L77.4195 7.15614L77.4185 7.15567L77.4061 7.14754C77.2813 7.06532 77.1551 6.9874 77.0261 6.90756L77.0131 6.90038L77.0107 6.89895L76.9931 6.88795C76.864 6.80573 76.733 6.72352 76.6001 6.64559L76.3912 6.51939L76.3893 6.51698C76.3563 6.49738 76.3252 6.47875 76.2932 6.45963C76.2535 6.43572 76.2134 6.41181 76.1737 6.38839L76.1656 6.38409L76.1651 6.3836L76.1641 6.38313L76.1584 6.3793C76.134 6.36449 76.1092 6.35157 76.0853 6.33675C75.9906 6.28178 75.8964 6.22778 75.8008 6.1728L75.7296 6.13073C75.6966 6.11161 75.665 6.0939 75.6321 6.07478C75.5446 6.02411 75.4576 5.97296 75.3701 5.9242C75.3615 5.91942 75.3529 5.9156 75.3443 5.91083C74.7596 5.58336 74.1625 5.26881 73.5631 4.9705C73.5497 4.96381 73.5368 4.95663 73.5234 4.94994L73.5167 4.94707L73.5124 4.94515L73.4985 4.93894C73.3675 4.8701 73.2346 4.80557 73.0993 4.74343L72.7461 4.57466L72.7441 4.57228C72.7346 4.56702 72.7236 4.56224 72.7131 4.55746C72.7064 4.5546 72.6997 4.55171 72.693 4.54789L72.6839 4.54359L72.681 4.54264L72.6753 4.54121C72.258 4.34378 71.8736 4.17262 71.5031 4.01487L71.4936 4.01009L71.4854 4.00626L71.4768 4.00341L71.4678 3.99958C71.3788 3.95943 71.2899 3.92213 71.1991 3.88436L71.1613 3.86858L71.1346 3.85759L71.1298 3.85425L71.1279 3.85329L70.9682 3.78637C70.9118 3.7639 70.8544 3.74001 70.7971 3.71658C70.7698 3.70558 70.744 3.69505 70.7172 3.68452C70.32 3.52438 69.9934 3.39579 69.6937 3.28488L69.514 3.21796L69.4896 3.20889L69.3007 3.13813C68.7969 2.95647 68.2729 2.77623 67.7471 2.60987L67.7404 2.60796L67.7337 2.60558C67.7251 2.60271 67.7165 2.60032 67.7079 2.59745C67.6075 2.56495 67.5076 2.53386 67.4072 2.50327C67.3044 2.47124 67.2016 2.44018 67.0984 2.4091C67.0372 2.39046 66.976 2.37134 66.9143 2.35222C66.6858 2.28577 66.4683 2.2236 66.2594 2.16576L66.2489 2.16434L66.246 2.16387L66.2403 2.16147L66.2331 2.15909C66.2049 2.15144 66.1757 2.14379 66.147 2.13614C66.1016 2.12371 66.0562 2.11176 66.0108 2.09933L65.9831 2.0912L65.9424 2.07925C65.5089 1.96309 65.0657 1.85887 64.6221 1.75562C64.3615 1.69442 64.1005 1.63656 63.8371 1.58015C63.3949 1.48597 62.9518 1.39229 62.5057 1.3115C62.3394 1.28234 62.1749 1.25365 62.0086 1.22688L61.9995 1.22497H61.9928H61.9885C61.824 1.19581 61.6577 1.16903 61.4913 1.14465C61.4143 1.13318 61.3379 1.12172 61.2604 1.11024C61.1638 1.0959 61.0668 1.08059 60.9717 1.0672C60.4974 1.00123 60.0199 0.942924 59.5409 0.893204C58.6168 0.797119 57.686 0.733055 56.7543 0.698158C56.2361 0.678558 55.7179 0.667557 55.2002 0.667557C54.3272 0.667557 53.4524 0.699112 52.5795 0.754089C52.4877 0.759346 52.3954 0.761734 52.3037 0.767952C51.339 0.835358 50.3785 0.935257 49.4282 1.0672C49.257 1.09158 49.0864 1.11787 48.9176 1.14274C48.9128 1.14417 48.9085 1.14465 48.9038 1.14561C48.9019 1.14561 48.8999 1.1461 48.8975 1.14706L14.4268 35.6155L14.4244 35.6269Z" fill="#F25221"/>
<path d="M95.9855 48.1647L95.9903 48.1341L95.9946 48.1006C96.0032 48.0428 96.0123 47.983 96.019 47.9252L96.0214 47.9118L96.0233 47.8898L96.0276 47.8649C96.039 47.7899 96.0524 47.712 96.061 47.6364L96.0653 47.5857L96.0744 47.5346C96.0787 47.5097 96.0811 47.4858 96.0854 47.4634L96.1165 47.2057L96.1413 47.0283C96.1633 46.8572 96.181 46.6975 96.1987 46.5379L96.2011 46.5154C96.2188 46.3624 96.2341 46.218 96.2475 46.0718C96.2589 45.9494 96.2723 45.8337 96.2809 45.7209V45.7142L96.2919 45.6033C96.301 45.521 96.3077 45.4412 96.312 45.3609L96.3139 45.3298L96.3163 45.2987C96.3273 45.1945 96.334 45.0903 96.3407 44.9861V44.9703L96.3431 44.9436C96.3565 44.793 96.3675 44.6328 96.3766 44.4531V44.4421C96.3876 44.28 96.3961 44.1223 96.4052 43.9669L96.4076 43.9205V43.856L96.4095 43.7919C96.4186 43.6609 96.4229 43.5276 96.4272 43.3942C96.4339 43.2144 96.4387 43.0438 96.443 42.8726L96.4449 42.8502V42.7727C96.4473 42.6503 96.4497 42.5265 96.4497 42.4018V42.2622L96.4516 42.2397C96.454 42.1331 96.454 42.027 96.454 41.9223C96.454 41.8114 96.454 41.6981 96.4516 41.5895V41.5805L96.4497 41.4739C96.334 33.629 93.1908 26.2699 87.601 20.7556C82.002 15.2346 74.5904 12.1952 66.7269 12.1952C64.9113 12.1952 63.1152 12.3577 61.3546 12.677C65.4242 15.1371 68.9446 18.4313 71.7087 22.3939C75.7176 28.1386 77.8377 34.8921 77.8377 41.9223C77.8377 48.953 75.7176 55.7059 71.7087 61.4511C67.7925 67.063 62.3604 71.332 56.0004 73.7939C52.0732 75.3146 47.9266 76.0871 43.6734 76.0871C37.464 76.0871 31.5012 74.4374 26.2891 71.3496L26.2977 71.3587L26.3221 71.3807L26.3445 71.4032C26.3689 71.4295 26.3933 71.4539 26.42 71.4763L26.5023 71.5562C26.5687 71.6226 26.6352 71.6871 26.704 71.7517L26.715 71.7627L26.7284 71.7737C26.8393 71.8803 26.9703 72.0065 27.0994 72.1246L27.1194 72.1399L27.1371 72.1575C27.2213 72.2379 27.3054 72.3177 27.3924 72.3951L27.3991 72.4018L27.4077 72.4085C27.5564 72.5462 27.7074 72.682 27.8628 72.8173L27.8719 72.8235L27.881 72.8325C27.9804 72.9215 28.0803 73.0104 28.1826 73.0993L28.2022 73.1146L28.2692 73.172L28.2758 73.1744L28.5689 73.4277L28.6286 73.4789L28.642 73.4918C28.7219 73.5587 28.7998 73.6252 28.882 73.6897L28.9131 73.7141L28.9418 73.7404C29.0106 73.8006 29.088 73.8628 29.1751 73.9316L29.2037 73.9536L29.2305 73.9761C29.2927 74.0291 29.3548 74.0803 29.4146 74.1247L29.4346 74.14L29.4523 74.1558C29.6722 74.3331 29.9007 74.511 30.1316 74.6859C30.1804 74.7261 30.2315 74.7639 30.2803 74.8017C30.3382 74.8461 30.3936 74.8882 30.451 74.9307C30.4844 74.9546 30.5155 74.9771 30.5447 75.0015L30.6001 75.0416C30.691 75.1105 30.7842 75.1793 30.8774 75.2481L30.9639 75.3103C31.0108 75.3433 31.0576 75.3767 31.104 75.4102L31.1217 75.4231L31.1418 75.4365C31.2082 75.4876 31.2794 75.5364 31.3478 75.5852L31.4238 75.6387C31.5926 75.7587 31.7651 75.8782 31.9387 75.9982L31.9544 76.0073L31.9697 76.0183C32.0453 76.0713 32.1232 76.1225 32.1982 76.1736L32.2561 76.2114L32.4468 76.3381L32.6491 76.4734C32.7514 76.5398 32.858 76.6111 32.9665 76.6775C33.0755 76.7483 33.1816 76.8152 33.2863 76.8816H33.5478L34.0163 77.3277C34.0875 77.3726 34.1606 77.4166 34.2343 77.4591C34.3762 77.5433 34.5206 77.6274 34.6645 77.7077L34.6779 77.7163L34.6913 77.7254C34.8046 77.7918 34.9179 77.854 35.0331 77.9185C35.6416 78.2622 36.2583 78.5888 36.8755 78.8933C37.0137 78.9616 37.1489 79.0286 37.2842 79.0926C37.3043 79.1041 37.3239 79.1127 37.344 79.1242C37.4731 79.1839 37.5997 79.2437 37.7283 79.3058C38.117 79.488 38.5143 79.6653 38.9024 79.8322L38.9115 79.8346L38.9201 79.8389C39.0157 79.8809 39.1156 79.923 39.2113 79.9632C39.2399 79.9741 39.271 79.9875 39.3045 80.0033C39.4331 80.0564 39.5621 80.1094 39.6926 80.163C40.0106 80.2916 40.3543 80.425 40.7138 80.5602L40.7252 80.5645L40.7362 80.5693C40.8471 80.6114 40.958 80.6535 41.0713 80.6931L41.0871 80.6979L41.1 80.7022C41.6264 80.8953 42.1479 81.0727 42.6499 81.2305L42.6676 81.2372L42.6829 81.2415C42.7852 81.2773 42.8851 81.3084 42.9874 81.3395L43.0027 81.3414L43.0161 81.3462C43.169 81.3949 43.3225 81.4413 43.4755 81.4881L43.6045 81.5259C43.7886 81.577 43.9707 81.6301 44.1529 81.6813C44.2547 81.7099 44.3455 81.7343 44.4368 81.7587L44.4588 81.7635C45.5956 82.0699 46.752 82.3271 47.8931 82.5293L47.9065 82.5336L47.9199 82.536C48.0576 82.5604 48.2063 82.5872 48.3927 82.6182H48.4037L48.4128 82.6202C48.5968 82.6512 48.7503 82.6756 48.8899 82.6957L48.9123 82.6981L48.9343 82.7024C49.0945 82.7292 49.2561 82.7511 49.4162 82.7736L49.4296 82.7755C51.3298 83.0399 53.2698 83.1752 55.1992 83.1752C57.1305 83.1752 59.0728 83.0399 60.9731 82.7755L61.0132 82.7688C61.1662 82.7468 61.3173 82.7268 61.4679 82.7024L61.4903 82.6981L61.5056 82.6957L95.9769 48.2249C95.9788 48.2048 95.9812 48.1847 95.9855 48.1647Z" fill="#1F2732"/>
</svg>
