<svg width="116" height="118" viewBox="0 0 116 118" fill="none" xmlns="http://www.w3.org/2000/svg">
<path d="M12.8689 28.5614H31.7664L59.5985 59.2092H40.7011L12.8689 28.5614ZM33.4396 24.78H4.32617L39.028 62.9906H68.1408L33.4396 24.78Z" fill="#F25221"/>
<path d="M62.7345 0.275133L33.4396 23.3076H4.32617L10.7369 18.269C25.5613 6.61408 43.8754 0.275133 62.7345 0.275133Z" fill="#1F2732"/>
<path d="M56.5682 28.4275H75.4607L103.298 59.0753H84.4003L56.5682 28.4275ZM77.1387 24.6461H48.0254L82.7271 62.8567H111.84L77.1387 24.6461Z" fill="#F25221"/>
<path d="M111.84 64.3291L105.429 69.3678C98.0194 75.1952 89.7305 79.6936 80.9439 82.734C72.1569 85.7792 62.8636 87.3616 53.4316 87.3616L82.7271 64.3291H111.84Z" fill="#1F2732"/>
<path d="M8.21604 106.173C7.66642 106.682 6.91053 106.998 6.09971 106.998C4.36773 106.998 2.96584 105.61 2.96584 103.878C2.96584 102.16 4.36773 100.758 6.09971 100.758C6.91053 100.758 7.66642 101.075 8.21604 101.597L9.68657 100.113C8.75212 99.2191 7.48773 98.6693 6.09971 98.6693C3.22729 98.6693 0.890625 101.006 0.890625 103.878C0.890625 106.75 3.22729 109.087 6.09971 109.087C7.48773 109.087 8.75212 108.537 9.68657 107.644L8.21604 106.173Z" fill="#F25221"/>
<path d="M23.4178 107.012C21.6858 107.012 20.2842 105.61 20.2842 103.878C20.2842 102.16 21.6858 100.758 23.4178 100.758C25.1359 100.758 26.5376 102.16 26.5376 103.878C26.5376 105.61 25.1359 107.012 23.4178 107.012ZM23.4178 98.6693C20.5457 98.6693 18.209 101.006 18.209 103.878C18.209 106.75 20.5457 109.087 23.4178 109.087C26.29 109.087 28.6262 106.75 28.6262 103.878C28.6262 101.006 26.29 98.6693 23.4178 98.6693Z" fill="#F25221"/>
<path d="M43.1231 106.283L40.0722 98.6693H37.832V109.087H39.9073V103.878L41.9963 109.087H44.2365L46.3256 103.878V109.087H48.4008V98.6693H46.1602L43.1231 106.283Z" fill="#F25221"/>
<path d="M60.5231 102.834H59.6846V100.758H60.5231C61.1001 100.758 61.5676 101.226 61.5676 101.803C61.5676 102.366 61.1001 102.834 60.5231 102.834ZM60.5231 98.6693H57.6094V109.087H59.6846V104.923H60.5365C62.2546 104.923 63.6424 103.521 63.6424 101.803C63.6424 100.071 62.2546 98.6693 60.5231 98.6693Z" fill="#F25221"/>
<path d="M75.5012 104.084L76.3397 101.734L77.1921 104.084H75.5012ZM75.2407 98.6693L71.4746 109.087H73.6875L74.7454 106.173H77.9479L79.0063 109.087H81.2187L77.4531 98.6693H75.2407Z" fill="#F25221"/>
<path d="M98.8247 98.6693H96.7494V105.624L92.5851 98.6693H90.1523V109.087H92.2276V102.146L96.4057 109.087H98.8247V98.6693Z" fill="#F25221"/>
<path d="M112.552 109.087V104.126L115.274 98.6693H112.951L111.521 101.555L110.079 98.6693H107.756L110.477 104.126V109.087H112.552Z" fill="#F25221"/>
<path d="M0.875 114.146H2.08265V117.964H2.75469V114.146H3.96292V113.549H0.875V114.146Z" fill="#F25221"/>
<path d="M8.47544 116.383L9.11426 114.455H9.1266L9.76522 116.383H8.47544ZM8.83881 113.549L7.23438 117.964H7.94265L8.28159 116.976H9.95573L10.298 117.964H11.0037L9.39884 113.549H8.83881Z" fill="#F25221"/>
<path d="M16.5152 116.165H17.4144V116.396C17.4101 116.672 17.3236 116.895 17.1539 117.064C16.9842 117.242 16.7695 117.331 16.509 117.331C16.3512 117.331 16.2164 117.298 16.1031 117.231C15.9884 117.174 15.8956 117.101 15.8244 117.01C15.7379 116.915 15.6805 116.791 15.6523 116.637C15.6198 116.484 15.604 116.19 15.604 115.756C15.604 115.322 15.6198 115.027 15.6523 114.87C15.6805 114.72 15.7379 114.598 15.8244 114.503C15.8956 114.412 15.9884 114.337 16.1031 114.276C16.2164 114.218 16.3512 114.186 16.509 114.182C16.7231 114.186 16.9048 114.248 17.0539 114.367C17.1974 114.492 17.2963 114.644 17.3508 114.821H18.0593C17.9885 114.452 17.8188 114.142 17.5506 113.892C17.282 113.643 16.9349 113.517 16.509 113.513C16.1619 113.517 15.8722 113.6 15.6404 113.761C15.4039 113.921 15.2325 114.102 15.1253 114.306C15.059 114.413 15.0093 114.554 14.9772 114.727C14.9469 114.901 14.9316 115.244 14.9316 115.756C14.9316 116.261 14.9469 116.602 14.9772 116.78C14.9931 116.875 15.0134 116.953 15.0377 117.016C15.0639 117.076 15.093 117.14 15.1253 117.207C15.2325 117.41 15.4039 117.59 15.6404 117.745C15.8722 117.907 16.1619 117.992 16.509 118C16.9588 117.992 17.3327 117.839 17.629 117.542C17.924 117.244 18.0751 116.874 18.0832 116.431V115.532H16.5152V116.165Z" fill="#F25221"/>
<path d="M23.2547 113.549H22.5859V117.964H25.4045V117.33H23.2547V113.549Z" fill="#F25221"/>
<path d="M29.7539 117.964H30.4232V113.549H29.7539V117.964Z" fill="#F25221"/>
<path d="M37.7125 116.686H37.7001L35.7023 113.549H35.0723V117.964H35.7415V114.827H35.7535L37.7484 117.964H38.3813V113.549H37.7125V116.686Z" fill="#F25221"/>
<path d="M43.0352 117.964H45.8537V117.33H43.7044V116.035H45.5392V115.441H43.7044V114.182H45.8537V113.549H43.0352V117.964Z" fill="#F25221"/>
<path d="M56.8431 116.165H57.7423V116.396C57.738 116.672 57.6515 116.895 57.4817 117.064C57.3125 117.242 57.0974 117.331 56.8369 117.331C56.6791 117.331 56.5443 117.298 56.4315 117.231C56.3163 117.174 56.2235 117.101 56.1528 117.01C56.0658 116.915 56.0084 116.791 55.9802 116.637C55.9477 116.484 55.9319 116.19 55.9319 115.756C55.9319 115.322 55.9477 115.027 55.9802 114.87C56.0084 114.72 56.0658 114.598 56.1528 114.503C56.2235 114.412 56.3163 114.337 56.4315 114.276C56.5443 114.218 56.6791 114.186 56.8369 114.182C57.051 114.186 57.2327 114.248 57.3818 114.367C57.5252 114.492 57.6242 114.644 57.6787 114.821H58.3872C58.3164 114.452 58.1467 114.142 57.8785 113.892C57.6099 113.643 57.2628 113.517 56.8369 113.513C56.4898 113.517 56.2006 113.6 55.9682 113.761C55.7321 113.921 55.5605 114.102 55.4534 114.306C55.3869 114.413 55.3372 114.554 55.3052 114.727C55.2746 114.901 55.2598 115.244 55.2598 115.756C55.2598 116.261 55.2746 116.602 55.3052 116.78C55.321 116.875 55.3415 116.953 55.3654 117.016C55.3917 117.076 55.4209 117.14 55.4534 117.207C55.5605 117.41 55.7321 117.59 55.9682 117.745C56.2006 117.907 56.4898 117.992 56.8369 118C57.2872 117.992 57.6605 117.839 57.9574 117.542C58.2519 117.244 58.4029 116.874 58.4111 116.431V115.532H56.8431V116.165Z" fill="#F25221"/>
<path d="M65.1973 116.637C65.1648 116.791 65.1051 116.915 65.0186 117.01C64.9521 117.101 64.8632 117.174 64.7523 117.231C64.6352 117.298 64.4965 117.331 64.3373 117.331C64.1796 117.331 64.0448 117.298 63.9315 117.231C63.8167 117.174 63.724 117.101 63.6528 117.01C63.5662 116.915 63.5089 116.791 63.4802 116.637C63.4482 116.484 63.4319 116.19 63.4319 115.756C63.4319 115.322 63.4482 115.027 63.4802 114.87C63.5089 114.72 63.5662 114.598 63.6528 114.503C63.724 114.412 63.8167 114.337 63.9315 114.276C64.0448 114.218 64.1796 114.186 64.3373 114.182C64.4965 114.186 64.6352 114.218 64.7523 114.276C64.8632 114.337 64.9521 114.412 65.0186 114.503C65.1051 114.598 65.1648 114.72 65.1973 114.87C65.2275 115.027 65.2428 115.322 65.2428 115.756C65.2428 116.19 65.2275 116.484 65.1973 116.637ZM65.7179 114.306C65.6147 114.102 65.4474 113.921 65.2155 113.761C64.9813 113.6 64.6887 113.517 64.3373 113.513C63.9903 113.517 63.7006 113.6 63.4682 113.761C63.2321 113.921 63.0609 114.102 62.9534 114.306C62.8874 114.413 62.8377 114.554 62.8057 114.727C62.7751 114.901 62.7598 115.244 62.7598 115.756C62.7598 116.261 62.7751 116.602 62.8057 116.78C62.8214 116.875 62.8415 116.953 62.8659 117.016C62.8922 117.076 62.9213 117.14 62.9534 117.207C63.0609 117.41 63.2321 117.59 63.4682 117.745C63.7006 117.907 63.9903 117.992 64.3373 118C64.6887 117.992 64.9813 117.907 65.2155 117.745C65.4474 117.59 65.6147 117.41 65.7179 117.207C65.7925 117.1 65.8437 116.957 65.8724 116.78C65.8986 116.602 65.9116 116.261 65.9116 115.756C65.9116 115.244 65.8986 114.901 65.8724 114.727C65.8437 114.554 65.7925 114.413 65.7179 114.306Z" fill="#F25221"/>
<path d="M70.4121 117.964H73.2302V117.33H71.0809V116.035H72.9157V115.441H71.0809V114.182H73.2302V113.549H70.4121V117.964Z" fill="#F25221"/>
<path d="M79.2228 115.448C79.0129 115.421 78.8475 115.398 78.7261 115.378C78.5086 115.338 78.3498 115.265 78.2504 115.16C78.1519 115.057 78.1022 114.942 78.1022 114.815C78.1065 114.603 78.1801 114.444 78.3235 114.337C78.4607 114.234 78.6324 114.182 78.8379 114.182C79.2357 114.19 79.5999 114.303 79.9312 114.521L80.3032 113.97C79.8978 113.678 79.4202 113.525 78.8714 113.513C78.4153 113.517 78.063 113.636 77.8149 113.87C77.5587 114.106 77.4305 114.417 77.4305 114.803C77.4305 115.123 77.5324 115.396 77.736 115.62C77.9339 115.838 78.2227 115.979 78.6018 116.041C78.814 116.071 79.0086 116.098 79.1864 116.123C79.5741 116.19 79.7653 116.387 79.7615 116.716C79.7534 117.118 79.4627 117.323 78.8896 117.331C78.4053 117.327 77.9875 117.181 77.6361 116.892L77.1973 117.394C77.6677 117.798 78.2299 118 78.8838 118C79.8949 117.988 80.4112 117.56 80.4337 116.716C80.4337 116.403 80.3357 116.129 80.1401 115.893C79.9422 115.653 79.6363 115.504 79.2228 115.448Z" fill="#F25221"/>
<path d="M92.4825 115.441H90.7352V113.549H90.0664V117.964H90.7352V116.035H92.4825V117.964H93.1513V113.549H92.4825V115.441Z" fill="#F25221"/>
<path d="M97.8027 117.964H100.621V117.33H98.4715V116.035H100.306V115.441H98.4715V114.182H100.621V113.549H97.8027V117.964Z" fill="#F25221"/>
<path d="M105.639 115.484V114.146H106.687C106.901 114.146 107.065 114.191 107.178 114.282C107.321 114.385 107.394 114.552 107.399 114.782C107.399 114.973 107.337 115.135 107.214 115.266C107.089 115.407 106.901 115.48 106.651 115.484H105.639ZM108.031 114.782C108.019 114.374 107.873 114.06 107.592 113.84C107.36 113.646 107.061 113.549 106.693 113.549H104.971V117.964H105.639V116.078H106.493L107.404 117.964H108.201L107.178 116.004C107.739 115.789 108.024 115.381 108.031 114.782Z" fill="#F25221"/>
<path d="M112.473 117.964H115.291V117.33H113.142V116.035H114.977V115.441H113.142V114.182H115.291V113.549H112.473V117.964Z" fill="#F25221"/>
</svg>
