<svg width="118" height="109" viewBox="0 0 118 109" fill="none" xmlns="http://www.w3.org/2000/svg">
<path d="M35.5136 76.1232L35.5083 76.1127L32.6395 71.1447L9.89577 31.7515H4.1582L29.7707 76.1141L29.765 76.1232H29.776H35.5011H35.5136Z" fill="#1F2732"/>
<path d="M58.4574 76.1232L58.4522 76.1127L55.5834 71.1447L52.716 66.1788L49.8473 61.2109L46.9804 56.243L44.1116 51.275L32.8392 31.7515H27.1035L41.2428 56.243L44.1116 61.2109L46.9804 66.1788L49.8473 71.1447L52.716 76.1127L52.7089 76.1232H52.7218H58.4445H58.4574Z" fill="#1F2732"/>
<path d="M67.0536 71.1447L64.1867 66.1788L61.3179 61.2109L58.4511 56.243L55.5823 51.275L52.7149 46.3091L49.8462 41.3412L44.3099 31.7515H38.5742L46.9774 46.3071L52.7149 56.243L55.5823 61.2109L58.4511 66.1788L61.3179 71.1447L64.1867 76.1127L64.1791 76.1232H64.192H69.9166H69.9276L69.9224 76.1141L67.0536 71.1447Z" fill="#1F2732"/>
<path d="M79.4199 0.0575905H73.6823L52.7461 36.323L55.6149 41.2904L79.4199 0.0575905Z" fill="#F25221"/>
<path d="M41.2506 76.1232H46.9867L46.981 76.1127L44.1122 71.1447L41.2453 66.1788L38.3766 61.2109L21.3685 31.7515H15.6328L35.5078 66.1768L38.3766 71.1447L41.2453 76.1127L41.2382 76.1232H41.2506Z" fill="#1F2732"/>
<path d="M61.3492 51.2244L90.8899 0.0576553H85.1542L58.4805 46.2565L58.5115 46.3091L61.3492 51.2244Z" fill="#F25221"/>
<path d="M67.0856 61.1602L102.362 0.0576324H96.6267L64.2168 56.1903L64.2479 56.2429L67.0856 61.1602Z" fill="#F25221"/>
<path d="M113.834 0.0575867H108.098L69.9531 66.1261L69.9837 66.1787L72.8219 71.094L113.834 0.0575867Z" fill="#F25221"/>
<path d="M7.82741 96.8647C7.26332 97.3862 6.48743 97.7108 5.65562 97.7108C3.87871 97.7108 2.44025 96.2862 2.44025 94.5094C2.44025 92.7468 3.87871 91.3083 5.65562 91.3083C6.48743 91.3083 7.26332 91.6324 7.82741 92.1683L9.33613 90.6453C8.37716 89.7288 7.07974 89.1647 5.65562 89.1647C2.70844 89.1647 0.310547 91.5622 0.310547 94.5094C0.310547 97.457 2.70844 99.8544 5.65562 99.8544C7.07974 99.8544 8.37716 99.2902 9.33613 98.3734L7.82741 96.8647Z" fill="#1F2732"/>
<path d="M23.4252 97.7246C21.6483 97.7246 20.2093 96.2862 20.2093 94.5094C20.2093 92.7468 21.6483 91.3083 23.4252 91.3083C25.1877 91.3083 26.6262 92.7468 26.6262 94.5094C26.6262 96.2862 25.1877 97.7246 23.4252 97.7246ZM23.4252 89.1647C20.478 89.1647 18.0801 91.5622 18.0801 94.5094C18.0801 97.457 20.478 99.8544 23.4252 99.8544C26.3723 99.8544 28.7698 97.457 28.7698 94.5094C28.7698 91.5622 26.3723 89.1647 23.4252 89.1647Z" fill="#1F2732"/>
<path d="M43.646 96.9775L40.5153 89.1647H38.2168V99.8544H40.346V94.5094L42.4896 99.8544H44.7886L46.9321 94.5094V99.8544H49.0614V89.1647H46.7629L43.646 96.9775Z" fill="#1F2732"/>
<path d="M61.4995 93.4375H60.639V91.3083H61.4995C62.0913 91.3083 62.5713 91.7878 62.5713 92.3801C62.5713 92.9579 62.0913 93.4375 61.4995 93.4375ZM61.4995 89.1647H58.5098V99.8544H60.639V95.5811H61.5134C63.2764 95.5811 64.7005 94.1426 64.7005 92.3801C64.7005 90.6032 63.2764 89.1647 61.4995 89.1647Z" fill="#1F2732"/>
<path d="M76.8701 94.7211L77.7306 92.3093L78.6049 94.7211H76.8701ZM76.6024 89.1647L72.7383 99.8544H75.0086L76.0947 96.8647H79.3803L80.4665 99.8544H82.7367L78.8726 89.1647H76.6024Z" fill="#1F2732"/>
<path d="M100.801 89.1647H98.6715V96.3005L94.3982 89.1647H91.9023V99.8544H94.0316V92.7324L98.3192 99.8544H100.801V89.1647Z" fill="#1F2732"/>
<path d="M114.889 99.8544V94.7631L117.681 89.1647H115.298L113.831 92.1263L112.35 89.1647H109.967L112.759 94.7631V99.8544H114.889Z" fill="#1F2732"/>
<path d="M0.292969 105.046H1.53255V108.963H2.22191V105.046H3.46149V104.434H0.292969V105.046Z" fill="#1F2732"/>
<path d="M8.09188 107.341L8.7473 105.362H8.76021L9.41561 107.341H8.09188ZM8.46476 104.434L6.81836 108.963H7.54547L7.89302 107.95H9.61065L9.96202 108.963H10.6863L9.03938 104.434H8.46476Z" fill="#1F2732"/>
<path d="M16.3437 107.117H17.2658V107.354C17.2615 107.638 17.1726 107.866 16.9991 108.04C16.8251 108.222 16.6042 108.314 16.337 108.314C16.1754 108.314 16.0367 108.28 15.921 108.211C15.803 108.153 15.7078 108.078 15.6352 107.984C15.5463 107.887 15.487 107.76 15.4578 107.602C15.4248 107.445 15.4081 107.144 15.4081 106.698C15.4081 106.253 15.4248 105.95 15.4578 105.788C15.487 105.635 15.5463 105.509 15.6352 105.412C15.7078 105.319 15.803 105.241 15.921 105.179C16.0367 105.119 16.1754 105.087 16.337 105.083C16.5569 105.087 16.7433 105.15 16.8963 105.272C17.0435 105.401 17.1449 105.556 17.2008 105.738H17.9274C17.8552 105.359 17.6812 105.041 17.4059 104.785C17.1305 104.53 16.7744 104.4 16.337 104.397C15.9808 104.4 15.6839 104.485 15.4459 104.651C15.2035 104.815 15.0271 105.001 14.9176 105.21C14.8493 105.32 14.7986 105.464 14.7651 105.642C14.7345 105.82 14.7188 106.172 14.7188 106.698C14.7188 107.216 14.7345 107.566 14.7651 107.748C14.7819 107.846 14.8024 107.926 14.8277 107.991C14.8545 108.053 14.8842 108.118 14.9176 108.186C15.0271 108.395 15.2035 108.58 15.4459 108.74C15.6839 108.905 15.9808 108.992 16.337 109C16.7992 108.992 17.1821 108.836 17.4867 108.531C17.7888 108.225 17.9446 107.845 17.9528 107.391V106.468H16.3437V107.117Z" fill="#1F2732"/>
<path d="M23.2568 104.434H22.5703V108.963H25.4625V108.313H23.2568V104.434Z" fill="#1F2732"/>
<path d="M29.9277 108.963H30.6142V104.434H29.9277V108.963Z" fill="#1F2732"/>
<path d="M38.0939 107.652H38.0815L36.0311 104.434H35.3848V108.963H36.0717V105.745H36.0837L38.1312 108.963H38.7804V104.434H38.0939V107.652Z" fill="#1F2732"/>
<path d="M43.5527 108.963H46.4449V108.313H44.2392V106.984H46.1218V106.375H44.2392V105.083H46.4449V104.434H43.5527V108.963Z" fill="#1F2732"/>
<path d="M57.7225 107.117H58.6452V107.354C58.6409 107.638 58.552 107.866 58.3779 108.04C58.2039 108.222 57.9836 108.314 57.7163 108.314C57.5547 108.314 57.4161 108.28 57.2999 108.211C57.1819 108.153 57.0867 108.078 57.0141 107.984C56.9252 107.887 56.8659 107.76 56.8372 107.602C56.8037 107.445 56.7875 107.144 56.7875 106.698C56.7875 106.253 56.8037 105.95 56.8372 105.788C56.8659 105.635 56.9252 105.509 57.0141 105.412C57.0867 105.319 57.1819 105.241 57.2999 105.179C57.4161 105.119 57.5547 105.087 57.7163 105.083C57.9358 105.087 58.1222 105.15 58.2757 105.272C58.4224 105.401 58.5238 105.556 58.5802 105.738H59.3068C59.2346 105.359 59.0601 105.041 58.7848 104.785C58.5094 104.53 58.1533 104.4 57.7163 104.397C57.3602 104.4 57.0628 104.485 56.8248 104.651C56.5824 104.815 56.4065 105.001 56.2965 105.21C56.2282 105.32 56.1775 105.464 56.1445 105.642C56.1134 105.82 56.0977 106.172 56.0977 106.698C56.0977 107.216 56.1134 107.566 56.1445 107.748C56.1608 107.846 56.1813 107.926 56.2066 107.991C56.2334 108.053 56.2631 108.118 56.2965 108.186C56.4065 108.395 56.5824 108.58 56.8248 108.74C57.0628 108.905 57.3602 108.992 57.7163 109C58.1781 108.992 58.5615 108.836 58.8656 108.531C59.1682 108.225 59.3235 107.845 59.3317 107.391V106.468H57.7225V107.117Z" fill="#1F2732"/>
<path d="M66.2956 107.602C66.2626 107.76 66.2014 107.887 66.112 107.984C66.0441 108.078 65.9528 108.153 65.8391 108.211C65.7191 108.28 65.5771 108.314 65.4136 108.314C65.252 108.314 65.1129 108.28 64.9972 108.211C64.8787 108.153 64.784 108.078 64.7113 107.984C64.6224 107.887 64.5631 107.76 64.534 107.602C64.501 107.445 64.4843 107.144 64.4843 106.698C64.4843 106.253 64.501 105.95 64.534 105.788C64.5631 105.635 64.6224 105.509 64.7113 105.412C64.784 105.319 64.8787 105.241 64.9972 105.179C65.1129 105.119 65.252 105.087 65.4136 105.083C65.5771 105.087 65.7191 105.119 65.8391 105.179C65.9528 105.241 66.0441 105.319 66.112 105.412C66.2014 105.509 66.2626 105.635 66.2956 105.788C66.3267 105.95 66.342 106.253 66.342 106.698C66.342 107.144 66.3267 107.445 66.2956 107.602ZM66.8296 105.21C66.7244 105.001 66.5523 104.815 66.3142 104.651C66.0738 104.485 65.7736 104.4 65.4136 104.397C65.057 104.4 64.7601 104.485 64.5215 104.651C64.2792 104.815 64.1033 105.001 63.9938 105.21C63.9254 105.32 63.8743 105.464 63.8413 105.642C63.8102 105.82 63.7949 106.172 63.7949 106.698C63.7949 107.216 63.8102 107.566 63.8413 107.748C63.858 107.846 63.8786 107.926 63.9034 107.991C63.9302 108.053 63.9603 108.118 63.9938 108.186C64.1033 108.395 64.2792 108.58 64.5215 108.74C64.7601 108.905 65.057 108.992 65.4136 109C65.7736 108.992 66.0738 108.905 66.3142 108.74C66.5523 108.58 66.7244 108.395 66.8296 108.186C66.9066 108.076 66.9591 107.931 66.9883 107.748C67.0155 107.566 67.0285 107.216 67.0285 106.698C67.0285 106.172 67.0155 105.82 66.9883 105.642C66.9591 105.464 66.9066 105.32 66.8296 105.21Z" fill="#1F2732"/>
<path d="M71.6484 108.963H74.5402V108.313H72.3349V106.984H74.2175V106.375H72.3349V105.083H74.5402V104.434H71.6484V108.963Z" fill="#1F2732"/>
<path d="M80.6874 106.381C80.4723 106.354 80.3021 106.331 80.1778 106.31C79.9541 106.269 79.7916 106.194 79.6902 106.086C79.5889 105.981 79.5377 105.863 79.5377 105.732C79.542 105.515 79.6176 105.351 79.7648 105.241C79.9054 105.135 80.0818 105.083 80.2931 105.083C80.7008 105.091 81.0747 105.207 81.4141 105.431L81.7965 104.865C81.3802 104.565 80.8906 104.408 80.327 104.397C79.859 104.4 79.4976 104.523 79.2428 104.763C78.9799 105.005 78.8484 105.324 78.8484 105.72C78.8484 106.049 78.9531 106.329 79.162 106.559C79.3652 106.782 79.6611 106.926 80.0507 106.99C80.2682 107.021 80.468 107.049 80.6502 107.074C81.0479 107.142 81.2444 107.345 81.2401 107.683C81.232 108.095 80.9336 108.305 80.3456 108.314C79.8485 108.31 79.4197 108.16 79.0592 107.863L78.6094 108.379C79.0917 108.793 79.6683 109 80.3394 109C81.3773 108.988 81.907 108.549 81.9299 107.683C81.9299 107.362 81.8295 107.08 81.6287 106.838C81.426 106.592 81.112 106.439 80.6874 106.381Z" fill="#1F2732"/>
<path d="M94.2936 106.375H92.5009V104.434H91.8145V108.963H92.5009V106.984H94.2936V108.963H94.9801V104.434H94.2936V106.375Z" fill="#1F2732"/>
<path d="M99.7539 108.963H102.646V108.313H100.441V106.984H102.323V106.375H100.441V105.083H102.646V104.434H99.7539V108.963Z" fill="#1F2732"/>
<path d="M107.796 106.418V105.046H108.871C109.09 105.046 109.258 105.092 109.374 105.185C109.521 105.291 109.597 105.462 109.601 105.698C109.601 105.895 109.538 106.061 109.412 106.195C109.283 106.34 109.09 106.414 108.834 106.418H107.796ZM110.25 105.698C110.238 105.279 110.088 104.957 109.8 104.731C109.562 104.533 109.254 104.434 108.877 104.434H107.109V108.963H107.796V107.028H108.672L109.607 108.963H110.424L109.374 106.953C109.95 106.731 110.242 106.313 110.25 105.698Z" fill="#1F2732"/>
<path d="M114.807 108.963H117.699V108.313H115.493V106.984H117.376V106.375H115.493V105.083H117.699V104.434H114.807V108.963Z" fill="#1F2732"/>
</svg>
