<svg width="82" height="115" viewBox="0 0 82 115" fill="none" xmlns="http://www.w3.org/2000/svg">
<path d="M74.4714 66.5739C73.2777 68.6783 71.8665 70.6574 70.2612 72.4764L70.3057 72.5209L68.8161 74.0167C62.1783 80.6946 53.3373 84.3746 43.9235 84.3746C34.5475 84.3746 25.7318 80.7218 19.1021 74.0927C12.473 67.4636 8.82023 58.6473 8.82023 49.2718C8.82023 48.581 8.84127 47.8773 8.88381 47.1799C8.88811 47.0852 8.89433 46.9882 8.90055 46.8887L8.90246 46.861C8.90724 46.7979 8.91107 46.7343 8.91537 46.6688L8.91775 46.6373C8.92827 46.4934 8.9407 46.3476 8.95361 46.2023C8.96412 46.0837 8.97464 45.957 8.98755 45.8303C9.00619 45.6444 9.02531 45.4541 9.04634 45.2643C9.05877 45.1544 9.07169 45.0315 9.0889 44.911C9.10563 44.7571 9.12857 44.5836 9.15199 44.4105C9.16681 44.3135 9.17925 44.2207 9.19455 44.1251C9.21558 43.9669 9.24282 43.7914 9.27246 43.616C9.28728 43.5233 9.30401 43.42 9.32122 43.3182C9.33604 43.234 9.3504 43.1451 9.36761 43.0586C9.38673 42.9462 9.40968 42.8177 9.4331 42.6929C9.45414 42.5834 9.47707 42.4625 9.50049 42.3425C9.52822 42.2053 9.55547 42.0676 9.58702 41.9285C9.7878 40.9714 10.035 40.0101 10.318 39.074L10.3266 39.0487C10.3624 38.9263 10.4007 38.8015 10.4408 38.6792C10.4724 38.5754 10.5063 38.4679 10.5422 38.3598C10.7406 37.7474 10.9624 37.1284 11.1971 36.5284C11.2287 36.4462 11.2626 36.3573 11.2985 36.2707C11.3343 36.1775 11.3725 36.0829 11.4127 35.9854C11.4591 35.8692 11.5117 35.7425 11.5666 35.6139C11.6068 35.5164 11.6532 35.4088 11.7 35.3008L11.721 35.2525C11.7865 35.1067 11.8496 34.9609 11.9151 34.8151C11.9639 34.7075 12.0127 34.6014 12.0633 34.4938C12.9482 32.584 14.0214 30.7378 15.251 29.0053L15.4498 28.7309C15.5894 28.5388 15.7285 28.3504 15.8681 28.1649C15.9355 28.0779 16.0053 27.9828 16.0771 27.892C16.2315 27.6936 16.3859 27.4971 16.5417 27.3025C16.6325 27.1906 16.7258 27.0745 16.8209 26.9626C16.9055 26.857 17.0025 26.7451 17.0977 26.6309C17.1904 26.519 17.2875 26.4071 17.385 26.2972C17.4926 26.1724 17.6025 26.0457 17.7144 25.921L13.5926 21.7973C6.7541 29.3285 2.99805 39.0511 2.99805 49.2718C2.99805 60.2044 7.2551 70.4801 14.9847 78.2101C22.7148 85.9402 32.9905 90.1968 43.9235 90.1968C54.89 90.1968 65.1906 85.9144 72.9249 78.1427C75.1326 75.9265 77.0787 73.4674 78.7198 70.8223L74.4714 66.5739Z" fill="#1F2732"/>
<path d="M22.0985 71.0967C27.9269 76.9255 35.6785 80.1366 43.924 80.1366C44.1816 80.1366 44.4393 80.1323 44.6989 80.1261C44.8279 80.1242 44.9527 80.1199 45.0794 80.1156H45.0985C45.2888 80.107 45.4767 80.0988 45.6669 80.0878C45.8189 80.0797 45.9691 80.0711 46.1187 80.0606C46.1971 80.0544 46.2626 80.0501 46.3257 80.0458L46.4294 80.0372C46.5666 80.0266 46.7081 80.0142 46.8477 79.9994C46.9725 79.9889 47.0882 79.9779 47.2067 79.9655C47.2933 79.9569 47.3674 79.9487 47.4391 79.9401L47.5954 79.9234C47.6967 79.9105 47.7986 79.8981 47.9018 79.8832C48.2819 79.8364 48.6581 79.7819 49.0238 79.7207C49.127 79.7035 49.2284 79.6848 49.3298 79.6676L49.3637 79.6614C49.4459 79.6466 49.5243 79.6337 49.6046 79.6189L49.6448 79.6107C49.7504 79.5916 49.8561 79.5706 49.9593 79.5491C50.2385 79.4946 50.5086 79.4396 50.7792 79.3779C50.9608 79.3378 51.1425 79.2938 51.3223 79.2493L51.3452 79.2431C51.3916 79.2326 51.436 79.2216 51.4829 79.2092C51.6177 79.1757 51.7381 79.1437 51.8586 79.1121C51.9643 79.0844 52.0637 79.0591 52.1608 79.0318C52.2473 79.0084 52.3214 78.9874 52.3955 78.9663C52.4672 78.9453 52.5241 78.9305 52.5791 78.9133L52.6216 78.9008C52.6976 78.8798 52.7736 78.8564 52.8496 78.833C52.9763 78.7952 53.0882 78.7612 53.1981 78.7254C53.2871 78.6981 53.3674 78.6728 53.4496 78.6475C53.7092 78.5629 53.9649 78.4763 54.2207 78.385C54.2924 78.3602 54.3598 78.3367 54.4253 78.3114L54.4759 78.2947C54.5672 78.2626 54.6471 78.233 54.7255 78.2014C54.8522 78.1551 54.9664 78.113 55.0807 78.0662C55.1777 78.0303 55.26 77.9988 55.3422 77.9648C55.5009 77.9017 55.6424 77.8443 55.7863 77.7851L56.2151 77.6015C56.3499 77.5446 56.4809 77.4872 56.6076 77.4284C56.6841 77.3945 56.7472 77.3649 56.8126 77.3352L56.8739 77.308C56.9776 77.2592 57.0851 77.2085 57.1908 77.1579C57.8395 76.8495 58.4796 76.5158 59.0987 76.165C59.1661 76.1267 59.2297 76.0889 59.2928 76.0526C59.4367 75.9709 59.5782 75.8862 59.7197 75.8035L60.4253 75.3685C60.7379 75.1701 61.0592 74.9564 61.4077 74.7179C61.5028 74.65 61.5999 74.5826 61.695 74.5152L61.7352 74.4875C61.8069 74.4368 61.8786 74.3861 61.9484 74.3335L61.9694 74.3182C62.0224 74.2805 62.0751 74.2422 62.1257 74.2045L62.1448 74.1896C62.2337 74.1265 62.3222 74.0606 62.4092 73.9956C62.5082 73.9215 62.6033 73.8498 62.6965 73.778C62.7615 73.7269 62.817 73.6824 62.8739 73.6385L62.9394 73.5878C63.0364 73.5118 63.1335 73.4334 63.231 73.3554C63.3323 73.2747 63.4294 73.1943 63.5269 73.1145L63.5518 73.0935C63.7377 72.941 63.9218 72.7847 64.1054 72.6245C64.1603 72.5757 64.2172 72.527 64.2741 72.4782L60.1466 68.3503C55.6276 72.2019 49.8982 74.312 43.924 74.312C30.1159 74.312 18.8832 63.0797 18.8832 49.2717C18.8832 42.5432 21.5153 36.2262 26.2939 31.4897C28.5379 29.2672 31.2226 27.4631 34.1234 26.2249L29.7459 21.8479C26.9555 23.2949 24.4075 25.1541 22.1659 27.3828C16.2931 33.2198 13.0586 40.9924 13.0586 49.2717C13.0586 57.5172 16.2701 65.2683 22.0985 71.0967Z" fill="#F25221"/>
<path d="M78.9405 41.5905C78.9405 30.6593 74.684 20.3841 66.9539 12.654C59.2238 4.92397 48.9481 0.666924 38.0156 0.666924C27.0486 0.666924 16.7476 4.94691 9.01369 12.7214C6.80605 14.9353 4.86038 17.3968 3.21875 20.0414L7.46719 24.2903C8.66088 22.1859 10.074 20.2068 11.6774 18.3873L11.6334 18.3433L13.1225 16.8475C19.7603 10.1672 28.6013 6.48958 38.0156 6.48958C47.3911 6.48958 56.2068 10.1419 62.8364 16.7715C69.4656 23.4006 73.1183 32.2144 73.1183 41.5905C73.1183 42.2851 73.0969 42.9888 73.0553 43.6838C73.051 43.7766 73.0443 43.876 73.038 43.9754C73.0337 44.0448 73.0276 44.1169 73.0233 44.191L73.0213 44.2245C73.0103 44.3703 72.9979 44.5161 72.9855 44.6595C72.975 44.78 72.964 44.9091 72.9515 45.0358C72.9324 45.2174 72.9133 45.4096 72.8923 45.5999C72.8793 45.7098 72.8669 45.8303 72.8502 45.9527C72.833 46.1071 72.81 46.2801 72.7866 46.4532C72.7718 46.5507 72.7589 46.6434 72.7445 46.7367C72.7235 46.8973 72.6958 47.0723 72.6661 47.2477C72.6513 47.3404 72.6346 47.4423 72.6178 47.5455C72.603 47.6321 72.5882 47.7186 72.571 47.8056C72.5543 47.9175 72.5289 48.046 72.5055 48.1708C72.4845 48.2808 72.4611 48.4012 72.4362 48.5217C72.4104 48.657 72.3831 48.7961 72.3516 48.9357C72.1489 49.8928 71.9036 50.856 71.6206 51.7901C71.5805 51.9207 71.5422 52.0516 71.4978 52.185C71.4662 52.2883 71.4328 52.3939 71.3964 52.5039C71.1956 53.1206 70.9762 53.7377 70.7415 54.3358C70.7099 54.418 70.6765 54.5045 70.6425 54.591C70.6043 54.6862 70.5665 54.7813 70.5264 54.8783C70.4795 54.9945 70.425 55.1236 70.372 55.2503C70.3318 55.3473 70.2855 55.4554 70.2386 55.5629L70.218 55.6117C70.152 55.757 70.089 55.9033 70.0235 56.0467C69.9747 56.1543 69.9264 56.2623 69.8753 56.368C68.9904 58.2778 67.9172 60.1264 66.6876 61.8565L66.4911 62.1309C66.3496 62.3254 66.2101 62.5133 66.0705 62.6973C66.0031 62.7858 65.9333 62.8809 65.8615 62.9717C65.7071 63.1701 65.5532 63.3666 65.3969 63.5612C65.3061 63.673 65.2128 63.7892 65.1182 63.9011C65.0379 64.0005 64.949 64.1062 64.8605 64.2118L64.8433 64.2309C64.7463 64.3428 64.6512 64.4571 64.5536 64.567C64.4461 64.6913 64.3361 64.818 64.2242 64.9428L68.346 69.0669C75.1845 61.5352 78.9405 51.8131 78.9405 41.5905Z" fill="#F25221"/>
<path d="M47.8171 64.6386L52.1947 69.0161C54.9855 67.5686 57.5331 65.7094 59.7747 63.4808C65.6475 57.6438 68.882 49.8692 68.882 41.5903C68.882 33.3464 65.6709 25.5957 59.8425 19.7669C54.0137 13.9385 46.2625 10.7274 38.0171 10.7274C37.7594 10.7274 37.5013 10.7312 37.2417 10.7374C37.1126 10.7398 36.9859 10.7417 36.8612 10.748H36.8425C36.6523 10.7566 36.4644 10.7652 36.2741 10.7757C36.1216 10.7843 35.972 10.7929 35.8219 10.8029C35.7435 10.8072 35.6785 10.8139 35.6149 10.8177L35.5093 10.8264C35.374 10.8369 35.2325 10.8498 35.0933 10.8622C34.9686 10.8751 34.8524 10.8856 34.7339 10.8981C34.6473 10.9067 34.5732 10.9153 34.4996 10.9234L34.3791 10.9363C34.3643 10.9382 34.3514 10.9406 34.339 10.9425C34.2372 10.953 34.1401 10.9659 34.0388 10.9784C33.6587 11.0271 33.2825 11.0821 32.9173 11.1433C32.8135 11.16 32.7122 11.1768 32.6108 11.1959L32.5769 11.2026C32.4966 11.2155 32.4206 11.2298 32.3446 11.2446L32.2939 11.2533C32.1925 11.2724 32.0912 11.291 31.9894 11.3125C31.7025 11.367 31.432 11.4244 31.1614 11.4856C30.9797 11.5257 30.7981 11.5702 30.6188 11.6142L30.5954 11.6209C30.549 11.629 30.5045 11.6419 30.4582 11.6524C30.3229 11.6864 30.2024 11.7179 30.0819 11.7495C29.9782 11.7772 29.8793 11.8025 29.7798 11.8322C29.6933 11.8551 29.6192 11.8761 29.5432 11.8977C29.4715 11.9187 29.4165 11.9335 29.3615 11.9502L29.3195 11.9632C29.2434 11.9842 29.1674 12.0052 29.0909 12.0306C28.9643 12.0664 28.8524 12.1023 28.7424 12.1381C28.654 12.1658 28.5737 12.1912 28.491 12.2165C28.2314 12.3011 27.9756 12.3877 27.7204 12.4785C27.6506 12.5014 27.587 12.5249 27.5215 12.5483L27.4622 12.5693C27.3757 12.6009 27.2997 12.6286 27.2218 12.6582C27.0884 12.7065 26.9746 12.751 26.8604 12.7954C26.7652 12.8313 26.683 12.8652 26.5984 12.8987C26.4397 12.9599 26.2982 13.0192 26.1548 13.0785L25.726 13.2625C25.5907 13.3194 25.4616 13.3763 25.333 13.4356C25.2589 13.469 25.1934 13.4987 25.1279 13.5283L25.0667 13.556C24.963 13.6048 24.8554 13.6555 24.7498 13.7057C24.101 14.0145 23.459 14.3482 22.8423 14.699C22.7725 14.7368 22.7114 14.7727 22.6478 14.8109C22.5125 14.8888 22.3772 14.9672 22.2443 15.0475L21.7983 15.3181C21.7079 15.375 21.6104 15.4362 21.5153 15.4955C21.2007 15.6939 20.8795 15.9071 20.5353 16.1456C20.4464 16.2073 20.3574 16.2685 20.2709 16.3297L20.214 16.3698C20.1337 16.4267 20.062 16.4774 19.9903 16.5305L19.9607 16.5515C19.9119 16.5873 19.8636 16.6237 19.8148 16.6595L19.7957 16.6739C19.7068 16.7375 19.6184 16.8029 19.5318 16.8684C19.4324 16.9421 19.3392 17.0142 19.2465 17.0859C19.1786 17.1366 19.1241 17.1811 19.0691 17.2232L19.0012 17.2762C18.9042 17.3522 18.8071 17.4282 18.7101 17.5085C18.6001 17.5951 18.4945 17.684 18.3888 17.7705C18.2009 17.9225 18.0193 18.0789 17.8352 18.2395C17.7784 18.2882 17.7234 18.3365 17.666 18.3853L21.7945 22.5133C26.313 18.6621 32.0424 16.5496 38.0171 16.5496C51.8251 16.5496 63.0574 27.7842 63.0574 41.5903C63.0574 48.3208 60.4252 54.6354 55.6467 59.3738C53.4032 61.5963 50.7179 63.4005 47.8171 64.6386Z" fill="#1F2732"/>
<path d="M6.50014 112.504L6.05078 113.861H6.95861L6.50922 112.504H6.50014Z" fill="#F25221"/>
<path d="M7.14858 104.826C6.99609 105.512 6.70399 106.032 6.28522 106.387C5.85354 106.73 5.33296 106.908 4.71102 106.908C4.20285 106.908 3.73339 106.781 3.28928 106.527C2.85712 106.273 2.54018 105.88 2.33701 105.36C2.12093 104.839 2.01958 104.216 2.01958 103.518C2.01958 102.972 2.10802 102.439 2.28633 101.931C2.46369 101.424 2.76869 101.017 3.18746 100.712C3.61914 100.421 4.16508 100.268 4.79993 100.268C5.35829 100.268 5.8153 100.395 6.1834 100.675C6.5515 100.941 6.83117 101.372 7.02144 101.97L7.04677 102.033L8.31647 101.741L8.29112 101.665C8.04971 100.878 7.63093 100.255 7.03432 99.8112C6.43772 99.3796 5.70104 99.1639 4.82525 99.1639C4.06324 99.1639 3.3524 99.3288 2.70512 99.6717C2.07027 100.027 1.56256 100.535 1.2198 101.195C0.877037 101.855 0.699219 102.642 0.699219 103.518C0.699219 104.331 0.851696 105.105 1.15621 105.804C1.46073 106.515 1.91777 107.073 2.51485 107.441C3.09855 107.822 3.87298 108.013 4.81235 108.013C5.71395 108.013 6.48841 107.759 7.12326 107.276C7.75811 106.794 8.18979 106.07 8.43073 105.143L8.45606 105.067L7.17393 104.75L7.14858 104.826Z" fill="#F25221"/>
<path d="M18.64 106.045C18.1065 106.616 17.4081 106.908 16.583 106.908C15.7708 106.908 15.0852 106.616 14.5388 106.057C14.0058 105.486 13.7266 104.699 13.7266 103.709C13.7266 102.477 14.0187 101.576 14.5771 101.056C15.1359 100.535 15.8215 100.268 16.5959 100.268C17.1543 100.268 17.6495 100.408 18.0936 100.675C18.5253 100.941 18.8685 101.335 19.097 101.83C19.3256 102.325 19.4393 102.921 19.4393 103.595C19.4393 104.648 19.1731 105.473 18.64 106.045ZM18.7796 99.7223C18.1319 99.3413 17.3957 99.151 16.5959 99.151C15.3644 99.151 14.3486 99.5574 13.5741 100.357C12.7997 101.157 12.4062 102.287 12.4062 103.696C12.4062 104.445 12.5712 105.156 12.9139 105.829C13.2438 106.502 13.7395 107.035 14.3868 107.428C15.0341 107.822 15.7708 108.013 16.583 108.013C17.345 108.013 18.0558 107.835 18.7031 107.48C19.3633 107.136 19.8715 106.603 20.2391 105.918C20.5948 105.245 20.7726 104.458 20.7726 103.595C20.7726 102.744 20.5948 101.982 20.2644 101.309C19.9222 100.636 19.4269 100.103 18.7796 99.7223Z" fill="#F25221"/>
<path d="M31.8672 99.5191L29.8235 105.347C29.6581 105.816 29.5314 106.185 29.4425 106.477L29.0998 105.461L27.0556 99.4431H26.916V102.553L28.8077 108.013H29.9373L31.8672 102.566V99.5191Z" fill="#F25221"/>
<path d="M26.4592 99.4431H25.2148V108.013H26.4592V99.4431Z" fill="#F25221"/>
<path d="M32.3242 108.013H33.5557V99.4431H32.3242V108.013Z" fill="#F25221"/>
<path d="M39.2821 99.4431H38V108.013H39.2821V99.4431Z" fill="#F25221"/>
<path d="M44.4375 100.776C44.2468 100.421 44.0183 100.129 43.7138 99.9384C43.4217 99.7349 43.0536 99.5952 42.6348 99.5321C42.3303 99.4686 41.8857 99.4432 41.3144 99.4432H39.7402V100.586H41.4034C41.9111 100.586 42.2539 100.611 42.4441 100.662C42.7233 100.738 42.9522 100.89 43.1172 101.132C43.295 101.373 43.371 101.652 43.371 101.995C43.371 102.452 43.2314 102.807 42.9393 103.061C42.6473 103.315 42.1396 103.442 41.4287 103.442H39.7402V104.598H41.4158C42.6348 104.598 43.5106 104.331 43.9806 103.823C44.4629 103.315 44.7043 102.693 44.7043 101.957C44.7043 101.525 44.6149 101.132 44.4375 100.776Z" fill="#F25221"/>
<path d="M52.4981 99.4431L49.1465 108.013H50.5051L50.8856 107.01H50.8732L51.8379 104.407L52.0411 103.874L52.7519 101.982H52.7649C52.9169 101.563 53.0441 101.132 53.1454 100.712C53.2726 101.119 53.4504 101.614 53.666 102.173L54.5293 104.407H52.3327L51.9397 105.461H54.9357L55.9386 108.013H57.3986L53.8185 99.4431H52.4981Z" fill="#F25221"/>
<path d="M61.7148 108.013H62.9081V99.4431H61.7148V108.013Z" fill="#F25221"/>
<path d="M67.3769 105.88L67.3516 105.841V108.013H68.6212V99.4431H67.3769V105.88Z" fill="#F25221"/>
<path d="M63.3652 102.185L66.8947 107.365V105.169L63.3652 100.001V102.185Z" fill="#F25221"/>
<path d="M79.717 99.4431L78.0285 101.957C77.6982 102.452 77.4061 102.921 77.1522 103.328V103.315L76.4414 104.394V108.013H77.7364V104.394L81.2276 99.4431H79.717Z" fill="#F25221"/>
<path d="M76.8855 102.871L76.3525 102.02L74.6387 99.4431H73.0645L76.1622 103.988L76.8855 102.871Z" fill="#F25221"/>
<path d="M0.699219 112.287H1.54918V114.974H2.02245V112.287H2.8729V111.867H0.699219V112.287Z" fill="#F25221"/>
<path d="M6.0516 113.862L6.50096 112.504H6.51004L6.95943 113.862H6.0516ZM6.30736 111.867L5.17773 114.974H5.67633L5.91488 114.279H7.09377L7.33468 114.974H7.83092L6.70126 111.867H6.30736Z" fill="#F25221"/>
<path d="M11.7105 113.708H12.3434V113.87C12.3406 114.065 12.2794 114.222 12.1604 114.341C12.0408 114.466 11.8898 114.528 11.7062 114.528C11.5953 114.528 11.5002 114.505 11.4208 114.458C11.3395 114.419 11.2745 114.367 11.2248 114.303C11.1636 114.236 11.123 114.148 11.1029 114.041C11.0804 113.933 11.069 113.726 11.069 113.42C11.069 113.115 11.0804 112.907 11.1029 112.796C11.123 112.691 11.1636 112.605 11.2248 112.538C11.2745 112.474 11.3395 112.421 11.4208 112.378C11.5002 112.337 11.5953 112.315 11.7062 112.312C11.8568 112.315 11.9849 112.359 12.0901 112.442C12.1905 112.531 12.2603 112.637 12.2985 112.762H12.7976C12.7479 112.502 12.6284 112.284 12.4395 112.108C12.2507 111.933 12.0064 111.844 11.7062 111.841C11.4619 111.844 11.2583 111.903 11.0948 112.016C10.9284 112.128 10.8075 112.256 10.7324 112.4C10.6856 112.475 10.6507 112.574 10.6282 112.696C10.6067 112.818 10.5957 113.06 10.5957 113.42C10.5957 113.776 10.6067 114.016 10.6282 114.141C10.6392 114.208 10.6535 114.263 10.6707 114.307C10.6889 114.35 10.7095 114.395 10.7324 114.442C10.8075 114.585 10.9284 114.712 11.0948 114.821C11.2583 114.934 11.4619 114.994 11.7062 115C12.0232 114.994 12.2861 114.887 12.495 114.678C12.7025 114.468 12.8086 114.207 12.8143 113.896V113.263H11.7105V113.708Z" fill="#F25221"/>
<path d="M16.4533 111.867H15.9824V114.974H17.9663V114.528H16.4533V111.867Z" fill="#F25221"/>
<path d="M21.0293 114.974H21.5002V111.867H21.0293V114.974Z" fill="#F25221"/>
<path d="M26.6297 114.075H26.6211L25.2146 111.867H24.7715V114.974H25.2424V112.766H25.251L26.6555 114.974H27.1005V111.867H26.6297V114.075Z" fill="#F25221"/>
<path d="M30.377 114.974H32.3609V114.528H30.8478V113.617H32.1395V113.199H30.8478V112.312H32.3609V111.867H30.377V114.974Z" fill="#F25221"/>
<path d="M40.0948 113.708H40.7277V113.87C40.7249 114.065 40.6637 114.222 40.5446 114.341C40.4251 114.466 40.2741 114.528 40.0905 114.528C39.9796 114.528 39.8845 114.505 39.8051 114.458C39.7238 114.419 39.6588 114.367 39.6091 114.303C39.5479 114.236 39.5073 114.148 39.4872 114.041C39.4647 113.933 39.4533 113.726 39.4533 113.42C39.4533 113.115 39.4647 112.907 39.4872 112.796C39.5073 112.691 39.5479 112.605 39.6091 112.538C39.6588 112.474 39.7238 112.421 39.8051 112.378C39.8845 112.337 39.9796 112.315 40.0905 112.312C40.2411 112.315 40.3692 112.359 40.4744 112.442C40.5752 112.531 40.6446 112.637 40.6828 112.762H41.1819C41.1322 112.502 41.0126 112.284 40.8238 112.108C40.635 111.933 40.3902 111.844 40.0905 111.841C39.8462 111.844 39.6426 111.903 39.4791 112.016C39.3127 112.128 39.1922 112.256 39.1167 112.4C39.0699 112.475 39.035 112.574 39.0125 112.696C38.991 112.818 38.9805 113.06 38.9805 113.42C38.9805 113.776 38.991 114.016 39.0125 114.141C39.0235 114.208 39.0378 114.263 39.055 114.307C39.0737 114.35 39.0938 114.395 39.1167 114.442C39.1922 114.585 39.3127 114.712 39.4791 114.821C39.6426 114.934 39.8462 114.994 40.0905 115C40.4074 114.994 40.6699 114.887 40.8793 114.678C41.0867 114.468 41.1929 114.207 41.1986 113.896V113.263H40.0948V113.708Z" fill="#F25221"/>
<path d="M45.9774 114.041C45.9545 114.148 45.9129 114.236 45.8517 114.303C45.8049 114.367 45.7422 114.419 45.6643 114.458C45.5816 114.505 45.4845 114.528 45.3722 114.528C45.2613 114.528 45.1662 114.505 45.0868 114.458C45.0056 114.419 44.9406 114.367 44.8908 114.303C44.8297 114.236 44.789 114.148 44.7689 114.041C44.7464 113.933 44.735 113.726 44.735 113.42C44.735 113.115 44.7464 112.907 44.7689 112.796C44.789 112.691 44.8297 112.605 44.8908 112.538C44.9406 112.474 45.0056 112.421 45.0868 112.378C45.1662 112.337 45.2613 112.315 45.3722 112.312C45.4845 112.315 45.5816 112.337 45.6643 112.378C45.7422 112.421 45.8049 112.474 45.8517 112.538C45.9129 112.605 45.9545 112.691 45.9774 112.796C45.9985 112.907 46.0095 113.115 46.0095 113.42C46.0095 113.726 45.9985 113.933 45.9774 114.041ZM46.3441 112.4C46.2714 112.256 46.1534 112.128 45.9904 112.016C45.8254 111.903 45.6194 111.844 45.3722 111.841C45.1279 111.844 44.9238 111.903 44.7608 112.016C44.5944 112.128 44.4735 112.256 44.3979 112.4C44.3516 112.475 44.3162 112.574 44.2942 112.696C44.2727 112.818 44.2617 113.06 44.2617 113.42C44.2617 113.776 44.2727 114.016 44.2942 114.141C44.3052 114.208 44.3195 114.263 44.3363 114.307C44.3549 114.35 44.3755 114.395 44.3979 114.442C44.4735 114.585 44.5944 114.712 44.7608 114.821C44.9238 114.934 45.1279 114.994 45.3722 115C45.6194 114.994 45.8254 114.934 45.9904 114.821C46.1534 114.712 46.2714 114.585 46.3441 114.442C46.3967 114.366 46.4326 114.266 46.4526 114.141C46.4713 114.016 46.4804 113.776 46.4804 113.42C46.4804 113.06 46.4713 112.818 46.4526 112.696C46.4326 112.574 46.3967 112.475 46.3441 112.4Z" fill="#F25221"/>
<path d="M49.6484 114.974H51.6323V114.528H50.1193V113.617H51.411V113.199H50.1193V112.312H51.6323V111.867H49.6484V114.974Z" fill="#F25221"/>
<path d="M55.8499 113.203C55.7021 113.185 55.5855 113.168 55.5004 113.154C55.3469 113.126 55.2351 113.075 55.1657 113.001C55.0959 112.929 55.0611 112.847 55.0611 112.758C55.0639 112.609 55.116 112.496 55.2169 112.421C55.3135 112.349 55.4344 112.312 55.5788 112.312C55.8589 112.318 56.1156 112.398 56.3484 112.551L56.6104 112.163C56.325 111.957 55.989 111.85 55.6027 111.841C55.2815 111.844 55.0333 111.928 54.8588 112.093C54.6781 112.259 54.5883 112.478 54.5883 112.749C54.5883 112.975 54.66 113.167 54.8034 113.325C54.9425 113.478 55.1457 113.577 55.4129 113.621C55.562 113.642 55.6993 113.661 55.8245 113.678C56.097 113.725 56.2318 113.865 56.2289 114.096C56.2237 114.379 56.0186 114.523 55.6151 114.528C55.2743 114.526 54.9803 114.423 54.7331 114.22L54.4238 114.573C54.7551 114.857 55.1505 115 55.6113 115C56.3231 114.991 56.6864 114.69 56.7022 114.096C56.7022 113.876 56.6334 113.683 56.4957 113.517C56.3561 113.347 56.141 113.243 55.8499 113.203Z" fill="#F25221"/>
<path d="M65.1833 113.199H63.9538V111.867H63.4824V114.974H63.9538V113.617H65.1833V114.974H65.6542V111.867H65.1833V113.199Z" fill="#F25221"/>
<path d="M68.9297 114.974H70.9136V114.528H69.4005V113.617H70.6923V113.199H69.4005V112.312H70.9136V111.867H68.9297V114.974Z" fill="#F25221"/>
<path d="M74.4479 113.229V112.287H75.1851C75.3357 112.287 75.4509 112.319 75.5302 112.383C75.6311 112.455 75.6832 112.572 75.6861 112.734C75.6861 112.869 75.6426 112.983 75.556 113.075C75.4681 113.175 75.3357 113.226 75.1597 113.229H74.4479ZM76.1312 112.734C76.123 112.447 76.0198 112.226 75.8223 112.072C75.6588 111.935 75.448 111.867 75.1894 111.867H73.9766V114.974H74.4479V113.646H75.0489L75.6899 114.974H76.2507L75.5302 113.595C75.9256 113.443 76.1259 113.156 76.1312 112.734Z" fill="#F25221"/>
<path d="M79.2559 114.974H81.2402V114.528H79.7272V113.617H81.0184V113.199H79.7272V112.312H81.2402V111.867H79.2559V114.974Z" fill="#F25221"/>
</svg>
