<svg width="102" height="115" viewBox="0 0 102 115" fill="none" xmlns="http://www.w3.org/2000/svg">
<path d="M86.4228 9.51476C80.7177 3.8097 73.131 0.66748 65.063 0.66748C56.9939 0.666046 49.4082 3.8097 43.7017 9.51571C39.243 13.975 36.3484 19.5835 35.2976 25.6753C35.191 26.2905 35.1035 26.9096 35.0371 27.5339C34.9692 28.1468 34.9209 28.7659 34.8913 29.3873C34.8664 29.8812 34.8545 30.3779 34.8545 30.876L34.8559 34.9824V36.8311L34.8545 38.6802L34.8535 61.0845L57.2598 61.083H59.1079H60.956C60.9876 60.5797 61.0029 60.0715 61.0043 59.5595V55.5004L59.16 55.4989H40.4381L40.4395 38.6218V34.9356L40.4381 30.876C40.4395 30.3635 40.4553 29.8553 40.4864 29.3524C40.5241 28.7305 40.5853 28.1167 40.6704 27.5081C40.755 26.8838 40.8645 26.2681 40.9974 25.6633C42.0114 20.9607 44.3758 16.7563 47.659 13.473C52.1178 9.01425 58.2737 6.25208 65.063 6.25113C78.6406 6.25256 89.6864 17.2984 89.6878 30.876C89.6864 37.6653 86.9247 43.8211 82.4659 48.2799C79.1827 51.5632 74.9777 53.9271 70.2752 54.9415V55.4521L70.2737 59.5595C70.2737 59.9214 70.2689 60.2837 70.2584 60.6409C76.3502 59.5906 81.9626 56.6969 86.4228 52.2367C92.1293 46.5307 95.2715 38.9436 95.2715 30.876C95.2715 22.8079 92.1293 15.2208 86.4228 9.51476Z" fill="#F25221"/>
<path d="M40.4405 34.9357H44.1267L61.0038 34.9347L61.0053 51.8147V53.6575V55.5004V59.5596C61.0038 60.0716 60.9885 60.5797 60.9569 61.0831C60.9192 61.7046 60.8594 62.3198 60.7734 62.9274C60.6897 63.5503 60.5817 64.1642 60.4488 64.7689C59.432 69.4715 57.0676 73.6788 53.7848 76.9621C49.326 81.4208 43.1697 84.1825 36.3804 84.184C22.8033 84.1825 11.7569 73.1367 11.7555 59.5596C11.7569 52.7698 14.5186 46.6144 18.9779 42.1552C22.2611 38.8719 26.467 36.5089 31.1696 35.4926V30.8761C31.1696 30.5108 31.1749 30.1485 31.1864 29.7928C25.0946 30.8407 19.4822 33.7367 15.0206 38.1983C9.31458 43.9044 6.17092 51.4901 6.17188 59.5596C6.17188 67.6276 9.31457 75.2143 15.0192 80.9193C20.7256 86.6254 28.3123 89.7681 36.3804 89.7681C44.4484 89.7681 52.0356 86.6254 57.7416 80.9193C63.0943 75.5661 66.1916 68.5565 66.5525 61.0477C66.564 60.8063 66.5736 60.5659 66.5798 60.3244C66.5827 60.1939 66.5851 60.0639 66.5865 59.932C66.5875 59.8081 66.5889 59.6843 66.5889 59.5596L66.5874 59.5581V55.4526L66.5889 29.3496L44.1826 29.3511L42.3355 29.352L40.4873 29.3525C40.4562 29.8554 40.4405 30.3636 40.439 30.8761L40.4405 34.9357Z" fill="#1F2732"/>
<path d="M6.72005 104.564C6.23483 105.013 5.56748 105.292 4.85231 105.292C3.32398 105.292 2.08725 104.067 2.08725 102.539C2.08725 101.023 3.32398 99.7861 4.85231 99.7861C5.56748 99.7861 6.23483 100.065 6.72005 100.526L8.01748 99.2157C7.19285 98.4274 6.07708 97.9427 4.85231 97.9427C2.31769 97.9427 0.255859 100.004 0.255859 102.539C0.255859 105.074 2.31769 107.135 4.85231 107.135C6.07708 107.135 7.19285 106.65 8.01748 105.862L6.72005 104.564Z" fill="#F25221"/>
<path d="M20.1321 105.304C18.6038 105.304 17.3666 104.067 17.3666 102.539C17.3666 101.023 18.6038 99.7861 20.1321 99.7861C21.648 99.7861 22.8847 101.023 22.8847 102.539C22.8847 104.067 21.648 105.304 20.1321 105.304ZM24.7281 102.539C24.7281 100.004 22.6662 97.9427 20.1321 97.9427C17.597 97.9427 15.5352 100.004 15.5352 102.539C15.5352 105.074 17.597 107.135 20.1321 107.135C22.6662 107.135 24.7281 105.074 24.7281 102.539Z" fill="#F25221"/>
<path d="M42.1793 107.135V97.9427H40.2031L37.5226 104.661L34.8303 97.9427H32.8535V107.135H34.6849V102.539L36.5283 107.135H38.505L40.3484 102.539V107.135H42.1793Z" fill="#F25221"/>
<path d="M52.8737 101.617H52.1341V99.7861H52.8737C53.3833 99.7861 53.7954 100.198 53.7954 100.708C53.7954 101.205 53.3833 101.617 52.8737 101.617ZM52.8737 97.9427H50.3027V107.135H52.1341V103.46H52.8861C54.402 103.46 55.6268 102.224 55.6268 100.708C55.6268 99.1794 54.402 97.9427 52.8737 97.9427Z" fill="#F25221"/>
<path d="M66.0924 102.721L66.8324 100.647L67.5839 102.721H66.0924ZM67.8143 97.9427H65.862L62.5391 107.135H64.4914L65.4255 104.564H68.2508L69.1849 107.135H71.1373L67.8143 97.9427Z" fill="#F25221"/>
<path d="M84.8407 104.079L81.166 97.9427H79.0195V107.135H80.8505V101.011L84.5372 107.135H86.6717V97.9427H84.8407V104.079Z" fill="#F25221"/>
<path d="M98.7874 107.135V102.757L101.189 97.9427H99.1392L97.8781 100.489L96.6046 97.9427H94.5547L96.9564 102.757V107.135H98.7874Z" fill="#F25221"/>
<path d="M0.240234 111.599H1.30581V114.968H1.89908V111.599H2.96512V111.073H0.240234V111.599Z" fill="#F25221"/>
<path d="M6.94678 113.574L7.51041 111.872H7.5214L8.08503 113.574H6.94678ZM7.26755 111.073L5.85156 114.968H6.47686L6.77613 114.097H8.2533L8.55495 114.968H9.17784L7.76138 111.073H7.26755Z" fill="#F25221"/>
<path d="M13.4343 111.915C13.4969 111.834 13.5787 111.767 13.6805 111.714C13.7799 111.662 13.8995 111.635 14.0386 111.631C14.2274 111.635 14.3876 111.689 14.5195 111.794C14.6457 111.905 14.7327 112.038 14.781 112.195H15.4058C15.3441 111.869 15.194 111.596 14.9574 111.375C14.7203 111.156 14.4143 111.045 14.0386 111.041C13.7321 111.045 13.4764 111.117 13.2718 111.26C13.0633 111.401 12.9118 111.561 12.8172 111.741C12.7588 111.835 12.7149 111.959 12.6867 112.112C12.6599 112.266 12.6465 112.568 12.6465 113.02C12.6465 113.465 12.6599 113.767 12.6867 113.923C12.7005 114.007 12.7187 114.077 12.7402 114.132C12.7631 114.185 12.789 114.241 12.8172 114.3C12.9118 114.48 13.0633 114.639 13.2718 114.776C13.4764 114.918 13.7321 114.993 14.0386 115C14.4354 114.993 14.7647 114.858 15.0272 114.597C15.2868 114.333 15.4206 114.006 15.4273 113.616V112.823H14.0438V113.381H14.8369V113.584C14.8336 113.828 14.7571 114.025 14.6074 114.174C14.4578 114.331 14.268 114.41 14.0386 114.41C13.8995 114.41 13.7799 114.38 13.6805 114.322C13.5787 114.271 13.4969 114.206 13.4343 114.127C13.3578 114.042 13.3072 113.933 13.2823 113.798C13.2536 113.662 13.2393 113.403 13.2393 113.02C13.2393 112.637 13.2536 112.376 13.2823 112.238C13.3072 112.106 13.3578 111.998 13.4343 111.915Z" fill="#F25221"/>
<path d="M19.3984 111.073V114.968H21.8857V114.41H19.9888V111.073H19.3984Z" fill="#F25221"/>
<path d="M25.7246 111.073V114.968H26.315V111.073H25.7246Z" fill="#F25221"/>
<path d="M32.7475 113.84H32.737L30.9734 111.073H30.418V114.968H31.0084V112.2H31.0189L32.7795 114.968H33.3379V111.073H32.7475V113.84Z" fill="#F25221"/>
<path d="M39.9306 111.631V111.073H37.4434V114.968H39.9306V114.41H38.0338V113.266H39.6524V112.743H38.0338V111.631H39.9306Z" fill="#F25221"/>
<path d="M48.8557 111.26C48.6473 111.401 48.4958 111.561 48.4011 111.741C48.3428 111.835 48.2988 111.959 48.2706 112.112C48.2438 112.266 48.2305 112.568 48.2305 113.02C48.2305 113.465 48.2438 113.767 48.2706 113.923C48.2845 114.007 48.3027 114.077 48.3242 114.132C48.3471 114.185 48.3729 114.241 48.4011 114.3C48.4958 114.48 48.6473 114.639 48.8557 114.776C49.0603 114.918 49.3161 114.993 49.6226 115C50.0193 114.993 50.3487 114.858 50.6112 114.597C50.8707 114.333 51.0041 114.006 51.0113 113.616V112.823H49.6278V113.381H50.4209V113.584C50.4175 113.828 50.341 114.025 50.1914 114.174C50.0418 114.331 49.852 114.41 49.6226 114.41C49.4834 114.41 49.3639 114.38 49.2645 114.322C49.1627 114.271 49.0809 114.206 49.0188 114.127C48.9418 114.042 48.8911 113.933 48.8663 113.798C48.8376 113.662 48.8232 113.403 48.8232 113.02C48.8232 112.637 48.8376 112.376 48.8663 112.238C48.8911 112.106 48.9418 111.998 49.0188 111.915C49.0809 111.834 49.1627 111.767 49.2645 111.714C49.3639 111.662 49.4834 111.635 49.6226 111.631C49.8114 111.635 49.9715 111.689 50.1035 111.794C50.2297 111.905 50.3171 112.038 50.3649 112.195H50.9902C50.9281 111.869 50.7785 111.596 50.5414 111.375C50.3042 111.156 49.9983 111.045 49.6226 111.041C49.3161 111.045 49.0603 111.117 48.8557 111.26Z" fill="#F25221"/>
<path d="M55.4849 112.238C55.5103 112.106 55.561 111.998 55.6375 111.915C55.7001 111.834 55.7818 111.767 55.8832 111.714C55.9831 111.662 56.1021 111.635 56.2412 111.631C56.3818 111.635 56.5042 111.662 56.6074 111.714C56.7054 111.767 56.7838 111.834 56.8426 111.915C56.9186 111.998 56.9717 112.106 56.9999 112.238C57.0267 112.376 57.0401 112.637 57.0401 113.02C57.0401 113.403 57.0267 113.662 56.9999 113.798C56.9717 113.933 56.9186 114.042 56.8426 114.127C56.7838 114.206 56.7054 114.271 56.6074 114.322C56.5042 114.38 56.3818 114.41 56.2412 114.41C56.1021 114.41 55.9831 114.38 55.8832 114.322C55.7818 114.271 55.7001 114.206 55.6375 114.127C55.561 114.042 55.5103 113.933 55.4849 113.798C55.4567 113.662 55.4424 113.403 55.4424 113.02C55.4424 112.637 55.4567 112.376 55.4849 112.238ZM55.0203 111.741C54.962 111.835 54.918 111.959 54.8898 112.112C54.863 112.266 54.8496 112.568 54.8496 113.02C54.8496 113.465 54.863 113.767 54.8898 113.923C54.9036 114.007 54.9218 114.077 54.9433 114.132C54.9663 114.185 54.9921 114.241 55.0203 114.3C55.1149 114.48 55.266 114.639 55.4744 114.776C55.6795 114.918 55.9348 114.993 56.2412 115C56.5515 114.993 56.8096 114.918 57.0161 114.776C57.2208 114.639 57.3685 114.48 57.4593 114.3C57.5253 114.206 57.5707 114.08 57.596 113.923C57.619 113.767 57.6304 113.465 57.6304 113.02C57.6304 112.568 57.619 112.266 57.596 112.112C57.5707 111.959 57.5253 111.835 57.4593 111.741C57.3685 111.561 57.2208 111.401 57.0161 111.26C56.8096 111.117 56.5515 111.045 56.2412 111.041C55.9348 111.045 55.6795 111.117 55.4744 111.26C55.266 111.401 55.1149 111.561 55.0203 111.741Z" fill="#F25221"/>
<path d="M61.6016 114.968H64.0884V114.41H62.192V113.266H63.8106V112.743H62.192V111.631H64.0884V111.073H61.6016V114.968Z" fill="#F25221"/>
<path d="M69.0832 114.41C68.6559 114.406 68.2873 114.277 67.977 114.022L67.5898 114.466C68.0048 114.822 68.501 115 69.078 115C69.9705 114.989 70.4261 114.612 70.4457 113.867C70.4457 113.591 70.3596 113.349 70.1866 113.141C70.0121 112.929 69.7425 112.798 69.3773 112.748C69.1918 112.724 69.046 112.704 68.9389 112.686C68.7472 112.651 68.6071 112.587 68.5196 112.494C68.4326 112.403 68.3887 112.302 68.3887 112.19C68.392 112.003 68.4575 111.862 68.5837 111.767C68.7051 111.677 68.8562 111.631 69.0379 111.631C69.3888 111.638 69.7105 111.738 70.0026 111.93L70.331 111.444C69.9729 111.186 69.5517 111.051 69.0675 111.041C68.6649 111.045 68.3542 111.15 68.1348 111.356C67.9087 111.564 67.7959 111.839 67.7959 112.179C67.7959 112.462 67.8857 112.702 68.0655 112.9C68.24 113.093 68.4948 113.216 68.8294 113.272C69.0168 113.298 69.1884 113.322 69.3452 113.344C69.687 113.402 69.8563 113.577 69.8529 113.867C69.8458 114.222 69.589 114.402 69.0832 114.41Z" fill="#F25221"/>
<path d="M78.9434 114.968H79.5337V113.266H81.0754V114.968H81.6658V111.073H81.0754V112.743H79.5337V111.073H78.9434V114.968Z" fill="#F25221"/>
<path d="M88.2588 111.631V111.073H85.7715V114.968H88.2588V114.41H86.3619V113.266H87.9806V112.743H86.3619V111.631H88.2588Z" fill="#F25221"/>
<path d="M92.6881 112.78V111.599H93.6126C93.8014 111.599 93.9453 111.639 94.0452 111.719C94.1715 111.81 94.2365 111.957 94.2403 112.16C94.2403 112.33 94.1858 112.472 94.0773 112.588C93.9668 112.713 93.8015 112.777 93.5806 112.78H92.6881ZM94.7986 112.16C94.7881 111.8 94.6586 111.524 94.4114 111.33C94.2064 111.158 93.942 111.073 93.6178 111.073H92.0977V114.968H92.6881V113.303H93.4415L94.2455 114.968H94.9483L94.0452 113.239C94.5405 113.049 94.7915 112.689 94.7986 112.16Z" fill="#F25221"/>
<path d="M98.7168 114.968H101.204V114.41H99.3072V113.266H100.926V112.743H99.3072V111.631H101.204V111.073H98.7168V114.968Z" fill="#F25221"/>
</svg>
