<svg width="927" height="810" viewBox="0 0 927 810" fill="none" xmlns="http://www.w3.org/2000/svg">
<path d="M914.895 754.606H987.602V755.155H914.895V754.606Z" fill="#EEEEEE"/>
<path d="M707.996 760.565H727.079V761.114H707.996V760.565Z" fill="#EEEEEE"/>
<path d="M870.568 734.206H912.698V734.755H870.568V734.206Z" fill="#EEEEEE"/>
<path d="M115.156 737.898H209.971V738.447H115.156V737.898Z" fill="#EEEEEE"/>
<path d="M229.518 737.898H243.42V738.447H229.518V737.898Z" fill="#EEEEEE"/>
<path d="M288.598 747.722H494.231V747.173H288.598V747.722Z" fill="#EEEEEE"/>
<path d="M99.4454 0.548828C92.8386 0.548828 87.4647 5.92596 87.4647 12.5376V608.748C87.4647 615.36 92.8386 620.737 99.4454 620.737H523.327C529.933 620.737 535.306 615.36 535.306 608.748V12.5376C535.306 5.92596 529.933 0.548828 523.327 0.548828H99.4454ZM523.327 621.287H99.4454C92.5368 621.287 86.9159 615.663 86.9159 608.748V12.5376C86.9159 5.62286 92.5368 -0.000305176 99.4454 -0.000305176H523.327C530.236 -0.000305176 535.855 5.62286 535.855 12.5376V608.748C535.855 615.663 530.236 621.287 523.327 621.287Z" fill="#EEEEEE"/>
<path d="M574.251 0.548828C567.648 0.548828 562.272 5.92596 562.272 12.5376V608.748C562.272 615.36 567.648 620.737 574.251 620.737H998.131C1004.74 620.737 1010.11 615.36 1010.11 608.748V12.5376C1010.11 5.92596 1004.74 0.548828 998.131 0.548828H574.251ZM998.131 621.287H574.251C567.345 621.287 561.723 615.663 561.723 608.748V12.5376C561.723 5.62286 567.345 -0.000305176 574.251 -0.000305176H998.131C1005.04 -0.000305176 1010.66 5.62286 1010.66 12.5376V608.748C1010.66 615.663 1005.04 621.287 998.131 621.287Z" fill="#EEEEEE"/>
<path d="M0 719.799H1097.58V719.25H0V719.799Z" fill="#EEEEEE"/>
<path d="M176.809 390.21V369.455L222.142 390.21V369.455L267.472 390.21V369.455L312.804 390.21V369.455L358.137 390.21V369.455L403.467 390.21V369.455L448.799 390.21V369.455L494.131 390.21V369.455L539.463 390.21V369.455L584.796 390.21V369.455L627.693 389.096L629.122 385.971L581.358 364.1V384.855L536.026 364.1V384.855L490.693 364.1V384.855L445.361 364.1V384.855L400.031 364.1V384.855L354.699 364.1V384.855L309.367 364.1V384.855L264.035 364.1V384.855L218.704 364.1V384.855L173.373 364.1V384.855L130.475 365.213L129.045 368.341L176.809 390.21Z" fill="#F4F4F4"/>
<path d="M645.53 369.356H132.339V384.954H627.451L645.53 369.356ZM127.184 364.198H647.736C649.567 364.198 651.163 365.308 651.801 367.025C652.438 368.743 651.955 370.626 650.568 371.823L629.365 390.113H127.184V364.198Z" fill="#F8F8F9"/>
<path d="M182.972 481.81V368.684L232.599 481.81H182.972ZM234.336 356.46V473.437L183.019 356.46H234.336ZM256.491 481.81V366.727L306.978 481.81H256.491ZM307.856 356.46V471.478L257.398 356.46H307.856ZM307.856 348.985H258.513L307.856 281.98V348.985ZM302.225 279.946L251.383 348.985H241.806V279.946H302.225ZM234.336 281.98V348.985H184.992L234.336 281.98ZM171.117 356.46H175.502V682.34H182.972V489.285H234.336V682.34H241.806V356.46H249.021V682.34H256.491V489.285H307.856V682.34H315.326V356.46H319.712V348.985H315.326V272.471H314.858H311.592H307.856H307.731H241.806H241.338H236.436H234.336H234.208L177.862 348.985H171.117V356.46Z" fill="#F4F4F4"/>
<path d="M555.759 412.986L585.966 393.081C588.739 391.255 592.319 391.253 595.089 393.081L625.297 412.986L626.243 411.551L596.035 391.642C592.69 389.437 588.365 389.437 585.022 391.642L554.815 411.551L555.759 412.986Z" fill="#E3E3E2"/>
<path d="M558.868 409.153H606.492V456.807H526.943V409.153H558.868Z" fill="#E9E9E8"/>
<path d="M606.49 456.809H654.116V409.153H606.49V456.809Z" fill="#F8F8F9"/>
<path d="M604.701 389.595V395.271H599.014C599.014 396.521 598.002 397.533 596.753 397.533C595.506 397.533 594.494 396.521 594.494 395.271H586.255C586.255 396.521 585.243 397.533 583.994 397.533C582.745 397.533 581.733 396.521 581.733 395.271H575.754V389.595H604.701Z" fill="#F4F4F4"/>
<path d="M961.171 493.604V480.196L931.883 493.604V480.196L902.595 493.604V480.196L873.31 493.604V480.196L844.022 493.604V480.196L814.736 493.604V480.196L785.447 493.604V480.196L756.161 493.604V480.196L726.873 493.604V480.196L697.585 493.604V480.196L669.871 492.885L668.947 490.864L699.807 476.736V490.144L729.092 476.736V490.144L758.38 476.736V490.144L787.668 476.736V490.144L816.956 476.736V490.144L846.244 476.736V490.144L875.529 476.736V490.144L904.817 476.736V490.144L934.105 476.736V490.144L963.393 476.736V490.144L991.106 477.457L992.031 479.475L961.171 493.604Z" fill="#F8F8F9"/>
<path d="M670.026 490.208H989.903V480.132H658.346L670.026 490.208ZM993.233 493.542H668.79L655.09 481.725C654.195 480.954 653.883 479.737 654.294 478.625C654.706 477.516 655.738 476.8 656.919 476.8H993.233V493.542Z" fill="#F8F8F9"/>
<path d="M925.129 552.785L957.192 479.697V552.785H925.129ZM957.161 471.801L924.005 547.375V471.801H957.161ZM877.075 552.785L909.693 478.432V552.785H877.075ZM909.107 471.801L876.509 546.11V471.801H909.107ZM876.509 423.679L908.387 466.971H876.509V423.679ZM919.18 422.367V466.971H912.992L880.146 422.367H919.18ZM955.886 466.971H924.005V423.679L955.886 466.971ZM964.851 466.971H960.491L924.089 417.537H924.005H922.651H919.483H919.18H876.59H876.509H874.094H871.985H871.682V466.971H868.848V471.801H871.682V682.34H876.509V557.615H909.693V682.34H914.52V471.801H919.18V682.34H924.005V557.615H957.192V682.34H962.019V471.801H964.851V466.971Z" fill="#F8F8F9"/>
<path d="M123.986 719.876H967.081V688.815H123.986V719.876Z" fill="#E9E9E8"/>
<path d="M104.344 693.384H981.735V674.656H104.344V693.384Z" fill="#F4F4F4"/>
<path d="M634.489 162.087C629.57 165.562 632.505 173.459 638.53 173.459H877.77C916.356 173.459 865.128 125.421 848.302 141.385C831.478 157.352 823.301 69.4899 782.754 103.17C742.208 136.849 730.92 85.5971 705.101 113.421C679.279 141.242 648.676 126.6 645.684 150.028C643.535 166.869 639.217 158.747 634.489 162.087Z" fill="#F8F8F9"/>
<path d="M148.727 121.01C145.925 122.989 147.597 127.485 151.027 127.485H287.266C309.24 127.485 280.066 100.13 270.484 109.221C260.905 118.313 256.249 68.2775 233.16 87.4577C210.068 106.638 203.64 77.4503 188.937 93.2939C174.234 109.14 156.806 100.8 155.102 114.141C153.878 123.731 151.42 119.106 148.727 121.01Z" fill="#F4F4F4"/>
<path d="M587.654 148.937H393.955C388.805 148.937 386.979 142.22 391.356 139.507C396.991 136.016 405.089 133.176 415.891 134.435C439.797 137.22 416.778 93.2892 456.554 100.613C496.329 107.934 497.907 119.648 520.805 106.469C543.7 93.2893 554.724 115.896 560.921 124.362C566.549 132.056 587.702 124.291 592.571 142.597C593.42 145.793 590.962 148.937 587.654 148.937Z" fill="#F4F4F4"/>
<path d="M337.863 161.286H232.039C229.227 161.286 228.228 157.617 230.621 156.135C233.699 154.228 238.122 152.675 244.025 153.365C257.084 154.887 244.508 130.885 266.237 134.885C287.969 138.885 288.832 145.286 301.34 138.086C313.85 130.885 319.872 143.237 323.257 147.86C326.334 152.065 337.89 147.823 340.548 157.824C341.013 159.57 339.67 161.286 337.863 161.286Z" fill="#F8F8F9"/>
<path d="M955.646 118.688H849.821C847.009 118.688 846.013 115.018 848.403 113.537C851.481 111.628 855.906 110.078 861.807 110.765C874.868 112.287 862.292 88.2856 884.022 92.2877C905.752 96.2854 906.617 102.686 919.125 95.4859C931.633 88.2856 937.656 100.637 941.041 105.261C944.116 109.465 955.672 105.223 958.332 115.224C958.798 116.972 957.452 118.688 955.646 118.688Z" fill="#F8F8F9"/>
<path d="M963.82 785.129C963.82 798.866 773.265 810 538.204 810C303.142 810 112.586 798.866 112.586 785.129C112.586 771.394 303.142 760.258 538.204 760.258C773.265 760.258 963.82 771.394 963.82 785.129Z" fill="#F8F8F9"/>
<path d="M541.112 494.62V464.967H294.156V494.62H322.145L333.423 505.908V658.245H501.842V505.908L513.123 494.62H541.112Z" fill="#D9FF6A"/>
<path d="M347.387 643.399V604.375H333.423V600.891H377.803V540.021H333.423V505.908L322.145 494.62H315.324H307.854H294.156V464.967H541.112V494.62H535.854H535.305H513.123L501.842 505.908V540.021H450.245V553.187H448.366V570.026H450.245V600.891H501.842V604.375H486.465V643.023C484.516 642.512 482.58 642.009 480.661 641.519V604.375H419.829V629.214C419.061 629.154 418.391 629.121 417.827 629.114C417.823 629.114 417.818 629.114 417.816 629.114C417.809 629.114 417.805 629.114 417.801 629.114C417.799 629.114 417.794 629.114 417.79 629.114C417.785 629.114 417.779 629.114 417.772 629.114C417.766 629.114 417.759 629.114 417.752 629.114C417.75 629.114 417.746 629.114 417.744 629.114C417.739 629.114 417.733 629.114 417.726 629.114C417.722 629.114 417.719 629.114 417.717 629.114C417.7 629.114 417.682 629.114 417.667 629.114C417.662 629.114 417.662 629.114 417.658 629.114C417.649 629.114 417.643 629.114 417.634 629.114C417.625 629.114 417.616 629.114 417.608 629.114C417.605 629.114 417.603 629.114 417.601 629.114C417.583 629.114 417.566 629.114 417.55 629.114C417.546 629.114 417.544 629.114 417.539 629.114C417.533 629.114 417.529 629.114 417.522 629.114C417.52 629.114 417.515 629.114 417.513 629.114C417.507 629.114 417.5 629.114 417.493 629.114C417.487 629.114 417.48 629.114 417.476 629.114C417.471 629.114 417.469 629.114 417.465 629.114C417.46 629.114 417.456 629.114 417.452 629.114C417.447 629.114 417.443 629.114 417.439 629.114C416.552 629.126 415.406 629.2 414.025 629.339V604.375H353.191V641.881C351.274 642.375 349.329 642.882 347.387 643.399ZM383.609 600.891H444.441V540.021H386.902V526.461H378.121V543.302H383.609V600.891Z" fill="#B4CAEC"/>
<path d="M386.902 489.852H378.121V473.013H386.902V489.852Z" fill="white"/>
<path d="M457.148 489.852H448.367V473.013H457.148V489.852Z" fill="white"/>
<path d="M351.781 516.577H343V499.736H351.781V516.577Z" fill="white"/>
<path d="M422.025 516.577H413.244V499.736H422.025V516.577Z" fill="white"/>
<path d="M439.587 516.577H430.807V499.736H439.587V516.577Z" fill="white"/>
<path d="M474.708 516.577H465.928V499.736H474.708V516.577Z" fill="white"/>
<path d="M492.271 516.577H483.49V499.736H492.271V516.577Z" fill="white"/>
<path d="M378.121 543.302H386.902V526.461H378.121V543.302Z" fill="white"/>
<path d="M343 570.025H351.781V553.187H343V570.025Z" fill="white"/>
<path d="M395.684 570.025H404.464V553.187H395.684V570.025Z" fill="white"/>
<path d="M448.367 570.025H457.148V553.187H448.367V570.025Z" fill="white"/>
<path d="M483.49 570.025H492.271V553.187H483.49V570.025Z" fill="white"/>
<path d="M360.561 596.75H369.341V579.91H360.561V596.75Z" fill="white"/>
<path d="M430.807 596.75H439.587V579.91H430.807V596.75Z" fill="white"/>
<path d="M378.121 623.476H386.902V606.635H378.121V623.476Z" fill="white"/>
<path d="M465.928 623.476H474.708V606.635H465.928V623.476Z" fill="white"/>
<path d="M413.244 650.2H422.025V633.361H413.244V650.2Z" fill="white"/>
<path d="M286.555 665.248H347.387V604.375H286.555V665.248Z" fill="#C8FF26"/>
<path d="M320.264 651.155V643.66H338.615C339.794 643.66 340.753 642.703 340.753 641.521C340.753 640.339 339.794 639.383 338.615 639.383H320.264V630.242H338.615C339.794 630.242 340.753 629.284 340.753 628.102C340.753 626.92 339.794 625.963 338.615 625.963H320.264V616.823H338.615C339.794 616.823 340.753 615.863 340.753 614.681C340.753 613.499 339.794 612.544 338.615 612.544H320.264V609.418C320.264 608.452 321.045 607.672 322.009 607.672H342.351C343.315 607.672 344.097 608.452 344.097 609.418V644.28C336.216 646.408 328.188 648.71 320.264 651.155Z" fill="#D7EC9B"/>
<path d="M320.264 616.823H295.33C294.149 616.823 293.191 615.863 293.191 614.682C293.191 613.499 294.149 612.544 295.33 612.544H320.264V616.823Z" fill="#98B938"/>
<path d="M338.615 616.823H320.264V612.544H338.615C339.794 612.544 340.753 613.499 340.753 614.682C340.753 615.863 339.794 616.823 338.615 616.823Z" fill="#C5DC82"/>
<path d="M320.264 630.242H295.33C294.149 630.242 293.191 629.284 293.191 628.102C293.191 626.92 294.149 625.963 295.33 625.963H320.264V630.242Z" fill="#98B938"/>
<path d="M338.615 630.242H320.264V625.963H338.615C339.794 625.963 340.753 626.92 340.753 628.102C340.753 629.284 339.794 630.242 338.615 630.242Z" fill="#C5DC82"/>
<path d="M320.264 643.661H295.33C294.149 643.661 293.191 642.703 293.191 641.521C293.191 640.339 294.149 639.383 295.33 639.383H320.264V643.661Z" fill="#98B938"/>
<path d="M338.615 643.661H320.264V639.383H338.615C339.794 639.383 340.753 640.339 340.753 641.521C340.753 642.703 339.794 643.661 338.615 643.661Z" fill="#C5DC82"/>
<path d="M302.143 657.079H295.33C294.149 657.079 293.191 656.123 293.191 654.942C293.191 653.758 294.149 652.8 295.33 652.8H315.016C310.665 654.186 306.354 655.616 302.143 657.079Z" fill="#98B938"/>
<path d="M353.191 665.248H414.026V604.375H353.191V665.248Z" fill="#D9FF6A"/>
<path d="M353.191 641.881V604.375H414.026V629.339C413.045 629.438 411.94 629.569 410.733 629.73V609.418C410.733 608.452 409.952 607.672 408.988 607.672H388.645C387.684 607.672 386.902 608.452 386.902 609.418V612.544H361.965C360.784 612.544 359.827 613.499 359.827 614.681C359.827 615.863 360.784 616.823 361.965 616.823H386.902V625.963H361.965C360.784 625.963 359.827 626.92 359.827 628.102C359.827 629.284 360.784 630.242 361.965 630.242H386.902V634.007C379.702 635.505 371.668 637.314 363.173 639.383H361.965C361.349 639.383 360.791 639.645 360.4 640.062C358.025 640.651 355.626 641.256 353.191 641.881Z" fill="#BEFF00"/>
<path d="M386.902 634.007V630.242H405.249C406.433 630.242 407.39 629.284 407.39 628.102C407.39 626.92 406.433 625.963 405.249 625.963H386.902V616.823H405.249C406.433 616.823 407.39 615.863 407.39 614.681C407.39 613.499 406.433 612.544 405.249 612.544H386.902V609.418C386.902 608.452 387.684 607.672 388.645 607.672H408.988C409.951 607.672 410.733 608.452 410.733 609.418V629.729C404.966 630.501 396.71 631.966 386.902 634.007Z" fill="#D7EC9B"/>
<path d="M386.901 616.823H361.964C360.783 616.823 359.826 615.863 359.826 614.682C359.826 613.499 360.783 612.544 361.964 612.544H386.901V616.823Z" fill="#586A20"/>
<path d="M405.249 616.823H386.902V612.544H405.249C406.433 612.544 407.39 613.499 407.39 614.682C407.39 615.863 406.433 616.823 405.249 616.823Z" fill="#9EAC73"/>
<path d="M386.901 630.242H361.964C360.783 630.242 359.826 629.284 359.826 628.102C359.826 626.92 360.783 625.963 361.964 625.963H386.901V630.242Z" fill="#586A20"/>
<path d="M405.249 630.242H386.902V625.963H405.249C406.433 625.963 407.39 626.92 407.39 628.102C407.39 629.284 406.433 630.242 405.249 630.242Z" fill="#9EAC73"/>
<path d="M360.4 640.062C360.791 639.645 361.349 639.383 361.966 639.383H363.173C362.257 639.606 361.329 639.834 360.4 640.062Z" fill="#556623"/>
<path d="M419.83 665.248H480.662V604.375H419.83V665.248Z" fill="#D1FF49"/>
<path d="M477.37 640.686C475.769 640.284 474.189 639.893 472.617 639.511C472.475 639.458 472.325 639.421 472.169 639.401C465.63 637.806 459.363 636.368 453.539 635.107V630.242H471.888C473.069 630.242 474.026 629.284 474.026 628.102C474.026 626.92 473.069 625.963 471.888 625.963H453.539V616.823H471.888C473.069 616.823 474.026 615.863 474.026 614.681C474.026 613.499 473.069 612.544 471.888 612.544H453.539V609.418C453.539 608.452 454.321 607.672 455.284 607.672H475.625C476.588 607.672 477.37 608.452 477.37 609.418V640.686Z" fill="#D7EC9B"/>
<path d="M453.538 616.823H428.601C427.422 616.823 426.463 615.863 426.463 614.682C426.463 613.499 427.422 612.544 428.601 612.544H453.538V616.823Z" fill="#96B343"/>
<path d="M471.888 616.823H453.539V612.544H471.888C473.069 612.544 474.026 613.499 474.026 614.682C474.026 615.863 473.069 616.823 471.888 616.823Z" fill="#B2CC63"/>
<path d="M453.538 630.242H428.601C427.422 630.242 426.463 629.284 426.463 628.102C426.463 626.92 427.422 625.963 428.601 625.963H453.538V630.242Z" fill="#96B343"/>
<path d="M471.888 630.242H453.539V625.963H471.888C473.069 625.963 474.026 626.92 474.026 628.102C474.026 629.284 473.069 630.242 471.888 630.242Z" fill="#B2CC63"/>
<path d="M472.618 639.511C472.468 639.473 472.319 639.437 472.17 639.401C472.326 639.421 472.475 639.458 472.618 639.511Z" fill="#B1C96B"/>
<path d="M316.971 600.892H377.803V540.021H316.971V600.892Z" fill="#A9C94B"/>
<path d="M372.769 597.597H352.427C351.463 597.597 350.684 596.817 350.684 595.852V592.725H369.031C370.214 592.725 371.171 591.767 371.171 590.585C371.171 589.404 370.214 588.446 369.031 588.446H350.684V579.306H369.031C370.214 579.306 371.171 578.346 371.171 577.164C371.171 575.985 370.214 575.027 369.031 575.027H350.684V565.885H369.031C370.214 565.885 371.171 564.93 371.171 563.748C371.171 562.566 370.214 561.606 369.031 561.606H350.684V552.466H369.031C370.214 552.466 371.171 551.511 371.171 550.329C371.171 549.145 370.214 548.188 369.031 548.188H350.684V545.062C350.684 544.1 351.463 543.316 352.427 543.316H372.769C373.733 543.316 374.514 544.1 374.514 545.062V595.852C374.514 596.817 373.733 597.597 372.769 597.597Z" fill="#D7EC9B"/>
<path d="M350.683 552.466H325.746C324.565 552.466 323.607 551.511 323.607 550.329C323.607 549.145 324.565 548.187 325.746 548.187H350.683V552.466Z" fill="#96B638"/>
<path d="M369.031 552.466H350.684V548.187H369.031C370.214 548.187 371.171 549.145 371.171 550.329C371.171 551.511 370.214 552.466 369.031 552.466Z" fill="#C1D87D"/>
<path d="M350.683 565.885H325.746C324.565 565.885 323.607 564.929 323.607 563.748C323.607 562.566 324.565 561.606 325.746 561.606H350.683V565.885Z" fill="#96B638"/>
<path d="M369.031 565.885H350.684V561.606H369.031C370.214 561.606 371.171 562.566 371.171 563.748C371.171 564.929 370.214 565.885 369.031 565.885Z" fill="#C1D87D"/>
<path d="M350.683 579.306H325.746C324.565 579.306 323.607 578.346 323.607 577.164C323.607 575.984 324.565 575.027 325.746 575.027H350.683V579.306Z" fill="#96B638"/>
<path d="M369.031 579.306H350.684V575.027H369.031C370.214 575.027 371.171 575.984 371.171 577.164C371.171 578.346 370.214 579.306 369.031 579.306Z" fill="#C1D87D"/>
<path d="M350.683 592.725H325.746C324.565 592.725 323.607 591.767 323.607 590.585C323.607 589.403 324.565 588.446 325.746 588.446H350.683V592.725Z" fill="#96B638"/>
<path d="M369.031 592.725H350.684V588.446H369.031C370.214 588.446 371.171 589.403 371.171 590.585C371.171 591.767 370.214 592.725 369.031 592.725Z" fill="#C1D87D"/>
<path d="M383.609 600.892H444.441V540.021H383.609V600.892Z" fill="#D9FF6A"/>
<path d="M444.442 600.892H383.609V540.021H444.442V600.892ZM417.318 592.725V595.853C417.318 596.817 418.1 597.597 419.061 597.597H439.404C440.367 597.597 441.149 596.817 441.149 595.853V545.062C441.149 544.1 440.367 543.316 439.404 543.316H419.061C418.1 543.316 417.318 544.1 417.318 545.062V548.188H392.381C391.2 548.188 390.243 549.145 390.243 550.329C390.243 551.511 391.2 552.467 392.381 552.467H417.318V561.606H392.381C391.2 561.606 390.243 562.566 390.243 563.748C390.243 564.93 391.2 565.885 392.381 565.885H417.318V575.027H392.381C391.2 575.027 390.243 575.985 390.243 577.165C390.243 578.346 391.2 579.306 392.381 579.306H417.318V588.446H392.381C391.2 588.446 390.243 589.404 390.243 590.585C390.243 591.767 391.2 592.725 392.381 592.725H417.318Z" fill="#C4DB7F"/>
<path d="M439.404 597.597H419.061C418.1 597.597 417.318 596.817 417.318 595.852V592.725H435.666C436.849 592.725 437.806 591.767 437.806 590.585C437.806 589.404 436.849 588.446 435.666 588.446H417.318V579.306H435.666C436.849 579.306 437.806 578.346 437.806 577.164C437.806 575.985 436.849 575.027 435.666 575.027H417.318V565.885H435.666C436.849 565.885 437.806 564.93 437.806 563.748C437.806 562.566 436.849 561.606 435.666 561.606H417.318V552.466H435.666C436.849 552.466 437.806 551.511 437.806 550.329C437.806 549.145 436.849 548.188 435.666 548.188H417.318V545.062C417.318 544.1 418.1 543.316 419.061 543.316H439.404C440.368 543.316 441.149 544.1 441.149 545.062V595.852C441.149 596.817 440.368 597.597 439.404 597.597Z" fill="#D7EC9B"/>
<path d="M417.319 552.466H392.382C391.201 552.466 390.244 551.511 390.244 550.329C390.244 549.145 391.201 548.187 392.382 548.187H417.319V552.466Z" fill="#AFCD57"/>
<path d="M435.666 552.466H417.318V548.187H435.666C436.849 548.187 437.806 549.145 437.806 550.329C437.806 551.511 436.849 552.466 435.666 552.466Z" fill="#C1D685"/>
<path d="M417.319 565.885H392.382C391.201 565.885 390.244 564.929 390.244 563.748C390.244 562.566 391.201 561.606 392.382 561.606H417.319V565.885Z" fill="#AFCD57"/>
<path d="M435.666 565.885H417.318V561.606H435.666C436.849 561.606 437.806 562.566 437.806 563.748C437.806 564.929 436.849 565.885 435.666 565.885Z" fill="#C1D685"/>
<path d="M417.319 579.306H392.382C391.201 579.306 390.244 578.346 390.244 577.164C390.244 575.984 391.201 575.027 392.382 575.027H417.319V579.306Z" fill="#AFCD57"/>
<path d="M435.666 579.306H417.318V575.027H435.666C436.849 575.027 437.806 575.984 437.806 577.164C437.806 578.346 436.849 579.306 435.666 579.306Z" fill="#C1D685"/>
<path d="M417.319 592.725H392.382C391.201 592.725 390.244 591.767 390.244 590.585C390.244 589.403 391.201 588.446 392.382 588.446H417.319V592.725Z" fill="#AFCD57"/>
<path d="M435.666 592.725H417.318V588.446H435.666C436.849 588.446 437.806 589.403 437.806 590.585C437.806 591.767 436.849 592.725 435.666 592.725Z" fill="#C1D685"/>
<path d="M450.246 600.892H511.076V540.021H450.246V600.892Z" fill="#A8C84A"/>
<path d="M506.041 597.597H485.698C484.734 597.597 483.955 596.817 483.955 595.852V592.725H502.304C503.485 592.725 504.443 591.767 504.443 590.585C504.443 589.404 503.485 588.446 502.304 588.446H483.955V579.306H502.304C503.485 579.306 504.443 578.346 504.443 577.164C504.443 575.985 503.485 575.027 502.304 575.027H483.955V565.885H502.304C503.485 565.885 504.443 564.93 504.443 563.748C504.443 562.566 503.485 561.606 502.304 561.606H483.955V552.466H502.304C503.485 552.466 504.443 551.511 504.443 550.329C504.443 549.145 503.485 548.188 502.304 548.188H483.955V545.062C483.955 544.1 484.734 543.316 485.698 543.316H506.041C507.004 543.316 507.786 544.1 507.786 545.062V595.852C507.786 596.817 507.004 597.597 506.041 597.597Z" fill="#D7EC9B"/>
<path d="M483.954 552.466H459.017C457.838 552.466 456.879 551.511 456.879 550.329C456.879 549.145 457.838 548.187 459.017 548.187H483.954V552.466Z" fill="#9CBE37"/>
<path d="M502.304 552.466H483.955V548.187H502.304C503.485 548.187 504.443 549.145 504.443 550.329C504.443 551.511 503.485 552.466 502.304 552.466Z" fill="#C5DC80"/>
<path d="M483.954 565.885H459.017C457.838 565.885 456.879 564.929 456.879 563.748C456.879 562.566 457.838 561.606 459.017 561.606H483.954V565.885Z" fill="#9CBE37"/>
<path d="M502.304 565.885H483.955V561.606H502.304C503.485 561.606 504.443 562.566 504.443 563.748C504.443 564.929 503.485 565.885 502.304 565.885Z" fill="#C5DC80"/>
<path d="M483.954 579.306H459.017C457.838 579.306 456.879 578.346 456.879 577.164C456.879 575.984 457.838 575.027 459.017 575.027H483.954V579.306Z" fill="#9CBE37"/>
<path d="M502.304 579.306H483.955V575.027H502.304C503.485 575.027 504.443 575.984 504.443 577.164C504.443 578.346 503.485 579.306 502.304 579.306Z" fill="#C5DC80"/>
<path d="M483.954 592.725H459.017C457.838 592.725 456.879 591.767 456.879 590.585C456.879 589.403 457.838 588.446 459.017 588.446H483.954V592.725Z" fill="#9CBE37"/>
<path d="M502.304 592.725H483.955V588.446H502.304C503.485 588.446 504.443 589.403 504.443 590.585C504.443 591.767 503.485 592.725 502.304 592.725Z" fill="#C5DC80"/>
<path d="M486.467 665.248H547.299V604.375H486.467V665.248Z" fill="#D9FF6A"/>
<path d="M547.299 662.289C546.155 661.843 545.003 661.399 543.837 660.958C543.945 660.732 544.006 660.477 544.006 660.207V609.418C544.006 608.452 543.225 607.672 542.261 607.672H521.919C520.957 607.672 520.176 608.452 520.176 609.418V612.544H495.241C494.06 612.544 493.103 613.499 493.103 614.681C493.103 615.863 494.06 616.823 495.241 616.823H520.176V625.963H495.241C494.06 625.963 493.103 626.92 493.103 628.102C493.103 629.284 494.06 630.242 495.241 630.242H520.176V639.383H495.241C494.06 639.383 493.103 640.339 493.103 641.52C493.103 642.703 494.06 643.66 495.241 643.66H520.176V652.776C509.024 649.224 497.539 645.94 486.467 643.023V604.375H547.299V662.289Z" fill="#8FAF30"/>
<path d="M543.835 660.958C540.354 659.642 536.771 658.347 533.123 657.079H538.523C539.704 657.079 540.661 656.123 540.661 654.942C540.661 653.758 539.704 652.8 538.523 652.8H520.251C520.22 652.789 520.205 652.785 520.174 652.776V643.661H538.523C539.704 643.661 540.661 642.703 540.661 641.521C540.661 640.339 539.704 639.383 538.523 639.383H520.174V630.242H538.523C539.704 630.242 540.661 629.285 540.661 628.102C540.661 626.921 539.704 625.963 538.523 625.963H520.174V616.823H538.523C539.704 616.823 540.661 615.863 540.661 614.682C540.661 613.499 539.704 612.544 538.523 612.544H520.174V609.419C520.174 608.452 520.955 607.672 521.917 607.672H542.259C543.223 607.672 544.004 608.452 544.004 609.419V660.207C544.004 660.477 543.943 660.732 543.835 660.958Z" fill="#D7EC9B"/>
<path d="M520.174 616.823H495.24C494.059 616.823 493.102 615.863 493.102 614.682C493.102 613.499 494.059 612.544 495.24 612.544H520.174V616.823Z" fill="#A6C54D"/>
<path d="M538.523 616.823H520.174V612.544H538.523C539.704 612.544 540.661 613.499 540.661 614.682C540.661 615.863 539.704 616.823 538.523 616.823Z" fill="#9EAF6A"/>
<path d="M520.174 630.242H495.24C494.059 630.242 493.102 629.284 493.102 628.102C493.102 626.92 494.059 625.963 495.24 625.963H520.174V630.242Z" fill="#A6C54D"/>
<path d="M538.523 630.242H520.174V625.963H538.523C539.704 625.963 540.661 626.92 540.661 628.102C540.661 629.284 539.704 630.242 538.523 630.242Z" fill="#9EAF6A"/>
<path d="M520.174 643.661H495.24C494.059 643.661 493.102 642.703 493.102 641.521C493.102 640.339 494.059 639.383 495.24 639.383H520.174V643.661Z" fill="#A6C54D"/>
<path d="M538.523 643.661H520.174V639.383H538.523C539.704 639.383 540.661 640.339 540.661 641.521C540.661 642.703 539.704 643.661 538.523 643.661Z" fill="#9EAF6A"/>
<path d="M538.524 657.079H533.124C528.916 655.616 524.603 654.186 520.252 652.8H538.524C539.705 652.8 540.663 653.758 540.663 654.942C540.663 656.123 539.705 657.079 538.524 657.079Z" fill="#9EAF6A"/>
<path d="M417.634 784.335V629.114C398.08 629.114 240.731 664.259 240.731 696.109C240.731 721.449 254.47 754.544 277.849 784.335H417.634Z" fill="#D9FF6A"/>
<path d="M417.634 761.358L258.338 754.768L258.342 754.79C247.026 733.963 240.731 713.26 240.731 696.109C240.731 697.331 240.792 698.591 240.856 699.85C262.61 675.939 358.435 652.297 401.587 644.767L417.634 680.239V693.384V719.876V747.173V747.722V761.358Z" fill="#B4CAEC"/>
<path d="M417.635 784.335V629.114C437.187 629.114 594.536 664.259 594.536 696.109C594.536 721.449 580.799 754.544 557.42 784.335H417.635Z" fill="#D9FF6A"/>
<path d="M417.635 761.358V680.239L433.679 644.767C476.836 652.299 572.659 675.941 594.411 699.85C594.477 698.591 594.536 697.331 594.536 696.109C594.536 703.467 593.377 711.481 591.16 719.876C588.212 731.048 583.387 742.903 576.926 754.792L576.931 754.768L417.635 761.358Z" fill="#A1BCE6"/>
<path d="M417.635 786.167H260.596L262.062 776.283L270.836 771.524L404.288 775.185L417.635 778.844V786.167Z" fill="#9FBE43"/>
<path d="M417.634 642.464V629.114C398.08 629.114 240.731 664.259 240.731 696.109C240.731 697.331 240.792 698.591 240.856 699.85C266.056 672.149 390.669 644.811 417.634 642.464Z" fill="#1D2A30"/>
<path d="M240.856 699.85C240.792 698.591 240.731 697.331 240.731 696.109C240.731 664.363 397.065 629.341 417.439 629.114C413.887 629.154 406.182 630.257 395.909 632.212L401.587 644.767C358.435 652.297 262.61 675.939 240.856 699.85ZM417.476 629.114C417.48 629.114 417.487 629.114 417.494 629.114C417.487 629.114 417.483 629.114 417.476 629.114Z" fill="#45555C"/>
<path d="M417.635 786.167H574.674L573.206 776.283L564.432 771.524L430.979 775.185L417.635 778.844V786.167Z" fill="#D9FF6A"/>
<path d="M518.399 785.096C515.952 783.187 513.735 781.046 511.654 778.89L548.062 777.349C539.622 780.332 529.184 782.957 518.399 785.096ZM445.279 783.804C444.324 783.154 443.402 782.488 442.504 781.819L453.743 781.342C450.964 782.208 448.132 783.029 445.279 783.804Z" fill="#8EAE2E"/>
<path d="M417.635 642.464V629.114C437.187 629.114 594.536 664.259 594.536 696.109C594.536 697.331 594.477 698.591 594.411 699.85C569.21 672.149 444.598 644.811 417.635 642.464Z" fill="#1D2A30"/>
<path d="M417.635 680.239V642.463C421.325 642.784 426.837 643.572 433.679 644.767L417.635 680.239Z" fill="#B4CAEC"/>
<path d="M433.679 644.768C426.837 643.572 421.325 642.784 417.635 642.464V629.115C417.641 629.115 417.652 629.115 417.659 629.115C417.661 629.115 417.663 629.115 417.668 629.115C417.683 629.115 417.701 629.115 417.718 629.115C417.72 629.115 417.725 629.115 417.727 629.115C417.734 629.115 417.738 629.115 417.745 629.115C417.749 629.115 417.751 629.115 417.753 629.115C417.76 629.115 417.766 629.115 417.773 629.115C417.78 629.115 417.786 629.115 417.791 629.115C417.795 629.115 417.797 629.115 417.802 629.115C417.806 629.115 417.81 629.115 417.817 629.115C417.819 629.115 417.824 629.115 417.828 629.115C421.382 629.154 429.085 630.257 439.36 632.212L433.679 644.768Z" fill="#45555C"/>
<path d="M417.635 782.873L573.206 776.283L576.931 754.768L417.635 761.358V782.873Z" fill="#A3C445"/>
<path d="M417.634 680.239L401.588 644.767C408.426 643.572 413.944 642.784 417.634 642.463V650.199V658.245V680.239Z" fill="#CCDCF3"/>
<path d="M401.589 644.768L395.91 632.212C406.183 630.257 413.888 629.154 417.44 629.115C417.445 629.115 417.449 629.115 417.453 629.115C417.458 629.115 417.462 629.115 417.467 629.115C417.471 629.115 417.473 629.115 417.478 629.115C417.484 629.115 417.489 629.115 417.495 629.115C417.502 629.115 417.508 629.115 417.515 629.115C417.517 629.115 417.521 629.115 417.524 629.115C417.53 629.115 417.535 629.115 417.541 629.115C417.546 629.115 417.548 629.115 417.552 629.115C417.568 629.115 417.585 629.115 417.603 629.115C417.605 629.115 417.607 629.115 417.609 629.115C417.618 629.115 417.627 629.115 417.636 629.115V642.464C413.946 642.784 408.427 643.572 401.589 644.768Z" fill="#7F8C8F"/>
<path d="M417.636 782.873L262.063 776.283L258.34 754.768L417.636 761.358V782.873Z" fill="#D9FF6A"/>
<path d="M391.498 781.766L371.957 780.938C371.131 780.132 370.328 779.314 369.547 778.497C363.053 771.723 357.844 764.949 350.947 764.949C348.471 764.949 345.777 765.821 342.73 767.881C336.81 771.881 328.793 775.536 319.853 778.73L295.394 777.693C290.923 774.304 286.734 771.611 281.62 771.611C279.143 771.611 276.45 772.242 273.403 773.731C271.414 774.702 268.964 775.609 266.163 776.457L262.063 776.283L258.34 754.768L417.636 761.358V772.668C416.828 772.958 415.994 773.309 415.133 773.731C409.048 776.701 400.742 779.411 391.498 781.766Z" fill="#B6D165"/>
<path d="M448.702 671.871C446.774 671.871 445.209 670.129 445.209 667.976C445.209 665.823 446.774 664.08 448.702 664.08C450.631 664.08 452.196 665.823 452.196 667.976C452.196 670.129 450.631 671.871 448.702 671.871ZM448.702 661.294C445.396 661.294 442.711 664.286 442.711 667.976C442.711 671.666 445.396 674.656 448.702 674.656C452.012 674.656 454.694 671.666 454.694 667.976C454.694 664.286 452.012 661.294 448.702 661.294Z" fill="#D9FF6A"/>
<path d="M448.536 667.328C448.37 666.62 448.809 665.912 449.518 665.742C450.227 665.575 450.936 666.014 451.103 666.726C451.269 667.434 450.83 668.142 450.121 668.31C449.412 668.479 448.701 668.038 448.536 667.328ZM439.874 684.549L440.421 684.074H440.428L440.511 684.454C442.006 690.824 448.089 692.993 454.261 694.479C454.931 694.642 456.608 695.936 456.608 695.936C456.608 695.936 457.532 694.029 458.061 693.585C462.926 689.505 467.406 684.854 465.909 678.482L465.815 678.107L465.821 678.102L466.521 678.283C466.8 678.357 467.02 678.041 466.855 677.805L465.883 676.406C465.606 676.009 464.994 676.114 464.864 676.579L464.35 678.434C464.276 678.712 464.585 678.936 464.827 678.774L465.455 678.352C465.36 683.114 462.651 687.481 458.423 689.674C457.539 690.13 456.461 689.651 456.222 688.685L452.325 672.874L457.501 671.658L457.181 670.287L451.989 671.506L451.364 668.966C452.09 668.389 452.461 667.424 452.235 666.461C451.915 665.098 450.536 664.266 449.177 664.629C447.891 664.971 447.092 666.329 447.41 667.623C447.645 668.573 448.4 669.259 449.3 669.452L449.871 672.004L444.68 673.225L445 674.597L450.176 673.38L453.726 689.271C453.943 690.244 453.188 691.154 452.194 691.137C447.43 691.059 443.062 688.356 440.858 684.134L441.611 684.233C441.898 684.27 442.076 683.932 441.883 683.716L440.601 682.284C440.278 681.927 439.681 682.104 439.611 682.58L439.363 684.267C439.321 684.553 439.657 684.738 439.874 684.549Z" fill="#1D2A30"/>
<path d="M154.067 717.693C153.231 713.761 155.965 710.954 159.893 710.119C163.823 709.284 167.46 710.737 168.296 714.666L170.087 723.098L155.858 726.125L154.067 717.693Z" fill="#D9FF6A"/>
<path d="M155.857 726.125L154.066 717.693L154.472 719.599L168.699 716.572L168.295 714.666L168.245 714.516L154.051 717.535L154.066 717.693C153.965 717.216 153.916 716.757 153.916 716.315C153.911 713.111 156.44 710.852 159.893 710.119C160.604 709.967 161.307 709.891 161.984 709.891C165.049 709.891 167.612 711.448 168.295 714.666L170.086 723.098L155.857 726.125ZM169.138 718.635L154.91 721.659L155.347 723.722L169.575 720.696L169.138 718.635Z" fill="#D6E8A3"/>
<path d="M192.496 772.618C194.667 782.833 188.148 792.878 177.936 795.051C167.724 797.223 157.686 790.7 155.516 780.481L150.861 758.568L187.842 750.704L192.496 772.618Z" fill="#1D2A30"/>
<path d="M157.785 729.547L164.402 736.21L158.912 750.652L157.785 729.547ZM169.72 727.011L177.27 746.746L166.382 735.788L169.72 727.011ZM158.454 756.644L165.719 737.534L180.122 752.036L181.039 751.842L170.158 723.393L169.197 723.597L165.066 734.464L156.876 726.217L155.914 726.421L157.537 756.839L158.454 756.644Z" fill="#1D2A30"/>
<path d="M154.472 719.599L154.066 717.693L154.051 717.535L168.246 714.516L168.295 714.665L168.699 716.572L154.472 719.599Z" fill="#FAFFEC"/>
<path d="M155.347 723.722L154.91 721.659L169.138 718.635L169.576 720.696L155.347 723.722Z" fill="#FAFFEC"/>
<path d="M172.37 724.056L154.162 727.929L153.701 725.758L171.909 721.886L172.37 724.056Z" fill="#A3C445"/>
<path d="M190.779 753.323L149.24 762.157L147.922 755.952L189.461 747.118L190.779 753.323Z" fill="#A0BE47"/>
<path d="M255.957 328.447L255.369 326.33L684.735 206.833L685.322 208.949L255.957 328.447Z" fill="#D9FF6A"/>
<path d="M774.168 728.849H783.708V307.819H774.168V728.849Z" fill="#A0BE47"/>
<path d="M849.316 728.849H858.858V307.819H849.316V728.849Z" fill="#A0BE47"/>
<path d="M779.436 482.256V472.71H853.483V482.256H779.436Z" fill="#A0BE47"/>
<path d="M775.865 479.895L851.352 307.819H858.263L782.776 479.895H775.865Z" fill="#A0BE47"/>
<path d="M774.168 307.819H783.708V205.314H774.168V307.819Z" fill="#A0BE47"/>
<path d="M859.36 307.819L783.871 205.313H774.768L850.255 307.819H859.36Z" fill="#A0BE47"/>
<path d="M857.187 355.704V329.192L799.284 355.704V329.192L741.382 355.704V329.192L683.48 355.704V329.192L625.576 355.704V329.192L567.672 355.704V329.192L509.769 355.704V329.192L451.867 355.704V329.192L393.963 355.704V329.192L336.059 355.704V329.192L281.266 354.281L279.439 350.287L340.452 322.352V348.864L398.353 322.352V348.864L456.257 322.352V348.864L514.159 322.352V348.864L572.063 322.352V348.864L629.967 322.352V348.864L687.871 322.352V348.864L745.772 322.352V348.864L803.674 322.352V348.864L861.578 322.352V348.864L916.373 323.775L918.2 327.768L857.187 355.704Z" fill="#1D2A30"/>
<path d="M857.188 355.704V355.579H857.462L857.188 355.704Z" fill="#758288"/>
<path d="M799.281 355.704V355.579H799.556L799.281 355.704Z" fill="#758288"/>
<path d="M625.576 355.704V355.579H625.851L625.576 355.704Z" fill="#758288"/>
<path d="M567.67 355.704V355.579H567.944L567.67 355.704Z" fill="#758288"/>
<path d="M509.768 355.704V355.579H510.042L509.768 355.704Z" fill="#758288"/>
<path d="M451.867 355.704V355.579H452.142L451.867 355.704Z" fill="#758288"/>
<path d="M393.961 355.704V355.579H394.235L393.961 355.704Z" fill="#758288"/>
<path d="M336.059 355.704V355.579H336.333L336.059 355.704Z" fill="#758288"/>
<path d="M861.577 322.477H861.305L861.577 322.352V322.477Z" fill="#758288"/>
<path d="M803.673 322.477H803.4L803.673 322.352V322.477Z" fill="#758288"/>
<path d="M745.77 322.477H745.496L745.77 322.352V322.477Z" fill="#758288"/>
<path d="M629.966 322.477H629.691L629.966 322.352V322.477Z" fill="#758288"/>
<path d="M572.062 322.477H571.787L572.062 322.352V322.477Z" fill="#758288"/>
<path d="M514.157 322.477H513.885L514.157 322.352V322.477Z" fill="#758288"/>
<path d="M456.257 322.477H455.982L456.257 322.352V322.477Z" fill="#758288"/>
<path d="M398.353 322.477H398.078L398.353 322.352V322.477Z" fill="#758288"/>
<path d="M340.45 322.477H340.176L340.45 322.352V322.477Z" fill="#758288"/>
<path d="M871.851 348.989H857.185V329.192L849.316 332.796L846.798 333.947L838.151 337.908L813.95 348.989H799.282V329.192L783.707 336.324L774.167 340.693L764.949 344.912V340.082L789.006 329.067H803.672V348.864L846.91 329.067H861.576V348.864L904.814 329.067H913.992V329.695L871.851 348.989Z" fill="#758288"/>
<path d="M755.408 348.989H745.194L745.771 347.674V348.864L755.408 344.451V348.989ZM698.145 348.989H689.799V347.979L731.105 329.067H745.771V331.922L741.381 341.93V329.192L698.145 348.989Z" fill="#758288"/>
<path d="M640.24 348.989H625.574V329.192L582.336 348.989H567.671V329.192L562.27 331.665L561.722 331.916L535.854 343.759L535.305 344.012L524.433 348.989H509.767V329.192L466.531 348.989H451.865V329.192L408.627 348.989H393.961V329.192L350.725 348.989H336.057V329.192L315.324 338.685L307.854 342.105L292.821 348.989H282.271L325.782 329.067H340.45V348.864L383.686 329.067H398.351V348.864L441.589 329.067H456.255V348.864L499.491 329.067H514.157V348.864L557.395 329.067H572.061V348.864L615.299 329.067H629.965V348.864L673.201 329.067H680.258V330.666L640.24 348.989Z" fill="#758288"/>
<path d="M281.575 348.989H913.993V329.067H258.482L281.575 348.989ZM920.579 355.579H279.129L252.048 332.217C250.274 330.688 249.657 328.285 250.472 326.09C251.286 323.896 253.325 322.477 255.663 322.477H920.579V355.579Z" fill="#1D2A30"/>
<path d="M920.578 355.579H764.95V348.989H913.992V329.067H861.576H846.911H803.673H789.007H783.708H774.167H764.95V322.477H920.578V355.579ZM755.408 355.579H742.302L745.193 348.989H755.408V355.579ZM735.392 355.579H689.799V348.989H738.283L735.392 355.579ZM680.258 355.579H625.849H625.575H567.945H567.671H562.271H561.722H535.854H535.306H510.042H509.767H452.14H451.866H415.784C415.123 355.474 414.456 355.421 413.786 355.421C413.119 355.421 412.451 355.474 411.791 355.579H394.236H393.962H336.332H336.058H319.71H279.129L271.485 348.985L263.552 342.141L259.19 338.38L252.047 332.217C250.793 331.136 250.117 329.618 250.117 328.045C250.115 327.393 250.232 326.732 250.471 326.09C251.285 323.896 253.325 322.477 255.662 322.477H680.258V329.067H629.965H615.299H572.061H557.396H535.854H535.306H514.158H499.492H456.256H441.59H398.352H383.686H340.45H325.782H315.325H307.854H273.18H266.05H258.481L281.574 348.989H680.258V355.579ZM755.408 329.067H753.935L755.408 325.706V329.067ZM747.024 329.067H745.771H731.105H689.799V322.477H749.915L747.024 329.067Z" fill="#A5ADAD"/>
<path d="M685.029 214.862H781.028V205.315H685.029V214.862Z" fill="#A0BE47"/>
<path d="M680.258 728.849H689.798V307.819H680.258V728.849Z" fill="#D9FF6A"/>
<path d="M680.258 307.819H689.798V205.314H680.258V307.819Z" fill="#D9FF6A"/>
<path d="M755.406 728.849H764.948V307.819H755.406V728.849Z" fill="#D9FF6A"/>
<path d="M683.438 482.256H759.682V472.71H683.438V482.256Z" fill="#D9FF6A"/>
<path d="M765.45 307.819L689.961 205.313H680.856L756.343 307.819H765.45Z" fill="#D9FF6A"/>
<path d="M680.856 479.895L756.345 307.819H763.255L687.768 479.895H680.856Z" fill="#D9FF6A"/>
<path d="M689.798 597.667H680.258V312.593H689.798V322.477V329.067V348.989V355.579V459.511L684.007 472.71H683.436V474.012L680.855 479.895H683.436V482.256H689.798V490.208V493.542V597.667Z" fill="#C8FF26"/>
<path d="M689.798 303.044H680.258V205.313H680.855L689.798 217.456V303.044Z" fill="#C8FF26"/>
<path d="M764.949 536.954H755.406V482.256H759.68V472.71H755.406V325.706L761.16 312.592H764.949V322.477V329.066V348.989V355.579V476.8V480.132V490.207V493.542V536.954Z" fill="#C8FF26"/>
<path d="M759.682 482.256H683.438V479.895H687.769L690.921 472.71H759.682V482.256ZM683.438 474.012V472.71H684.008L683.438 474.012Z" fill="#C8FF26"/>
<path d="M761.934 303.044H752.828L689.799 217.456L680.856 205.313H689.961L761.934 303.044Z" fill="#C8FF26"/>
<path d="M687.768 479.895H680.856L683.437 474.012L684.008 472.71L689.799 459.511L754.251 312.592H759.682H761.161L755.408 325.706L753.935 329.067L745.194 348.989L742.303 355.579L687.768 479.895Z" fill="#C8FF26"/>
<path d="M759.682 312.593H864.459V303.045H759.682V312.593Z" fill="#1D2A30"/>
<path d="M864.459 312.593H759.682V303.044H864.459V312.593Z" fill="#5D6C72"/>
<path d="M674.656 312.593H759.681V303.045H674.656V312.593Z" fill="#1D2A30"/>
<path d="M759.681 312.593H674.656V303.044H759.681V312.593Z" fill="#A5ADAD"/>
<path d="M408.722 362.169C408.722 363.763 407.43 365.057 405.836 365.057C404.242 365.057 402.949 363.763 402.949 362.169C402.949 360.572 404.242 359.278 405.836 359.278C407.43 359.278 408.722 360.572 408.722 362.169Z" fill="#D9FF6A"/>
<path d="M425.019 362.169C425.019 363.763 423.728 365.057 422.133 365.057C420.539 365.057 419.246 363.763 419.246 362.169C419.246 360.572 420.539 359.278 422.133 359.278C423.728 359.278 425.019 360.572 425.019 362.169Z" fill="#D9FF6A"/>
<path d="M405.835 365.057C404.404 365.057 403.214 364.014 402.988 362.645L407.398 359.739C408.195 360.253 408.722 361.149 408.722 362.169C408.722 363.763 407.429 365.057 405.835 365.057Z" fill="#93B13A"/>
<path d="M422.133 365.057C420.539 365.057 419.246 363.763 419.246 362.169C419.246 361.233 419.692 360.4 420.381 359.873L424.934 362.874C424.62 364.128 423.485 365.057 422.133 365.057Z" fill="#93B13A"/>
<path d="M458.198 384.797L419.614 359.368C416.073 357.037 411.5 357.035 407.96 359.368L369.375 384.797L368.168 382.963L406.752 357.534C411.024 354.718 416.547 354.718 420.821 357.534L459.403 382.963L458.198 384.797Z" fill="#1D2A30"/>
<path d="M454.231 379.901H393.398V440.772H495.01V379.901H454.231Z" fill="#ACCC4F"/>
<path d="M332.566 440.772H393.399V379.902H332.566V440.772Z" fill="#D9FF6A"/>
<path d="M393.399 440.772H332.566V379.901H393.399V440.772ZM366.275 432.605V435.733C366.275 436.695 367.057 437.479 368.02 437.479H388.361C389.324 437.479 390.106 436.695 390.106 435.733V384.942C390.106 383.978 389.324 383.196 388.361 383.196H368.02C367.057 383.196 366.275 383.978 366.275 384.942V388.066H341.34C340.159 388.066 339.202 389.026 339.202 390.207C339.202 391.389 340.159 392.347 341.34 392.347H366.275V401.487H341.34C340.159 401.487 339.202 402.444 339.202 403.626C339.202 404.81 340.159 405.766 341.34 405.766H366.275V414.905H341.34C340.159 414.905 339.202 415.865 339.202 417.047C339.202 418.229 340.159 419.184 341.34 419.184H366.275V428.326H341.34C340.159 428.326 339.202 429.284 339.202 430.464C339.202 431.645 340.159 432.605 341.34 432.605H366.275Z" fill="#BAD176"/>
<path d="M388.361 437.479H368.021C367.057 437.479 366.275 436.695 366.275 435.733V432.605H384.625C385.806 432.605 386.763 431.645 386.763 430.464C386.763 429.284 385.806 428.326 384.625 428.326H366.275V419.184H384.625C385.806 419.184 386.763 418.229 386.763 417.047C386.763 415.865 385.806 414.906 384.625 414.906H366.275V405.766H384.625C385.806 405.766 386.763 404.81 386.763 403.626C386.763 402.445 385.806 401.487 384.625 401.487H366.275V392.347H384.625C385.806 392.347 386.763 391.389 386.763 390.208C386.763 389.026 385.806 388.066 384.625 388.066H366.275V384.942C366.275 383.978 367.057 383.196 368.021 383.196H388.361C389.325 383.196 390.106 383.978 390.106 384.942V435.733C390.106 436.695 389.325 437.479 388.361 437.479Z" fill="#D7EC9B"/>
<path d="M366.274 392.347H341.339C340.158 392.347 339.201 391.389 339.201 390.208C339.201 389.026 340.158 388.066 341.339 388.066H366.274V392.347Z" fill="#ADCA59"/>
<path d="M384.625 392.347H366.275V388.066H384.625C385.806 388.066 386.763 389.026 386.763 390.208C386.763 391.389 385.806 392.347 384.625 392.347Z" fill="#B5D066"/>
<path d="M366.274 405.766H341.339C340.158 405.766 339.201 404.81 339.201 403.626C339.201 402.444 340.158 401.487 341.339 401.487H366.274V405.766Z" fill="#ADCA59"/>
<path d="M384.625 405.766H366.275V401.487H384.625C385.806 401.487 386.763 402.444 386.763 403.626C386.763 404.81 385.806 405.766 384.625 405.766Z" fill="#B5D066"/>
<path d="M366.274 419.185H341.339C340.158 419.185 339.201 418.229 339.201 417.047C339.201 415.866 340.158 414.906 341.339 414.906H366.274V419.185Z" fill="#ADCA59"/>
<path d="M384.625 419.185H366.275V414.906H384.625C385.806 414.906 386.763 415.866 386.763 417.047C386.763 418.229 385.806 419.185 384.625 419.185Z" fill="#B5D066"/>
<path d="M366.274 432.605H341.339C340.158 432.605 339.201 431.646 339.201 430.464C339.201 429.284 340.158 428.327 341.339 428.327H366.274V432.605Z" fill="#ADCA59"/>
<path d="M384.625 432.605H366.275V428.327H384.625C385.806 428.327 386.763 429.284 386.763 430.464C386.763 431.646 385.806 432.605 384.625 432.605Z" fill="#B5D066"/>
<path d="M443.929 434.132C442.748 434.132 441.791 433.174 441.791 431.992V388.681C441.791 387.499 442.748 386.541 443.929 386.541C445.11 386.541 446.067 387.499 446.067 388.681V431.992C446.067 433.174 445.11 434.132 443.929 434.132Z" fill="#95B538"/>
<path d="M430.521 434.132C429.34 434.132 428.383 433.174 428.383 431.992V388.681C428.383 387.499 429.34 386.541 430.521 386.541C431.7 386.541 432.659 387.499 432.659 388.681V431.992C432.659 433.174 431.7 434.132 430.521 434.132Z" fill="#95B538"/>
<path d="M417.107 434.132C415.926 434.132 414.969 433.174 414.969 431.992V388.681C414.969 387.499 415.926 386.541 417.107 386.541C418.288 386.541 419.245 387.499 419.245 388.681V431.992C419.245 433.174 418.288 434.132 417.107 434.132Z" fill="#95B538"/>
<path d="M403.697 434.132C402.516 434.132 401.559 433.174 401.559 431.992V388.681C401.559 387.499 402.516 386.541 403.697 386.541C404.878 386.541 405.835 387.499 405.835 388.681V431.992C405.835 433.174 404.878 434.132 403.697 434.132Z" fill="#95B538"/>
<path d="M484.708 434.132C483.527 434.132 482.57 433.174 482.57 431.992V388.681C482.57 387.499 483.527 386.541 484.708 386.541C485.887 386.541 486.846 387.499 486.846 388.681V431.992C486.846 433.174 485.887 434.132 484.708 434.132Z" fill="#95B538"/>
<path d="M471.298 434.132C470.117 434.132 469.16 433.174 469.16 431.992V388.681C469.16 387.499 470.117 386.541 471.298 386.541C472.481 386.541 473.436 387.499 473.436 388.681V431.992C473.436 433.174 472.481 434.132 471.298 434.132Z" fill="#95B538"/>
<path d="M457.888 434.132C456.707 434.132 455.75 433.174 455.75 431.992V388.681C455.75 387.499 456.707 386.541 457.888 386.541C459.069 386.541 460.026 387.499 460.026 388.681V431.992C460.026 433.174 459.069 434.132 457.888 434.132Z" fill="#95B538"/>
<path d="M432.659 362.168H395.684V354.918H432.659V362.168Z" fill="#D9FF6A"/>
<path d="M630.094 785.129H927.281V738.448H630.094V785.129Z" fill="#1D2A30"/>
<path d="M630.094 750.21H927.281V738.448H630.094V750.21Z" fill="#1A252A"/>
<path d="M621.545 738.447H935.832V719.25H621.545V738.447Z" fill="#1D2A30"/>
<path d="M621.545 738.447H935.832V719.25H621.545V738.447Z" fill="#1D2A30"/>
<path d="M636.699 719.25H697.532V658.379H636.699V719.25Z" fill="#D9FF6A"/>
<path d="M692.496 715.955H672.155C671.192 715.955 670.41 715.173 670.41 714.211V711.083H688.759C689.94 711.083 690.898 710.123 690.898 708.942C690.898 707.76 689.94 706.804 688.759 706.804H670.41V697.664H688.759C689.94 697.664 690.898 696.704 690.898 695.523C690.898 694.343 689.94 693.384 688.759 693.384H670.41V684.243H688.759C689.94 684.243 690.898 683.286 690.898 682.106C690.898 680.924 689.94 679.964 688.759 679.964H670.41V670.825H688.759C689.94 670.825 690.898 669.865 690.898 668.686C690.898 667.504 689.94 666.546 688.759 666.546H670.41V663.421C670.41 662.456 671.192 661.674 672.155 661.674H692.496C693.459 661.674 694.241 662.456 694.241 663.421V714.211C694.241 715.173 693.459 715.955 692.496 715.955Z" fill="#A1BCE6"/>
<path d="M670.409 670.825H645.474C644.293 670.825 643.334 669.865 643.334 668.686C643.334 667.504 644.293 666.546 645.474 666.546H670.409V670.825Z" fill="#93B13A"/>
<path d="M688.759 670.825H670.41V666.546H688.759C689.94 666.546 690.898 667.504 690.898 668.686C690.898 669.865 689.94 670.825 688.759 670.825Z" fill="#BBD177"/>
<path d="M670.409 684.244H645.474C644.293 684.244 643.334 683.286 643.334 682.106C643.334 680.925 644.293 679.965 645.474 679.965H670.409V684.244Z" fill="#93B13A"/>
<path d="M688.759 684.244H670.41V679.965H688.759C689.94 679.965 690.898 680.925 690.898 682.106C690.898 683.286 689.94 684.244 688.759 684.244Z" fill="#BBD177"/>
<path d="M670.409 697.665H645.474C644.293 697.665 643.334 696.704 643.334 695.523C643.334 694.343 644.293 693.384 645.474 693.384H670.409V697.665Z" fill="#93B13A"/>
<path d="M688.759 697.665H670.41V693.384H688.759C689.94 693.384 690.898 694.343 690.898 695.523C690.898 696.704 689.94 697.665 688.759 697.665Z" fill="#BBD177"/>
<path d="M670.409 711.083H645.474C644.293 711.083 643.334 710.123 643.334 708.942C643.334 707.76 644.293 706.804 645.474 706.804H670.409V711.083Z" fill="#93B13A"/>
<path d="M688.759 711.083H670.41V706.804H688.759C689.94 706.804 690.898 707.76 690.898 708.942C690.898 710.123 689.94 711.083 688.759 711.083Z" fill="#BBD177"/>
<path d="M697.531 719.25H758.363V658.379H697.531V719.25Z" fill="#D9FF6A"/>
<path d="M727.947 719.25H697.531V658.538H727.947V719.25ZM721.241 665.017C720.062 665.017 719.105 665.977 719.105 667.157V710.471C719.105 711.652 720.062 712.61 721.241 712.61C722.422 712.61 723.379 711.652 723.379 710.471V667.157C723.379 665.977 722.422 665.017 721.241 665.017ZM707.831 665.017C706.65 665.017 705.693 665.977 705.693 667.157V710.471C705.693 711.652 706.65 712.61 707.831 712.61C709.012 712.61 709.969 711.652 709.969 710.471V667.157C709.969 665.977 709.012 665.017 707.831 665.017Z" fill="#93B13A"/>
<path d="M721.241 712.61C720.063 712.61 719.105 711.652 719.105 710.471V667.157C719.105 665.977 720.063 665.018 721.241 665.018C722.422 665.018 723.379 665.977 723.379 667.157V710.471C723.379 711.652 722.422 712.61 721.241 712.61Z" fill="#A0BD49"/>
<path d="M707.833 712.61C706.652 712.61 705.695 711.652 705.695 710.471V667.157C705.695 665.977 706.652 665.018 707.833 665.018C709.014 665.018 709.971 665.977 709.971 667.157V710.471C709.971 711.652 709.014 712.61 707.833 712.61Z" fill="#A0BD49"/>
<path d="M727.949 719.25H788.782V658.379H727.949V719.25Z" fill="#1D2A30"/>
<path d="M788.781 719.25H727.949V658.379V658.538H762.931H788.781V674.656V693.384V719.25ZM761.658 711.083V714.211C761.658 715.173 762.44 715.955 763.403 715.955H783.744C784.707 715.955 785.489 715.173 785.489 714.211V663.421C785.489 662.456 784.707 661.674 783.744 661.674H763.403C762.44 661.674 761.658 662.456 761.658 663.421V666.546H736.723C735.542 666.546 734.585 667.504 734.585 668.686C734.585 669.865 735.542 670.825 736.723 670.825H761.658V679.964H736.723C735.542 679.964 734.585 680.924 734.585 682.106C734.585 683.286 735.542 684.243 736.723 684.243H761.658V693.384H736.723C735.542 693.384 734.585 694.343 734.585 695.523C734.585 696.704 735.542 697.665 736.723 697.665H761.658V706.804H736.723C735.542 706.804 734.585 707.76 734.585 708.942C734.585 710.123 735.542 711.083 736.723 711.083H761.658Z" fill="#A5ADAD"/>
<path d="M783.742 715.955H763.401C762.438 715.955 761.656 715.173 761.656 714.211V711.083H780.006C781.187 711.083 782.144 710.123 782.144 708.942C782.144 707.76 781.187 706.804 780.006 706.804H761.656V697.664H780.006C781.187 697.664 782.144 696.704 782.144 695.523C782.144 694.343 781.187 693.384 780.006 693.384H761.656V684.243H780.006C781.187 684.243 782.144 683.286 782.144 682.106C782.144 680.924 781.187 679.964 780.006 679.964H761.656V670.825H780.006C781.187 670.825 782.144 669.865 782.144 668.686C782.144 667.504 781.187 666.546 780.006 666.546H761.656V663.421C761.656 662.456 762.438 661.674 763.401 661.674H783.742C784.705 661.674 785.487 662.456 785.487 663.421V714.211C785.487 715.173 784.705 715.955 783.742 715.955Z" fill="#D6D8D8"/>
<path d="M761.657 670.825H736.722C735.541 670.825 734.584 669.865 734.584 668.686C734.584 667.504 735.541 666.546 736.722 666.546H761.657V670.825Z" fill="#80888B"/>
<path d="M780.006 670.825H761.656V666.546H780.006C781.187 666.546 782.144 667.504 782.144 668.686C782.144 669.865 781.187 670.825 780.006 670.825Z" fill="#A9AAAA"/>
<path d="M761.657 684.244H736.722C735.541 684.244 734.584 683.286 734.584 682.106C734.584 680.925 735.541 679.965 736.722 679.965H761.657V684.244Z" fill="#80888B"/>
<path d="M780.006 684.244H761.656V679.965H780.006C781.187 679.965 782.144 680.925 782.144 682.106C782.144 683.286 781.187 684.244 780.006 684.244Z" fill="#A9AAAA"/>
<path d="M761.657 697.665H736.722C735.541 697.665 734.584 696.704 734.584 695.523C734.584 694.343 735.541 693.384 736.722 693.384H761.657V697.665Z" fill="#80888B"/>
<path d="M780.006 697.665H761.656V693.384H780.006C781.187 693.384 782.144 694.343 782.144 695.523C782.144 696.704 781.187 697.665 780.006 697.665Z" fill="#A9AAAA"/>
<path d="M761.657 711.083H736.722C735.541 711.083 734.584 710.123 734.584 708.942C734.584 707.76 735.541 706.804 736.722 706.804H761.657V711.083Z" fill="#80888B"/>
<path d="M780.006 711.083H761.656V706.804H780.006C781.187 706.804 782.144 707.76 782.144 708.942C782.144 710.123 781.187 711.083 780.006 711.083Z" fill="#A9AAAA"/>
<path d="M788.781 719.25H849.613V658.379H788.781V719.25Z" fill="#1D2A30"/>
<path d="M805.761 719.25H788.781V658.538H805.761V719.25ZM799.081 665.017C797.9 665.017 796.943 665.977 796.943 667.157V710.471C796.943 711.652 797.9 712.61 799.081 712.61C800.262 712.61 801.219 711.652 801.219 710.471V667.157C801.219 665.977 800.262 665.017 799.081 665.017Z" fill="#758288"/>
<path d="M799.079 712.61C797.898 712.61 796.941 711.652 796.941 710.471V667.157C796.941 665.977 797.898 665.018 799.079 665.018C800.26 665.018 801.218 665.977 801.218 667.157V710.471C801.218 711.652 800.26 712.61 799.079 712.61Z" fill="#59656A"/>
<path d="M805.76 719.25H866.592V658.379H805.76V719.25Z" fill="#D9FF6A"/>
<path d="M866.592 719.25H805.76V658.538H823.765H866.592V674.656V693.384V719.25ZM839.469 711.083V714.211C839.469 715.173 840.25 715.955 841.214 715.955H861.554C862.518 715.955 863.299 715.173 863.299 714.211V663.421C863.299 662.456 862.518 661.674 861.554 661.674H841.214C840.25 661.674 839.469 662.456 839.469 663.421V666.546H814.532C813.353 666.546 812.396 667.504 812.396 668.686C812.396 669.865 813.353 670.825 814.532 670.825H839.469V679.964H814.532C813.353 679.964 812.396 680.924 812.396 682.106C812.396 683.286 813.353 684.243 814.532 684.243H839.469V693.384H814.532C813.353 693.384 812.396 694.343 812.396 695.523C812.396 696.704 813.353 697.665 814.532 697.665H839.469V706.804H814.532C813.353 706.804 812.396 707.76 812.396 708.942C812.396 710.123 813.353 711.083 814.532 711.083H839.469Z" fill="#AFC964"/>
<path d="M861.554 715.955H841.214C840.25 715.955 839.469 715.173 839.469 714.211V711.083H857.818C858.999 711.083 859.956 710.123 859.956 708.942C859.956 707.76 858.999 706.804 857.818 706.804H839.469V697.664H857.818C858.999 697.664 859.956 696.704 859.956 695.523C859.956 694.343 858.999 693.384 857.818 693.384H839.469V684.243H857.818C858.999 684.243 859.956 683.286 859.956 682.106C859.956 680.924 858.999 679.964 857.818 679.964H839.469V670.825H857.818C858.999 670.825 859.956 669.865 859.956 668.686C859.956 667.504 858.999 666.546 857.818 666.546H839.469V663.421C839.469 662.456 840.25 661.674 841.214 661.674H861.554C862.518 661.674 863.299 662.456 863.299 663.421V714.211C863.299 715.173 862.518 715.955 861.554 715.955Z" fill="#B4CAEC"/>
<path d="M839.469 670.825H814.532C813.354 670.825 812.396 669.865 812.396 668.686C812.396 667.504 813.354 666.546 814.532 666.546H839.469V670.825Z" fill="#A1BE4B"/>
<path d="M857.818 670.825H839.469V666.546H857.818C858.999 666.546 859.956 667.504 859.956 668.686C859.956 669.865 858.999 670.825 857.818 670.825Z" fill="#8AA1D3"/>
<path d="M839.469 684.244H814.532C813.354 684.244 812.396 683.286 812.396 682.106C812.396 680.925 813.354 679.965 814.532 679.965H839.469V684.244Z" fill="#A1BE4B"/>
<path d="M857.818 684.244H839.469V679.965H857.818C858.999 679.965 859.956 680.925 859.956 682.106C859.956 683.286 858.999 684.244 857.818 684.244Z" fill="#8AA1D3"/>
<path d="M839.469 697.665H814.532C813.354 697.665 812.396 696.704 812.396 695.523C812.396 694.343 813.354 693.384 814.532 693.384H839.469V697.665Z" fill="#A1BE4B"/>
<path d="M857.818 697.665H839.469V693.384H857.818C858.999 693.384 859.956 694.343 859.956 695.523C859.956 696.704 858.999 697.665 857.818 697.665Z" fill="#8AA1D3"/>
<path d="M839.469 711.083H814.532C813.354 711.083 812.396 710.123 812.396 708.942C812.396 707.76 813.354 706.804 814.532 706.804H839.469V711.083Z" fill="#A1BE4B"/>
<path d="M857.818 711.083H839.469V706.804H857.818C858.999 706.804 859.956 707.76 859.956 708.942C859.956 710.123 858.999 711.083 857.818 711.083Z" fill="#8AA1D3"/>
<path d="M866.594 719.25H927.426V658.379H866.594V719.25Z" fill="#D9FF6A"/>
<path d="M917.125 712.61C915.944 712.61 914.984 711.652 914.984 710.471V667.157C914.984 665.977 915.944 665.018 917.125 665.018C918.306 665.018 919.263 665.977 919.263 667.157V710.471C919.263 711.652 918.306 712.61 917.125 712.61Z" fill="#93B13A"/>
<path d="M903.712 712.61C902.531 712.61 901.574 711.652 901.574 710.471V667.157C901.574 665.977 902.531 665.017 903.712 665.017C904.893 665.017 905.85 665.977 905.85 667.157V710.471C905.85 711.652 904.893 712.61 903.712 712.61Z" fill="#93B13A"/>
<path d="M890.302 712.61C889.121 712.61 888.164 711.652 888.164 710.471V667.157C888.164 665.977 889.121 665.017 890.302 665.017C891.483 665.017 892.44 665.977 892.44 667.157V710.471C892.44 711.652 891.483 712.61 890.302 712.61Z" fill="#93B13A"/>
<path d="M876.892 712.61C875.711 712.61 874.754 711.652 874.754 710.471V667.157C874.754 665.977 875.711 665.018 876.892 665.018C878.073 665.018 879.03 665.977 879.03 667.157V710.471C879.03 711.652 878.073 712.61 876.892 712.61Z" fill="#93B13A"/>
<path d="M667.117 658.538H727.95V597.667H667.117V658.538Z" fill="#D9FF6A"/>
<path d="M727.949 658.538H667.117V597.667H727.949V620.737V621.287V658.379V658.538ZM700.826 650.368V653.496C700.826 654.463 701.608 655.243 702.571 655.243H722.911C723.875 655.243 724.657 654.463 724.657 653.496V602.708C724.657 601.743 723.875 600.962 722.911 600.962H702.571C701.608 600.962 700.826 601.743 700.826 602.708V605.833H675.891C674.71 605.833 673.751 606.791 673.751 607.972C673.751 609.155 674.71 610.112 675.891 610.112H700.826V619.252H675.891C674.71 619.252 673.751 620.21 673.751 621.391C673.751 622.574 674.71 623.533 675.891 623.533H700.826V632.671H675.891C674.71 632.671 673.751 633.628 673.751 634.811C673.751 635.994 674.71 636.95 675.891 636.95H700.826V646.09H675.891C674.71 646.09 673.751 647.05 673.751 648.231C673.751 649.412 674.71 650.368 675.891 650.368H700.826Z" fill="#B4CAEC"/>
<path d="M722.91 655.243H702.569C701.606 655.243 700.824 654.463 700.824 653.496V650.369H719.174C720.355 650.369 721.312 649.413 721.312 648.232C721.312 647.05 720.355 646.09 719.174 646.09H700.824V636.95H719.174C720.355 636.95 721.312 635.994 721.312 634.811C721.312 633.629 720.355 632.671 719.174 632.671H700.824V623.533H719.174C720.355 623.533 721.312 622.574 721.312 621.392C721.312 620.21 720.355 619.253 719.174 619.253H700.824V610.113H719.174C720.355 610.113 721.312 609.155 721.312 607.973C721.312 606.791 720.355 605.834 719.174 605.834H700.824V602.708C700.824 601.744 701.606 600.962 702.569 600.962H722.91C723.873 600.962 724.655 601.744 724.655 602.708V653.496C724.655 654.463 723.873 655.243 722.91 655.243Z" fill="#DBE8F7"/>
<path d="M700.825 610.112H675.89C674.709 610.112 673.75 609.155 673.75 607.972C673.75 606.791 674.709 605.833 675.89 605.833H700.825V610.112Z" fill="#8AA1D3"/>
<path d="M719.174 610.112H700.824V605.833H719.174C720.355 605.833 721.312 606.791 721.312 607.972C721.312 609.155 720.355 610.112 719.174 610.112Z" fill="#ADB7D0"/>
<path d="M700.825 623.533H675.89C674.709 623.533 673.75 622.574 673.75 621.392C673.75 620.21 674.709 619.253 675.89 619.253H700.825V623.533Z" fill="#8AA1D3"/>
<path d="M719.174 623.533H700.824V619.253H719.174C720.355 619.253 721.312 620.21 721.312 621.392C721.312 622.574 720.355 623.533 719.174 623.533Z" fill="#ADB7D0"/>
<path d="M700.825 636.95H675.89C674.709 636.95 673.75 635.994 673.75 634.811C673.75 633.628 674.709 632.671 675.89 632.671H700.825V636.95Z" fill="#8AA1D3"/>
<path d="M719.174 636.95H700.824V632.671H719.174C720.355 632.671 721.312 633.628 721.312 634.811C721.312 635.994 720.355 636.95 719.174 636.95Z" fill="#ADB7D0"/>
<path d="M700.825 650.369H675.89C674.709 650.369 673.75 649.413 673.75 648.231C673.75 647.05 674.709 646.09 675.89 646.09H700.825V650.369Z" fill="#8AA1D3"/>
<path d="M719.174 650.369H700.824V646.09H719.174C720.355 646.09 721.312 647.05 721.312 648.231C721.312 649.413 720.355 650.369 719.174 650.369Z" fill="#ADB7D0"/>
<path d="M727.949 658.538H788.782V597.667H727.949V658.538Z" fill="#D9FF6A"/>
<path d="M762.931 658.538H727.949V597.667H729.047V597.825H762.931V606.444V649.758V658.538ZM751.659 604.307C750.48 604.307 749.521 605.262 749.521 606.444V649.758C749.521 650.94 750.48 651.897 751.659 651.897C752.84 651.897 753.797 650.94 753.797 649.758V606.444C753.797 605.262 752.84 604.307 751.659 604.307ZM738.249 604.307C737.068 604.307 736.111 605.262 736.111 606.444V649.758C736.111 650.94 737.068 651.897 738.249 651.897C739.43 651.897 740.387 650.94 740.387 649.758V606.444C740.387 605.262 739.43 604.307 738.249 604.307Z" fill="#8DAEE0"/>
<path d="M751.66 651.897C750.481 651.897 749.521 650.94 749.521 649.758V606.444C749.521 605.262 750.481 604.307 751.66 604.307C752.841 604.307 753.798 605.262 753.798 606.444V649.758C753.798 650.94 752.841 651.897 751.66 651.897Z" fill="#B1C96B"/>
<path d="M738.247 651.897C737.066 651.897 736.109 650.94 736.109 649.758V606.444C736.109 605.262 737.066 604.307 738.247 604.307C739.428 604.307 740.386 605.262 740.386 606.444V649.758C740.386 650.94 739.428 651.897 738.247 651.897Z" fill="#B1C96B"/>
<path d="M762.932 658.538H823.766V597.667H762.932V658.538Z" fill="#1D2A30"/>
<path d="M823.766 658.538H762.932V597.825H789.879H823.766V620.737V621.287V658.538ZM796.643 650.368V653.496C796.643 654.463 797.424 655.243 798.386 655.243H818.728C819.692 655.243 820.473 654.463 820.473 653.496V602.708C820.473 601.743 819.692 600.962 818.728 600.962H798.386C797.424 600.962 796.643 601.743 796.643 602.708V605.833H771.706C770.525 605.833 769.568 606.791 769.568 607.972C769.568 609.155 770.525 610.112 771.706 610.112H796.643V619.252H771.706C770.525 619.252 769.568 620.21 769.568 621.391C769.568 622.574 770.525 623.533 771.706 623.533H796.643V632.671H771.706C770.525 632.671 769.568 633.628 769.568 634.811C769.568 635.994 770.525 636.95 771.706 636.95H796.643V646.09H771.706C770.525 646.09 769.568 647.05 769.568 648.231C769.568 649.412 770.525 650.368 771.706 650.368H796.643Z" fill="#A5ADAD"/>
<path d="M818.728 655.243H798.386C797.424 655.243 796.643 654.463 796.643 653.496V650.369H814.992C816.173 650.369 817.13 649.413 817.13 648.232C817.13 647.05 816.173 646.09 814.992 646.09H796.643V636.95H814.992C816.173 636.95 817.13 635.994 817.13 634.811C817.13 633.629 816.173 632.671 814.992 632.671H796.643V623.533H814.992C816.173 623.533 817.13 622.574 817.13 621.392C817.13 620.21 816.173 619.253 814.992 619.253H796.643V610.113H814.992C816.173 610.113 817.13 609.155 817.13 607.973C817.13 606.791 816.173 605.834 814.992 605.834H796.643V602.708C796.643 601.744 797.424 600.962 798.386 600.962H818.728C819.692 600.962 820.473 601.744 820.473 602.708V653.496C820.473 654.463 819.692 655.243 818.728 655.243Z" fill="#D6D8D8"/>
<path d="M796.642 610.112H771.704C770.523 610.112 769.566 609.155 769.566 607.972C769.566 606.791 770.523 605.833 771.704 605.833H796.642V610.112Z" fill="#80888B"/>
<path d="M814.992 610.112H796.643V605.833H814.992C816.173 605.833 817.13 606.791 817.13 607.972C817.13 609.155 816.173 610.112 814.992 610.112Z" fill="#A9AAAA"/>
<path d="M796.642 623.533H771.704C770.523 623.533 769.566 622.574 769.566 621.392C769.566 620.21 770.523 619.253 771.704 619.253H796.642V623.533Z" fill="#80888B"/>
<path d="M814.992 623.533H796.643V619.253H814.992C816.173 619.253 817.13 620.21 817.13 621.392C817.13 622.574 816.173 623.533 814.992 623.533Z" fill="#A9AAAA"/>
<path d="M796.642 636.95H771.704C770.523 636.95 769.566 635.994 769.566 634.811C769.566 633.628 770.523 632.671 771.704 632.671H796.642V636.95Z" fill="#80888B"/>
<path d="M814.992 636.95H796.643V632.671H814.992C816.173 632.671 817.13 633.628 817.13 634.811C817.13 635.994 816.173 636.95 814.992 636.95Z" fill="#A9AAAA"/>
<path d="M796.642 650.369H771.704C770.523 650.369 769.566 649.413 769.566 648.231C769.566 647.05 770.523 646.09 771.704 646.09H796.642V650.369Z" fill="#80888B"/>
<path d="M814.992 650.369H796.643V646.09H814.992C816.173 646.09 817.13 647.05 817.13 648.231C817.13 649.413 816.173 650.369 814.992 650.369Z" fill="#A9AAAA"/>
<path d="M823.766 658.538H884.598V597.667H823.766V658.538Z" fill="#1D2A30"/>
<path d="M884.598 658.538H823.766V597.825H850.711V597.667H884.598V620.737V621.287V658.538ZM874.296 604.307C873.115 604.307 872.158 605.262 872.158 606.444V649.758C872.158 650.94 873.115 651.897 874.296 651.897C875.477 651.897 876.436 650.94 876.436 649.758V606.444C876.436 605.262 875.477 604.307 874.296 604.307ZM860.886 604.307C859.705 604.307 858.748 605.262 858.748 606.444V649.758C858.748 650.94 859.705 651.897 860.886 651.897C862.067 651.897 863.024 650.94 863.024 649.758V606.444C863.024 605.262 862.067 604.307 860.886 604.307ZM847.475 604.307C846.294 604.307 845.337 605.262 845.337 606.444V649.758C845.337 650.94 846.294 651.897 847.475 651.897C848.656 651.897 849.613 650.94 849.613 649.758V606.444C849.613 605.262 848.656 604.307 847.475 604.307ZM834.065 604.307C832.884 604.307 831.927 605.262 831.927 606.444V649.758C831.927 650.94 832.884 651.897 834.065 651.897C835.246 651.897 836.203 650.94 836.203 649.758V606.444C836.203 605.262 835.246 604.307 834.065 604.307Z" fill="#758288"/>
<path d="M874.294 651.897C873.113 651.897 872.156 650.94 872.156 649.758V606.444C872.156 605.262 873.113 604.307 874.294 604.307C875.475 604.307 876.435 605.262 876.435 606.444V649.758C876.435 650.94 875.475 651.897 874.294 651.897Z" fill="#59656A"/>
<path d="M860.884 651.897C859.703 651.897 858.746 650.94 858.746 649.758V606.444C858.746 605.262 859.703 604.307 860.884 604.307C862.065 604.307 863.022 605.262 863.022 606.444V649.758C863.022 650.94 862.065 651.897 860.884 651.897Z" fill="#59656A"/>
<path d="M847.474 651.897C846.293 651.897 845.336 650.94 845.336 649.758V606.444C845.336 605.262 846.293 604.307 847.474 604.307C848.655 604.307 849.612 605.262 849.612 606.444V649.758C849.612 650.94 848.655 651.897 847.474 651.897Z" fill="#59656A"/>
<path d="M834.066 651.897C832.885 651.897 831.928 650.94 831.928 649.758V606.444C831.928 605.262 832.885 604.307 834.066 604.307C835.247 604.307 836.204 605.262 836.204 606.444V649.758C836.204 650.94 835.247 651.897 834.066 651.897Z" fill="#59656A"/>
<path d="M729.047 597.825H789.879V536.955H729.047V597.825Z" fill="#1D2A30"/>
<path d="M789.879 597.825H729.047V536.954H789.879V597.825ZM762.756 589.658V592.786C762.756 593.748 763.537 594.533 764.501 594.533H784.843C785.805 594.533 786.586 593.748 786.586 592.786V541.995C786.586 541.031 785.805 540.251 784.843 540.251H764.501C763.537 540.251 762.756 541.031 762.756 541.995V545.119H737.821C736.64 545.119 735.683 546.079 735.683 547.26C735.683 548.442 736.64 549.4 737.821 549.4H762.756V558.54H737.821C736.64 558.54 735.683 559.497 735.683 560.679C735.683 561.863 736.64 562.819 737.821 562.819H762.756V571.958H737.821C736.64 571.958 735.683 572.918 735.683 574.1C735.683 575.282 736.64 576.237 737.821 576.237H762.756V585.379H737.821C736.64 585.379 735.683 586.337 735.683 587.519C735.683 588.698 736.64 589.658 737.821 589.658H762.756Z" fill="#BDC1C2"/>
<path d="M784.842 594.533H764.499C763.535 594.533 762.754 593.748 762.754 592.787V589.658H781.105C782.284 589.658 783.241 588.698 783.241 587.519C783.241 586.337 782.284 585.379 781.105 585.379H762.754V576.237H781.105C782.284 576.237 783.241 575.282 783.241 574.1C783.241 572.918 782.284 571.959 781.105 571.959H762.754V562.819H781.105C782.284 562.819 783.241 561.863 783.241 560.679C783.241 559.498 782.284 558.54 781.105 558.54H762.754V549.4H781.105C782.284 549.4 783.241 548.442 783.241 547.261C783.241 546.079 782.284 545.119 781.105 545.119H762.754V541.996C762.754 541.031 763.535 540.251 764.499 540.251H784.842C785.803 540.251 786.585 541.031 786.585 541.996V592.787C786.585 593.748 785.803 594.533 784.842 594.533Z" fill="#E1E3E3"/>
<path d="M762.755 549.4H737.82C736.639 549.4 735.682 548.442 735.682 547.26C735.682 546.079 736.639 545.119 737.82 545.119H762.755V549.4Z" fill="#93989A"/>
<path d="M781.105 549.4H762.754V545.119H781.105C782.284 545.119 783.241 546.079 783.241 547.26C783.241 548.442 782.284 549.4 781.105 549.4Z" fill="#B1B2B2"/>
<path d="M762.755 562.819H737.82C736.639 562.819 735.682 561.863 735.682 560.679C735.682 559.498 736.639 558.54 737.82 558.54H762.755V562.819Z" fill="#93989A"/>
<path d="M781.105 562.819H762.754V558.54H781.105C782.284 558.54 783.241 559.498 783.241 560.679C783.241 561.863 782.284 562.819 781.105 562.819Z" fill="#B1B2B2"/>
<path d="M762.755 576.237H737.82C736.639 576.237 735.682 575.282 735.682 574.1C735.682 572.918 736.639 571.958 737.82 571.958H762.755V576.237Z" fill="#93989A"/>
<path d="M781.105 576.237H762.754V571.958H781.105C782.284 571.958 783.241 572.918 783.241 574.1C783.241 575.282 782.284 576.237 781.105 576.237Z" fill="#B1B2B2"/>
<path d="M762.755 589.658H737.82C736.639 589.658 735.682 588.698 735.682 587.519C735.682 586.337 736.639 585.379 737.82 585.379H762.755V589.658Z" fill="#93989A"/>
<path d="M781.105 589.658H762.754V585.379H781.105C782.284 585.379 783.241 586.337 783.241 587.519C783.241 588.698 782.284 589.658 781.105 589.658Z" fill="#B1B2B2"/>
<path d="M789.879 597.825H850.71V536.955H789.879V597.825Z" fill="#1D2A30"/>
<path d="M850.711 597.825H789.879V536.954H850.711V597.825ZM840.411 543.592C839.23 543.592 838.273 544.552 838.273 545.734V589.045C838.273 590.227 839.23 591.185 840.411 591.185C841.592 591.185 842.55 590.227 842.55 589.045V545.734C842.55 544.552 841.592 543.592 840.411 543.592ZM827.001 543.592C825.82 543.592 824.863 544.552 824.863 545.734V589.045C824.863 590.227 825.82 591.185 827.001 591.185C828.182 591.185 829.139 590.227 829.139 589.045V545.734C829.139 544.552 828.182 543.592 827.001 543.592ZM813.591 543.592C812.408 543.592 811.451 544.552 811.451 545.734V589.045C811.451 590.227 812.408 591.185 813.591 591.185C814.772 591.185 815.729 590.227 815.729 589.045V545.734C815.729 544.552 814.772 543.592 813.591 543.592ZM800.179 543.592C799 543.592 798.04 544.552 798.04 545.734V589.045C798.04 590.227 799 591.185 800.179 591.185C801.36 591.185 802.317 590.227 802.317 589.045V545.734C802.317 544.552 801.36 543.592 800.179 543.592Z" fill="#8E989B"/>
<path d="M840.41 591.185C839.229 591.185 838.271 590.227 838.271 589.045V545.734C838.271 544.552 839.229 543.592 840.41 543.592C841.591 543.592 842.548 544.552 842.548 545.734V589.045C842.548 590.227 841.591 591.185 840.41 591.185Z" fill="#6E767B"/>
<path d="M827.001 591.185C825.82 591.185 824.863 590.227 824.863 589.045V545.734C824.863 544.552 825.82 543.592 827.001 543.592C828.182 543.592 829.139 544.552 829.139 545.734V589.045C829.139 590.227 828.182 591.185 827.001 591.185Z" fill="#6E767B"/>
<path d="M813.589 591.185C812.406 591.185 811.449 590.227 811.449 589.045V545.734C811.449 544.552 812.406 543.592 813.589 543.592C814.77 543.592 815.728 544.552 815.728 545.734V589.045C815.728 590.227 814.77 591.185 813.589 591.185Z" fill="#6E767B"/>
<path d="M800.177 591.185C798.998 591.185 798.039 590.227 798.039 589.045V545.734C798.039 544.552 798.998 543.592 800.177 543.592C801.358 543.592 802.315 544.552 802.315 545.734V589.045C802.315 590.227 801.358 591.185 800.177 591.185Z" fill="#6E767B"/>
<path d="M900.559 792.243L901.978 790.636C899.293 790.932 896.793 791.123 894.523 791.18C881.872 791.49 873.827 786.447 867.138 781.401C858.318 774.751 851.862 768.097 840.324 773.731C820.043 783.633 775.133 790.634 752.792 791.18C740.142 791.49 732.096 786.447 725.408 781.401C716.588 774.751 710.132 768.097 698.594 773.731C678.311 783.633 633.402 790.634 611.06 791.18C598.411 791.49 590.366 786.447 583.677 781.401C574.857 774.751 568.399 768.097 556.861 773.731C536.58 783.633 491.672 790.634 469.327 791.18C456.679 791.49 448.634 786.447 441.947 781.401C433.125 774.751 426.669 768.097 415.131 773.731C394.848 783.633 349.939 790.634 327.597 791.18C314.948 791.49 306.903 786.447 300.214 781.401C291.394 774.751 284.936 768.097 273.401 773.731C262.655 778.976 238.482 782.37 218.123 784.402L240.017 793.546C253.668 794.644 266.391 795.064 273.401 793.776C283.015 792.006 289.105 793.096 295.976 794.7L307.614 793.081H331.583L368.515 787.811L381.967 793.434L402.022 793.788L423.545 790.427L444.823 791.843L463.655 794.32L480.288 792.198L499.12 790.251L523.333 793.081L547.299 792.902L570.291 790.78L586.678 792.551L607.956 793.788L645.62 789.032L664.696 793.081L686.955 793.257L711.657 790.605H723.397L749.076 793.434L762.528 792.373L786.743 789.032L809.73 793.788L830.521 793.081L850.086 790.427L873.566 791.135L893.62 793.788L900.559 792.243Z" fill="#D9FF6A"/>
<path d="M821.018 792.046C813.056 792.046 806.96 789.074 801.863 785.096C816.816 782.129 831.113 778.23 840.326 773.731C843.375 772.242 846.067 771.611 848.543 771.611C855.44 771.611 860.651 776.508 867.14 781.401C868.209 782.21 869.316 783.016 870.466 783.8C852.722 788.622 834.149 791.618 822.122 792.029C821.749 792.039 821.382 792.046 821.018 792.046ZM679.287 792.046C671.325 792.046 665.227 789.074 660.132 785.096C675.086 782.129 689.381 778.23 698.596 773.731C701.643 772.242 704.336 771.611 706.812 771.611C713.707 771.611 718.921 776.508 725.41 781.401C726.483 782.21 727.587 783.018 728.742 783.804C710.994 788.622 692.421 791.619 680.389 792.029C680.018 792.039 679.652 792.046 679.287 792.046ZM537.555 792.046C529.595 792.046 523.497 789.074 518.4 785.096C533.355 782.129 547.65 778.23 556.863 773.731C559.912 772.242 562.604 771.611 565.08 771.611C571.977 771.611 577.188 776.508 583.679 781.401C584.751 782.21 585.857 783.018 587.012 783.804C569.264 788.622 550.688 791.619 538.659 792.029C538.286 792.039 537.919 792.046 537.555 792.046ZM395.824 792.046C387.865 792.046 381.767 789.074 376.669 785.096C391.623 782.129 405.918 778.23 415.133 773.731C418.18 772.242 420.873 771.611 423.349 771.611C430.247 771.611 435.458 776.508 441.949 781.401C443.02 782.21 444.124 783.018 445.279 783.804C427.531 788.622 408.958 791.619 396.929 792.029C396.558 792.039 396.189 792.046 395.824 792.046ZM254.094 792.046C244.675 792.046 237.863 787.884 232.232 782.82C248.67 780.752 265.072 777.797 273.403 773.731C276.449 772.242 279.143 771.611 281.619 771.611C288.514 771.611 293.725 776.508 300.216 781.401C301.288 782.21 302.394 783.018 303.549 783.804C285.801 788.622 267.228 791.619 255.198 792.029C254.825 792.039 254.458 792.046 254.094 792.046Z" fill="#8DAEE0"/>
<path d="M963.82 786.155C934.471 786.155 929.905 790.456 909.624 795.618C889.341 800.78 844.454 802.216 822.121 802.502C809.767 802.66 801.803 800.546 795.208 798.435C786.144 795.532 779.664 792.63 767.922 795.618C747.641 800.78 702.731 802.216 680.388 802.502C668.036 802.66 660.072 800.546 653.478 798.435C644.412 795.532 637.932 792.63 626.192 795.618C605.909 800.78 561 802.216 538.658 802.502C526.306 802.66 518.342 800.546 511.745 798.435C502.682 795.532 496.201 792.63 484.462 795.618C464.178 800.78 419.268 802.216 396.928 802.502C384.573 802.66 376.609 800.546 370.015 798.435C360.949 795.532 354.469 792.63 342.729 795.618C322.446 800.78 277.537 802.216 255.197 802.502C242.843 802.66 234.879 800.546 228.285 798.435C219.219 795.532 212.74 792.63 200.999 795.618C180.716 800.78 112.586 786.155 112.586 786.155C112.586 786.155 180.716 781.586 200.999 767.881C212.535 760.086 218.993 769.292 227.813 778.497C234.501 785.476 242.549 792.457 255.197 792.029C277.537 791.268 322.446 781.586 342.729 767.881C354.265 760.086 360.723 769.292 369.545 778.497C376.232 785.476 384.279 792.457 396.928 792.029C419.268 791.268 464.178 781.586 484.462 767.881C495.997 760.086 502.455 769.292 511.276 778.497C517.962 785.476 526.009 792.457 538.658 792.029C561 791.268 605.909 781.586 626.192 767.881C637.728 760.086 644.186 769.292 653.006 778.497C659.695 785.476 667.74 792.457 680.388 792.029C702.731 791.268 747.641 781.586 767.922 767.881C779.46 760.086 785.916 769.292 794.738 778.497C801.425 785.476 809.472 792.457 822.121 792.029C844.454 791.268 889.341 781.586 909.624 767.881C929.905 754.175 934.471 786.155 963.82 786.155Z" fill="#D9FF6A"/>
<path d="M820.832 802.51C809.207 802.51 801.572 800.472 795.208 798.435C788.847 796.397 783.756 794.361 777.228 794.361C774.455 794.361 771.424 794.728 767.922 795.618C747.641 800.78 702.731 802.216 680.388 802.502C679.956 802.508 679.523 802.51 679.1 802.51C667.474 802.51 659.839 800.472 653.478 798.435C647.114 796.397 642.026 794.361 635.495 794.361C632.723 794.361 629.691 794.728 626.192 795.618C605.909 800.78 561 802.216 538.658 802.502C538.223 802.508 537.793 802.51 537.369 802.51C525.744 802.51 518.109 800.472 511.745 798.435C505.384 796.397 500.293 794.361 493.765 794.361C490.992 794.361 487.961 794.728 484.462 795.618C464.178 800.78 419.268 802.216 396.928 802.502C396.493 802.508 396.063 802.51 395.639 802.51C384.013 802.51 376.379 800.472 370.015 798.435C363.651 796.397 358.563 794.361 352.034 794.361C349.262 794.361 346.228 794.728 342.729 795.618C322.446 800.78 277.537 802.216 255.197 802.502C254.763 802.508 254.33 802.51 253.906 802.51C242.283 802.51 234.648 800.472 228.285 798.435C221.921 796.397 216.832 794.361 210.303 794.361C207.531 794.361 204.499 794.728 200.999 795.618C197.957 796.393 193.838 796.722 189.035 796.722C161.811 796.722 112.586 786.155 112.586 786.155C112.586 786.155 180.716 781.586 200.999 767.881C204.046 765.821 206.739 764.949 209.215 764.949C216.112 764.949 221.322 771.723 227.813 778.497C234.304 785.272 242.077 792.046 254.093 792.046C254.457 792.046 254.824 792.039 255.197 792.029C277.537 791.268 322.446 781.586 342.729 767.881C345.776 765.821 348.469 764.949 350.946 764.949C357.843 764.949 363.052 771.723 369.545 778.497C376.036 785.272 383.807 792.046 395.823 792.046C396.188 792.046 396.557 792.039 396.928 792.029C419.268 791.268 464.178 781.586 484.462 767.881C487.506 765.821 490.202 764.949 492.676 764.949C499.573 764.949 504.785 771.723 511.276 778.497C517.767 785.272 525.538 792.046 537.554 792.046C537.918 792.046 538.285 792.039 538.658 792.029C561 791.268 605.909 781.586 626.192 767.881C629.239 765.821 631.932 764.949 634.409 764.949C641.306 764.949 646.515 771.723 653.006 778.497C659.497 785.272 667.27 792.046 679.286 792.046C679.651 792.046 680.017 792.039 680.388 792.029C702.731 791.268 747.641 781.586 767.922 767.881C770.969 765.821 773.663 764.949 776.139 764.949C783.036 764.949 788.245 771.723 794.738 778.497C801.23 785.272 809 792.046 821.017 792.046C821.381 792.046 821.748 792.039 822.121 792.029C844.454 791.268 889.341 781.586 909.624 767.881C913.202 765.463 916.293 764.466 919.116 764.466C932.289 764.466 939.65 786.155 963.82 786.155C934.471 786.155 929.905 790.456 909.624 795.618C889.341 800.78 844.454 802.216 822.121 802.502C821.686 802.508 821.256 802.51 820.832 802.51Z" fill="#C7D9F2"/>
<path d="M209.887 223.165C209.887 223.165 209.082 213.238 202.505 209.164C195.929 205.087 186.903 193.397 186.903 193.397C186.903 193.397 181.092 199.288 183.989 204.301C186.885 209.313 197.818 214.558 195.747 220.096L209.887 223.165Z" fill="#D9FF6A"/>
<path d="M200.751 217.886C199.343 217.886 197.65 217.715 195.748 217.201C194.22 212.72 186.376 208.432 183.989 204.301C183.412 203.303 183.18 202.269 183.18 201.254C183.177 197.175 186.903 193.397 186.903 193.397C186.903 193.397 195.929 205.087 202.505 209.164C204.626 210.477 206.147 212.401 207.234 214.402C205.959 216.065 205.218 217.214 205.218 217.214C205.218 217.214 203.541 217.886 200.751 217.886Z" fill="#B4CAEC"/>
<path d="M185.976 219.984C185.976 219.984 188.168 214.695 194.517 216.828C200.867 218.958 205.217 217.214 205.217 217.214C205.217 217.214 213.395 204.536 222.174 202.434C230.953 200.331 247.594 189.415 247.594 189.415C247.594 189.415 248.2 200.066 241.907 205.23C236.594 209.592 225.109 213.812 220.236 220.034C218.969 221.653 219.872 224.052 221.871 224.518L234.895 228.322C234.895 228.322 228.468 230.745 227.711 233.104C226.955 235.461 222.684 233.389 222.684 233.389L215.22 230.431C215.22 230.431 199.954 236.658 194.925 224.006C194.925 224.006 183.116 226.022 185.976 219.984Z" fill="#D9FF6A"/>
<path d="M225.873 234.231C224.42 234.231 222.684 233.39 222.684 233.39L215.22 230.431C215.22 230.431 211.463 231.962 207.062 231.964C202.592 231.964 197.459 230.383 194.925 224.006C194.925 224.006 193.031 224.329 190.944 224.329C188.381 224.329 185.526 223.841 185.529 221.669C185.53 221.192 185.668 220.634 185.976 219.984C185.976 219.984 187.495 216.32 191.664 216.32C192.504 216.32 193.452 216.47 194.517 216.828C196.925 217.636 199.046 217.886 200.75 217.886C203.541 217.886 205.217 217.214 205.217 217.214C205.217 217.214 213.395 204.536 222.174 202.434C230.953 200.332 247.594 189.415 247.594 189.415C247.594 189.415 247.61 189.687 247.61 190.168C247.612 192.685 247.19 200.892 241.907 205.23C236.594 209.592 225.109 213.812 220.236 220.035C219.834 220.549 219.652 221.137 219.65 221.719C219.65 222.978 220.504 224.199 221.871 224.518L234.895 228.322C234.895 228.322 228.468 230.745 227.711 233.104C227.436 233.959 226.701 234.231 225.873 234.231Z" fill="#DBE8F7"/>
<path d="M185.937 220.437C185.937 220.437 180.686 221.35 180.876 223.029C180.957 223.736 186.598 223.347 186.598 223.347C186.598 223.347 190.715 222.477 190.645 221.682C190.602 221.205 186.882 220.878 185.937 220.437Z" fill="#D9FF6A"/>
<path d="M234.506 209.906C237.368 208.303 240.027 206.774 241.908 205.23C248.201 200.066 247.596 189.415 247.596 189.415C247.596 189.415 244.707 191.308 240.707 193.669C240.444 197.331 239.212 203.543 234.506 209.906Z" fill="#1D2A30"/>
<path d="M187.745 198.974C188.022 197.946 189.849 198.438 191.894 199.363C188.998 196.105 186.903 193.397 186.903 193.397C186.903 193.397 181.092 199.288 183.989 204.301C185.243 206.471 188.002 208.685 190.561 210.947C185.383 201.81 187.077 201.46 187.745 198.974Z" fill="#1D2A30"/>
<path d="M189.794 219.189C189.751 219.705 189.985 220.149 190.325 220.182C190.666 220.215 190.978 219.819 191.02 219.301C191.062 218.782 190.838 218.339 190.496 218.306C190.155 218.273 189.844 218.67 189.794 219.189Z" fill="#1D2A30"/>
<path d="M189.147 217.722L189.433 217.77C190.464 217.291 191.743 218.009 191.753 218.014L192.087 217.924L191.998 217.59C191.932 217.579 190.486 216.74 189.227 217.32L189.107 217.647L189.147 217.722Z" fill="#1D2A30"/>
<path d="M919.914 429.108C919.914 429.108 918.834 418.84 914.123 414.844C909.413 410.846 902.625 399.04 902.625 399.04C902.625 399.04 898.968 405.353 901.214 410.451C903.459 415.549 911.208 420.606 910.089 426.422L919.914 429.108Z" fill="#D9FF6A"/>
<path d="M914.345 425.763C913.297 425.763 912.059 425.631 910.672 425.243C910.51 425.199 910.352 425.159 910.198 425.126C910.079 419.848 903.292 415.167 901.215 410.451C900.689 409.256 900.487 407.995 900.484 406.763C900.482 402.741 902.627 399.04 902.627 399.04C902.627 399.04 909.414 410.846 914.125 414.844C916.553 416.902 918.015 420.625 918.862 423.751C918.307 424.592 917.997 425.131 917.997 425.131C917.997 425.131 916.627 425.763 914.345 425.763Z" fill="#B4CAEC"/>
<path d="M904.946 427.698C904.946 427.698 906.256 424.008 910.671 425.243C915.083 426.477 917.996 425.131 917.996 425.131C917.996 425.131 923.139 416.18 929.064 414.436C934.989 412.692 945.978 404.648 945.978 404.648C945.978 404.648 946.763 411.903 942.645 415.655C939.168 418.82 931.468 422.108 928.357 426.532C927.547 427.683 928.247 429.289 929.63 429.535L938.663 431.681C938.663 431.681 934.356 433.561 933.922 435.197C933.489 436.836 930.497 435.569 930.497 435.569L925.295 433.811C925.295 433.811 915.081 438.602 911.2 430.134C911.2 430.134 903.203 431.925 904.946 427.698Z" fill="#D9FF6A"/>
<path d="M932.565 436.036C931.601 436.036 930.497 435.568 930.497 435.568L925.294 433.811C925.294 433.811 924.807 434.039 924.004 434.307C922.867 434.69 921.093 435.153 919.179 435.16C919.163 435.16 919.148 435.16 919.133 435.16C916.235 435.162 913.021 434.105 911.199 430.134C911.199 430.134 909.516 430.51 907.863 430.51C906.262 430.51 904.689 430.158 904.697 428.768C904.697 428.465 904.776 428.109 904.945 427.698C904.945 427.698 905.907 424.99 908.958 424.99C909.467 424.99 910.036 425.067 910.67 425.242C912.058 425.631 913.296 425.763 914.343 425.763C916.626 425.763 917.996 425.13 917.996 425.13C917.996 425.13 923.139 416.179 929.064 414.435C934.988 412.691 945.977 404.647 945.977 404.647C945.977 404.647 946.037 405.199 946.037 406.073C946.037 408.377 945.628 412.935 942.645 415.654C939.168 418.82 931.467 422.108 928.357 426.532C928.12 426.87 928.012 427.246 928.012 427.615C928.016 428.506 928.653 429.361 929.63 429.534L938.663 431.68C938.663 431.68 937.05 432.383 935.7 433.306C934.841 433.89 934.091 434.562 933.922 435.197C933.799 435.661 933.471 435.891 933.065 435.983C932.907 436.021 932.738 436.036 932.565 436.036Z" fill="#DBE8F7"/>
<path d="M904.933 428.01C904.933 428.01 901.379 428.818 901.568 429.958C901.647 430.437 905.488 429.976 905.488 429.976C905.488 429.976 908.27 429.238 908.195 428.695C908.149 428.372 905.596 428.278 904.933 428.01Z" fill="#D9FF6A"/>
<path d="M903.497 404.793C903.631 403.717 904.906 404.165 906.352 405.052C904.199 401.775 902.625 399.04 902.625 399.04C902.625 399.04 898.968 405.355 901.214 410.451C902.186 412.659 904.19 414.857 906.058 417.113C902.032 407.818 903.172 407.396 903.497 404.793Z" fill="#1D2A30"/>
<path d="M907.528 427.022C907.515 427.378 907.69 427.672 907.925 427.683C908.158 427.692 908.355 427.413 908.369 427.055C908.38 426.699 908.211 426.407 907.976 426.396C907.741 426.385 907.541 426.666 907.528 427.022Z" fill="#1D2A30"/>
<path d="M907.033 426.042L907.23 426.066C907.917 425.701 908.815 426.145 908.824 426.149L909.048 426.077L908.975 425.853C908.931 425.846 907.913 425.321 907.074 425.767L907.004 425.991L907.033 426.042Z" fill="#1D2A30"/>
</svg>
