<svg width="86" height="100" viewBox="0 0 86 100" fill="none" xmlns="http://www.w3.org/2000/svg">
<path d="M20.136 96.267L20.136 4.875L44.2 4.875C55.3787 4.875 63.656 7.13633 69.032 11.659C74.4933 16.1817 77.224 22.7523 77.224 31.371C77.224 37.1737 75.9013 42.1657 73.256 46.347C70.6107 50.443 66.6853 53.6003 61.48 55.819C56.36 58.0377 50.0027 59.147 42.408 59.147H31.656L31.656 96.267H20.136ZM9 78.859L9 70.539H52.776L52.776 78.859H9ZM9 59.147L9 49.419L38.312 49.419V59.147L9 59.147ZM40.744 49.419C45.9493 49.419 50.344 48.8643 53.928 47.755C57.5973 46.6457 60.4133 44.811 62.376 42.251C64.3387 39.691 65.32 36.1923 65.32 31.755C65.32 25.9523 63.528 21.643 59.944 18.827C56.36 16.011 50.7707 14.603 43.176 14.603L31.656 14.603L31.656 49.419H40.744Z" fill="#717171"/>
<path d="M5.04467 94.6762C48.7843 60.0971 42.5728 29.8057 80.8054 4.67623" stroke="#C8FF26" stroke-width="9" stroke-linecap="round"/>
</svg>
