<svg width="67" height="58" viewBox="0 0 67 58" fill="none" xmlns="http://www.w3.org/2000/svg">
<path d="M17.4713 32.0732C17.5557 32.0778 17.6403 32.0778 17.7247 32.0732H22.4402C22.5246 32.0778 22.6092 32.0778 22.6936 32.0732C23.1141 32.0133 23.5013 31.8113 23.7904 31.5007C24.0796 31.1904 24.2531 30.79 24.2821 30.367C24.311 29.9441 24.1936 29.524 23.9495 29.1771C23.7053 28.8301 23.3493 28.5774 22.9408 28.4611C22.8574 28.4395 22.774 28.4272 22.6936 28.4087H22.4402H17.7247C17.5555 28.4084 17.3871 28.4312 17.2241 28.4766C17.0625 28.5229 16.9076 28.5903 16.7637 28.6771C16.4378 28.8759 16.1815 29.1703 16.0296 29.5201C15.8777 29.8699 15.8378 30.258 15.9152 30.6313C15.9927 31.0047 16.1837 31.3449 16.4622 31.6059C16.7407 31.8665 17.0931 32.0352 17.4713 32.0886V32.0732Z" fill="#999999"/>
<path d="M6.6802 17.2827C6.76431 17.2925 6.84892 17.2977 6.93359 17.2981H11.6615C11.7451 17.2976 11.8287 17.2924 11.9118 17.2827C12.3323 17.2229 12.7195 17.0208 13.0086 16.7103C13.2977 16.3997 13.4713 15.9995 13.5002 15.5765C13.5292 15.1536 13.4118 14.7335 13.1676 14.3866C12.9235 14.0396 12.5675 13.7869 12.159 13.6706C12.0787 13.649 11.9952 13.6367 11.9118 13.6182H11.6615H6.93359C6.76437 13.6174 6.59587 13.6402 6.43299 13.686C6.27035 13.7323 6.11452 13.7997 5.96947 13.8865C5.64933 14.0878 5.39854 14.3819 5.2507 14.7295C5.10287 15.0771 5.06508 15.4615 5.14246 15.8312C5.2198 16.2008 5.40858 16.538 5.68348 16.7974C5.95834 17.0569 6.30614 17.2262 6.6802 17.2827Z" fill="#999999"/>
<path d="M10.8316 28.4611C10.7513 28.4395 10.6648 28.4272 10.5844 28.4087H10.331H7.77549C7.60627 28.4084 7.43786 28.4312 7.27486 28.4766C7.11321 28.5229 6.9584 28.5903 6.81443 28.6771C6.4886 28.8759 6.23225 29.1703 6.08037 29.5201C5.92852 29.8699 5.88856 30.258 5.966 30.6313C6.04344 31.0047 6.23447 31.3449 6.51299 31.6059C6.7915 31.8665 7.14393 32.0352 7.5221 32.0886C7.60649 32.0932 7.69107 32.0932 7.77549 32.0886H10.331C10.4154 32.0932 10.5 32.0932 10.5844 32.0886C11.0049 32.0288 11.3921 31.8267 11.6812 31.5161C11.9703 31.2058 12.1439 30.8054 12.1728 30.3825C12.2018 29.9595 12.0844 29.5394 11.8402 29.1925C11.5961 28.8456 11.24 28.5928 10.8316 28.4766V28.4611Z" fill="#999999"/>
<path d="M20.0732 42.1724C19.9929 42.1508 19.9094 42.1384 19.826 42.123L19.5757 42.1045H17.0171C16.6782 42.1045 16.3458 42.1973 16.0561 42.3728C15.7301 42.5718 15.4738 42.8667 15.3221 43.2165C15.1704 43.5666 15.1307 43.9549 15.2085 44.3285C15.2863 44.7017 15.4778 45.0419 15.7567 45.3026C16.0356 45.5632 16.3884 45.7316 16.7668 45.7844C16.8502 45.7844 16.9337 45.7844 17.0171 45.8029H19.5757C19.6591 45.8029 19.7426 45.8029 19.826 45.7844C19.9934 45.7625 20.1568 45.7168 20.3112 45.6487C20.6612 45.4957 20.9553 45.2387 21.1534 44.9127C21.3515 44.5867 21.4439 44.2072 21.4178 43.8269C21.3918 43.4466 21.2486 43.0832 21.008 42.7871C20.7673 42.491 20.4408 42.2763 20.0732 42.1724Z" fill="#999999"/>
<path d="M65.0067 22.3386C65.0083 22.3232 65.0083 22.3077 65.0067 22.2923C65.0098 22.2471 65.0098 22.2018 65.0067 22.1566C64.9619 21.8696 64.8328 21.6024 64.6359 21.3885C64.5648 21.3094 64.4823 21.2409 64.3918 21.1849L64.3269 21.1387H64.2991L51.5678 13.7912C51.5029 13.7604 51.4411 13.7233 51.3731 13.6987C51.2387 13.6455 51.0971 13.6132 50.9528 13.603H19.5726C19.4044 13.6024 19.2369 13.6252 19.0751 13.6709C18.9124 13.7172 18.7566 13.7846 18.6115 13.8714C18.2856 14.0705 18.0293 14.3651 17.8776 14.7152C17.7259 15.0652 17.6862 15.4535 17.764 15.8269C17.8418 16.2003 18.0332 16.5405 18.3122 16.8012C18.5911 17.0618 18.9439 17.2301 19.3223 17.2829C19.4054 17.2927 19.4889 17.2978 19.5726 17.2984H28.1755L28.4845 17.3292C28.548 17.3393 28.6109 17.3527 28.673 17.3693C29.0406 17.4732 29.3671 17.6879 29.6077 17.9841C29.8484 18.2803 29.9916 18.6434 30.0176 19.0239C30.0437 19.4044 29.9513 19.7836 29.7532 20.1096C29.5551 20.4357 29.261 20.6928 28.911 20.8456C28.7555 20.9109 28.5926 20.9565 28.4258 20.9813C28.3424 20.9813 28.2589 20.9813 28.1724 20.9813H6.93394C6.59402 20.9809 6.26048 21.0737 5.96982 21.2497C5.63797 21.4464 5.3759 21.7416 5.22015 22.0941C5.06441 22.4467 5.02276 22.8389 5.101 23.2162C5.17924 23.5935 5.37349 23.9369 5.65663 24.1987C5.93978 24.4606 6.29774 24.6276 6.68055 24.6767C6.76398 24.6767 6.84742 24.6767 6.93394 24.6952H32.5048L32.8138 24.7229L33.0023 24.763C33.37 24.867 33.6963 25.0817 33.937 25.3778C34.1777 25.674 34.3208 26.0372 34.3468 26.4176C34.373 26.7981 34.2807 27.1773 34.0826 27.5034C33.8845 27.8295 33.5903 28.0865 33.2402 28.2394C33.0857 28.3074 32.9225 28.3531 32.7551 28.3751C32.6716 28.3751 32.5882 28.3751 32.5048 28.3936H28.7039C28.5347 28.3933 28.3663 28.4161 28.2033 28.4614C28.0416 28.5077 27.8868 28.5752 27.7429 28.6619C27.417 28.8608 27.1607 29.1553 27.0088 29.5051C26.857 29.8548 26.817 30.2429 26.8944 30.6162C26.9719 30.9896 27.1629 31.3298 27.4414 31.5908C27.7199 31.8514 28.0724 32.0201 28.4505 32.0735C28.5349 32.0781 28.6195 32.0781 28.7039 32.0735H38.0793C38.4746 32.0735 38.8537 31.9171 39.1337 31.6383C39.4134 31.3594 39.571 30.9812 39.5719 30.5867V25.3584C39.5719 25.3093 39.5849 25.261 39.6096 25.2185C39.634 25.176 39.6692 25.1406 39.7119 25.1159C39.7545 25.0913 39.8027 25.0782 39.8518 25.078C39.901 25.0778 39.9495 25.0904 39.9921 25.1147L46.5432 28.8933C47.4109 29.3931 48.1315 30.1125 48.6318 30.9791C49.1318 31.8455 49.3942 32.8286 49.3923 33.8286V37.1353C49.392 37.6155 49.265 38.0875 49.0246 38.5033C48.7839 38.9194 48.4378 39.2649 48.0209 39.5052C47.6044 39.7454 47.1316 39.8722 46.6504 39.8725C46.1693 39.8728 45.6965 39.747 45.2793 39.5073L39.8932 36.395C39.8015 36.3435 39.7221 36.2731 39.6596 36.1886C39.5972 36.1041 39.5536 36.0072 39.5317 35.9045C39.4619 35.5695 39.2783 35.2691 39.0119 35.0538C38.7456 34.8385 38.4128 34.7216 38.0701 34.7231H14.6407C14.4726 34.7225 14.3051 34.7453 14.1432 34.791C13.9806 34.8373 13.8247 34.9048 13.6797 34.9915C13.3581 35.1932 13.1064 35.4887 12.9586 35.8382C12.8108 36.1874 12.774 36.5736 12.8532 36.9443C12.9324 37.3151 13.1238 37.6529 13.4015 37.9114C13.6792 38.1702 14.0298 38.3373 14.4059 38.3907C14.489 38.4006 14.5725 38.4055 14.6562 38.4061H30.4684L30.7774 38.437C30.8392 38.437 30.9041 38.4586 30.9659 38.4771C31.3336 38.581 31.6599 38.7957 31.9006 39.0918C32.1414 39.3879 32.2844 39.7513 32.3104 40.1316C32.3367 40.512 32.2443 40.8914 32.0462 41.2174C31.8481 41.5434 31.5539 41.8007 31.2038 41.9534C31.0484 42.0188 30.8854 42.0641 30.7187 42.0891C30.6352 42.0891 30.5487 42.0891 30.4653 42.0891H25.7868C25.4469 42.0888 25.1134 42.1813 24.8227 42.3575C24.4968 42.5564 24.2405 42.8513 24.0888 43.2014C23.9371 43.5512 23.8974 43.9395 23.9752 44.3131C24.053 44.6863 24.2444 45.0265 24.5234 45.2872C24.8023 45.5478 25.1551 45.7163 25.5335 45.769C25.6169 45.769 25.7003 45.769 25.7868 45.7875H50.9528L51.0672 45.7721C51.1728 45.7564 51.2764 45.7295 51.3762 45.6919L51.4812 45.6425C51.5903 45.5953 51.6941 45.5364 51.7902 45.4667L64.2744 38.2735C64.3331 38.2334 64.398 38.1964 64.4536 38.1532C64.6789 37.9706 64.8454 37.726 64.9326 37.4499C64.974 37.3117 64.9959 37.1686 64.9975 37.0242V22.3694C64.999 22.3587 65.0021 22.3483 65.0067 22.3386ZM51.336 16.9868L60.2974 22.1535C60.3351 22.1755 60.3666 22.207 60.3885 22.2449C60.4102 22.2828 60.4216 22.3257 60.4216 22.3694C60.4216 22.4131 60.4102 22.4561 60.3885 22.4939C60.3666 22.5318 60.3351 22.5633 60.2974 22.5853L58.5391 23.6002C58.3911 23.6851 58.2233 23.7299 58.0524 23.7299C57.8815 23.7299 57.7137 23.6851 57.5657 23.6002L48.6476 18.4582C48.6046 18.4336 48.5688 18.3981 48.5441 18.3554C48.519 18.3125 48.5061 18.264 48.5061 18.2145C48.5061 18.165 48.519 18.1164 48.5441 18.0736C48.5688 18.0308 48.6046 17.9954 48.6476 17.9708L50.3533 16.9868C50.5032 16.9019 50.6725 16.8573 50.8447 16.8573C51.0168 16.8573 51.1861 16.9019 51.336 16.9868ZM50.3595 27.7551L41.4383 22.6131C41.3954 22.5885 41.3595 22.5531 41.3348 22.5103C41.3098 22.4675 41.2968 22.4189 41.2968 22.3694C41.2968 22.3199 41.3098 22.2713 41.3348 22.2286C41.3595 22.1858 41.3954 22.1503 41.4383 22.1257L43.1441 21.1448C43.2933 21.0584 43.463 21.0129 43.6354 21.0129C43.8078 21.0129 43.9775 21.0584 44.1267 21.1448L53.0881 26.3084C53.1258 26.3304 53.1573 26.3619 53.1793 26.3998C53.2009 26.4377 53.2123 26.4806 53.2123 26.5243C53.2123 26.568 53.2009 26.611 53.1793 26.6489C53.1573 26.6868 53.1258 26.7183 53.0881 26.7403L51.3298 27.7551C51.1821 27.8395 51.0149 27.8839 50.8447 27.8839C50.6744 27.8839 50.5072 27.8395 50.3595 27.7551ZM62.1205 35.8151C62.1209 35.9317 62.0903 36.0461 62.0316 36.147C61.9728 36.2478 61.8885 36.3314 61.7868 36.3888L53.289 41.2902C53.1876 41.3479 53.073 41.3781 52.9562 41.3778C52.8393 41.3772 52.725 41.3463 52.624 41.288C52.5229 41.2297 52.4389 41.1458 52.3805 41.045C52.3221 40.9441 52.2912 40.83 52.2908 40.7134V30.9106C52.2908 30.794 52.3214 30.6795 52.3795 30.5784C52.4373 30.4772 52.5208 30.3929 52.6215 30.3338L54.9113 29.0167C54.9113 30.7163 54.9113 33.1377 54.9113 34.3499C54.9113 34.4267 54.9317 34.5023 54.97 34.5689C55.0086 34.6355 55.0639 34.6908 55.1307 34.7293C55.1974 34.7679 55.2731 34.7879 55.3501 34.7879C55.427 34.7879 55.5027 34.7679 55.5695 34.7293L59.1355 32.7027C59.2446 32.641 59.3354 32.5513 59.3985 32.4427C59.4615 32.3344 59.4946 32.2111 59.4939 32.0858V26.3794L61.1163 25.454C61.2176 25.3963 61.3323 25.3661 61.4491 25.3665C61.5659 25.3669 61.6802 25.3978 61.7812 25.4561C61.8823 25.5145 61.9663 25.5983 62.0247 25.6991C62.0832 25.7999 62.1141 25.9143 62.1144 26.0308L62.1205 35.8151Z" fill="#C8FF28"/>
<path d="M2.1821 8.60584H0.450928L3.08873 0.978516H5.17062L7.80468 8.60584H6.07353L4.15953 2.72148H4.09983L2.1821 8.60584ZM2.0739 5.60778H6.16305V6.8666H2.0739V5.60778ZM8.72436 0.978516H10.7167L12.821 6.10313H12.9105L15.0148 0.978516H17.0071V8.60584H15.4401V3.64136H15.3767L13.3993 8.5686H12.3322L10.3548 3.62276H10.2914V8.60584H8.72436V0.978516ZM18.3382 8.60584V0.978516H21.3976C21.9597 0.978516 22.4286 1.06169 22.8042 1.22804C23.1797 1.39439 23.4621 1.6253 23.6511 1.92076C23.8401 2.21373 23.9347 2.5514 23.9347 2.93376C23.9347 3.2317 23.875 3.49364 23.7556 3.71959C23.6362 3.94303 23.472 4.12678 23.2631 4.27077C23.0566 4.41229 22.8203 4.51285 22.5542 4.57244V4.64694C22.8452 4.65934 23.1176 4.74126 23.3713 4.89275C23.6275 5.0442 23.8352 5.25648 23.9943 5.52959C24.1535 5.8002 24.2331 6.123 24.2331 6.4979C24.2331 6.90259 24.1324 7.26386 23.9309 7.58166C23.7319 7.89697 23.4372 8.14651 23.0467 8.33023C22.6561 8.51398 22.1749 8.60584 21.6028 8.60584H18.3382ZM19.9537 7.28743H21.2707C21.7209 7.28743 22.0492 7.20177 22.2557 7.03045C22.4621 6.85666 22.5654 6.62575 22.5654 6.33775C22.5654 6.1267 22.5144 5.94048 22.4124 5.7791C22.3104 5.61771 22.1649 5.49109 21.9759 5.39923C21.7893 5.30737 21.5667 5.26144 21.308 5.26144H19.9537V7.28743ZM19.9537 4.17021H21.1513C21.3727 4.17021 21.5692 4.13175 21.7408 4.05476C21.9149 3.97533 22.0517 3.86358 22.1512 3.71959C22.2532 3.57557 22.3042 3.40302 22.3042 3.2019C22.3042 2.92631 22.2059 2.7041 22.0094 2.53526C21.8154 2.36643 21.5393 2.28201 21.1812 2.28201H19.9537V4.17021ZM25.2843 8.60584V0.978516H30.4331V2.30808H26.8999V4.12552H30.1682V5.45509H26.8999V7.27626H30.448V8.60584H25.2843ZM31.7174 8.60584V0.978516H34.7321C35.309 0.978516 35.8016 1.08155 36.2095 1.28763C36.6199 1.49122 36.9323 1.78048 37.1461 2.15539C37.3624 2.52782 37.4706 2.96604 37.4706 3.47005C37.4706 3.97656 37.3612 4.41229 37.1424 4.77729C36.9233 5.13979 36.6063 5.41786 36.1909 5.61151C35.7781 5.80516 35.2781 5.90202 34.691 5.90202H32.6725V4.60597H34.4299C34.7383 4.60597 34.9944 4.56374 35.1984 4.47935C35.4023 4.39493 35.5541 4.2683 35.6536 4.09945C35.7555 3.93063 35.8065 3.72082 35.8065 3.47005C35.8065 3.2168 35.7555 3.00328 35.6536 2.82948C35.5541 2.65568 35.4011 2.52409 35.1947 2.43471C34.9907 2.34284 34.7333 2.29691 34.4225 2.29691H33.3329V8.60584H31.7174ZM35.8439 5.13482L37.7431 8.60584H35.9595L34.1017 5.13482H35.8439ZM40.3323 8.60584L38.1461 0.978516H39.9108L41.1756 6.27815H41.239L42.6342 0.978516H44.1452L45.537 6.28935H45.6041L46.8689 0.978516H48.6337L46.4474 8.60584H44.873L43.4178 3.61903H43.3582L41.9068 8.60584H40.3323ZM50.0458 8.60584H48.3148L50.9525 0.978516H53.0343L55.6686 8.60584H53.9372L52.0232 2.72148H51.9636L50.0458 8.60584ZM49.9377 5.60778H54.0269V6.8666H49.9377V5.60778ZM55.3606 0.978516H57.1701L58.9127 4.26334H58.9871L60.7297 0.978516H62.5392L59.7519 5.90945V8.60584H58.1479V5.90945L55.3606 0.978516Z" fill="black"/>
<path d="M5.57584 57.9037H2.15015V48.2573H5.60415C6.57618 48.2573 7.41295 48.4504 8.11444 48.8366C8.81593 49.2197 9.35544 49.7709 9.73293 50.4899C10.1136 51.209 10.3039 52.0695 10.3039 53.0711C10.3039 54.0761 10.1136 54.9394 9.73293 55.6618C9.35544 56.3839 8.81281 56.9382 8.10502 57.3244C7.40038 57.7106 6.5573 57.9037 5.57584 57.9037ZM4.19329 56.1563H5.49092C6.09489 56.1563 6.60294 56.0496 7.01501 55.8358C7.43026 55.6193 7.74168 55.2849 7.94931 54.8327C8.16006 54.3774 8.26543 53.7901 8.26543 53.0711C8.26543 52.3583 8.16006 51.7759 7.94931 51.3237C7.74168 50.8715 7.43184 50.5387 7.01974 50.3252C6.60764 50.1115 6.09962 50.0047 5.49562 50.0047H4.19329V56.1563ZM11.8174 57.9037V48.2573H18.329V49.939H13.8605V52.2374H17.994V53.9191H13.8605V56.2223H18.3479V57.9037H11.8174ZM19.9534 57.9037V48.2573H21.9965V56.2223H26.1395V57.9037H19.9534ZM29.5357 48.2573V57.9037H27.4925V48.2573H29.5357ZM32.9627 48.2573L35.2982 55.5863H35.3878L37.7283 48.2573H39.9933L36.6619 57.9037H34.0291L30.6929 48.2573H32.9627ZM41.1565 57.9037V48.2573H47.668V49.939H43.1996V52.2374H47.333V53.9191H43.1996V56.2223H47.6868V57.9037H41.1565ZM49.2925 57.9037V48.2573H53.1051C53.8349 48.2573 54.4576 48.3878 54.9737 48.6484C55.4928 48.9057 55.8874 49.2715 56.1581 49.7459C56.4316 50.217 56.5685 50.7709 56.5685 51.4085C56.5685 52.0492 56.43 52.6001 56.1532 53.0619C55.8763 53.5202 55.4755 53.8719 54.9499 54.1168C54.4279 54.3617 53.7954 54.4842 53.0531 54.4842H50.5004V52.845H52.7228C53.1128 52.845 53.4369 52.7916 53.695 52.6849C53.9527 52.5782 54.1446 52.4181 54.2707 52.2043C54.3995 51.9909 54.4641 51.7256 54.4641 51.4085C54.4641 51.088 54.3995 50.8181 54.2707 50.5982C54.1446 50.3786 53.9511 50.212 53.69 50.0991C53.4323 49.9828 53.1066 49.9248 52.7135 49.9248H51.3356V57.9037H49.2925ZM54.5111 53.5138L56.913 57.9037H54.6575L52.3075 53.5138H54.5111ZM57.0437 48.2573H59.3323L61.5359 52.4116H61.6304L63.834 48.2573H66.1225L62.5976 54.4937V57.9037H60.5686V54.4937L57.0437 48.2573Z" fill="black"/>
</svg>
